<svg width="157" height="151" viewBox="0 0 157 151" fill="none" xmlns="http://www.w3.org/2000/svg">
<path d="M150.249 81.8798L135.836 53.2807C135.607 52.8002 134.671 52.8065 134.449 53.2807L127.993 65.7622L122.046 57.6767C121.903 57.4969 121.722 57.3517 121.516 57.2518C121.309 57.152 121.083 57.1001 120.854 57.1001C120.625 57.1001 120.398 57.152 120.192 57.2518C119.986 57.3517 119.805 57.4969 119.662 57.6767L113.715 65.7622L98.574 41.6721C98.4345 41.4662 98.2461 41.298 98.0258 41.1826C97.8055 41.0671 97.56 41.008 97.3113 41.0105C97.0625 41.013 96.8183 41.077 96.6003 41.1968C96.3823 41.3166 96.1974 41.4885 96.062 41.6972L83.7218 62.0287L74.0851 49.5189C73.9549 49.3323 73.7844 49.1774 73.5861 49.0657C73.3879 48.954 73.167 48.8883 72.9399 48.8735C72.7128 48.8587 72.4853 48.8952 72.2743 48.9803C72.0632 49.0654 71.874 49.1969 71.7207 49.3651L65.8897 56.0721L52.931 35.7563C52.7891 35.5516 52.5986 35.3852 52.3766 35.2723C52.1545 35.1593 51.9079 35.1033 51.6589 35.1092C51.4098 35.1151 51.1662 35.1828 50.9498 35.3062C50.7333 35.4295 50.5509 35.6047 50.419 35.816L33.7361 65.5235L25.4874 52.9196C25.3291 52.6964 25.1176 52.5162 24.8722 52.3953C24.6267 52.2745 24.355 52.2167 24.0816 52.2273C23.8082 52.2379 23.5417 52.3165 23.3064 52.4561C23.071 52.5956 22.8741 52.7916 22.7336 53.0263L7.84999 80.7682C5.39451 94.8543 5.59861 109.173 10.1547 119.758H147.47C151.059 107.469 152.006 94.5604 150.249 81.8798Z" fill="#263238"/>
<path d="M22.5734 55.4682C22.7782 55.3116 23.0235 55.2165 23.2804 55.1943C23.5373 55.172 23.7953 55.2235 24.024 55.3426L25.3146 56.0177C25.546 56.1392 25.8073 56.192 26.0677 56.1697C26.3281 56.1475 26.5767 56.0512 26.7841 55.8921L27.2017 55.5499L25.4873 52.9311C25.3292 52.7078 25.118 52.5274 24.8727 52.4063C24.6274 52.2851 24.3557 52.2271 24.0823 52.2374C23.8089 52.2477 23.5424 52.326 23.3069 52.4652C23.0714 52.6044 22.8743 52.8002 22.7335 53.0347L20.771 56.7085C20.973 56.6683 21.1631 56.5824 21.3268 56.4573L22.5734 55.4682Z" fill="#455A64"/>
<path d="M134.539 53.0284L132.062 57.9519L132.376 58.426C132.451 58.5338 132.55 58.6232 132.664 58.6877C132.779 58.7521 132.907 58.79 133.038 58.7984C133.169 58.8069 133.3 58.7857 133.422 58.7364C133.544 58.6872 133.653 58.6111 133.742 58.5139L134.75 57.3616C134.832 57.2726 134.932 57.2017 135.043 57.1531C135.154 57.1046 135.274 57.0795 135.395 57.0795C135.516 57.0795 135.636 57.1046 135.747 57.1531C135.858 57.2017 135.958 57.2726 136.04 57.3616L136.389 57.7509C136.484 57.8526 136.602 57.9302 136.733 57.977C136.864 58.0239 137.004 58.0387 137.142 58.0203C137.28 58.0018 137.412 57.9506 137.526 57.871C137.64 57.7914 137.734 57.6856 137.799 57.5625L137.887 57.349L135.739 53.0221C135.679 52.915 135.592 52.8259 135.486 52.7641C135.38 52.7023 135.26 52.67 135.137 52.6707C135.015 52.6713 134.895 52.7048 134.79 52.7678C134.684 52.8307 134.598 52.9207 134.539 53.0284Z" fill="#455A64"/>
<path d="M71.7209 49.364L69.2874 52.1617L70.11 53.0252C70.2103 53.1247 70.3294 53.2032 70.4605 53.2561C70.5915 53.3089 70.7317 53.3351 70.873 53.3331C71.0142 53.331 71.1536 53.3008 71.2831 53.2442C71.4125 53.1875 71.5293 53.1056 71.6267 53.0032L72.1573 52.4098C72.2539 52.308 72.3697 52.2265 72.4981 52.1699C72.6264 52.1134 72.7648 52.0829 72.905 52.0802C73.0453 52.0776 73.1846 52.1029 73.315 52.1546C73.4454 52.2063 73.5642 52.2835 73.6645 52.3815C73.774 52.4887 73.9056 52.5707 74.0501 52.6217C74.1946 52.6728 74.3485 52.6916 74.501 52.6769C74.6535 52.6623 74.801 52.6145 74.9331 52.5369C75.0653 52.4593 75.1788 52.3537 75.2659 52.2277L75.671 51.5777L74.0821 49.5179C73.9522 49.3313 73.782 49.1764 73.584 49.0647C73.386 48.9529 73.1654 48.8872 72.9385 48.8725C72.7117 48.8577 72.4844 48.8942 72.2736 48.9793C72.0628 49.0644 71.8739 49.1959 71.7209 49.364Z" fill="#455A64"/>
<path d="M96.084 41.7056L91.4651 49.3169L92.0397 50.3563C92.1374 50.5143 92.2721 50.6461 92.4322 50.7403C92.5923 50.8344 92.773 50.8882 92.9585 50.8969C93.1441 50.9055 93.329 50.8688 93.4971 50.79C93.6653 50.7111 93.8117 50.5924 93.9237 50.4442L94.9505 48.9935C95.0514 48.8615 95.1798 48.7529 95.3267 48.6752C95.4737 48.5976 95.6357 48.5527 95.8017 48.5438C95.9676 48.5348 96.1336 48.562 96.288 48.6234C96.4425 48.6847 96.5818 48.7789 96.6963 48.8993C96.8076 49.0154 96.942 49.107 97.0907 49.1682C97.2394 49.2294 97.3993 49.2589 97.5601 49.2547C97.7209 49.2506 97.8791 49.2129 98.0245 49.1442C98.1699 49.0754 98.2993 48.977 98.4045 48.8554L99.4689 47.5428C99.6575 47.3258 99.9201 47.1866 100.206 47.1523C100.491 47.1181 100.779 47.1912 101.014 47.3576L103.093 48.8491L98.5897 41.6836C98.4502 41.4789 98.2624 41.3117 98.0428 41.1968C97.8233 41.082 97.5788 41.023 97.331 41.0252C97.0833 41.0274 96.8398 41.0906 96.6223 41.2093C96.4048 41.328 96.2199 41.4984 96.084 41.7056Z" fill="#455A64"/>
<path d="M119.662 57.685L117.009 61.2928L119.113 60.1938C119.262 60.1158 119.434 60.0895 119.6 60.119C119.767 60.1485 119.919 60.2322 120.033 60.3571L120.604 61.0291C120.738 61.176 120.923 61.2651 121.121 61.2774C121.32 61.2897 121.515 61.2243 121.665 61.095L122.152 60.668C122.29 60.5511 122.466 60.487 122.647 60.487C122.828 60.487 123.003 60.5511 123.141 60.668L126.209 63.3464L122.042 57.6944C121.901 57.5146 121.72 57.3692 121.515 57.2689C121.309 57.1686 121.083 57.116 120.854 57.1151C120.626 57.1142 120.4 57.165 120.193 57.2637C119.987 57.3623 119.805 57.5064 119.662 57.685Z" fill="#455A64"/>
<path d="M50.4158 35.8149L47.3826 41.2126L47.728 41.6993C47.8475 41.861 48.0003 41.9952 48.1761 42.093C48.3518 42.1908 48.5465 42.2499 48.7469 42.2662C48.9474 42.2826 49.149 42.2559 49.3383 42.1879C49.5276 42.1199 49.7001 42.0122 49.8443 41.872L50.7361 40.9708C51.0007 40.7152 51.3542 40.5724 51.722 40.5724C52.0899 40.5724 52.4434 40.7152 52.708 40.9708L54.6234 42.8893C54.8918 43.1476 55.2509 43.29 55.6233 43.2859C55.9957 43.2818 56.3516 43.1315 56.6142 42.8673L57.1291 42.3241L52.9435 35.7584C52.8025 35.5501 52.6116 35.3804 52.3881 35.265C52.1646 35.1496 51.9157 35.092 51.6643 35.0977C51.4128 35.1033 51.1667 35.1719 50.9486 35.2972C50.7305 35.4225 50.5473 35.6005 50.4158 35.8149Z" fill="#455A64"/>
<g opacity="0.3">
<path opacity="0.3" d="M26.2661 54.1085L20.9626 61.3902H24.0775L21.7602 69.3658L26.6712 64.8913L30.816 70.9232L33.733 65.5224L26.2661 54.1085Z" fill="black"/>
<path opacity="0.3" d="M53.1132 36.041L56.6331 50.9403L50.9717 56.8843L50.2024 74.258L65.8898 56.0711L53.1132 36.041Z" fill="black"/>
<path opacity="0.3" d="M74.5247 50.0925L72.3864 55.3897H75.2407L70.113 67.2369L78.1012 61.3588L81.7436 65.5036L83.7344 62.0371L74.5247 50.0925Z" fill="black"/>
<path opacity="0.3" d="M113.715 65.7705L99.4782 43.1217L102.37 53.8982L97.5032 60.3101L109.507 63.5976L105.648 67.5478L107.677 69.8305L104.549 78.3933L113.715 65.7705Z" fill="black"/>
<path opacity="0.3" d="M122.045 57.6851L119.599 64.367L122.893 63.9556L123.355 72.7539L127.993 65.7674L122.045 57.6851Z" fill="black"/>
<path opacity="0.3" d="M147.47 119.757C151.059 107.468 152.005 94.559 150.246 81.8787L136.785 55.1071L144.355 77.4011L138.845 88.4225L144.961 86.9058L130.624 119.757H147.47Z" fill="black"/>
</g>
<path d="M151.816 102.898C153.885 101.425 153.869 97.6037 151.241 96.7873C153.056 94.9693 152.497 91.06 149.879 90.8213C150.522 89.2137 150.193 87.0188 148.145 86.6137C148.798 84.645 146.977 83.2822 145.15 83.9887C145.071 81.9132 142.132 81.7907 141.473 83.2539C141.507 82.4501 140.305 80.9649 139.535 80.9617C140.867 79.9193 140.496 77.8217 139.356 77.5517C140.911 76.3711 140.075 73.6832 138.22 73.7083C139.476 71.7458 136.81 69.6954 135.161 70.3014C136.103 68.1034 131.729 66.3419 130.784 68.6781C129.114 65.9274 123.383 67.5445 124.149 71.1241C123.852 71.0838 123.549 71.1428 123.289 71.2921C123.028 71.4414 122.824 71.6726 122.709 71.9497C122.593 72.2268 122.572 72.5343 122.649 72.8245C122.726 73.1147 122.897 73.3713 123.135 73.5545C122.7 73.2817 122.175 73.1902 121.672 73.2993C121.17 73.4084 120.73 73.7096 120.447 74.1385C120.496 73.9896 120.511 73.8319 120.491 73.6766C120.471 73.5213 120.417 73.3723 120.332 73.2405C120.248 73.1086 120.135 72.9971 120.003 72.9141C119.87 72.831 119.72 72.7784 119.565 72.7601C121.383 72.0222 120.108 69.3061 118.431 69.4285C120.017 67.3938 116.802 65.0325 115.094 66.6433C114.299 64.775 111.461 65.1675 111.64 67.3593C111.012 66.2163 109.771 66.2979 108.757 66.9071C107.353 67.7486 107.542 69.2495 108.314 70.4647C107.73 69.7676 105.956 69.3846 105.686 70.5369C105.573 70.3861 105.431 70.2599 105.267 70.166C105.104 70.0722 104.923 70.0128 104.735 69.9913C104.548 69.9698 104.359 69.9868 104.178 70.0412C103.998 70.0957 103.83 70.1863 103.686 70.3077C103.162 68.4237 99.7861 68.1757 99.1487 70.4993C97.8487 69.7488 96.4734 71.2089 96.8031 72.4021L78.5189 72.1352C78.7355 70.7316 78.431 69.8179 76.616 69.8807C76.5941 69.0611 75.8624 67.937 75.1151 67.6544C73.8183 67.1646 73.049 68.0689 72.2295 68.7095C72.1148 68.5599 71.9708 68.4352 71.8064 68.3431C71.6419 68.251 71.4605 68.1933 71.273 68.1736C71.0856 68.154 70.8961 68.1727 70.7161 68.2286C70.5361 68.2846 70.3694 68.3766 70.2261 68.4991C70.2104 67.3184 68.3955 67.309 67.6796 67.8711C68.6938 66.8506 69.2025 65.4282 68.0156 64.3009C67.1552 63.4876 65.9683 63.1391 65.1048 64.1188C65.3529 63.1422 65.0703 62.2348 63.9964 61.9208C63.6098 61.8217 63.2023 61.8419 62.8274 61.9786C62.4525 62.1153 62.1277 62.3623 61.8957 62.6869C61.3682 61.8046 60.0117 61.6413 59.0948 62.0275C58.8456 62.1259 58.6192 62.2741 58.4293 62.4631C58.2395 62.6521 58.0903 62.878 57.9909 63.1267C57.8915 63.3755 57.844 63.642 57.8514 63.9098C57.8587 64.1775 57.9207 64.441 58.0335 64.684C56.4196 64.2193 54.5795 66.568 56.206 67.6921C56.0502 67.6759 55.8927 67.6947 55.7449 67.747C55.5972 67.7993 55.463 67.8838 55.3521 67.9945C55.2411 68.1051 55.1562 68.2391 55.1035 68.3867C55.0508 68.5343 55.0316 68.6917 55.0474 68.8476C54.8632 68.3646 54.497 67.973 54.0273 67.757C53.5576 67.5409 53.022 67.5176 52.5354 67.6921C52.7113 67.6048 52.867 67.4814 52.9921 67.33C53.1173 67.1787 53.2092 67.0026 53.262 66.8134C53.3147 66.6242 53.327 66.426 53.2981 66.2317C53.2692 66.0374 53.1998 65.8514 53.0943 65.6856C52.9729 65.5232 52.8194 65.3875 52.6433 65.287C52.4672 65.1865 52.2722 65.1234 52.0707 65.1016C52.3121 64.7443 52.4127 64.3103 52.3533 63.8833C52.0393 60.8343 48.1362 59.3805 46.1235 61.2771C45.9382 59.9897 44.5723 59.6474 43.511 59.773C42.2205 59.9237 41.3319 60.8029 41.5014 61.9114C40.0193 60.9694 36.983 62.3918 37.7742 64.5772C35.9687 64.147 34.5714 66.5962 35.8337 68.0815C34.8195 68.6153 34.5495 70.5652 35.4412 71.2874C34.5997 71.3157 34.0847 72.1164 33.9686 72.8825C34.1475 71.5355 33.9686 69.5039 31.6104 69.4788C31.7051 68.8977 31.6496 68.3021 31.4493 67.7484C31.249 67.1948 30.9105 66.7016 30.466 66.3156C30.0215 65.9296 29.4856 65.6636 28.9094 65.5429C28.3332 65.4222 27.7357 65.4508 27.1736 65.626C27.1736 65.626 26.5456 63.6541 23.8672 63.6478C21.1888 63.6415 20.2907 64.5207 19.9704 65.582C18.3471 64.5835 16.8587 65.1832 16.0611 65.6385C15.4331 66.0028 13.9573 67.2085 14.2085 68.8947C13.6334 68.8125 13.047 68.8643 12.4952 69.0463C11.9434 69.2282 11.4412 69.5353 11.0277 69.9435C10.5899 70.3864 10.2986 70.9529 10.193 71.5667C10.0874 72.1804 10.1728 72.8118 10.4374 73.3755C9.12174 73.2625 8.11066 73.9847 7.43556 75.1213C7.05876 75.7493 6.63172 77.5548 7.5329 78.4686C6.99304 78.639 6.50929 78.9522 6.13287 79.3751C5.75644 79.798 5.50134 80.3147 5.39456 80.8707C5.23756 81.9226 5.65832 82.6887 6.41506 83.3576C5.25012 83.838 4.8796 84.9276 4.96124 86.0517C5.01776 86.8712 5.62692 87.5463 6.08222 87.6594C5.98291 87.8532 5.92955 88.0674 5.92629 88.2852C5.92302 88.503 5.96993 88.7186 6.06338 88.9154C6.5124 89.8322 7.56116 90.0269 8.49374 89.983C7.66164 90.7303 8.49374 91.867 9.22222 92.3756C8.91555 92.1253 8.54402 91.9673 8.15097 91.92C7.75791 91.8728 7.35952 91.9382 7.00224 92.1087C6.20782 92.4227 5.57668 93.2517 5.90638 94.1121C5.51799 94.1596 5.15038 94.3139 4.8444 94.5578C4.53843 94.8017 4.30605 95.1256 4.1731 95.4937C3.92277 96.0604 3.90454 96.7026 4.12233 97.2826C4.34012 97.8626 4.77658 98.3341 5.33804 98.596C4.83651 98.7176 4.39032 99.0041 4.07093 99.4094C3.75154 99.8148 3.57743 100.316 3.5765 100.832C3.5608 101.698 3.8591 102.581 5.36316 102.829C3.83712 103.585 3.11178 107.272 5.44794 107.369C5.13394 107.589 4.126 108.77 4.68178 110.823C4.94554 111.787 6.0728 112.214 6.93316 112.512C6.54066 113.156 6.23294 114.054 6.55636 114.845C6.73674 115.357 7.08033 115.795 7.53423 116.093C7.98813 116.39 8.52717 116.53 9.06836 116.491C9.60216 116.459 9.8722 116.271 10.3401 116.35C11.235 116.5 12.7673 116.868 13.4141 115.982L144.98 114.67C145.514 114.406 145.413 114.456 145.922 114.704C148.042 115.985 151.26 114.283 150.101 111.91C152.359 111.718 152.563 108.911 151.109 107.614C153.32 106.725 153.185 103.551 151.816 102.898Z" fill="#455A64"/>
<path d="M132.508 74.9203C132.324 74.7137 132.102 74.5452 131.854 74.4246C131.605 74.3039 131.335 74.2334 131.059 74.2171C130.783 74.2007 130.507 74.2389 130.246 74.3294C129.985 74.4199 129.744 74.5609 129.538 74.7445C129.386 74.88 129.256 75.0378 129.151 75.2123C128.871 74.9787 128.535 74.8219 128.177 74.7575C127.818 74.693 127.448 74.7231 127.104 74.8448C126.761 74.9664 126.454 75.1755 126.216 75.4513C125.978 75.7272 125.815 76.0603 125.744 76.4181C126.148 75.9369 126.717 75.6244 127.34 75.542C127.858 75.4783 128.383 75.5777 128.842 75.8265C129.302 76.0752 129.672 76.4609 129.902 76.9299C129.916 76.811 129.916 76.6908 129.902 76.5719C129.865 76.2842 129.769 76.0072 129.619 75.7587C129.686 75.678 129.758 75.6025 129.836 75.5326C130.226 75.186 130.714 74.9696 131.233 74.9133C131.752 74.857 132.276 74.9637 132.731 75.2186C132.668 75.1113 132.593 75.0112 132.508 74.9203Z" fill="#37474F"/>
<path d="M110.622 71.2968C110.764 71.1372 110.935 71.007 111.127 70.9136C111.319 70.8203 111.527 70.7656 111.74 70.7528C111.953 70.74 112.166 70.7692 112.367 70.8389C112.569 70.9085 112.755 71.0171 112.914 71.1586C113.032 71.263 113.132 71.3848 113.213 71.5197C113.43 71.3403 113.69 71.2203 113.967 71.1718C114.245 71.1232 114.53 71.1476 114.795 71.2426C115.06 71.3376 115.296 71.5 115.479 71.7137C115.663 71.9275 115.787 72.1853 115.841 72.4617C115.635 72.2154 115.371 72.0245 115.072 71.9062C114.774 71.7879 114.45 71.7461 114.132 71.7844C113.813 71.8228 113.509 71.9402 113.247 72.1259C112.985 72.3116 112.773 72.5598 112.632 72.848C112.621 72.7551 112.621 72.6613 112.632 72.5685C112.66 72.3464 112.733 72.1325 112.848 71.9405C112.799 71.8767 112.743 71.8178 112.682 71.7647C112.381 71.4968 112.004 71.33 111.604 71.2877C111.203 71.2455 110.799 71.3299 110.449 71.5292C110.498 71.4452 110.556 71.3672 110.622 71.2968Z" fill="#37474F"/>
<path d="M151.241 96.7874C153.056 94.9693 152.497 91.06 149.879 90.8214C150.522 89.2137 150.193 87.0189 148.145 86.6138C148.798 84.645 146.977 83.2823 145.15 83.9888C145.071 81.9132 142.132 81.7908 141.473 83.254C141.507 82.4502 140.305 80.9649 139.535 80.9618C140.867 79.9193 140.496 77.8218 139.356 77.5518C140.911 76.3711 140.075 73.6833 138.22 73.7084C139.209 72.1384 137.739 70.537 136.263 70.2544C136.8 70.851 137.287 71.6454 136.891 72.4524C136.543 73.1872 135.598 73.3159 134.97 73.6236C136.461 74.126 137.143 75.6207 136.034 76.93C137.551 77.1216 137.749 79.128 137.14 79.9539C136.766 79.6399 135.993 79.5582 135.428 79.665C134.668 79.8126 134.257 80.1956 133.573 80.9586C134.923 79.9162 136.292 81.9007 135.435 83.0876C136.122 82.7955 137.24 82.7171 137.862 83.8004C138.042 84.1567 138.1 84.5628 138.026 84.9553C137.951 85.3478 137.749 85.7046 137.45 85.9701C137.987 86.1773 138.147 87.0942 138.012 87.5998C137.946 87.9445 137.776 88.2607 137.524 88.5055C137.273 88.7504 136.952 88.9121 136.606 88.9688C138.581 89.4995 136.687 91.8388 135.997 92.5547C137.567 92.4165 138.195 93.5218 138.659 94.7338C138.527 94.3884 139.567 93.7573 139.79 93.6537C140.308 93.4273 140.878 93.349 141.438 93.4276C142.581 93.5815 143.476 94.3853 143.42 95.5879C143.42 95.2928 144.563 95.1232 145.222 95.5283C145.572 95.7359 145.868 96.0233 146.087 96.367C146.305 96.7108 146.439 97.1012 146.478 97.5065C146.607 98.5866 145.592 99.4909 144.707 99.9745C145.592 100.603 146.484 101.077 146.767 102.26C147.112 103.699 145.916 104.214 145.143 105.086C146.001 105.652 146.861 106.028 147.156 107.162C147.52 108.556 146.381 109.19 145.495 109.953C147.728 110.11 148.66 112.996 147.536 114.663C147.423 114.829 147.291 114.98 147.144 115.116C149.046 115.32 151 113.831 150.064 111.9C152.321 111.709 152.526 108.902 151.072 107.605C153.301 106.729 153.166 103.554 151.797 102.895C153.885 101.422 153.86 97.6038 151.241 96.7874Z" fill="#37474F"/>
<path d="M19.6219 109.624C18.5983 107.941 18.7992 106.499 18.9154 104.641C17.1193 105.319 13.4078 104.537 13.3042 102.059C11.6023 102.414 9.72462 102.687 9.48598 100.329C9.32898 98.8064 10.2584 98.0246 11.4234 97.3306C10.2741 97.5567 10.3401 96.0369 10.5599 95.3273C10.8739 94.3602 12.0168 93.7008 13.0405 93.7573C12.3873 92.0334 12.7641 90.0395 15.0061 89.8292C14.287 89.1509 14.2274 87.5087 14.8648 86.7331C15.5022 85.9575 17.8415 85.4771 18.4852 86.4411C18.4475 84.4472 19.0504 83.8537 20.7711 83.0782C19.7444 83.1535 17.8949 82.8615 18.0174 81.4862C17.3894 82.312 16.5824 83.2948 15.3609 82.9745C14.7737 82.8207 14.2839 82.4439 14.3718 81.7751C12.9117 83.3765 10.2145 82.1895 11.6149 80.2459C8.93648 80.3118 10.8456 76.9175 12.9337 77.0337C11.9666 76.4716 11.191 75.8059 11.549 74.6096C11.7247 74.1376 12.0194 73.719 12.4045 73.3944C12.7896 73.0699 13.252 72.8503 13.747 72.757C12.0796 71.8966 11.1062 70.716 11.863 69.303C11.5606 69.471 11.2801 69.6756 11.0277 69.9121C10.5899 70.355 10.2986 70.9216 10.193 71.5353C10.0875 72.1491 10.1728 72.7804 10.4374 73.3442C9.12174 73.2311 8.11066 73.9533 7.43556 75.09C7.05876 75.718 6.63172 77.5235 7.5329 78.4372C6.99304 78.6077 6.50929 78.9209 6.13287 79.3438C5.75644 79.7666 5.50134 80.2834 5.39456 80.8393C5.23756 81.8912 5.65832 82.6574 6.41506 83.3262C5.25012 83.8066 4.8796 84.8962 4.96124 86.0203C5.01776 86.8399 5.62692 87.515 6.08222 87.628C5.98291 87.8219 5.92955 88.036 5.92629 88.2538C5.92302 88.4716 5.96993 88.6873 6.06338 88.884C6.5124 89.8009 7.56116 89.9956 8.49374 89.9516C7.66164 90.6989 8.49374 91.8356 9.22222 92.3443C8.91555 92.0939 8.54403 91.9359 8.15097 91.8887C7.75791 91.8414 7.35952 91.9069 7.00224 92.0774C6.20782 92.3914 5.57668 93.2204 5.90638 94.0807C5.51799 94.1283 5.15039 94.2826 4.84441 94.5265C4.53843 94.7704 4.30605 95.0943 4.1731 95.4623C3.91299 96.0325 3.88956 96.6825 4.10793 97.2699C4.32629 97.8574 4.76865 98.3342 5.33804 98.596C4.83651 98.7177 4.39032 99.0041 4.07093 99.4095C3.75154 99.8148 3.57743 100.316 3.5765 100.832C3.5608 101.698 3.8591 102.581 5.36316 102.829C3.83712 103.586 3.11178 107.272 5.44794 107.369C5.13394 107.589 4.126 108.77 4.68178 110.823C4.94554 111.787 6.0728 112.214 6.93316 112.513C6.54066 113.156 6.23294 114.054 6.55636 114.846C6.73674 115.357 7.08033 115.796 7.53423 116.093C7.98813 116.39 8.52717 116.53 9.06836 116.491C9.60216 116.46 9.8722 116.271 10.3401 116.35C11.235 116.5 12.7673 116.868 13.4141 115.982L20.2939 111.351C20.2562 110.694 20.0395 110.311 19.6219 109.624Z" fill="#37474F"/>
<path d="M42.525 73.6675C42.3698 73.4388 42.1711 73.2429 41.9402 73.091C41.7092 72.9391 41.4506 72.8342 41.1792 72.7823C40.9077 72.7304 40.6286 72.7325 40.3579 72.7885C40.0873 72.8445 39.8303 72.9532 39.6017 73.1086C39.4336 73.2231 39.2834 73.3617 39.1558 73.5199C38.9082 73.2525 38.5954 73.0541 38.248 72.9441C37.9005 72.8342 37.5305 72.8165 37.1741 72.8928C36.8178 72.9692 36.4875 73.1369 36.2156 73.3795C35.9437 73.6221 35.7396 73.9313 35.6233 74.2767C35.9306 73.9971 36.3024 73.7981 36.7054 73.6975C37.1085 73.5969 37.5302 73.5978 37.9328 73.7002C38.3354 73.8025 38.7063 74.0032 39.0124 74.2841C39.3184 74.5649 39.55 74.9174 39.6864 75.3097C39.7098 75.1908 39.7203 75.0698 39.7178 74.9486C39.7178 74.659 39.6579 74.3725 39.542 74.1071C39.6206 74.0362 39.7035 73.9702 39.7901 73.9093C40.2216 73.616 40.7344 73.4655 41.256 73.479C41.7777 73.4925 42.2819 73.6694 42.6977 73.9846C42.6513 73.8732 42.5934 73.7669 42.525 73.6675Z" fill="#37474F"/>
<path d="M44.3086 66.2759C44.4094 66.033 44.5655 65.817 44.7647 65.6451C44.9638 65.4733 45.2003 65.3505 45.4554 65.2864C45.7105 65.2223 45.977 65.2188 46.2337 65.2761C46.4904 65.3334 46.7301 65.45 46.9337 65.6165C47.0846 65.3659 47.2984 65.1589 47.5537 65.0161C47.8091 64.8732 48.0973 64.7994 48.3899 64.8019C48.6825 64.8045 48.9694 64.8833 49.2223 65.0305C49.4752 65.1778 49.6853 65.3884 49.8319 65.6416C49.3989 65.3829 48.8852 65.2945 48.3906 65.3936C47.9804 65.4781 47.607 65.6889 47.3226 65.9963C47.0383 66.3038 46.8572 66.6925 46.8049 67.108C46.7668 67.0192 46.7384 66.9266 46.7201 66.8317C46.673 66.6038 46.673 66.3687 46.7201 66.1409C46.6478 66.0966 46.5722 66.0577 46.4941 66.0247C46.1076 65.8636 45.6803 65.8279 45.2725 65.9225C44.8646 66.0172 44.4967 66.2374 44.2207 66.5522C44.2409 66.4575 44.2703 66.3649 44.3086 66.2759Z" fill="#37474F"/>
<path d="M60.8721 66.3388C61.1027 66.0857 61.4242 65.9344 61.7662 65.9179C62.1081 65.9014 62.4427 66.0211 62.6965 66.2509C62.7896 66.3355 62.869 66.434 62.932 66.5429C63.1055 66.4012 63.3129 66.3071 63.5338 66.2699C63.7547 66.2326 63.9814 66.2535 64.1918 66.3305C64.4022 66.4075 64.5889 66.5379 64.7335 66.7089C64.8782 66.88 64.9759 67.0857 65.017 67.3059C64.7708 67.0086 64.4226 66.8138 64.0404 66.7595C63.7256 66.7161 63.4052 66.7721 63.1237 66.9196C62.8423 67.0671 62.6139 67.2987 62.4704 67.5822C62.4626 67.5092 62.4626 67.4355 62.4704 67.3624C62.4943 67.1862 62.5553 67.0171 62.6494 66.8663C62.6096 66.8155 62.5655 66.7682 62.5175 66.725C62.2808 66.5089 61.9822 66.3726 61.6639 66.3354C61.3455 66.2982 61.0235 66.362 60.7434 66.5178C60.7797 66.4536 60.8228 66.3936 60.8721 66.3388Z" fill="#37474F"/>
<path d="M21.538 29.2818C25.9578 28.5643 28.9592 24.3998 28.2418 19.98C27.5243 15.5602 23.3598 12.5589 18.94 13.2763C14.5202 13.9937 11.5188 18.1583 12.2363 22.5781C12.9537 26.9978 17.1183 29.9992 21.538 29.2818Z" fill="#0A8080"/>
<path opacity="0.65" d="M21.538 29.2818C25.9578 28.5643 28.9592 24.3998 28.2418 19.98C27.5243 15.5602 23.3598 12.5589 18.94 13.2763C14.5202 13.9937 11.5188 18.1583 12.2363 22.5781C12.9537 26.9978 17.1183 29.9992 21.538 29.2818Z" fill="white"/>
<path opacity="0.2" d="M17.2479 25.1639C17.2485 25.2645 17.2816 25.3622 17.3421 25.4425C17.4026 25.5228 17.4874 25.5815 17.5839 25.6098C17.7974 25.6412 18.0549 25.4685 18.2119 25.6098C18.3689 25.7511 18.2527 25.9238 18.2841 26.0934C18.3062 26.1595 18.3462 26.2183 18.3997 26.263C18.4531 26.3078 18.518 26.3368 18.587 26.3469C18.656 26.357 18.7264 26.3477 18.7905 26.3202C18.8545 26.2926 18.9097 26.2478 18.9498 26.1907C19.0094 26.0777 19.0063 25.9395 19.0691 25.8265C19.1121 25.7563 19.1793 25.7043 19.2581 25.6804C19.3368 25.6565 19.4216 25.6623 19.4963 25.6968C19.5711 25.7313 19.6306 25.792 19.6635 25.8674C19.6965 25.9428 19.7006 26.0277 19.6751 26.1059C19.6123 26.2786 19.4302 26.3666 19.2952 26.4859C19.2118 26.5509 19.1462 26.636 19.1045 26.7332C19.0628 26.8303 19.0463 26.9364 19.0565 27.0417C19.0698 27.1457 19.1218 27.2409 19.2021 27.3084C19.2823 27.3759 19.3851 27.4107 19.4898 27.4059C19.6116 27.3725 19.7287 27.3239 19.8384 27.2615C19.9637 27.2122 20.1016 27.2045 20.2316 27.2396C20.3617 27.2746 20.477 27.3505 20.5606 27.4561C20.6234 27.5346 20.6673 27.6288 20.7301 27.7042C20.8342 27.8121 20.9753 27.8766 21.125 27.8848C21.2747 27.8929 21.4219 27.8441 21.5371 27.7482C21.6477 27.6473 21.7245 27.5148 21.757 27.3687C21.7896 27.2226 21.7764 27.0701 21.7192 26.9318C21.669 26.8093 21.5905 26.7025 21.5465 26.5801C21.4999 26.4608 21.4908 26.3301 21.5206 26.2055C21.5503 26.0809 21.6174 25.9684 21.713 25.883C21.8137 25.8047 21.9406 25.7683 22.0675 25.7811C22.1944 25.794 22.3114 25.8552 22.3943 25.9521C22.5262 26.1311 22.498 26.3791 22.5576 26.5801C22.6173 26.781 22.8936 26.9914 23.0506 26.8344C23.2076 26.6774 23.1008 26.4419 23.2484 26.332C23.396 26.2221 23.5624 26.3571 23.6252 26.5079C23.6611 26.6707 23.6748 26.8375 23.666 27.004C23.666 27.1641 23.7602 27.3431 23.9204 27.3682C24.0805 27.3933 24.2344 27.2049 24.3097 27.0322C24.3851 26.8595 24.4385 26.6523 24.6237 26.5832C24.809 26.5141 24.9943 26.624 25.1701 26.5832C25.6097 26.4608 25.3993 25.6632 25.7981 25.4434C26.0493 25.3052 26.3696 25.5031 26.6459 25.4434C26.8203 25.3642 26.9856 25.2663 27.1389 25.1514C27.2289 25.1065 27.3253 25.0758 27.4246 25.0603C28.0405 23.8997 28.3638 22.6063 28.3666 21.2923C28.3654 20.947 28.3434 20.602 28.3007 20.2593C28.1986 19.9348 28.0332 19.6339 27.814 19.3738C27.5648 19.1477 27.3309 18.9054 27.1138 18.6484C26.9725 18.4381 26.894 18.19 26.737 17.9891C26.6694 17.8772 26.5655 17.7919 26.4427 17.7473C26.3198 17.7027 26.1854 17.7016 26.0619 17.7441C25.9798 17.7891 25.9134 17.8579 25.8713 17.9414C25.8293 18.025 25.8136 18.1193 25.8264 18.212C25.8456 18.3063 25.8832 18.3959 25.9371 18.4756C25.9909 18.5554 26.06 18.6237 26.1404 18.6767C26.2754 18.7803 26.4544 18.862 26.5109 19.0158C26.5399 19.0957 26.5425 19.1828 26.5182 19.2642C26.4938 19.3457 26.444 19.4171 26.3759 19.468C26.3084 19.5158 26.2305 19.547 26.1487 19.5591C26.0668 19.5711 25.9833 19.5635 25.9049 19.5371C25.6285 19.4523 25.8107 19.2231 25.8703 19.0284C25.9111 18.9091 25.9017 18.7489 25.7887 18.6956C25.6756 18.6422 25.5532 18.727 25.4401 18.7803C25.352 18.8234 25.2556 18.847 25.1575 18.8494C25.1159 18.8513 25.0743 18.8449 25.0351 18.8306C24.9126 18.7709 24.9189 18.5888 24.9848 18.4663C25.0666 18.358 25.1302 18.2371 25.1732 18.1084C25.1798 18.028 25.1628 17.9475 25.1243 17.8767C25.0859 17.8059 25.0276 17.7478 24.9566 17.7096C24.8127 17.637 24.653 17.6014 24.4919 17.606C24.4054 17.6177 24.3173 17.6094 24.2345 17.5816C24.1518 17.5539 24.0765 17.5074 24.0146 17.4458C23.8858 17.3297 23.7822 17.1884 23.6409 17.0816C23.5085 16.9845 23.3521 16.9256 23.1885 16.9113C23.025 16.8969 22.8607 16.9277 22.7134 17.0002C22.5661 17.0727 22.4415 17.1842 22.3532 17.3226C22.2648 17.4609 22.2161 17.6208 22.2122 17.785C22.2273 17.893 22.2075 18.003 22.1557 18.0989C22.0976 18.1545 22.0308 18.2001 21.9579 18.234C21.8978 18.2833 21.8509 18.3468 21.8215 18.4188C21.7921 18.4908 21.7812 18.569 21.7896 18.6463C21.798 18.7236 21.8255 18.7975 21.8697 18.8615C21.9139 18.9255 21.9734 18.9775 22.0427 19.0127C22.319 19.1194 22.6298 18.9656 22.9124 18.9719C23.3834 18.9719 23.4086 19.5433 22.9438 19.5999C22.8025 19.6218 22.5419 19.5747 22.3158 19.5999C22.0898 19.625 21.961 19.6909 21.9736 19.9139C21.9861 20.1368 22.2876 20.3692 22.1431 20.5419C22.0991 20.5787 22.0435 20.5988 21.9861 20.5988C21.9288 20.5988 21.8732 20.5787 21.8291 20.5419C21.7414 20.4688 21.6595 20.389 21.5842 20.3032C21.5248 20.2424 21.4514 20.1971 21.3703 20.1714C21.2893 20.1456 21.2031 20.1402 21.1195 20.1557C21.0364 20.1752 20.9638 20.2257 20.9165 20.2969C20.8693 20.368 20.8509 20.4545 20.8652 20.5387C20.9123 20.7052 21.1132 20.8527 21.0598 21.0034C21.0065 21.1542 20.8118 21.1573 20.683 21.0851C20.5543 21.0129 20.4632 20.8904 20.3376 20.8182C20.1799 20.755 20.0051 20.748 19.8428 20.7983C19.6804 20.8486 19.5403 20.9532 19.4459 21.0945C19.2418 21.352 19.201 21.8136 19.5024 21.9423C19.6877 22.0239 19.8949 21.9423 20.0959 21.9109C20.2968 21.8795 20.5574 22.0271 20.5009 22.2249C20.4632 22.3536 20.3094 22.4039 20.2215 22.5075C20.1682 22.5837 20.1436 22.6763 20.1523 22.7689C20.1609 22.8615 20.2021 22.948 20.2686 23.013C20.3358 23.0828 20.4162 23.1384 20.5052 23.1767C20.5941 23.215 20.6898 23.2351 20.7867 23.236C21.0167 23.2515 21.2445 23.182 21.4268 23.0408C21.6091 22.8996 21.7332 22.6965 21.7758 22.4698C21.8009 22.2186 21.7004 21.9297 21.8605 21.7319C21.9251 21.6697 22.0032 21.6231 22.0887 21.5959C22.1742 21.5686 22.2648 21.5615 22.3535 21.5749C22.5154 21.574 22.6742 21.6186 22.812 21.7037C22.8792 21.7484 22.9321 21.8116 22.9644 21.8857C22.9967 21.9598 23.007 22.0415 22.9941 22.1213C22.9564 22.2751 22.8151 22.3788 22.7178 22.5012C22.6204 22.6237 22.567 22.8152 22.6926 22.9251C22.8182 23.035 22.8967 22.9691 22.9878 23.0225C23.1605 23.1229 23.0726 23.4181 22.8905 23.4997C22.6988 23.563 22.4918 23.563 22.3001 23.4997C22.2058 23.4663 22.1052 23.4547 22.0057 23.4655C21.9062 23.4764 21.8104 23.5096 21.7255 23.5625C21.5026 23.7478 21.5811 24.1183 21.7695 24.3413C21.87 24.4637 22.005 24.5893 21.9924 24.7463C21.9845 24.8054 21.9599 24.8609 21.9215 24.9065C21.8831 24.9521 21.8326 24.9859 21.7758 25.0038C21.7132 25.0253 21.6467 25.0333 21.5808 25.0274C21.5149 25.0214 21.451 25.0017 21.3932 24.9694C21.3354 24.9371 21.2851 24.893 21.2455 24.84C21.2059 24.7869 21.178 24.7261 21.1635 24.6615C21.1575 24.557 21.1575 24.4521 21.1635 24.3475C21.1578 24.2263 21.1172 24.1092 21.0464 24.0106C20.9756 23.912 20.8778 23.8359 20.7647 23.7918C20.6483 23.7558 20.5227 23.7645 20.4124 23.8162C20.3021 23.8679 20.215 23.9588 20.1681 24.0712C20.1241 24.2031 20.1461 24.3507 20.0896 24.4794C20.0558 24.5353 20.0093 24.5823 19.9538 24.6166C19.8983 24.6509 19.8355 24.6715 19.7704 24.6767C19.7054 24.6819 19.6401 24.6716 19.5798 24.6466C19.5196 24.6215 19.4661 24.5826 19.4239 24.5328C19.3494 24.4211 19.3222 24.2844 19.3481 24.1527C19.3739 24.0209 19.4509 23.9047 19.5621 23.8294C19.741 23.707 20.0174 23.6473 20.0362 23.4307C20.0388 23.3584 20.0141 23.2878 19.9671 23.2328C19.9171 23.1776 19.8543 23.1354 19.7842 23.1101C19.7141 23.0848 19.6389 23.077 19.5651 23.0876C19.4913 23.0981 19.4212 23.1266 19.361 23.1705C19.3008 23.2145 19.2523 23.2725 19.2198 23.3396C19.2023 23.4181 19.1727 23.4933 19.1319 23.5625C18.9623 23.7761 18.5039 23.5625 18.3908 23.8043C18.328 23.9205 18.3908 24.0775 18.3375 24.1968C18.2841 24.3161 18.0674 24.3287 17.9136 24.3538C17.7237 24.3862 17.5519 24.486 17.4297 24.6348C17.3074 24.7836 17.2429 24.9714 17.2479 25.1639ZM12.293 19.6564C12.4009 19.6402 12.5063 19.6107 12.607 19.5685C12.7828 19.4962 13.0152 19.4523 13.1376 19.5967C13.2161 19.6846 13.2193 19.8165 13.2758 19.9107C13.3279 19.9917 13.4063 20.0521 13.4979 20.0819C13.5894 20.1117 13.6885 20.1089 13.7782 20.074C13.8664 20.0366 13.9456 19.9808 14.0105 19.9105C14.0755 19.8401 14.1247 19.7567 14.155 19.6658C14.1892 19.4958 14.2576 19.3345 14.3559 19.1917C14.4173 19.1281 14.4978 19.0863 14.5851 19.0727C14.6724 19.0591 14.7617 19.0744 14.8395 19.1163C14.9147 19.162 14.9732 19.2305 15.0066 19.3119C15.0399 19.3933 15.0463 19.4832 15.0248 19.5685C14.9588 19.8008 14.7108 19.9233 14.5789 20.1337C14.5233 20.2355 14.5041 20.3534 14.5247 20.4676C14.5453 20.5818 14.6043 20.6856 14.6919 20.7617C14.7387 20.795 14.7917 20.8185 14.8478 20.8307C14.9039 20.8429 14.9619 20.8436 15.0183 20.8328C15.0746 20.8219 15.1282 20.7997 15.1758 20.7675C15.2233 20.7353 15.2638 20.6938 15.2948 20.6455C15.389 20.4665 15.3639 20.1933 15.5523 20.1211C15.7407 20.0489 15.9291 20.3692 16.1332 20.5073C16.2176 20.5639 16.32 20.5873 16.4206 20.5729C16.5212 20.5585 16.6129 20.5073 16.678 20.4293C16.7431 20.3513 16.7771 20.252 16.7733 20.1504C16.7695 20.0488 16.7283 19.9523 16.6576 19.8793C16.5759 19.7977 16.4597 19.7475 16.4126 19.6438C16.3184 19.4335 16.6105 19.2293 16.8334 19.2764C17.0479 19.3609 17.2489 19.4762 17.43 19.6187C17.5948 19.7069 17.78 19.7502 17.9669 19.7441C18.1537 19.7381 18.3357 19.6829 18.4945 19.5842C18.6059 19.5193 18.6947 19.4218 18.7488 19.3047C18.8775 18.9907 18.6389 18.5919 18.821 18.3062C18.8715 18.2219 18.952 18.1599 19.0464 18.1325C19.1407 18.1051 19.2419 18.1144 19.3297 18.1585C19.4175 18.2026 19.4854 18.2782 19.5197 18.3702C19.5541 18.4623 19.5524 18.5639 19.515 18.6547C19.4459 18.8368 19.2512 18.9436 19.157 19.1132C19.0967 19.2642 19.0956 19.4325 19.1538 19.5843C19.2119 19.7362 19.3252 19.8606 19.471 19.9327C19.7647 20.0706 20.095 20.1102 20.413 20.0457C20.5279 20.0441 20.6387 20.0031 20.727 19.9296C20.9374 19.7129 20.6422 19.3581 20.683 19.0566C20.7301 18.7081 21.2011 18.5354 21.2357 18.1869C21.2545 17.9953 21.1321 17.8038 21.1854 17.6217C21.2859 17.2794 21.8762 17.3077 21.9799 16.956C21.997 16.8796 21.9912 16.7998 21.9633 16.7267C21.9354 16.6535 21.8865 16.5902 21.8229 16.5447C21.6942 16.4538 21.5408 16.4045 21.3833 16.4034C21.1729 16.4034 20.9091 16.3782 20.8306 16.1836C20.7521 15.9889 20.9813 15.7659 21.1949 15.6812C21.3848 15.5961 21.5949 15.5667 21.8009 15.5964C21.9036 15.6122 21.9998 15.6564 22.0786 15.7241C22.1574 15.7918 22.2157 15.8803 22.2468 15.9795C22.2558 16.0504 22.2695 16.1207 22.2876 16.1898C22.3383 16.283 22.4174 16.3575 22.5134 16.4027C22.6094 16.4479 22.7173 16.4613 22.8214 16.441C23.0279 16.3947 23.238 16.3663 23.4494 16.3563C24.0397 16.4065 24.3914 17.1632 24.9723 17.1978C25.0023 17.2022 25.0329 17.1997 25.0617 17.1905C25.0906 17.1812 25.1169 17.1654 25.1387 17.1444C25.1542 17.1193 25.1642 17.0912 25.168 17.062C25.1718 17.0327 25.1693 17.003 25.1607 16.9748C25.111 16.6979 24.9928 16.4379 24.8167 16.2185C24.6406 15.999 24.4123 15.8273 24.1527 15.7188C23.79 15.6313 23.4334 15.5202 23.0851 15.386C22.8724 15.2433 22.6699 15.0859 22.4791 14.915C22.3836 14.8287 22.2701 14.7648 22.1468 14.7278C22.0235 14.6909 21.8936 14.6819 21.7663 14.7015C21.4743 14.7706 21.2953 15.0563 21.1164 15.3012C20.9374 15.5461 20.6673 15.7879 20.3722 15.7157C20.3245 15.5561 20.2278 15.4155 20.0959 15.3138C19.9546 15.229 19.7253 15.2792 19.6939 15.4394C19.6751 15.5493 19.7505 15.6498 19.7724 15.7534C19.8164 15.9952 19.5966 16.2024 19.3799 16.3186C19.145 16.3972 18.9385 16.5436 18.7865 16.7393C18.7414 16.8405 18.7057 16.9456 18.6797 17.0533C18.6446 17.1701 18.5804 17.2761 18.493 17.3612C18.4057 17.4464 18.2981 17.5079 18.1805 17.54C18.0619 17.5645 17.9385 17.5418 17.8365 17.4767C17.7345 17.4116 17.6619 17.3093 17.6341 17.1915C17.6311 17.0251 17.6842 16.8625 17.7848 16.7299C17.8865 16.5978 17.9456 16.4379 17.9544 16.2715C17.9544 16.1051 17.7785 15.9575 17.6247 16.0046C17.4708 16.0517 17.4614 16.3531 17.3107 16.4819C17.16 16.6106 16.9245 16.5321 16.7361 16.4536C16.5477 16.3751 16.287 16.3343 16.1834 16.5101C16.0798 16.686 16.2211 16.8649 16.2619 17.0471C16.286 17.1519 16.2791 17.2615 16.2421 17.3625C16.205 17.4635 16.1395 17.5516 16.0534 17.6161C15.9673 17.6806 15.8643 17.7187 15.757 17.7258C15.6496 17.733 15.5425 17.7088 15.4487 17.6562C15.2917 17.3925 15.7878 17.0973 15.681 16.8084C15.6057 16.6075 15.3105 16.6137 15.1252 16.7268C15.0406 16.7992 14.9372 16.846 14.8269 16.8618C14.6511 16.8618 14.5412 16.6451 14.5789 16.4724C14.6375 16.3022 14.7472 16.1542 14.8929 16.0485C15.0122 15.9355 15.1692 15.813 15.3231 15.8758C15.4204 15.9167 15.4738 16.0203 15.5523 16.0956C15.6352 16.1722 15.744 16.2147 15.8569 16.2147C15.9698 16.2147 16.0785 16.1722 16.1614 16.0956C16.2299 15.9991 16.3055 15.9077 16.3875 15.8225C16.6105 15.656 16.9559 15.8225 17.1976 15.678C17.2374 15.6509 17.2714 15.6163 17.2977 15.576C17.3239 15.5357 17.342 15.4906 17.3507 15.4433C17.3595 15.396 17.3588 15.3474 17.3487 15.3004C17.3386 15.2534 17.3193 15.2088 17.2918 15.1693C17.2259 15.0814 17.1129 15.0186 17.0909 14.9087C17.0563 14.7109 17.295 14.5602 17.2856 14.3467C17.2742 14.2494 17.2426 14.1556 17.1928 14.0712C17.1431 13.9869 17.0763 13.9139 16.9967 13.8568C15.5082 14.505 14.2482 15.5845 13.3794 16.956C13.4179 17.0881 13.4943 17.206 13.5992 17.2951C13.6997 17.383 13.8253 17.4395 13.9132 17.5369C13.9629 17.5821 13.9938 17.6444 13.9996 17.7113C14.0054 17.7782 13.9858 17.8449 13.9446 17.898C13.8843 17.9436 13.8096 17.9659 13.7342 17.9608C13.481 17.9657 13.232 17.8958 13.0183 17.7598L12.9524 17.719C12.6509 18.3341 12.4293 18.9851 12.293 19.6564Z" fill="#0A8080"/>
<path d="M65.7799 20.9846C65.4363 21.1639 65.0404 21.2162 64.6621 21.1322C64.2193 21.0756 63.7201 21.0128 63.3684 21.2986C63.2081 21.4623 63.0641 21.641 62.9382 21.8324C62.5363 22.3159 61.7607 21.9768 61.4279 22.6331C61.3776 22.7273 61.3808 23.0287 61.2583 23.0601C61.1359 23.0915 60.8752 22.8968 60.7465 22.878C60.3265 22.8433 59.9037 22.8676 59.4905 22.9502C59.2966 22.9794 59.1107 23.0476 58.9439 23.1507C58.7772 23.2538 58.633 23.3896 58.5202 23.55C58.4103 23.707 58.313 23.9016 58.1215 23.9487C58.0153 23.9621 57.9075 23.9492 57.8075 23.9111C57.4467 23.7705 57.0665 23.6858 56.6802 23.6599C56.4861 23.6461 56.292 23.6874 56.1204 23.779C55.9487 23.8707 55.8064 24.009 55.7099 24.178C55.688 24.2282 55.6628 24.2847 55.6095 24.2973C55.5561 24.3098 55.509 24.269 55.4682 24.2345C55.3267 24.1155 55.1591 24.0315 54.979 23.9895C54.7989 23.9475 54.6115 23.9486 54.432 23.9927C54.3112 24.0162 54.2011 24.0778 54.118 24.1685C54.0143 24.3004 54.0143 24.4825 53.9107 24.627C53.7255 24.8593 53.3549 24.7934 53.0629 24.7212C52.6767 24.6238 52.2245 24.5642 51.9074 24.8028C51.8226 24.8688 51.7535 24.9504 51.6656 25.0101C51.3984 25.1361 51.0971 25.1703 50.8084 25.1074C50.6137 25.1074 48.3623 25.2142 48.3969 25.4026C48.4314 25.591 48.9998 25.5407 49.1254 25.5501C49.3169 25.5501 49.499 25.6004 49.6906 25.6004C49.8814 25.5762 50.075 25.5868 50.262 25.6318C50.3782 25.682 50.4567 25.7794 50.576 25.817C50.8776 25.8849 51.1928 25.8563 51.4772 25.7354C51.8077 25.5694 52.1648 25.4631 52.5323 25.4214C52.7058 25.4503 52.8734 25.5076 53.0284 25.591C53.3592 25.6898 53.7118 25.6898 54.0426 25.591C54.2612 25.4909 54.4993 25.4404 54.7397 25.4434C54.859 25.4716 54.9877 25.5878 55.1102 25.6286C55.2715 25.6832 55.4376 25.7221 55.6063 25.7448C56.2061 25.817 56.7932 25.4748 57.3584 25.3241C57.6452 25.23 57.9521 25.215 58.2466 25.2808C58.5412 25.3465 58.8125 25.4906 59.0321 25.6977C59.2653 25.868 59.5372 25.9776 59.8234 26.0165C60.1095 26.0554 60.4009 26.0225 60.6711 25.9207C60.8296 25.8466 60.9921 25.7816 61.1578 25.726C61.5722 25.6057 62.0152 25.6301 62.4138 25.7951C62.64 25.9417 62.8851 26.0569 63.1423 26.1373C63.9995 26.3194 64.8002 25.3052 65.6543 25.5407C65.8237 25.5985 65.9859 25.6754 66.1379 25.7699C66.6063 26.0019 67.0978 26.1839 67.6043 26.3132C67.6951 26.345 67.7906 26.362 67.8869 26.3634C68.0194 26.3467 68.1463 26.2994 68.2574 26.2252C68.4698 26.0853 68.696 25.9675 68.9325 25.8736C69.0515 25.8279 69.1785 25.8068 69.3059 25.8117C69.4333 25.8166 69.5583 25.8472 69.6735 25.9018C69.7817 25.987 69.8997 26.0587 70.0252 26.1153C70.3675 26.2127 70.6532 25.8233 71.0049 25.7731C71.3566 25.7228 71.6549 25.9992 72.0034 25.9678C72.3519 25.9364 72.713 25.7417 73.0961 25.7166C73.9502 25.66 74.8168 25.8673 75.6615 25.6569C75.9803 25.5442 76.3112 25.4694 76.6475 25.434C77.2566 25.434 77.8532 25.8076 78.4467 25.6695C78.4698 25.6644 78.492 25.6559 78.5126 25.6443C78.5754 25.5941 78.544 25.4842 78.4749 25.4434C78.3999 25.4108 78.3172 25.3999 78.2363 25.412C77.9858 25.4237 77.7353 25.3875 77.4984 25.3052C77.2503 25.2204 77.018 25.0886 76.7636 25.0289C75.9755 24.8531 75.112 25.4214 74.3741 25.0917C74.1853 24.9849 73.9903 24.8894 73.7901 24.806C73.3662 24.6772 72.9077 24.919 72.4744 24.8279C72.1337 24.7209 71.8407 24.499 71.6454 24.1999C71.4534 23.9014 71.2049 23.6432 70.9138 23.4401C70.7659 23.3427 70.5886 23.3002 70.4126 23.3196C70.2366 23.3391 70.0729 23.4195 69.9498 23.5468C69.8876 23.2642 69.7817 22.993 69.6358 22.743C69.5621 22.6174 69.4608 22.5102 69.3394 22.4297C69.2181 22.3492 69.08 22.2974 68.9356 22.2783C68.8097 22.2919 68.6825 22.2701 68.5682 22.2155C68.4746 22.1161 68.4229 21.9846 68.4238 21.8481C68.3846 21.619 68.2972 21.4008 68.1672 21.2081C68.0373 21.0154 67.8679 20.8525 67.6702 20.7302C67.4011 20.5641 67.1076 20.4412 66.8004 20.366C66.6958 20.3406 66.5868 20.3396 66.4817 20.363C66.3766 20.3864 66.2783 20.4336 66.1944 20.501C66.0953 20.6181 66.0031 20.7408 65.9181 20.8684C65.8773 20.913 65.8309 20.9521 65.7799 20.9846Z" fill="#455A64"/>
<path d="M71.928 29.7608C71.9063 29.7758 71.8832 29.7884 71.8589 29.7985C71.479 29.9775 71.0362 29.8362 70.6029 29.8456C70.1975 29.8541 69.8086 30.0079 69.507 30.2789C69.2904 30.4768 69.1302 30.7531 68.8571 30.8787C68.5994 30.953 68.3337 30.9962 68.0658 31.0074C67.554 31.111 67.1552 31.2052 66.8694 31.6637C66.7219 31.8992 66.6685 32.0719 66.3765 32.0028C65.9808 31.9086 65.582 31.6888 65.155 31.8018C64.9101 31.8709 64.841 32.0248 64.5584 31.9588C64.2951 31.8502 64.0216 31.7682 63.742 31.7139C63.5495 31.731 63.3592 31.7668 63.1737 31.8207C62.9975 31.8113 62.8223 31.7893 62.6493 31.7547C62.2985 31.7122 61.9427 31.7609 61.6162 31.896C61.2338 32.0806 60.8282 32.2127 60.4105 32.2885C60.0399 32.2866 59.67 32.3181 59.3052 32.3827C59.3491 32.5931 59.7134 32.4926 59.8735 32.5178C60.1479 32.5968 60.4328 32.6328 60.7182 32.6245C60.9694 32.5837 61.1421 32.411 61.4027 32.4079C61.6633 32.4047 61.7795 32.5303 61.9899 32.5617C62.1278 32.5767 62.2672 32.5562 62.3949 32.5021C62.4766 32.4707 62.7089 32.2791 62.7812 32.2791C62.8534 32.2791 62.8785 32.3451 62.957 32.3953C63.0846 32.4921 63.2349 32.5548 63.3935 32.5774C63.6604 32.6088 63.9178 32.4204 64.1471 32.4393C64.2695 32.4393 64.3731 32.6308 64.5019 32.6999C64.9022 32.8863 65.3241 33.0224 65.7579 33.105C66.2806 33.2473 66.8332 33.2364 67.3499 33.0736C67.7015 32.9448 68.0155 32.7187 68.3766 32.6214C68.9858 32.4581 69.6326 32.6779 70.1884 32.9668C70.5096 33.1885 70.8909 33.3068 71.2811 33.3059C71.8212 33.2306 72.1541 32.6779 72.647 32.4424C73.3002 32.1284 74.1103 32.3827 74.732 32.6308C75.0841 32.7841 75.4486 32.907 75.8216 32.9982C76.1965 33.094 76.5896 33.094 76.9645 32.9982C77.2356 32.8873 77.5135 32.7939 77.7966 32.7187C78.1389 32.6685 78.4906 32.7721 78.8328 32.7187C78.953 32.6962 79.0715 32.6657 79.1877 32.6277C79.4704 32.5254 79.7694 32.4754 80.07 32.4801C80.0824 32.4855 80.0957 32.4884 80.1092 32.4884C80.1228 32.4884 80.1361 32.4855 80.1485 32.4801C80.1559 32.4704 80.1612 32.4592 80.1639 32.4473C80.1666 32.4353 80.1667 32.423 80.1642 32.411C80.1545 32.3754 80.1358 32.3429 80.11 32.3165C80.0842 32.2901 80.052 32.2708 80.0166 32.2603C79.946 32.2415 79.8727 32.2351 79.8 32.2414C79.3541 32.2414 78.9051 32.2791 78.456 32.3231C78.0547 32.346 77.6526 32.296 77.2691 32.1755C76.9834 32.097 76.7196 31.9808 76.4307 31.9306C76.1707 31.8508 75.9478 31.6803 75.8027 31.4502C75.5641 31.1362 75.3098 30.7656 74.889 30.7437C74.8081 30.751 74.7266 30.7402 74.6504 30.7123C74.5405 30.6557 74.5091 30.5207 74.4745 30.3983C74.2912 29.8896 73.9298 29.4646 73.4572 29.2019C73.2966 29.1087 73.11 29.0705 72.9258 29.0932C72.7415 29.1158 72.5698 29.1981 72.4367 29.3275C72.2831 29.4898 72.1126 29.635 71.928 29.7608Z" fill="#455A64"/>
<path d="M109.762 11.7121C109.253 11.5677 108.801 11.4672 108.261 11.3353C107.721 11.2035 107.118 11.059 106.553 10.9083C106.194 10.848 105.846 10.7348 105.52 10.5723C105.206 10.3808 105.02 10.0731 104.628 9.96317C104.122 9.82501 103.648 10.1076 103.202 10.3368C102.518 10.6885 101.855 10.6948 101.102 10.7199C100.128 10.7544 99.1455 10.8267 98.1659 10.7827C97.18 10.7434 96.1991 10.6226 95.2331 10.4216C94.2911 10.2175 93.4527 9.85327 92.5327 9.60835C92.5213 9.65234 92.5236 9.69878 92.5393 9.74143C92.555 9.78409 92.5834 9.82092 92.6206 9.84699C93.8107 10.8612 95.3713 11.351 96.8596 11.5583C98.735 11.7784 100.625 11.855 102.512 11.7875C103.111 11.7875 103.658 11.7278 104.276 11.7875C104.895 11.8472 105.495 11.9508 106.145 12.0544C106.795 12.158 107.554 12.2522 108.217 12.4218C109.02 12.6299 109.792 12.9468 110.509 13.3638C111.712 14.0577 112.908 14.8113 114.054 15.6026C114.332 15.7929 114.578 16.026 114.783 16.2934C114.981 16.5572 115.068 16.8712 115.357 17.0344C114.422 16.7087 113.437 16.543 112.447 16.5446C111.83 16.5517 111.218 16.6458 110.629 16.8241C109.794 17.1072 108.977 17.4396 108.182 17.8194C107.416 18.168 106.612 18.482 105.865 18.8839C104.81 19.4094 103.664 19.7291 102.49 19.8259C101.923 19.9147 101.349 19.9536 100.775 19.9421C100.15 19.8569 99.5215 19.8066 98.8912 19.7914C98.9854 20.1462 99.5035 20.1682 99.7924 20.2184C100.248 20.3 100.602 20.4979 101.067 20.5324C102.287 20.6066 103.511 20.5243 104.71 20.2875C105.377 20.1079 106.032 19.8834 106.669 19.6155C107.297 19.402 107.711 19.0535 108.289 18.7928C108.971 18.4744 109.678 18.2129 110.402 18.011C111.044 17.8163 111.705 17.6982 112.374 17.6593C113.5 17.6159 114.621 17.824 115.656 18.2685C116.177 18.5172 116.679 18.8027 117.16 19.1226C117.257 19.1773 117.349 19.2404 117.436 19.3109C118.193 19.9533 119.006 20.5261 119.866 21.0222C120.513 21.3993 121.185 21.7329 121.876 22.0208C122.473 22.2594 122.912 22.542 123.075 23.2077C123.089 23.3241 123.114 23.4388 123.151 23.5499C123.249 23.7064 123.385 23.8361 123.545 23.9276C123.706 24.0191 123.886 24.0695 124.071 24.0743C124.954 24.2007 125.846 24.249 126.737 24.2188C127.789 24.2353 128.833 24.4121 129.833 24.7432C131.309 25.1576 132.831 25.4277 134.16 26.288C135.045 26.857 135.71 27.711 136.044 28.709C136.198 29.2792 136.276 29.8673 136.276 30.458C136.37 31.7893 136.424 33.0861 136.512 34.4395C136.549 35.0015 136.778 35.8399 136.606 36.3706C136.433 36.9012 135.874 36.8855 135.45 36.9264C134.226 37.0457 133.083 37.1336 131.852 37.1995C130.382 37.2812 128.96 37.1995 127.632 36.5119C127.085 36.2261 126.718 35.8525 126.09 35.7614C125.679 35.7018 125.201 35.8493 124.793 35.7049C123.952 35.4097 123.59 34.518 123.207 33.8209C122.758 32.9982 122.394 32.2509 121.951 31.4565C121.606 30.8473 121.154 30.3951 121.1 29.6792C121.085 29.4469 121.1 29.158 120.909 29.0512C120.717 28.9445 120.639 29.0167 120.479 29.0041C119.728 28.9351 119.298 28.3761 118.686 27.9962C118.073 27.6163 117.405 27.3117 116.755 26.9851C116.368 26.7904 116.01 26.5738 115.602 26.3854C115.459 26.2842 115.293 26.2205 115.119 26.2001C115.084 26.204 115.051 26.2182 115.024 26.2409C114.998 26.2636 114.978 26.2937 114.969 26.3275C114.959 26.3612 114.96 26.397 114.971 26.4303C114.982 26.4635 115.003 26.4927 115.031 26.5141C115.74 27.095 116.579 27.4781 117.351 27.9554C118.114 28.4119 118.803 28.9815 119.395 29.6447C119.995 30.3324 120.353 31.2147 120.724 32.0342C121.038 32.7407 121.279 33.441 121.622 34.1255C121.735 34.3484 121.854 34.5588 121.976 34.7755C121.248 34.5189 120.489 34.3615 119.719 34.3076C117.292 34.1946 115.009 34.9011 112.594 35.102C111.717 35.1706 110.834 35.1305 109.966 34.9827C109.129 34.8546 108.345 34.4945 107.702 33.9433C107.434 33.7027 107.182 33.4458 106.945 33.1741C106.405 32.5994 105.875 32.0091 105.334 31.4314C105.069 31.1234 104.775 30.8417 104.455 30.5898C104.134 30.3467 103.753 30.1929 103.353 30.144C103.33 30.1375 103.305 30.1374 103.281 30.1434C103.257 30.1495 103.236 30.1616 103.218 30.1785C103.199 30.1997 103.189 30.2271 103.189 30.2554C103.189 30.2838 103.199 30.3111 103.218 30.3323C103.261 30.3707 103.311 30.3996 103.366 30.4171C103.813 30.6316 104.207 30.9439 104.518 31.3309C104.776 31.6449 104.898 31.8929 105.165 32.2729C105.432 32.6528 106.468 33.7487 106.022 34.2793C105.84 34.4929 105.57 34.4112 105.331 34.3767C103.665 34.1037 102.018 33.7219 100.402 33.2337C98.9289 32.813 97.5536 32.2195 96.0055 32.1096C95.0285 32.0455 94.0472 32.1056 93.0853 32.2886C91.8442 32.5556 90.6416 32.9776 89.5057 33.5446C88.9468 33.8021 88.457 34.0815 87.8886 34.383C87.277 34.6646 86.6218 34.8398 85.9513 34.9011C85.9309 34.9004 85.9106 34.904 85.8917 34.9115C85.8728 34.9191 85.8556 34.9305 85.8413 34.945C85.8282 34.9686 85.8233 34.9958 85.8273 35.0225C85.8312 35.0492 85.8439 35.0739 85.8633 35.0926C85.9076 35.1256 85.9594 35.1472 86.014 35.1554C87.2292 35.3312 88.2121 35.0015 89.3079 34.5274C90.1333 34.162 90.9884 33.8679 91.8639 33.6482C94.4355 33.0579 96.7529 32.882 99.246 33.8931C99.3465 33.9275 99.4383 33.9832 99.5152 34.0564C99.5922 34.1295 99.6524 34.2184 99.6919 34.317C99.7516 34.5117 99.6322 34.6593 99.6919 34.8445C99.7376 35.0069 99.8428 35.1462 99.9865 35.2346C100.13 35.323 100.302 35.3541 100.467 35.3218C100.819 35.2967 101.095 35.0895 101.441 35.0078C102.769 34.7252 103.975 35.1491 105.247 35.5165C105.463 35.5793 105.658 35.6358 105.875 35.6861C108.488 36.2959 111.171 36.5546 113.853 36.4554C115.109 36.4083 116.281 36.1414 117.537 36.0189C118.676 35.909 119.895 35.7049 121.022 35.9906C121.65 36.1476 122.212 36.5433 122.787 36.7285C123.331 36.8784 123.883 36.9948 124.441 37.0771C125.267 37.2663 126.057 37.5842 126.784 38.0191C127.541 38.4304 128.206 38.9611 129.007 39.2374C130.332 39.7178 131.654 39.6425 133.054 39.8057C134.288 39.9502 135.614 40.0507 136.687 40.7477C137.56 41.3655 138.264 42.1925 138.735 43.153C138.901 43.467 138.995 43.781 139.146 44.095C139.495 44.8015 139.95 45.4452 140.22 46.1799C140.283 46.3495 140.352 46.5662 140.17 46.6918C139.73 47.0058 139.203 46.8425 138.678 46.7451C138.154 46.6478 137.899 46.5975 137.253 46.4311C136.606 46.2647 135.02 45.9507 134.467 45.5488C134.084 45.2662 134.135 45.0809 133.912 44.858C133.582 44.544 133.237 44.5942 132.882 44.4121C132.527 44.23 132.379 43.8783 132.144 43.5926C131.637 42.9039 131.003 42.3187 130.276 41.8687C130.007 41.7164 129.701 41.6445 129.393 41.6615C129.362 41.7965 129.456 41.8876 129.56 41.9755C129.93 42.2129 130.269 42.4967 130.568 42.8201C130.833 43.0992 131.012 43.4493 131.082 43.8281C131.098 43.9059 131.083 43.9867 131.042 44.0542C131.021 44.098 130.99 44.1363 130.952 44.1663C130.914 44.1963 130.869 44.217 130.822 44.2269C130.661 44.2536 130.496 44.2536 130.335 44.2269C128.112 43.9129 126.498 44.4278 124.234 44.7261C123.149 44.9131 122.042 44.9511 120.947 44.8392C119.816 44.6727 118.391 44.1421 118.03 42.8578C117.954 42.5056 117.899 42.149 117.866 41.7902C117.847 41.6646 117.829 41.5327 117.69 41.4762C117.526 41.9132 117.45 42.3786 117.467 42.8453C117.482 43.2072 117.526 43.5674 117.599 43.9223C117.637 44.1358 117.813 44.4467 117.568 44.6162C117.492 44.6564 117.403 44.6654 117.32 44.6413C116.606 44.557 115.901 44.4045 115.216 44.186C114.525 43.9568 113.856 43.6303 113.178 43.3571C113.103 43.5549 113.244 43.6962 113.411 43.7998C113.727 44.023 114.058 44.2234 114.403 44.3996C114.799 44.5855 115.207 44.745 115.624 44.8768C117.785 45.53 119.954 45.6587 122.203 45.6995C122.322 45.6995 122.438 45.6807 122.517 45.8125C122.595 45.9444 122.491 46.1265 122.363 46.249C121.347 47.1491 120.187 47.871 118.931 48.3842C117.975 48.8135 116.952 49.0708 115.907 49.1441C114.692 49.187 113.48 48.9972 112.337 48.5852C112.293 48.6731 112.356 48.7642 112.44 48.8144C113.093 49.2116 113.804 49.504 114.547 49.681C115.339 49.8411 116.155 49.8411 116.946 49.681C118.311 49.4274 119.639 49.0056 120.899 48.425C121.505 48.1389 122.091 47.8116 122.652 47.4454C123.217 47.1 123.788 46.7577 124.338 46.4092C124.598 46.2705 124.874 46.165 125.16 46.0952C125.421 46.0135 125.569 45.8942 125.804 45.8C126.432 45.5488 127.104 45.5331 127.767 45.3541C128.434 45.183 129.134 45.183 129.801 45.3541C130.368 45.4605 130.916 45.6488 131.428 45.913C132.16 46.3212 132.643 46.6164 133.478 47.1C135.196 48.0922 138.581 48.3968 139.818 49.9417C140.97 51.3829 141.115 52.6672 141.347 54.2403C141.661 56.3912 141.294 58.3694 141.055 60.4983C140.941 61.8783 140.511 63.2136 139.799 64.4014C139.504 64.8881 138.898 64.9571 139.005 65.8018C139.058 66.2163 139.162 66.6936 139.184 66.8725C139.457 69.2495 139.341 69.4191 139.498 74.3112C139.708 81.3417 138.195 102.678 138.012 104.659C137.899 105.9 138.326 106.628 139.463 107.137C140.537 107.616 141.697 107.87 142.873 107.883C144.049 107.897 145.214 107.669 146.299 107.215C147.404 106.719 147.903 106.082 147.784 104.964C147.784 104.882 147.784 104.929 147.768 104.618C146.773 92.5546 146.359 77.0838 145.906 65.9965C145.884 65.4564 145.825 64.819 145.825 62.0369C145.796 61.1043 145.919 60.1732 146.189 59.28C146.371 58.6269 146.739 58.6866 146.842 58.2218C146.9 57.8905 146.9 57.5515 146.842 57.2202C146.8 55.8204 147.179 54.4403 147.929 53.2575C148.491 52.3155 149.235 51.6216 149.894 50.8146C150.469 50.1112 150.604 49.433 151.025 48.6385C151.44 47.8409 151.907 47.0711 152.422 46.3338C152.959 45.5582 153.449 44.4781 153.16 43.5078H153.059C152.745 44.2551 152.504 45.0433 151.948 45.6556C151.703 45.9225 151.364 46.4625 151.006 46.3778C150.648 46.293 150.692 45.643 150.67 45.4358C150.591 44.657 150.356 43.8249 150.485 43.0431C150.667 42.3068 150.912 41.5872 151.216 40.8922C151.53 40.0632 152.045 39.2625 152.045 38.3613C152.045 38.1886 152.13 37.7333 151.866 37.7742C151.703 37.7961 151.552 38.6691 151.486 38.8135C150.99 40.0289 150.419 41.2128 149.778 42.3586C149.447 42.9466 149.251 43.6008 149.203 44.274C149.15 45.53 149.558 46.8174 149.269 48.0702C149.112 48.7422 149.024 49.3262 148.506 49.8349C148.067 50.2714 147.63 50.9025 146.958 51.0909C146.286 51.2793 146.246 50.4064 146.233 49.8914C146.186 48.4952 145.955 47.1113 145.548 45.7749C145.382 45.1971 145.052 44.6194 144.946 44.0133C144.632 42.2298 145.034 40.6127 145.906 39.049C146.283 38.3708 146.421 37.5544 146.899 36.9295C147.135 36.6322 147.446 36.4034 147.8 36.267C148.114 36.1257 148.547 36.0346 148.726 35.7112C148.871 35.4568 148.754 35.1742 148.82 34.8885C148.959 34.2762 149.508 33.9936 149.916 33.5477C150.324 33.1018 150.714 32.6874 151.106 32.2069C151.749 31.5032 152.137 30.6044 152.208 29.6541C152.208 29.5411 152.139 29.4155 152.051 29.4217C151.963 29.428 151.957 29.4846 151.926 29.5317C151.627 30.1213 151.291 30.6909 150.918 31.2367C150.309 31.9903 149.536 32.4927 148.751 33.0673C147.338 34.0442 146.054 35.1963 144.93 36.4962C145.068 35.7677 145.244 35.0675 145.432 34.3453C145.85 32.7313 146.114 31.1017 146.434 29.4532C146.669 28.2411 146.723 27.0008 147.197 25.8296C147.464 25.1765 147.985 24.7934 148.538 24.3287C149.082 23.8356 149.511 23.2288 149.794 22.5514C150.165 21.6578 150.327 20.6912 150.268 19.7254C150.268 19.1885 150.268 18.6924 150.268 18.1303C150.268 17.9419 150.365 17.3736 150.24 17.226C150.039 16.9873 150.01 17.562 149.992 17.6876C149.919 18.1648 149.869 18.6861 149.797 19.1696C149.736 19.8953 149.639 20.6174 149.505 21.3331C149.419 21.632 149.282 21.9136 149.1 22.1652C148.89 22.5292 148.592 22.8348 148.233 23.0538C148.027 23.1465 147.839 23.2751 147.677 23.4338C147.537 23.6427 147.381 23.8401 147.21 24.0241C146.994 24.2053 146.794 24.4049 146.613 24.6207C146.237 25.1035 145.946 25.6459 145.749 26.2252C145.748 25.9837 145.722 25.7429 145.674 25.5062C145.652 25.1514 145.636 24.8782 145.624 24.5642C145.599 23.9362 145.57 23.3082 145.57 22.6802C145.555 21.3968 145.627 20.1138 145.784 18.8399C146.038 16.9183 146.497 15.0437 146.311 13.1C146.211 12.0858 145.844 11.1501 145.683 10.1516C145.542 9.30323 145.587 8.43419 145.815 7.60503C145.87 7.48383 145.896 7.35181 145.891 7.21904C145.887 7.08627 145.852 6.95624 145.79 6.83887C145.178 7.67838 144.858 8.69532 144.88 9.73395C144.88 10.8078 145.09 11.7969 145.169 12.8739C145.28 13.9125 145.132 14.9627 144.735 15.9292C144.286 15.7376 144.107 15.1567 143.828 14.8207C143.508 14.4039 143.142 14.0257 142.735 13.6935C141.322 12.5882 139.62 12.1455 138.066 11.3071C137.559 11.0131 137.079 10.6759 136.631 10.2991C135.915 9.73081 135.19 9.15305 134.458 8.61611C133.929 8.20346 133.354 7.8546 132.744 7.57677C132.163 7.33813 131.682 7.43861 131.092 7.34127C130.944 7.3031 130.789 7.29709 130.639 7.32363C130.488 7.35017 130.345 7.40865 130.219 7.49513C130.553 7.48599 130.886 7.5262 131.208 7.61445C131.445 7.68794 131.677 7.77818 131.902 7.88449C132.548 8.19113 133.151 8.57948 133.698 9.04001C134.05 9.32575 134.326 9.58951 134.728 9.96317C134.894 10.1233 135.491 10.5315 135.579 10.8329C136.057 11.2836 136.564 11.7032 137.096 12.0889C137.972 12.6918 138.936 13.0152 139.874 13.5302C140.791 14.0648 141.55 14.833 142.072 15.7565C142.388 16.2543 142.631 16.7945 142.795 17.361C143.026 18.2969 143.142 19.2575 143.14 20.2215C143.178 21.421 143.102 22.6048 143.225 23.8168C143.332 24.9002 143.388 25.9458 142.927 26.9569C142.704 27.4467 142.355 27.8549 142.465 28.417C142.512 28.5623 142.576 28.7014 142.657 28.8314C143.165 29.9964 143.027 31.2053 142.77 32.3891C142.408 33.9261 141.931 35.4335 141.341 36.8981C141.228 37.1933 141.121 37.4916 140.995 37.7679C140.923 37.928 140.829 38.1667 140.603 38.0505C140.377 37.9343 140.289 37.2969 140.223 37.0771C140.091 36.6029 139.972 36.2042 139.884 35.752C139.707 34.8284 139.609 33.8913 139.592 32.9511C139.545 30.3512 139.526 27.7607 139.488 25.1702C139.469 23.9801 139.705 22.8183 139.648 21.6283C139.57 19.9923 138.735 18.6829 138 17.2637C137.633 16.6118 137.408 15.8894 137.341 15.1442C136.951 15.4958 137.284 16.4378 137.369 16.7895C137.538 17.4866 137.755 17.9702 137.959 18.5825C138.185 19.1436 138.292 19.7456 138.273 20.3503C138.226 21.2577 138.147 22.2092 137.526 22.9565C137.212 23.3302 136.427 22.8654 136.078 22.7084C135.514 22.4766 134.978 22.1794 134.483 21.8229C133.653 21.207 133.01 20.372 132.627 19.4114C132.426 18.8996 132.373 18.3752 132.185 17.8697C132.005 17.3695 131.741 16.9042 131.403 16.4944C131.301 16.34 131.16 16.2152 130.995 16.1325C130.83 16.0498 130.645 16.0122 130.461 16.0234C130.856 16.4379 131.17 16.9224 131.387 17.4521C131.839 18.6798 131.877 20.0017 132.521 21.1541C132.756 21.578 133.102 21.9046 133.202 22.3913C133.216 22.4438 133.21 22.4996 133.186 22.5483C133.154 22.5913 133.107 22.6205 133.054 22.6299C132.743 22.6853 132.424 22.6853 132.112 22.6299C130.348 22.4258 128.621 22.228 126.938 21.6408C126.16 21.4138 125.451 20.9949 124.878 20.4225C124.275 19.8017 123.748 19.1113 123.308 18.3658C122.789 17.4062 122.358 16.4014 122.02 15.364C121.831 14.7239 121.605 14.0949 121.345 13.48C121.053 12.8353 120.714 12.213 120.331 11.6179C119.664 10.5626 118.753 9.68282 117.675 9.05257C117.455 8.93325 117.238 8.87673 117.307 9.14991C117.376 9.42309 117.791 9.64917 117.967 9.81873C118.45 10.2866 118.94 10.6414 119.301 11.1909C119.929 12.1329 120.158 13.2036 120.476 14.265C120.542 14.413 120.577 14.5736 120.577 14.736C120.577 14.8984 120.542 15.0589 120.476 15.207C120.359 15.4048 120.127 15.521 120.162 15.7565C120.162 15.8601 120.246 15.9166 120.306 15.9888C120.914 16.7408 121.419 17.5709 121.807 18.4569C122.024 18.9153 122.234 19.3518 122.479 19.8008C122.639 20.1608 122.828 20.5073 123.044 20.837C122.67 20.6831 122.309 20.523 121.948 20.3409C120.533 19.6797 119.224 18.812 118.064 17.7661C117.223 16.9622 116.494 16.0673 115.612 15.3294C114.729 14.5915 113.838 14.0389 112.936 13.3512C112.261 12.8258 111.523 12.3869 110.738 12.045C110.42 11.9155 110.093 11.8044 109.762 11.7121Z" fill="#263238"/>
<path d="M139.83 104.094C139.469 101.896 140.367 81.2757 140.377 76.1481C140.386 71.0204 140.559 69.0956 139.67 66.4141C139.51 65.9305 140.374 64.8252 140.986 63.1579C142.157 59.9676 141.507 54.2152 141.212 53.3485C141.217 53.3649 141.217 53.3823 141.212 53.3988C141.259 53.6876 141.303 53.9828 141.347 54.2905C141.661 56.4414 141.294 58.4196 141.055 60.5485C140.941 61.9285 140.511 63.2638 139.799 64.4516C139.504 64.9383 138.898 65.0073 139.005 65.852C139.058 66.2665 139.162 66.7438 139.184 66.9227C139.457 69.2997 139.341 69.4693 139.498 74.3614C139.708 81.3919 138.195 102.728 138.012 104.709C137.899 105.95 138.326 106.678 139.463 107.187C140.537 107.666 141.697 107.92 142.873 107.933C144.048 107.947 145.214 107.72 146.299 107.265C146.409 107.215 146.509 107.162 146.613 107.108C146.654 107.08 146.704 107.055 146.742 107.024C143.369 108.603 140.176 106.204 139.83 104.094Z" fill="#455A64"/>
<path d="M125.666 91.1887C126.247 96.5267 129.534 102.524 129.534 102.524L128.26 102.235C125.286 95.412 125.666 91.1887 125.666 91.1887Z" fill="#0A8080"/>
<path opacity="0.15" d="M125.666 91.1887C126.247 96.5267 129.534 102.524 129.534 102.524L128.26 102.235C125.286 95.412 125.666 91.1887 125.666 91.1887Z" fill="black"/>
<path opacity="0.15" d="M128.862 102.326L128.888 102.38L128.26 102.235C125.295 95.412 125.666 91.1887 125.666 91.1887C125.575 93.886 127.459 99.7546 128.862 102.326Z" fill="black"/>
<path d="M129.534 102.524C129.534 102.524 128.561 97.8141 129.057 93.3553C129.553 88.8965 131.17 86.4473 131.17 86.4473C131.17 86.4473 128.897 88.4788 128.046 93.3772C127.531 96.2703 127.469 99.2257 127.861 102.138L129.534 102.524Z" fill="#0A8080"/>
<path opacity="0.2" d="M129.534 102.524C129.534 102.524 128.561 97.8141 129.057 93.3553C129.553 88.8965 131.17 86.4473 131.17 86.4473C131.17 86.4473 128.897 88.4788 128.046 93.3772C127.531 96.2703 127.469 99.2257 127.861 102.138L129.534 102.524Z" fill="black"/>
<path opacity="0.1" d="M128.655 102.326L127.861 102.147C127.469 99.2351 127.531 96.2797 128.046 93.3867C128.897 88.4882 131.17 86.4567 131.17 86.4567C129.107 88.9216 127.365 95.4371 128.655 102.326Z" fill="black"/>
<path d="M129.534 102.524C129.534 102.524 129.126 98.5363 132.809 93.9613C132.809 93.9613 128.931 97.0291 128.26 102.235L129.534 102.524Z" fill="#0A8080"/>
<path opacity="0.1" d="M128.862 102.326C128.862 102.342 128.862 102.355 128.862 102.37L128.266 102.235C128.932 97.0259 132.822 93.9613 132.822 93.9613C131.032 95.8861 129.054 98.8377 128.862 102.326Z" fill="black"/>
<path d="M117.794 104.317C117.794 104.317 114.399 100.734 114.779 96.58C114.779 96.58 114.94 100.069 118.343 103.092C117.634 101.192 117.265 99.1805 117.254 97.1515C117.219 93.4306 118.146 91.2672 119 90.3566C118.036 92.3191 117.797 94.7526 118.029 97.3996C118.274 100.226 119.251 102.367 120.909 104.483L117.794 104.317Z" fill="black"/>
<path opacity="0.2" d="M112.286 113.954L116.692 115.206L118.149 117.674L124.265 117.954L126.765 116.076L129.132 116.93L131.883 117.081L131.541 118.868L136.172 119.555L137.689 118.309L140.597 117.624L144.242 113.115L141.806 111.655L139.815 111.259L138.034 108.242L132.58 106.575L128.071 104.342L114.378 107.269L108.842 111.203L112.286 113.954Z" fill="black"/>
<path d="M106.261 109.834C106.22 109.79 106.176 109.746 106.135 109.699C106.051 109.621 105.996 109.517 105.978 109.404C105.978 109.222 106.132 109.09 106.292 108.992C106.593 108.818 106.928 108.711 107.275 108.678C107.473 108.656 107.74 108.584 107.714 108.39C107.704 108.342 107.685 108.298 107.658 108.258C107.347 107.716 107.222 107.087 107.303 106.468C107.306 106.361 107.337 106.257 107.392 106.165C107.447 106.073 107.524 105.997 107.617 105.943C107.73 105.912 107.849 105.912 107.963 105.943C108.42 106.037 108.87 106.169 109.306 106.336C109.121 105.488 109.105 104.612 109.259 103.758C109.271 103.587 109.32 103.42 109.404 103.271C109.488 103.121 109.603 102.991 109.743 102.891C110.164 102.675 110.653 102.979 111.024 103.268L111.806 103.877C112.036 103.267 112.363 102.699 112.776 102.194C112.838 102.096 112.922 102.013 113.021 101.952C113.12 101.891 113.232 101.854 113.348 101.843C113.662 101.858 113.841 102.229 113.935 102.543L114.302 103.755C114.828 103.37 115.431 103.103 116.07 102.973C116.185 102.935 116.307 102.923 116.428 102.935C116.549 102.948 116.665 102.987 116.77 103.048C116.883 103.152 116.97 103.281 117.021 103.425C117.216 103.794 117.361 104.186 117.452 104.593C117.859 104.376 118.333 104.319 118.78 104.436C119.227 104.552 119.614 104.833 119.863 105.221C120.088 105.63 120.183 106.097 120.136 106.56C120.09 107.024 119.904 107.463 119.603 107.818C119.293 108.165 118.91 108.44 118.483 108.624C118.056 108.808 117.593 108.896 117.128 108.883C117.303 109.029 117.426 109.228 117.478 109.45C117.531 109.671 117.511 109.904 117.42 110.113C117.225 110.531 116.892 110.869 116.478 111.071C115.719 111.473 114.847 111.612 114 111.464C113.153 111.317 112.379 110.893 111.8 110.258C111.953 110.437 110.635 110.989 110.503 111.015C108.98 111.31 107.363 110.967 106.261 109.834Z" fill="#263238"/>
<path d="M154.287 107.702C154.059 107.3 153.688 106.998 153.247 106.857C152.807 106.715 152.33 106.745 151.91 106.939C151.844 106.528 151.722 106.129 151.546 105.752C151.503 105.605 151.426 105.47 151.32 105.36C151.218 105.293 151.103 105.248 150.983 105.228C150.863 105.208 150.74 105.213 150.623 105.243C149.977 105.339 149.361 105.572 148.814 105.928C148.713 105.517 148.616 105.108 148.516 104.697C148.437 104.383 148.293 104 147.969 103.965C147.853 103.969 147.74 103.999 147.637 104.054C147.535 104.108 147.447 104.185 147.379 104.279C146.937 104.759 146.579 105.309 146.318 105.906L145.57 105.253C145.215 104.939 144.741 104.625 144.314 104.807C144 104.945 143.884 105.215 143.639 105.642C143.492 105.906 143.379 106.116 143.287 106.311C143.273 105.894 143.218 105.48 143.124 105.074C143.105 104.903 143.048 104.738 142.957 104.592C142.867 104.446 142.744 104.322 142.6 104.229C142.173 104.031 141.696 104.358 141.344 104.666L140.593 105.312C140.336 104.712 139.982 104.159 139.545 103.673C139.477 103.581 139.389 103.505 139.288 103.45C139.187 103.396 139.075 103.365 138.961 103.359C138.647 103.391 138.486 103.771 138.405 104.085L138.091 105.316C137.548 104.954 136.933 104.715 136.288 104.615C136.172 104.584 136.049 104.577 135.93 104.596C135.81 104.615 135.696 104.659 135.594 104.725C135.485 104.832 135.404 104.965 135.359 105.111C135.183 105.489 135.057 105.888 134.985 106.298C134.568 106.1 134.091 106.066 133.65 106.203C133.209 106.341 132.836 106.639 132.605 107.039C132.4 107.458 132.326 107.928 132.394 108.389C132.462 108.85 132.668 109.279 132.985 109.621C133.31 109.951 133.703 110.206 134.137 110.369C134.571 110.531 135.035 110.598 135.497 110.563C135.327 110.718 135.212 110.924 135.169 111.151C135.127 111.378 135.159 111.612 135.262 111.819C135.45 112.23 135.959 112.977 136.383 113.144C138.581 114.017 139.72 113.118 140.747 111.853C141.777 112.817 143.105 113.464 144.493 113.2C145.222 113.062 145.997 112.663 145.956 112.29C146.139 113.995 148.921 114.437 150.519 113.812C150.981 113.639 151.357 113.29 151.565 112.842C151.756 112.428 151.696 111.498 151.345 111.216C151.809 111.255 152.275 111.192 152.713 111.032C153.15 110.872 153.547 110.619 153.876 110.289C154.198 109.951 154.41 109.522 154.484 109.06C154.557 108.598 154.489 108.124 154.287 107.702Z" fill="black"/>
<path d="M122.84 98.8158L116.978 103.209L115.084 106.248L119.091 106.594L124.281 108.641L125.415 105.369L122.931 102.336L122.84 98.8158Z" fill="#0A8080"/>
<path opacity="0.3" d="M122.84 98.8158L116.978 103.209L115.084 106.248L119.091 106.594L124.281 108.641L125.415 105.369L122.931 102.336L122.84 98.8158Z" fill="black"/>
<path d="M122.84 98.8158L126.567 98.7373L127.581 102.458L125.415 105.369L122.931 102.336L122.84 98.8158Z" fill="#0A8080"/>
<path opacity="0.35" d="M122.84 98.8158L126.567 98.7373L127.581 102.458L125.415 105.369L122.931 102.336L122.84 98.8158Z" fill="black"/>
<path d="M132.216 102.458L132.901 105.378L130.159 104.675L127.032 106.534L125.694 108.43L124.78 112.054L123.948 117.106L122.102 112.914L124.281 108.641L126.511 105.802L129.946 104.364L132.216 102.458Z" fill="#0A8080"/>
<path d="M129.475 113.916L133.802 109.793L131.654 106.452L129.475 113.916Z" fill="#0A8080"/>
<g opacity="0.5">
<path opacity="0.5" d="M132.216 102.458L132.901 105.378L130.159 104.675L127.032 106.534L125.694 108.43L124.78 112.054L123.948 117.106L122.102 112.914L124.281 108.641L126.511 105.802L129.946 104.364L132.216 102.458Z" fill="black"/>
<path opacity="0.5" d="M129.475 113.916L133.802 109.793L131.654 106.452L129.475 113.916Z" fill="black"/>
</g>
<path d="M119.421 101.381L117.361 104.085L116.94 105.551L119.147 105.523L124.281 108.641L119.091 106.594L115.084 106.248L116.978 103.209L119.421 101.381Z" fill="#0A8080"/>
<path d="M126.567 98.7373L126.712 102.329L124.771 104.581L125.415 105.369L127.581 102.458L126.567 98.7373Z" fill="#0A8080"/>
<path d="M122.102 112.914L119.245 112.566L113.379 111.131L109.573 108.672L110.764 106.637L112.902 106.141L111.203 107.03L111.024 108.415L113.1 109.812L121.728 112.117L124.281 108.641L122.102 112.914Z" fill="#0A8080"/>
<g opacity="0.25">
<path opacity="0.25" d="M119.421 101.381L117.361 104.085L116.94 105.551L119.147 105.523L124.281 108.641L119.091 106.594L115.084 106.248L116.978 103.209L119.421 101.381Z" fill="black"/>
<path opacity="0.25" d="M126.567 98.7373L126.712 102.329L124.771 104.581L125.415 105.369L127.581 102.458L126.567 98.7373Z" fill="black"/>
<path opacity="0.25" d="M122.102 112.914L119.245 112.566L113.379 111.131L109.573 108.672L110.764 106.637L112.902 106.141L111.203 107.03L111.024 108.415L113.1 109.812L121.728 112.117L124.281 108.641L122.102 112.914Z" fill="black"/>
</g>
<path d="M116.978 103.209L112.902 106.141L111.203 107.03L111.024 108.415L113.1 109.812L121.728 112.117L122.451 111.134L119.348 108.641L117.185 108.958L115.084 106.248L116.978 103.209Z" fill="#0A8080"/>
<path opacity="0.35" d="M116.978 103.209L112.902 106.141L111.203 107.03L111.024 108.415L113.1 109.812L121.728 112.117L122.451 111.134L119.348 108.641L117.185 108.958L115.084 106.248L116.978 103.209Z" fill="black"/>
<path d="M126.567 98.7373L132.216 102.458L129.946 104.364L126.511 105.802L124.281 108.641L125.415 105.369L127.581 102.458L126.567 98.7373Z" fill="#0A8080"/>
<path d="M130.159 104.675L127.032 106.534L125.694 108.43L124.781 112.054L125.977 115.279L129.475 113.916L131.654 106.452L130.159 104.675Z" fill="#0A8080"/>
<path d="M115.084 106.248L117.185 108.958L119.348 108.641L119.091 106.594L115.084 106.248Z" fill="#0A8080"/>
<path d="M112.666 113.235L114.5 113.561L115.323 112.503L119.245 112.566L113.379 111.131L112.666 113.235Z" fill="#0A8080"/>
<g opacity="0.45">
<path opacity="0.45" d="M126.567 98.7373L132.216 102.458L129.946 104.364L126.51 105.802L124.281 108.641L125.415 105.369L127.581 102.458L126.567 98.7373Z" fill="black"/>
<path opacity="0.45" d="M130.159 104.675L127.032 106.534L125.694 108.43L124.78 112.054L125.977 115.279L129.475 113.916L131.654 106.452L130.159 104.675Z" fill="black"/>
<path opacity="0.45" d="M115.084 106.248L117.185 108.958L119.348 108.641L119.091 106.594L115.084 106.248Z" fill="black"/>
<path opacity="0.45" d="M112.666 113.235L114.5 113.561L115.323 112.503L119.245 112.566L113.379 111.131L112.666 113.235Z" fill="black"/>
</g>
<path d="M120.906 112.767L119.245 112.566L117.788 114.522L119.527 116.522L120.906 112.767Z" fill="#0A8080"/>
<path opacity="0.35" d="M120.906 112.767L119.245 112.566L117.788 114.522L119.527 116.522L120.906 112.767Z" fill="black"/>
<path d="M132.9 105.378L135.211 108.098L133.802 109.793L131.654 106.452L130.159 104.675L132.9 105.378Z" fill="#0A8080"/>
<path d="M123.948 117.106L125.977 115.279L124.78 112.054L123.948 117.106Z" fill="#0A8080"/>
<path d="M124.281 108.641L122.451 111.134L119.348 108.641L119.091 106.594L124.281 108.641Z" fill="#0A8080"/>
<path d="M109.573 108.672L108.842 111.203L112.666 113.235L113.379 111.131L109.573 108.672Z" fill="#0A8080"/>
<path d="M123.948 117.106L119.527 116.522L120.906 112.767L122.102 112.914L123.948 117.106Z" fill="#0A8080"/>
<path d="M114.5 113.561L117.788 114.522L119.245 112.566L115.323 112.503L114.5 113.561Z" fill="#0A8080"/>
<g opacity="0.4">
<path opacity="0.4" d="M132.9 105.378L135.211 108.098L133.802 109.793L131.654 106.452L130.159 104.675L132.9 105.378Z" fill="black"/>
<path opacity="0.4" d="M123.948 117.106L125.977 115.279L124.78 112.054L123.948 117.106Z" fill="black"/>
<path opacity="0.4" d="M124.281 108.641L122.451 111.134L119.348 108.641L119.091 106.594L124.281 108.641Z" fill="black"/>
<path opacity="0.4" d="M109.573 108.672L108.842 111.203L112.666 113.235L113.379 111.131L109.573 108.672Z" fill="black"/>
<path opacity="0.4" d="M123.948 117.106L119.527 116.522L120.906 112.767L122.102 112.914L123.948 117.106Z" fill="black"/>
<path opacity="0.4" d="M114.5 113.561L117.788 114.522L119.245 112.566L115.323 112.503L114.5 113.561Z" fill="black"/>
</g>
<path opacity="0.35" d="M132.9 105.378L132.216 102.458L126.567 98.7373L122.84 98.8158L116.978 103.209L112.902 106.141L110.763 106.638L109.573 108.669L108.842 111.203L112.666 113.235L114.5 113.561L117.788 114.522L119.527 116.522L123.948 117.106L125.977 115.279L129.475 113.916L133.802 109.793L135.212 108.098L132.9 105.378Z" fill="black"/>
<path d="M141.378 112.22C141.378 112.22 145.441 108.292 145.219 103.516C145.219 103.516 144.857 107.501 140.823 110.792C141.729 108.652 142.251 106.368 142.364 104.047C142.594 99.7891 141.642 97.2646 140.713 96.1813C141.714 98.4766 141.865 101.268 141.466 104.289C141.042 107.507 139.818 109.912 137.814 112.255L141.378 112.22Z" fill="#37474F"/>
<path d="M135.478 107.768L132.253 110.186L131.211 111.856L133.415 112.048L136.273 113.175L136.897 111.376L135.528 109.705L135.478 107.768Z" fill="#0A8080"/>
<path opacity="0.3" d="M135.478 107.768L132.253 110.186L131.211 111.856L133.415 112.048L136.273 113.175L136.897 111.376L135.528 109.705L135.478 107.768Z" fill="black"/>
<path d="M135.478 107.768L137.532 107.724L138.091 109.771L136.898 111.376L135.529 109.705L135.478 107.768Z" fill="#0A8080"/>
<path opacity="0.35" d="M135.478 107.768L137.532 107.724L138.091 109.771L136.898 111.376L135.529 109.705L135.478 107.768Z" fill="black"/>
<path d="M140.64 109.771L141.017 111.379L139.51 110.993L137.789 112.016L137.051 113.059L136.549 115.053L136.091 117.835L135.073 115.527L136.273 113.175L137.5 111.614L139.391 110.823L140.64 109.771Z" fill="#0A8080"/>
<path d="M139.133 116.079L141.517 113.809L140.333 111.972L139.133 116.079Z" fill="#0A8080"/>
<g opacity="0.5">
<path opacity="0.5" d="M140.64 109.771L141.017 111.379L139.51 110.993L137.789 112.016L137.051 113.059L136.549 115.053L136.091 117.835L135.073 115.527L136.273 113.175L137.5 111.614L139.391 110.823L140.64 109.771Z" fill="black"/>
<path opacity="0.5" d="M139.133 116.079L141.517 113.809L140.333 111.972L139.133 116.079Z" fill="black"/>
</g>
<path d="M133.597 109.178L132.464 110.666L132.231 111.473L133.447 111.461L136.273 113.175L133.415 112.048L131.211 111.856L132.253 110.186L133.597 109.178Z" fill="#0A8080"/>
<path d="M137.532 107.724L137.613 109.702L136.543 110.939L136.898 111.376L138.091 109.771L137.532 107.724Z" fill="#0A8080"/>
<path d="M135.073 115.527L133.5 115.335L130.272 114.547L128.178 113.191L128.831 112.073L130.008 111.8L129.073 112.289L128.975 113.052L130.118 113.822L134.869 115.09L136.273 113.175L135.073 115.527Z" fill="#0A8080"/>
<g opacity="0.25">
<path opacity="0.25" d="M133.597 109.178L132.464 110.666L132.231 111.473L133.447 111.461L136.273 113.175L133.415 112.048L131.211 111.856L132.253 110.186L133.597 109.178Z" fill="black"/>
<path opacity="0.25" d="M137.532 107.724L137.613 109.702L136.543 110.939L136.898 111.376L138.091 109.771L137.532 107.724Z" fill="black"/>
<path opacity="0.25" d="M135.073 115.527L133.5 115.335L130.272 114.547L128.178 113.191L128.831 112.073L130.008 111.8L129.073 112.289L128.975 113.052L130.118 113.822L134.869 115.09L136.273 113.175L135.073 115.527Z" fill="black"/>
</g>
<path d="M132.253 110.186L130.008 111.8L129.073 112.289L128.975 113.052L130.118 113.822L134.869 115.09L135.265 114.547L133.557 113.175L132.367 113.351L131.211 111.856L132.253 110.186Z" fill="#0A8080"/>
<path opacity="0.35" d="M132.253 110.186L130.008 111.8L129.073 112.289L128.975 113.052L130.118 113.822L134.869 115.09L135.265 114.547L133.557 113.175L132.367 113.351L131.211 111.856L132.253 110.186Z" fill="black"/>
<path d="M137.532 107.724L140.64 109.771L139.391 110.823L137.5 111.614L136.273 113.175L136.898 111.376L138.091 109.771L137.532 107.724Z" fill="#0A8080"/>
<path d="M139.51 110.993L137.789 112.016L137.051 113.059L136.549 115.053L137.205 116.83L139.133 116.079L140.333 111.972L139.51 110.993Z" fill="#0A8080"/>
<path d="M131.211 111.856L132.366 113.351L133.557 113.175L133.415 112.048L131.211 111.856Z" fill="#0A8080"/>
<path d="M129.88 115.706L130.888 115.885L131.343 115.301L133.5 115.335L130.272 114.547L129.88 115.706Z" fill="#0A8080"/>
<g opacity="0.45">
<path opacity="0.45" d="M137.532 107.724L140.64 109.771L139.391 110.823L137.5 111.614L136.273 113.175L136.898 111.376L138.091 109.771L137.532 107.724Z" fill="black"/>
<path opacity="0.45" d="M139.51 110.993L137.789 112.016L137.051 113.059L136.549 115.053L137.205 116.83L139.133 116.079L140.333 111.972L139.51 110.993Z" fill="black"/>
<path opacity="0.45" d="M131.211 111.856L132.366 113.351L133.557 113.175L133.415 112.048L131.211 111.856Z" fill="black"/>
<path opacity="0.45" d="M129.88 115.706L130.888 115.885L131.343 115.301L133.5 115.335L130.272 114.547L129.88 115.706Z" fill="black"/>
</g>
<path d="M134.417 115.448L133.5 115.335L132.699 116.415L133.657 117.514L134.417 115.448Z" fill="#0A8080"/>
<path opacity="0.35" d="M134.417 115.448L133.5 115.335L132.699 116.415L133.657 117.514L134.417 115.448Z" fill="black"/>
<path d="M141.017 111.379L142.292 112.877L141.516 113.809L140.333 111.972L139.51 110.993L141.017 111.379Z" fill="#0A8080"/>
<path d="M136.091 117.835L137.205 116.83L136.549 115.053L136.091 117.835Z" fill="#0A8080"/>
<path d="M136.273 113.175L135.265 114.547L133.557 113.175L133.415 112.048L136.273 113.175Z" fill="#0A8080"/>
<path d="M128.178 113.191L127.773 114.585L129.88 115.706L130.272 114.547L128.178 113.191Z" fill="#0A8080"/>
<path d="M136.09 117.835L133.657 117.514L134.417 115.448L135.073 115.527L136.09 117.835Z" fill="#0A8080"/>
<path d="M130.887 115.885L132.699 116.415L133.5 115.335L131.343 115.301L130.887 115.885Z" fill="#0A8080"/>
<g opacity="0.4">
<path opacity="0.4" d="M141.017 111.379L142.292 112.877L141.516 113.809L140.333 111.972L139.51 110.993L141.017 111.379Z" fill="black"/>
<path opacity="0.4" d="M136.091 117.835L137.205 116.83L136.549 115.052L136.091 117.835Z" fill="black"/>
<path opacity="0.4" d="M136.273 113.175L135.265 114.547L133.557 113.175L133.415 112.048L136.273 113.175Z" fill="black"/>
<path opacity="0.4" d="M128.178 113.191L127.773 114.585L129.88 115.706L130.272 114.547L128.178 113.191Z" fill="black"/>
<path opacity="0.4" d="M136.09 117.835L133.657 117.514L134.417 115.448L135.073 115.527L136.09 117.835Z" fill="black"/>
<path opacity="0.4" d="M130.887 115.885L132.699 116.415L133.5 115.335L131.343 115.301L130.887 115.885Z" fill="black"/>
</g>
<path opacity="0.2" d="M141.017 111.379L140.64 109.771L137.532 107.724L135.478 107.768L132.253 110.186L130.008 111.8L128.831 112.073L128.178 113.191L127.773 114.585L129.88 115.706L130.888 115.885L132.699 116.415L133.657 117.514L136.091 117.835L137.205 116.83L139.133 116.079L141.516 113.809L142.292 112.877L141.017 111.379Z" fill="black"/>
<path d="M89.0346 22.1181C87.8822 22.2123 86.4912 22.8435 86.2086 24.2062C86.0406 24.9888 85.9846 25.7912 86.0422 26.5895C85.1344 27.2879 84.4876 28.2709 84.2053 29.3809C83.7029 31.2649 83.5365 31.9432 83.37 32.568C83.2036 33.1929 82.8676 34.9136 83.37 34.3327C83.37 34.7535 83.0246 35.7614 83.3072 36.7599C83.505 36.9546 83.7876 35.9718 83.7876 35.9718C83.7876 35.9718 83.5616 36.7819 83.728 37.2278C83.728 37.2278 83.5647 38.4084 84.6197 38.6408C85.6748 38.8731 86.0673 36.3674 86.0673 36.3674C86.7136 35.9277 87.3189 35.4306 87.8759 34.8822C87.8759 34.8822 88.6829 35.1617 89.7599 33.8962C90.8369 32.6308 92.3755 30.7186 92.655 28.8252C92.9344 26.9317 92.8905 24.2722 91.848 23.1166C91.0976 22.2657 90.187 22.0239 89.0346 22.1181Z" fill="#263238"/>
<path d="M89.0345 26.1938C89.3171 26.1938 89.9168 26.7213 90.7615 26.558C91.1406 26.4639 91.4737 26.2376 91.701 25.9199C91.9283 25.6023 92.035 25.214 92.0018 24.8248C91.9767 23.7729 91.0347 22.9408 90.2874 23.305C89.54 23.6692 89.4427 24.247 89.0314 24.247C88.62 24.247 88.529 23.641 87.7754 23.305C87.0218 22.969 86.3592 23.7729 86.3372 24.8248C86.3153 25.8767 86.9307 26.4481 87.4959 26.558C88.3374 26.7213 88.7519 26.1938 89.0251 26.1938" fill="#37474F"/>
<path d="M89.8793 24.5673C90.0139 24.4624 90.1797 24.4054 90.3503 24.4054C90.5209 24.4054 90.6867 24.4624 90.8213 24.5673C90.8925 24.7176 90.9089 24.8881 90.8676 25.0493C90.8263 25.2104 90.7299 25.352 90.5952 25.4496C90.4662 25.5047 90.3273 25.5331 90.187 25.5331C90.0467 25.5331 89.9079 25.5047 89.7788 25.4496C89.6954 25.3122 89.6601 25.151 89.6782 24.9913C89.6964 24.8316 89.7671 24.6824 89.8793 24.5673Z" fill="#0A8080"/>
<path d="M90.2843 25.2926C90.4647 25.2926 90.6109 25.1464 90.6109 24.9661C90.6109 24.7857 90.4647 24.6395 90.2843 24.6395C90.104 24.6395 89.9578 24.7857 89.9578 24.9661C89.9578 25.1464 90.104 25.2926 90.2843 25.2926Z" fill="#263238"/>
<path d="M90.4319 24.8876C90.4319 24.9084 90.4236 24.9284 90.4089 24.9431C90.3942 24.9578 90.3742 24.9661 90.3534 24.9661C90.3326 24.9661 90.3126 24.9578 90.2979 24.9431C90.2832 24.9284 90.2749 24.9084 90.2749 24.8876C90.2749 24.8668 90.2832 24.8468 90.2979 24.8321C90.3126 24.8174 90.3326 24.8091 90.3534 24.8091C90.3742 24.8091 90.3942 24.8174 90.4089 24.8321C90.4236 24.8468 90.4319 24.8668 90.4319 24.8876Z" fill="#FAFAFA"/>
<path d="M88.19 24.5673C88.0557 24.4618 87.8898 24.4045 87.719 24.4045C87.5482 24.4045 87.3824 24.4618 87.248 24.5673C87.1771 24.7174 87.1606 24.8875 87.2013 25.0484C87.2419 25.2094 87.3373 25.3512 87.471 25.4496C87.6 25.5049 87.7388 25.5334 87.8792 25.5334C88.0195 25.5334 88.1584 25.5049 88.2874 25.4496C88.3717 25.3127 88.4079 25.1515 88.3903 24.9917C88.3726 24.8319 88.3022 24.6825 88.19 24.5673Z" fill="#0A8080"/>
<path d="M87.7848 25.2926C87.9652 25.2926 88.1114 25.1464 88.1114 24.9661C88.1114 24.7857 87.9652 24.6395 87.7848 24.6395C87.6045 24.6395 87.4583 24.7857 87.4583 24.9661C87.4583 25.1464 87.6045 25.2926 87.7848 25.2926Z" fill="#263238"/>
<path d="M87.7661 24.8876C87.7624 24.9061 87.7524 24.9228 87.7378 24.9348C87.7232 24.9468 87.7049 24.9533 87.686 24.9533C87.6671 24.9533 87.6488 24.9468 87.6342 24.9348C87.6196 24.9228 87.6096 24.9061 87.606 24.8876C87.6096 24.8691 87.6196 24.8524 87.6342 24.8404C87.6488 24.8284 87.6671 24.8219 87.686 24.8219C87.7049 24.8219 87.7232 24.8284 87.7378 24.8404C87.7524 24.8524 87.7624 24.8691 87.7661 24.8876Z" fill="#FAFAFA"/>
<path d="M89.0347 25.9867C89.0347 25.9867 88.9436 25.7983 88.7992 25.9144C88.6547 26.0306 88.5637 26.4953 89.0347 27.0103V25.9867Z" fill="#455A64"/>
<path d="M89.0347 25.9867C89.0347 25.9867 89.1257 25.7983 89.2702 25.9144C89.4146 26.0306 89.5057 26.4953 89.0347 27.0103V25.9867Z" fill="#37474F"/>
</svg>
