<svg width="48" height="48" viewBox="0 0 48 48" fill="none" xmlns="http://www.w3.org/2000/svg">
<g filter="url(#filter0_d)">
<path d="M35.5096 25.4772C35.608 29.6861 33.4742 35.9783 28.0288 38.5445C26.6602 39.1895 25.8997 38.5636 24.2491 38.6432C22.7743 38.7143 22.3187 39.2344 20.9141 38.7315C15.0812 36.6431 12.4913 30.5259 12.386 26.0174C12.2482 20.1232 17.0697 17.0094 23.8335 20.8558C29.9708 16.9305 35.3719 19.5829 35.5096 25.4772Z" fill="#FF542F"/>
<path fill-rule="evenodd" clip-rule="evenodd" d="M23.8048 19.7002C20.4588 17.9409 17.3901 17.7114 15.0682 18.8925C12.6004 20.1478 11.311 22.8232 11.3861 26.0407C11.4974 30.8047 14.2242 37.3984 20.5769 39.673C21.4547 39.9872 22.092 39.9897 22.7137 39.8899C22.9272 39.8557 23.1015 39.8196 23.2654 39.7856C23.5797 39.7205 23.8559 39.6633 24.2972 39.642C24.8216 39.6167 25.1992 39.6708 25.6285 39.7323C25.7853 39.7548 25.949 39.7782 26.1293 39.7992C26.8105 39.8782 27.5469 39.877 28.455 39.449C34.3818 36.656 36.6132 29.9008 36.5093 25.4538C36.4331 22.1912 34.8746 19.6551 32.3132 18.5641C29.9167 17.5433 26.8841 17.8904 23.8048 19.7002ZM28.0287 38.5445C33.4741 35.9783 35.6079 29.6861 35.5096 25.4771C35.3718 19.5829 29.9707 16.9304 23.8334 20.8557C17.0696 17.0094 12.2482 20.1231 12.3859 26.0174C12.4912 30.5259 15.0811 36.6431 20.914 38.7315C21.8259 39.058 22.3379 38.9533 22.9884 38.8202C23.3398 38.7483 23.7317 38.6681 24.249 38.6432C24.8767 38.6129 25.3756 38.6846 25.8283 38.7497C26.5659 38.8558 27.1806 38.9442 28.0287 38.5445Z" fill="#734125"/>
<path fill-rule="evenodd" clip-rule="evenodd" d="M25.8046 35.8756C31.25 33.3094 32.939 27.0172 32.8407 22.8083C32.8119 21.5757 32.5529 20.4849 32.1051 19.5663C34.1352 20.518 35.4426 22.6155 35.5095 25.4771C35.6078 29.6861 33.474 35.9783 28.0287 38.5445C27.1805 38.9442 26.5659 38.8558 25.8282 38.7497C25.3756 38.6847 24.8766 38.6129 24.2489 38.6432C23.7317 38.6681 23.3398 38.7483 22.9884 38.8202C22.3378 38.9533 21.8259 39.058 20.9139 38.7315C18.7805 37.9676 17.081 36.6648 15.7781 35.0989C16.3964 35.476 17.0694 35.801 17.8003 36.0626C18.7409 36.3994 19.4554 36.2774 20.2677 36.1387C20.6684 36.0703 21.0929 35.9978 21.5801 35.9743C22.1918 35.9448 22.7423 36.0122 23.2626 36.0759C24.1464 36.1841 24.9432 36.2816 25.8046 35.8756Z" fill="#ED4A27"/>
<path d="M32.1908 24.3706C32.1229 24.8572 31.6734 25.1966 31.1868 25.1287C30.7002 25.0608 30.3607 24.6113 30.4286 24.1247C30.4965 23.6381 30.946 23.2987 31.4326 23.3666C31.9192 23.4344 32.2586 23.884 32.1908 24.3706Z" fill="#C53622"/>
<path d="M34.5985 26.9462C34.5306 27.4329 34.0811 27.7723 33.5945 27.7044C33.1079 27.6365 32.7684 27.187 32.8363 26.7004C32.9042 26.2138 33.3537 25.8744 33.8403 25.9422C34.3269 26.0101 34.6664 26.4596 34.5985 26.9462Z" fill="#C53622"/>
<path d="M34.5471 23.5766C34.4962 23.9416 34.159 24.1962 33.7941 24.1453C33.4291 24.0943 33.1745 23.7572 33.2254 23.3923C33.2764 23.0273 33.6135 22.7727 33.9784 22.8236C34.3434 22.8745 34.598 23.2117 34.5471 23.5766Z" fill="#C53622"/>
<path d="M33.7237 30.0404C33.6558 30.527 33.2063 30.8664 32.7197 30.7985C32.2331 30.7306 31.8937 30.2811 31.9616 29.7945C32.0294 29.3079 32.4789 28.9685 32.9656 29.0364C33.4522 29.1042 33.7916 29.5538 33.7237 30.0404Z" fill="#C53622"/>
<path d="M31.3158 27.4648C31.2479 27.9514 30.7984 28.2909 30.3118 28.223C29.8252 28.1551 29.4857 27.7056 29.5536 27.219C29.6215 26.7324 30.071 26.3929 30.5576 26.4608C31.0442 26.5287 31.3837 26.9782 31.3158 27.4648Z" fill="#C53622"/>
<path d="M32.2555 33.413C32.1876 33.8996 31.7381 34.2391 31.2515 34.1712C30.7649 34.1033 30.4254 33.6538 30.4933 33.1672C30.5612 32.6806 31.0107 32.3412 31.4973 32.409C31.9839 32.4769 32.3233 32.9264 32.2555 33.413Z" fill="#C53622"/>
<path d="M30.4679 30.7163C30.4 31.2029 29.9505 31.5423 29.4639 31.4744C28.9773 31.4066 28.6378 30.957 28.7057 30.4704C28.7736 29.9838 29.2231 29.6444 29.7097 29.7123C30.1963 29.7802 30.5358 30.2297 30.4679 30.7163Z" fill="#C53622"/>
<path d="M30.4919 35.3875C30.441 35.7525 30.1039 36.0071 29.7389 35.9562C29.3739 35.9053 29.1194 35.5681 29.1703 35.2032C29.2212 34.8382 29.5583 34.5836 29.9233 34.6345C30.2882 34.6855 30.5428 35.0226 30.4919 35.3875Z" fill="#C53622"/>
<path d="M28.8238 11.7494C28.8238 11.7494 29.8121 15.8245 28.7715 18.0431C27.5172 20.7172 23.7294 20.886 23.7294 20.886C23.7294 20.886 22.5825 17.7601 24.0981 15.042C25.2639 12.9512 28.8238 11.7494 28.8238 11.7494Z" fill="#7CD623"/>
<path fill-rule="evenodd" clip-rule="evenodd" d="M29.7957 11.5138L28.8239 11.7495L28.504 10.802C28.7697 10.7123 29.0609 10.7383 29.3065 10.8736C29.5521 11.009 29.7296 11.2412 29.7957 11.5138ZM27.884 12.1268C28.4404 11.8789 28.8239 11.7495 28.8239 11.7495C28.8239 11.7495 28.9183 12.1387 29.018 12.7422C29.241 14.0911 29.4905 16.5103 28.7715 18.0432C27.5172 20.7173 23.7294 20.8861 23.7294 20.8861C23.7294 20.8861 22.5826 17.7601 24.0981 15.0421C24.8813 13.6374 26.745 12.6341 27.884 12.1268ZM23.7294 20.8861C22.7906 21.2305 22.7905 21.2302 22.7904 21.2299L22.7895 21.2274L22.7879 21.223L22.7835 21.2108C22.7801 21.2012 22.7757 21.1885 22.7704 21.173C22.7598 21.1418 22.7455 21.0988 22.7287 21.045C22.6951 20.9375 22.6508 20.786 22.6037 20.5976C22.5099 20.222 22.4033 19.6933 22.3492 19.0698C22.242 17.8342 22.3351 16.1506 23.2247 14.5551C23.9534 13.2482 25.3528 12.3123 26.4214 11.7327C26.9775 11.431 27.4922 11.2007 27.8678 11.0456C28.0562 10.9678 28.2112 10.9083 28.3209 10.8676C28.3758 10.8472 28.4195 10.8315 28.4505 10.8206C28.466 10.8151 28.4783 10.8108 28.4873 10.8077L28.4982 10.804L28.5031 10.8023L28.504 10.802C28.5043 10.8019 28.504 10.802 28.8239 11.7495C29.7957 11.5138 29.7957 11.5136 29.7957 11.5138L29.7962 11.5159L29.7971 11.5196L29.7999 11.5312L29.8093 11.5718C29.8172 11.6063 29.8283 11.6554 29.8418 11.7179C29.8687 11.8427 29.9054 12.0208 29.9456 12.2405C30.026 12.6788 30.122 13.2886 30.1839 13.9744C30.3026 15.2898 30.3191 17.0986 29.6769 18.4679C28.8825 20.1613 27.3188 20.9992 26.1029 21.4139C25.4818 21.6257 24.9094 21.7423 24.4928 21.8063C24.2835 21.8385 24.1106 21.8579 23.987 21.8693C23.9252 21.8751 23.8755 21.8789 23.8395 21.8813C23.8215 21.8825 23.8069 21.8834 23.7959 21.884L23.7822 21.8847L23.7774 21.885L23.7755 21.885L23.7747 21.8851C23.7743 21.8851 23.774 21.8851 23.7294 20.8861ZM22.7906 21.2305L23.7294 20.8861L23.774 21.8851C23.3386 21.9045 22.9407 21.6397 22.7906 21.2305Z" fill="#156319"/>
<path d="M28.1017 18.0584C29.0357 16.3833 28.4861 12.9765 28.4861 12.9765C25.7099 15.8608 25.011 19.0653 24.8525 20.2225C24.8525 20.2225 27.1677 19.7334 28.1017 18.0584Z" fill="#6FC21C"/>
<path d="M18.5116 16.4578C19.4729 16.6875 22.6602 19.3994 23.5537 21.0881C23.6283 21.229 24.0128 21.0085 23.9495 20.8851C23.44 19.2767 21.8147 15.4802 20.5078 14.336C18.7862 14.2997 18.4575 16.096 18.5116 16.4578Z" fill="#943D31"/>
<path fill-rule="evenodd" clip-rule="evenodd" d="M18.2791 17.4303C17.8823 17.3355 17.5829 17.0091 17.5225 16.6056C17.4822 16.3363 17.5218 16.0155 17.5838 15.7451C17.6525 15.445 17.7762 15.087 17.9838 14.7372C18.4185 14.0046 19.2357 13.3089 20.5288 13.3361C20.7638 13.3411 20.9896 13.4287 21.1664 13.5835C21.601 13.9639 22.0084 14.5111 22.3694 15.0797C22.7393 15.6623 23.0988 16.329 23.4257 16.9965C24.0658 18.3034 24.6111 19.6748 24.888 20.5368C25.0934 21.0634 24.7995 21.4946 24.7093 21.6088C24.5745 21.7793 24.4112 21.8935 24.2803 21.9645C24.1519 22.0342 23.9549 22.1167 23.717 22.1312C23.4888 22.1452 22.9532 22.0913 22.6698 21.5557C22.3108 20.8773 21.4047 19.8752 20.3923 18.9719C19.9009 18.5335 19.4156 18.1461 19.0066 17.8604C18.8018 17.7173 18.6262 17.6068 18.4858 17.5297C18.359 17.4599 18.2941 17.4361 18.2808 17.4311C18.278 17.4301 18.2774 17.4299 18.2791 17.4303ZM23.9495 20.885C23.9489 20.8832 23.9483 20.8814 23.9477 20.8795C23.88 20.6661 23.7927 20.4144 23.6893 20.1358C23.558 19.782 23.4005 19.3846 23.2238 18.9666C22.489 17.2288 21.4207 15.1352 20.5077 14.3359C18.7862 14.2996 18.4574 16.0959 18.5115 16.4577C19.2046 16.6233 21.0546 18.0791 22.3679 19.5114C22.6459 19.8145 22.8998 20.1166 23.1136 20.4052C23.2727 20.6199 23.4096 20.8271 23.5177 21.0218C23.5301 21.044 23.5421 21.0661 23.5537 21.088C23.6282 21.2289 24.0127 21.0084 23.9495 20.885ZM22.9874 21.1596C23.0041 21.2184 23.0277 21.2791 23.0597 21.3414C23.0342 21.2918 23.013 21.2402 22.9961 21.187C22.9933 21.178 22.9904 21.1688 22.9874 21.1596Z" fill="#633526"/>
<path d="M20.8404 14.3692C21.1545 14.7043 20.9357 15.4198 20.3517 15.9672C19.7677 16.5147 19.0396 16.6869 18.7255 16.3518C18.4114 16.0167 18.6302 15.3013 19.2142 14.7538C19.7982 14.2064 20.5263 14.0342 20.8404 14.3692Z" fill="#C26649"/>
<path d="M19.0895 20.8882C20.412 21.5391 20.6926 23.6748 19.7163 25.6585C18.74 27.6422 16.8764 28.7227 15.554 28.0718C14.2315 27.4209 13.9509 25.2852 14.9272 23.3015C15.9035 21.3178 17.767 20.2373 19.0895 20.8882Z" fill="#FF896F"/>
<path fill-rule="evenodd" clip-rule="evenodd" d="M17.5584 22.4805C17.9825 22.8342 18.0396 23.4648 17.6858 23.8889C17.4554 24.1651 17.3047 24.4566 17.2207 24.7686C17.0773 25.3019 16.5286 25.618 15.9953 25.4745C15.462 25.331 15.1459 24.7824 15.2894 24.249C15.4521 23.6443 15.7432 23.0954 16.15 22.6078C16.5037 22.1837 17.1343 22.1267 17.5584 22.4805Z" fill="white"/>
</g>
<defs>
<filter id="filter0_d" x="0" y="0" width="50" height="50" filterUnits="userSpaceOnUse" color-interpolation-filters="sRGB">
<feFlood flood-opacity="0" result="BackgroundImageFix"/>
<feColorMatrix in="SourceAlpha" type="matrix" values="0 0 0 0 0 0 0 0 0 0 0 0 0 0 0 0 0 0 127 0" result="hardAlpha"/>
<feOffset dx="2" dy="2"/>
<feColorMatrix type="matrix" values="0 0 0 0 0 0 0 0 0 0 0 0 0 0 0 0 0 0 0.2 0"/>
<feBlend mode="normal" in2="BackgroundImageFix" result="effect1_dropShadow"/>
<feBlend mode="normal" in="SourceGraphic" in2="effect1_dropShadow" result="shape"/>
</filter>
</defs>
</svg>
