<svg width="24" height="24" viewBox="0 0 24 24" fill="none" xmlns="http://www.w3.org/2000/svg">
<g clip-path="url(#clip0)">
<path d="M11.97 23.72C8.28003 23.72 5.27503 20.46 5.27503 16.455C5.27327 14.9792 5.69872 13.5344 6.50003 12.295C7.41786 10.9565 7.92209 9.37779 7.95003 7.75505C7.95003 5.70005 9.76003 4.05005 11.985 4.05005C14.21 4.05005 16 5.70005 16 7.73505C16.0303 9.3574 16.5343 10.9355 17.45 12.275C18.2453 13.5164 18.6654 14.9608 18.66 16.435C18.665 20.46 15.665 23.72 11.97 23.72ZM11.97 4.55005C10.02 4.55005 8.43503 5.98005 8.43503 7.73505C8.40289 9.45914 7.87142 11.1369 6.90503 12.565C6.16099 13.7256 5.76855 15.0765 5.77503 16.455C5.77503 20.185 8.55503 23.22 11.97 23.22C15.385 23.22 18.165 20.185 18.165 16.455C18.1715 15.0765 17.7791 13.7256 17.035 12.565C16.07 11.1434 15.5369 9.4729 15.5 7.75505V7.75505C15.5 6.00005 13.92 4.55005 11.97 4.55005V4.55005Z" stroke="#222525" stroke-opacity="0.54"/>
<path d="M12.5 4.53004H11.41L11.325 0.630037C11.3249 0.53843 11.3608 0.45047 11.425 0.385037C11.4563 0.353215 11.4936 0.327976 11.5349 0.310803C11.5761 0.29363 11.6203 0.28487 11.665 0.285037H12.41L12.505 0.385037C12.5339 0.421996 12.5539 0.465138 12.5635 0.511102C12.573 0.557066 12.5718 0.604612 12.56 0.650036L12.5 4.53004ZM11.895 4.03004H12L12.04 0.780036H11.815L11.895 4.03004Z" stroke="#222525" stroke-opacity="0.54"/>
<path d="M14.5401 3.94504C13.5401 3.94504 12.6051 3.71504 12.2651 3.41004C12.2058 3.35322 12.1637 3.28097 12.1433 3.20145C12.123 3.12193 12.1253 3.03831 12.1501 2.96004C12.3151 2.33504 13.7501 1.20504 14.9351 0.960041C15.852 0.756152 16.8116 0.887411 17.6401 1.33004C17.7214 1.37423 17.7928 1.43481 17.8496 1.50796C17.9064 1.58111 17.9474 1.66524 17.9701 1.75504C18.0751 2.33504 17.0451 3.55004 15.6751 3.84504C15.301 3.91613 14.9208 3.94963 14.5401 3.94504V3.94504ZM12.6401 3.06504C13.5627 3.46524 14.5883 3.56325 15.5701 3.34504C16.8101 3.08004 17.5001 2.05004 17.5001 1.83504C17.5001 1.62004 16.2701 1.18004 15.0601 1.44004C13.9251 1.68004 12.7351 2.72504 12.6401 3.06504V3.06504Z" stroke="#222525" stroke-opacity="0.54"/>
</g>
<defs>
<clipPath id="clip0">
<rect width="24" height="24" fill="white"/>
</clipPath>
</defs>
</svg>
