<svg width="309" height="285" viewBox="0 0 309 285" fill="none" xmlns="http://www.w3.org/2000/svg">
<path d="M85.4131 36.6644C85.4131 36.6644 42.0597 66.9682 23.9035 106.87C5.74731 146.771 14.163 193.614 47.3467 224.67C80.5304 255.727 133.948 243.554 182.321 259.396C230.694 275.239 279.975 263.694 294.84 213.742C309.706 163.789 274.936 150.752 261.818 97.185C248.701 43.6184 188.566 -29.1183 85.4131 36.6644Z" fill="#0A8080"/>
<path opacity="0.7" d="M85.4131 36.6644C85.4131 36.6644 42.0597 66.9682 23.9035 106.87C5.74731 146.771 14.163 193.614 47.3467 224.67C80.5304 255.727 133.948 243.554 182.321 259.396C230.694 275.239 279.975 263.694 294.84 213.742C309.706 163.789 274.936 150.752 261.818 97.185C248.701 43.6184 188.566 -29.1183 85.4131 36.6644Z" fill="white"/>
<path d="M156.744 58.932H108.228V122.998H156.744V58.932Z" stroke="#263238" stroke-linecap="round" stroke-linejoin="round"/>
<path d="M151.097 66.396H113.882V115.534H151.097V66.396Z" stroke="#263238" stroke-linecap="round" stroke-linejoin="round"/>
<path d="M83.9701 91.898H35.4541V155.964H83.9701V91.898Z" stroke="#263238" stroke-linecap="round" stroke-linejoin="round"/>
<path d="M78.3222 99.362H41.1079V148.5H78.3222V99.362Z" stroke="#263238" stroke-linecap="round" stroke-linejoin="round"/>
<path d="M229.177 108.468C244.573 106.926 255.803 93.1955 254.261 77.8003C252.719 62.4052 238.988 51.175 223.593 52.7171C208.198 54.2592 196.968 67.9895 198.51 83.3847C200.052 98.7798 213.782 110.01 229.177 108.468Z" stroke="#263238" stroke-linecap="round" stroke-linejoin="round"/>
<path d="M229.791 103.577C242.471 101.691 251.222 89.8819 249.336 77.2012C247.45 64.5205 235.641 55.7697 222.96 57.6558C210.28 59.5419 201.529 71.3507 203.415 84.0314C205.301 96.7121 217.11 105.463 229.791 103.577Z" stroke="#263238" stroke-linecap="round" stroke-linejoin="round"/>
<path d="M211.573 80.5963H226.383V101.962" stroke="#263238" stroke-linecap="round" stroke-linejoin="round"/>
<path d="M207.561 214.003L217.389 229.833C217.674 230.292 217.831 230.818 217.844 231.358C217.857 231.898 217.725 232.432 217.463 232.904C217.2 233.376 216.816 233.769 216.35 234.043C215.884 234.317 215.354 234.461 214.814 234.46H194.742C195.281 234.461 195.81 234.317 196.275 234.044C196.739 233.772 197.123 233.38 197.386 232.91C197.649 232.44 197.782 231.908 197.771 231.369C197.76 230.83 197.605 230.304 197.323 229.845L187.844 214.357L207.561 214.003Z" fill="white" stroke="#263238" stroke-linecap="round" stroke-linejoin="round"/>
<path d="M207.561 214.003L187.813 214.357L191.47 220.316H211.48L207.561 214.003Z" fill="#263238" stroke="#263238" stroke-linecap="round" stroke-linejoin="round"/>
<path d="M155.058 217.53H235.383C236.383 217.53 237.193 216.719 237.193 215.72V148.444C237.193 147.444 236.383 146.634 235.383 146.634H155.058C154.059 146.634 153.248 147.444 153.248 148.444V215.72C153.248 216.719 154.059 217.53 155.058 217.53Z" fill="white" stroke="#263238" stroke-linecap="round" stroke-linejoin="round"/>
<path d="M151.88 217.53H232.205C233.204 217.53 234.015 216.719 234.015 215.72V148.444C234.015 147.444 233.204 146.634 232.205 146.634H151.88C150.88 146.634 150.07 147.444 150.07 148.444V215.72C150.07 216.719 150.88 217.53 151.88 217.53Z" fill="white" stroke="#263238" stroke-linecap="round" stroke-linejoin="round"/>
<path d="M152.894 146.634H231.197C231.568 146.634 231.935 146.707 232.277 146.849C232.619 146.991 232.93 147.199 233.192 147.461C233.454 147.724 233.661 148.035 233.802 148.378C233.943 148.72 234.016 149.087 234.015 149.458V204.816H150.045V149.458C150.045 149.085 150.119 148.716 150.262 148.371C150.406 148.027 150.616 147.715 150.881 147.452C151.146 147.19 151.46 146.982 151.805 146.842C152.151 146.701 152.521 146.631 152.894 146.634Z" fill="#263238" stroke="#263238" stroke-linecap="round" stroke-linejoin="round"/>
<path d="M153.597 200.953H230.488V149.458H153.597V200.953Z" fill="white" stroke="#263238" stroke-linecap="round" stroke-linejoin="round"/>
<path d="M179.758 155.106H180.678V160.94H179.758V155.106Z" fill="#263238"/>
<path d="M182.165 156.723V160.94H181.338V155.087H182.495L183.44 158.589V155.087H184.261V160.94H183.316L182.165 156.723Z" fill="#263238"/>
<path d="M186.307 159.883L187.01 155.106H187.844L186.954 160.94H185.58L184.678 155.087H185.605L186.307 159.883Z" fill="#263238"/>
<path d="M188.198 156.511C188.186 156.32 188.212 156.128 188.277 155.948C188.341 155.767 188.442 155.602 188.573 155.462C188.704 155.322 188.862 155.211 189.038 155.134C189.214 155.058 189.403 155.019 189.595 155.019C189.786 155.019 189.976 155.058 190.152 155.134C190.328 155.211 190.486 155.322 190.617 155.462C190.748 155.602 190.849 155.767 190.913 155.948C190.977 156.128 191.004 156.32 190.991 156.511V159.553C191.004 159.744 190.977 159.936 190.913 160.116C190.849 160.297 190.748 160.462 190.617 160.602C190.486 160.742 190.328 160.854 190.152 160.93C189.976 161.006 189.786 161.046 189.595 161.046C189.403 161.046 189.214 161.006 189.038 160.93C188.862 160.854 188.704 160.742 188.573 160.602C188.442 160.462 188.341 160.297 188.277 160.116C188.212 159.936 188.186 159.744 188.198 159.553V156.511ZM189.119 159.621C189.119 160.038 189.306 160.194 189.598 160.194C189.89 160.194 190.071 160.038 190.071 159.621V156.462C190.071 156.039 189.89 155.883 189.598 155.883C189.306 155.883 189.119 156.039 189.119 156.462V159.621Z" fill="#263238"/>
<path d="M191.576 155.106H192.497V160.94H191.576V155.106Z" fill="#263238"/>
<path d="M195.843 158.775V159.553C195.843 160.492 195.376 161.027 194.474 161.027C194.281 161.042 194.087 161.014 193.906 160.944C193.726 160.873 193.563 160.763 193.431 160.622C193.299 160.48 193.201 160.31 193.143 160.125C193.086 159.94 193.071 159.745 193.1 159.553V156.511C193.071 156.32 193.086 156.124 193.143 155.939C193.201 155.754 193.299 155.584 193.431 155.443C193.563 155.301 193.726 155.191 193.906 155.121C194.087 155.05 194.281 155.022 194.474 155.037C195.376 155.037 195.843 155.572 195.843 156.511V157.077H194.978V156.455C194.978 156.032 194.791 155.877 194.499 155.877C194.207 155.877 194.02 156.032 194.02 156.455V159.615C194.02 160.032 194.207 160.181 194.499 160.181C194.791 160.181 194.978 160.032 194.978 159.615V158.775H195.843Z" fill="#263238"/>
<path d="M197.323 157.575H198.567V158.408H197.323V160.125H198.915V160.94H196.427V155.087H198.915V155.964H197.323V157.575Z" fill="#263238"/>
<path d="M227.764 163.273H156.794V167.664H227.764V163.273Z" fill="#0A8080"/>
<path d="M157.024 196.095V170.668H227.304V197.022" stroke="#263238" stroke-miterlimit="10"/>
<path d="M157.26 179.221H227.074" stroke="#263238" stroke-miterlimit="10"/>
<path d="M207.885 170.481V197.022" stroke="#263238" stroke-miterlimit="10"/>
<path d="M119.181 230.915H116.737V231.73H119.181V230.915Z" fill="white" stroke="#263238" stroke-linecap="round" stroke-linejoin="round"/>
<path d="M122.434 230.915H119.99V231.73H122.434V230.915Z" fill="white" stroke="#263238" stroke-linecap="round" stroke-linejoin="round"/>
<path d="M125.693 230.915H123.249V231.73H125.693V230.915Z" fill="white" stroke="#263238" stroke-linecap="round" stroke-linejoin="round"/>
<path d="M128.946 230.915H126.502V231.73H128.946V230.915Z" fill="white" stroke="#263238" stroke-linecap="round" stroke-linejoin="round"/>
<path d="M132.206 230.915H129.762V231.73H132.206V230.915Z" fill="white" stroke="#263238" stroke-linecap="round" stroke-linejoin="round"/>
<path d="M135.459 230.915H133.015V231.73H135.459V230.915Z" fill="white" stroke="#263238" stroke-linecap="round" stroke-linejoin="round"/>
<path d="M138.718 230.915H136.273V231.73H138.718V230.915Z" fill="white" stroke="#263238" stroke-linecap="round" stroke-linejoin="round"/>
<path d="M141.971 230.915H139.527V231.73H141.971V230.915Z" fill="white" stroke="#263238" stroke-linecap="round" stroke-linejoin="round"/>
<path d="M145.231 230.915H142.786V231.73H145.231V230.915Z" fill="white" stroke="#263238" stroke-linecap="round" stroke-linejoin="round"/>
<path d="M148.484 230.915H146.04V231.73H148.484V230.915Z" fill="white" stroke="#263238" stroke-linecap="round" stroke-linejoin="round"/>
<path d="M151.743 230.915H149.298V231.73H151.743V230.915Z" fill="white" stroke="#263238" stroke-linecap="round" stroke-linejoin="round"/>
<path d="M154.996 230.915H152.551V231.73H154.996V230.915Z" fill="white" stroke="#263238" stroke-linecap="round" stroke-linejoin="round"/>
<path d="M158.256 230.915H155.811V231.73H158.256V230.915Z" fill="white" stroke="#263238" stroke-linecap="round" stroke-linejoin="round"/>
<path d="M161.508 230.915H159.064V231.73H161.508V230.915Z" fill="white" stroke="#263238" stroke-linecap="round" stroke-linejoin="round"/>
<path d="M164.768 230.915H162.323V231.73H164.768V230.915Z" fill="white" stroke="#263238" stroke-linecap="round" stroke-linejoin="round"/>
<path d="M168.021 230.915H165.576V231.73H168.021V230.915Z" fill="white" stroke="#263238" stroke-linecap="round" stroke-linejoin="round"/>
<path d="M171.28 230.915H168.835V231.73H171.28V230.915Z" fill="white" stroke="#263238" stroke-linecap="round" stroke-linejoin="round"/>
<path d="M174.533 230.915H172.089V231.73H174.533V230.915Z" fill="white" stroke="#263238" stroke-linecap="round" stroke-linejoin="round"/>
<path d="M177.793 230.915H175.348V231.73H177.793V230.915Z" fill="white" stroke="#263238" stroke-linecap="round" stroke-linejoin="round"/>
<path d="M181.045 230.915H178.601V231.73H181.045V230.915Z" fill="white" stroke="#263238" stroke-linecap="round" stroke-linejoin="round"/>
<path d="M184.304 230.915H181.86V231.73H184.304V230.915Z" fill="white" stroke="#263238" stroke-linecap="round" stroke-linejoin="round"/>
<path d="M186.077 231.848H115.474V234.479H186.077V231.848Z" fill="white" stroke="#263238" stroke-linecap="round" stroke-linejoin="round"/>
<path d="M186.077 231.848H168.854V234.479H186.077V231.848Z" fill="#263238" stroke="#263238" stroke-linecap="round" stroke-linejoin="round"/>
<path d="M254.323 175.016V165.916H247.792V175.016H243.444L251.058 188.202L258.665 175.016H254.323Z" fill="#263238"/>
<path d="M204.016 142.591V141.658" stroke="#263238" stroke-miterlimit="10"/>
<path d="M204.016 139.823V133.261C204.016 132.106 204.475 130.999 205.291 130.182C206.108 129.366 207.215 128.907 208.37 128.907H246.934C248.089 128.907 249.196 129.366 250.013 130.182C250.829 130.999 251.288 132.106 251.288 133.261V161.562" stroke="#263238" stroke-miterlimit="10" stroke-dasharray="2.95 2.95"/>
<path d="M251.288 162.495V163.428" stroke="#263238" stroke-miterlimit="10"/>
<path d="M228.741 193.595H268.238C269.269 193.595 270.257 194.005 270.986 194.734C271.715 195.463 272.125 196.451 272.125 197.483V228.9H224.853V197.483C224.853 196.451 225.263 195.463 225.992 194.734C226.721 194.005 227.709 193.595 228.741 193.595Z" fill="#263238" stroke="#263238" stroke-miterlimit="10"/>
<path d="M269.637 189.241H227.341V228.9H269.637V189.241Z" fill="white" stroke="#263238" stroke-miterlimit="10"/>
<path d="M203.307 208.268H277.455C278.085 208.268 278.69 208.518 279.135 208.964C279.581 209.41 279.831 210.014 279.831 210.644V234.187H203.325V208.268H203.307Z" fill="#263238" stroke="#263238" stroke-miterlimit="10"/>
<path d="M193.479 208.268H267.031C267.425 208.268 267.803 208.425 268.082 208.703C268.361 208.982 268.517 209.36 268.517 209.755V234.187H192.011V209.755C192.011 209.364 192.165 208.988 192.44 208.71C192.715 208.432 193.088 208.273 193.479 208.268Z" fill="#636363" stroke="#263238" stroke-miterlimit="10"/>
<path d="M198.58 208.268H261.937V225.236C261.937 226.627 261.384 227.961 260.401 228.944C259.417 229.927 258.084 230.48 256.693 230.48H203.823C202.432 230.48 201.099 229.927 200.115 228.944C199.132 227.961 198.58 226.627 198.58 225.236V208.268Z" fill="#636363" stroke="#263238" stroke-miterlimit="10"/>
<path d="M250.212 208.268H210.304V234.187H250.212V208.268Z" fill="#263238" stroke="#263238" stroke-miterlimit="10"/>
<path d="M213.8 221.753C213.8 221.753 215.156 228.203 212.096 230.585C209.035 232.968 193.753 232.451 193.753 232.451H243.693C243.693 232.451 249.808 233.981 249.465 222.941L213.8 221.753Z" fill="white" stroke="#263238" stroke-miterlimit="10"/>
<path d="M244.421 231.487H212.45L214.198 230.511H245.677L244.421 231.487Z" fill="#0A8080"/>
<path d="M216.611 224.023C216.611 227.967 215.678 229.416 215.678 229.416H246.486C246.486 229.416 247.836 228.589 248.147 224.129" stroke="#A3A3A3" stroke-miterlimit="10"/>
<path d="M216.201 227.55H247.419" stroke="#A3A3A3" stroke-miterlimit="10"/>
<path d="M216.512 225.578H247.836" stroke="#A3A3A3" stroke-miterlimit="10"/>
<path d="M236.633 229.31C236.633 229.31 238.188 227.861 238.083 224.023" stroke="#A3A3A3" stroke-miterlimit="10"/>
<path d="M250.212 208.268H210.304V223.14H250.212V208.268Z" fill="#636363" stroke="#263238" stroke-miterlimit="10"/>
<path d="M250.205 232.482H206.684V234.187H250.205V232.482Z" fill="#263238" stroke="#263238" stroke-miterlimit="10"/>
<path d="M208.861 208.268H251.649V210.327C251.647 211.413 251.216 212.454 250.449 213.223C249.682 213.993 248.642 214.427 247.556 214.432H212.979C211.889 214.432 210.843 213.999 210.072 213.228C209.301 212.457 208.868 211.411 208.868 210.321V208.262L208.861 208.268Z" fill="#263238" stroke="#263238" stroke-miterlimit="10"/>
<path d="M266.048 212.896C266.048 213.16 265.97 213.419 265.823 213.639C265.676 213.859 265.467 214.03 265.223 214.131C264.978 214.232 264.709 214.259 264.45 214.207C264.191 214.156 263.952 214.028 263.765 213.841C263.578 213.654 263.451 213.416 263.399 213.157C263.348 212.897 263.374 212.628 263.475 212.384C263.577 212.14 263.748 211.931 263.968 211.784C264.188 211.637 264.446 211.558 264.711 211.558C265.066 211.558 265.406 211.699 265.656 211.95C265.907 212.201 266.048 212.541 266.048 212.896Z" fill="white" stroke="#263238" stroke-miterlimit="10"/>
<path d="M266.048 218.861C266.048 219.125 265.97 219.384 265.823 219.604C265.676 219.824 265.467 219.995 265.223 220.096C264.978 220.197 264.709 220.224 264.45 220.172C264.191 220.121 263.952 219.993 263.765 219.806C263.578 219.619 263.451 219.381 263.399 219.122C263.348 218.862 263.374 218.593 263.475 218.349C263.577 218.105 263.748 217.896 263.968 217.749C264.188 217.602 264.446 217.523 264.711 217.523C265.066 217.523 265.406 217.664 265.656 217.915C265.907 218.166 266.048 218.506 266.048 218.861Z" fill="white" stroke="#263238" stroke-miterlimit="10"/>
<path d="M265.028 232.066H264.219C263.926 232.066 263.644 231.949 263.437 231.741C263.229 231.534 263.112 231.252 263.112 230.959C263.112 230.664 263.229 230.382 263.436 230.173C263.644 229.965 263.925 229.847 264.219 229.845H265.028C265.174 229.845 265.318 229.874 265.453 229.93C265.588 229.986 265.71 230.068 265.813 230.172C265.916 230.275 265.997 230.398 266.053 230.533C266.108 230.668 266.136 230.813 266.135 230.959C266.135 231.252 266.019 231.534 265.811 231.741C265.603 231.949 265.322 232.066 265.028 232.066Z" fill="#263238" stroke="#263238" stroke-miterlimit="10"/>
<path d="M229.531 268.403V241.34H217.607V268.496" fill="white"/>
<path d="M229.531 268.403V241.34H217.607V268.496" stroke="#263238" stroke-linecap="round" stroke-linejoin="round"/>
<path d="M229.536 241.34H223.571V268.739H229.536V241.34Z" fill="#263238" stroke="#263238" stroke-linecap="round" stroke-linejoin="round"/>
<path d="M282.942 268.403V241.34H271.012V268.496" fill="white"/>
<path d="M282.942 268.403V241.34H271.012V268.496" stroke="#263238" stroke-linecap="round" stroke-linejoin="round"/>
<path d="M282.942 241.34H276.977V268.739H282.942V241.34Z" fill="#263238" stroke="#263238" stroke-linecap="round" stroke-linejoin="round"/>
<path d="M286.12 236.706H42.918V246.148H286.12V236.706Z" fill="white" stroke="#263238" stroke-miterlimit="10"/>
<path d="M286.12 236.706H227.602V246.148H286.12V236.706Z" fill="#263238" stroke="#263238" stroke-miterlimit="10"/>
<path d="M286.12 234.131H42.918V237.446H286.12V234.131Z" fill="white" stroke="#263238" stroke-miterlimit="10"/>
<path d="M286.12 234.131H232.908V237.446H286.12V234.131Z" fill="#263238" stroke="#263238" stroke-miterlimit="10"/>
<path d="M120.394 105.004C120.394 105.004 120.836 108.841 120.543 110.315C120.251 111.79 118.628 112.679 118.771 113.712C118.914 114.744 122.609 120.056 120.836 121.829C119.936 122.805 118.826 123.562 117.589 124.043L116.413 126.73C116.413 126.73 109.329 131.308 106.524 132.49C103.718 133.672 106.225 139.276 106.225 139.276L98.9912 137.652L97.2247 146.012C97.2247 146.012 91.7635 140.694 84.3804 138.337C76.9972 135.979 74.1982 136.271 74.1982 136.271C75.3949 133.319 76.2849 130.251 76.8542 127.116C77.8867 121.654 78.4776 109.55 78.4776 108.667C78.4776 107.784 83.1986 94.2056 87.3349 91.5435C91.4712 88.8813 108.29 91.842 117.147 94.0315C126.005 96.2209 122.167 102.59 122.167 102.59L120.394 105.004Z" fill="white" stroke="#263238" stroke-miterlimit="10"/>
<path d="M120.102 109.725C120.102 109.725 119.66 108.101 117.738 108.692C115.816 109.283 115.375 110.315 116.115 110.315C116.855 110.315 118.603 109.432 119.069 110.315C119.536 111.199 119.953 110.757 120.102 109.725Z" fill="#263238" stroke="#263238" stroke-miterlimit="10"/>
<path d="M117.446 115.036L116.557 115.484C116.557 115.484 117.888 116.368 117.297 118.433C116.706 120.498 116.115 122.27 116.115 122.27" stroke="#263238" stroke-miterlimit="10"/>
<path d="M112.128 101.017C112.128 101.017 113.459 106.615 112.868 107.809C112.277 109.003 107.848 110.614 107.407 112.237C106.965 113.861 106.082 122.569 106.374 124.192C106.667 125.816 107.407 128.621 108.147 128.621C108.887 128.621 114.367 124.485 116.413 124.335C118.46 124.186 117.589 127.881 116.556 129.063C115.524 130.244 113.446 130.537 113.608 131.868C113.77 133.199 116.413 137.771 113.459 141.758C110.504 145.745 107.114 144.868 103.569 142.05C100.024 139.232 99.439 134.524 100.459 131.868C101.479 129.212 103.115 122.27 103.264 119.173C103.414 116.075 102.673 112.088 100.459 112.953C98.2448 113.817 100.017 122.55 98.394 124.466C96.7706 126.382 90.2707 131.849 88.5042 131.849C86.7378 131.849 77.1341 127.57 76.8417 127.122C76.5494 126.674 77.725 106.901 76.5494 99.0821C75.3738 91.2636 78.1728 85.6469 87.1732 82.991C96.1735 80.335 112.582 85.224 112.582 85.224C112.582 85.224 110.958 82.568 114.498 81.3862C118.037 80.2044 126.452 83.4513 127.043 88.7694C127.634 94.0875 124.555 94.2305 124.978 95.997C125.401 97.7635 131.03 101.166 128.088 103.971C125.146 106.776 120.413 105.004 120.413 105.004L119.822 100.426C119.822 100.426 116.706 96.5879 112.128 101.017Z" fill="#263238" stroke="#263238" stroke-miterlimit="10"/>
<path d="M112.868 112.088L98.8482 111.647C98.8482 111.647 95.8937 112.38 95.6013 114.004C95.309 115.627 95.0104 119.465 95.8937 119.602C96.7769 119.739 96.7831 118.719 96.7831 117.388C96.7831 116.056 96.7831 113.991 97.9587 113.257C98.9724 112.752 100.076 112.449 101.206 112.368L113.167 113.55L124.363 114.439V112.517L112.868 112.088Z" fill="#5E5E5E" stroke="#263238" stroke-miterlimit="10"/>
<path d="M102.829 117.842C102.829 117.842 103.277 113.121 100.913 111.79C98.5494 110.459 96.926 114.153 96.7829 117.388C96.6399 120.622 98.848 124.621 101.653 123.881" fill="white"/>
<path d="M102.829 117.842C102.829 117.842 103.277 113.121 100.913 111.79C98.5494 110.459 96.926 114.153 96.7829 117.388C96.6399 120.622 98.848 124.621 101.653 123.881" stroke="#263238" stroke-miterlimit="10"/>
<path d="M124.4 114.452C124.4 114.452 124.692 117.842 123.367 119.465C122.865 120.055 122.265 120.556 121.595 120.945" stroke="#263238" stroke-miterlimit="10"/>
<path d="M165.539 141.932L159.605 162.7L155.158 174.568L150.338 187.356C150.338 187.356 136.983 187.176 131.056 186.063C125.128 184.949 114.448 181.155 114.448 181.155C119.721 172.739 123.803 163.634 126.577 154.098C129.096 145.291 131.049 138.225 131.049 138.225L165.539 141.932Z" fill="white" stroke="#263238" stroke-miterlimit="10"/>
<path d="M135.82 151.448C135.82 151.448 131.379 167.39 129.562 170.618L151.146 173.846C151.146 173.846 155.183 166.781 158.212 154.471L135.82 151.448Z" stroke="#A3A3A3" stroke-miterlimit="10"/>
<path d="M134.607 155.081L157.005 158.104" stroke="#A3A3A3" stroke-miterlimit="10"/>
<path d="M133.6 160.324L155.121 163.179" stroke="#A3A3A3" stroke-miterlimit="10"/>
<path d="M131.827 165.655L153.423 168.684" stroke="#A3A3A3" stroke-miterlimit="10"/>
<path d="M145.903 167.682L141.667 179.295L148.528 180.707L150.953 172.634" stroke="#A3A3A3" stroke-miterlimit="10"/>
<path d="M121.29 171.825L130.166 173.442" stroke="#A3A3A3" stroke-miterlimit="10"/>
<path d="M120.687 173.038L129.562 174.655" stroke="#A3A3A3" stroke-miterlimit="10"/>
<path d="M120.077 174.251L128.959 175.862" stroke="#A3A3A3" stroke-miterlimit="10"/>
<path d="M131.988 139.674L129.313 148.948L160.538 152.699L163.567 143.418L131.988 139.674Z" fill="#0A8080"/>
<path d="M133.108 141.503L133.786 141.571L132.542 145.925L131.864 145.85L133.108 141.503Z" fill="#263238"/>
<path d="M134.564 142.902L133.674 146.012L133.052 145.95L134.296 141.596L135.142 141.683L135.105 144.345L135.839 141.758L136.461 141.82L135.217 146.143L134.52 146.074L134.564 142.902Z" fill="#263238"/>
<path d="M136.952 145.527L138.476 142.05L139.098 142.118L137.232 146.373L136.218 146.267L136.784 141.876L137.468 141.944L136.952 145.527Z" fill="#263238"/>
<path d="M139.054 143.182C139.109 142.877 139.279 142.605 139.529 142.422C139.779 142.239 140.09 142.159 140.398 142.199C141.063 142.268 141.312 142.703 141.113 143.393L140.491 145.639C140.439 145.944 140.27 146.217 140.021 146.4C139.771 146.584 139.46 146.663 139.154 146.622C138.488 146.553 138.233 146.124 138.432 145.427L139.054 143.182ZM139.054 145.546C138.967 145.85 139.054 145.981 139.284 146.006C139.514 146.031 139.67 145.925 139.757 145.614L140.423 143.281C140.51 142.97 140.423 142.84 140.192 142.815C139.962 142.79 139.807 142.896 139.72 143.207L139.054 145.546Z" fill="#263238"/>
<path d="M141.847 142.398L142.525 142.467L141.281 146.821L140.603 146.752L141.847 142.398Z" fill="#263238"/>
<path d="M144.217 145.434L144.049 146.012C144.002 146.316 143.837 146.589 143.59 146.772C143.344 146.956 143.035 147.036 142.731 146.995C142.065 146.926 141.835 146.491 142.028 145.801L142.65 143.555C142.699 143.25 142.865 142.977 143.112 142.792C143.359 142.608 143.669 142.527 143.975 142.566C144.64 142.635 144.87 143.07 144.677 143.76L144.553 144.183L143.931 144.115L144.062 143.648C144.155 143.344 144.062 143.213 143.831 143.188C143.601 143.163 143.452 143.269 143.359 143.58L142.693 145.912C142.606 146.223 142.693 146.348 142.93 146.373C143.166 146.398 143.309 146.298 143.396 145.987L143.576 145.365L144.217 145.434Z" fill="#263238"/>
<path d="M145.548 144.656L146.481 144.756L146.3 145.378L145.374 145.284L145.013 146.528L146.182 146.653L146.008 147.275L144.142 147.082L145.386 142.759L147.252 142.952L147.078 143.574L145.902 143.449L145.548 144.656Z" fill="#263238"/>
<path d="M159.854 146.186C159.912 146.657 159.826 147.135 159.606 147.556C159.386 147.977 159.043 148.321 158.622 148.542C158.202 148.763 157.725 148.851 157.253 148.794C156.782 148.737 156.339 148.539 155.983 148.224C155.628 147.909 155.376 147.494 155.263 147.033C155.149 146.572 155.178 146.087 155.346 145.643C155.515 145.199 155.814 144.817 156.205 144.547C156.596 144.278 157.059 144.133 157.534 144.134C158.114 144.1 158.683 144.296 159.118 144.681C159.553 145.066 159.817 145.607 159.854 146.186Z" fill="white"/>
<path d="M137.73 206.085C137.73 206.085 143.29 192.923 143.844 187.73C144.398 182.536 144.771 177.715 146.071 176.235C147.371 174.755 150.338 167.707 150.891 165.661C151.445 163.615 152.757 161.581 154.225 163.061C155.693 164.541 155.158 168.068 154.598 169.368C154.039 170.668 153.298 172.708 153.298 172.708L157.192 168.441L159.606 162.694C159.606 162.694 161.646 162.694 162.013 164.56C162.38 166.426 164.613 169.194 164.053 170.861C163.647 171.919 162.852 172.782 161.832 173.274C161.832 173.274 162.759 177.908 162.572 179.575C162.151 181.765 160.967 183.735 159.232 185.136C157.366 186.616 152.191 191.437 152.191 191.437C152.191 191.437 154.785 211.092 152.191 220.733C149.598 230.374 144.957 233.341 141.617 233.901C138.277 234.46 131.796 227.059 131.796 227.059C131.796 227.059 138.657 223.513 137.73 206.085Z" fill="white" stroke="#263238" stroke-miterlimit="10"/>
<path d="M161.832 173.268L158.865 176.235" stroke="#263238" stroke-miterlimit="10"/>
<path d="M157.192 168.448L160.159 166.034" stroke="#263238" stroke-miterlimit="10"/>
<path d="M72.152 132.533C72.152 132.533 77.3333 131.289 85.214 134.611C90.9854 136.944 96.0566 140.727 99.9368 145.595C101.642 147.889 103.035 150.399 104.079 153.059C104.079 153.059 74.018 141.453 70.7028 141.453H63.2388C63.2388 141.453 67.176 132.95 72.152 132.533Z" fill="white" stroke="#263238" stroke-miterlimit="10"/>
<path d="M175.404 268.751C151.352 247.603 113.826 247.603 113.826 247.603L108.228 242.217H41.6245V269.056" fill="white"/>
<path d="M175.404 268.751C151.352 247.603 113.826 247.603 113.826 247.603L108.228 242.217H41.6245V269.056" stroke="#263238" stroke-miterlimit="10"/>
<path d="M112.377 248.847C112.377 248.847 109.267 262.326 103.252 268.129" stroke="#263238" stroke-miterlimit="10"/>
<path d="M110.511 247.815C108.166 253.127 104.353 257.659 99.52 260.877" stroke="#263238" stroke-miterlimit="10"/>
<path d="M64.0659 138.965C64.0659 138.965 68.6252 137.926 77.5447 139.792C86.4641 141.658 99.5199 149.327 105.323 151.815C111.126 154.303 115.692 154.515 116.731 158.247C117.769 161.979 129.171 197.221 134.147 201.165C141.48 206.974 148.453 217.175 140.367 225.628C135.596 230.604 129.171 231.021 126.266 229.982C123.361 228.943 116.314 221.691 116.314 219.408V216.503L102.63 200.748C102.63 200.748 105.535 225.423 106.779 228.738C108.023 232.053 111.338 236.824 111.338 238.895C111.338 240.967 106.567 245.115 100.969 248.642C95.3712 252.169 89.7732 255.279 76.9227 255.901C64.0721 256.523 48.7212 254.445 45.4059 250.091C42.0907 245.737 37.9419 240.556 37.5252 233.297C37.1084 226.039 35.6592 197.433 35.6592 197.433C35.6592 197.433 36.4927 174.207 37.1147 166.538C37.7367 158.869 39.3912 153.893 43.3347 152.232C47.2781 150.571 61.3727 138.965 64.0659 138.965Z" fill="#0A8080" stroke="#263238" stroke-miterlimit="10"/>
<path d="M70.5039 186.778C71.0723 187.672 71.6954 188.53 72.3699 189.347" stroke="#263238" stroke-miterlimit="10"/>
<path d="M61.1611 157.83C61.1611 157.83 63.3879 173.38 68.961 184.097" stroke="#263238" stroke-miterlimit="10"/>
<path d="M62.6167 177.317C62.6167 177.317 67.176 192.04 74.2232 199.709" stroke="#263238" stroke-miterlimit="10"/>
<path d="M92.2612 188.308L102.63 200.748" stroke="#263238" stroke-miterlimit="10"/>
<path d="M89.1514 184.576L90.7686 186.51" stroke="#263238" stroke-miterlimit="10"/>
<path d="M89.5679 190.174L99.3146 197.221" stroke="#263238" stroke-miterlimit="10"/>
<path d="M103.457 162.806C103.457 162.806 93.7169 172.136 93.9221 182.915" stroke="#263238" stroke-miterlimit="10"/>
<path d="M134.147 201.165C134.147 201.165 137.667 208.007 132.486 212.983C127.305 217.959 116.314 216.503 116.314 216.503V219.408C116.314 221.691 123.361 228.943 126.266 229.982C129.171 231.021 135.596 230.604 140.367 225.628C148.465 217.175 141.48 206.968 134.147 201.165Z" fill="white" stroke="#263238" stroke-miterlimit="10"/>
<path d="M106.779 228.738L95.583 218.164" stroke="#263238" stroke-miterlimit="10"/>
<path d="M89.3628 212.149L100.347 220.03" stroke="#263238" stroke-miterlimit="10"/>
<path d="M73.6074 223.246C74.399 223.822 75.2304 224.342 76.0954 224.801" stroke="#263238" stroke-miterlimit="10"/>
<path d="M49.5547 205.102C49.5547 205.102 62.032 214.843 69.9687 220.652" stroke="#263238" stroke-miterlimit="10"/>
<path d="M52.043 211.322C52.043 211.322 61.1615 217.959 62.617 218.786" stroke="#263238" stroke-miterlimit="10"/>
<path d="M41.5186 215.987H90.6566C92.1826 215.987 93.646 216.593 94.725 217.672C95.804 218.751 96.4101 220.215 96.4101 221.741V263.726C96.4101 264.839 95.9678 265.907 95.1804 266.694C94.3931 267.482 93.3252 267.924 92.2116 267.924H39.9636C38.8501 267.924 37.7822 267.482 36.9948 266.694C36.2075 265.907 35.7651 264.839 35.7651 263.726V221.741C35.7651 220.215 36.3713 218.751 37.4503 217.672C38.5293 216.593 39.9927 215.987 41.5186 215.987Z" fill="#263238" stroke="#263238" stroke-miterlimit="10"/>
<path d="M36.5426 215.987H85.6806C87.2065 215.987 88.6699 216.593 89.7489 217.672C90.8279 218.751 91.4341 220.215 91.4341 221.741V263.726C91.4341 264.839 90.9917 265.907 90.2043 266.694C89.417 267.482 88.3491 267.924 87.2356 267.924H34.9876C33.8741 267.924 32.8061 267.482 32.0188 266.694C31.2314 265.907 30.7891 264.839 30.7891 263.726V221.741C30.7891 220.215 31.3952 218.751 32.4742 217.672C33.5532 216.593 35.0166 215.987 36.5426 215.987Z" fill="#636363" stroke="#263238" stroke-miterlimit="10"/>
<path d="M42.296 271.538V231.226C42.296 230.731 42.0994 230.257 41.7494 229.907C41.3995 229.557 40.9249 229.36 40.43 229.36C39.9351 229.36 39.4604 229.557 39.1105 229.907C38.7606 230.257 38.564 230.731 38.564 231.226V271.538H42.296Z" fill="#263238"/>
<path d="M76.1949 271.538V231.226C76.1949 230.731 75.9983 230.257 75.6484 229.907C75.2984 229.557 74.8238 229.36 74.3289 229.36C73.834 229.36 73.3594 229.557 73.0094 229.907C72.6595 230.257 72.4629 230.731 72.4629 231.226V271.538H76.1949Z" fill="#263238"/>
</svg>
