<svg width="360" height="340" viewBox="0 0 360 340" fill="none" xmlns="http://www.w3.org/2000/svg">
<path opacity="0.7" d="M48.9096 100.304C48.9096 100.304 28.836 152.144 57.0456 204.344C85.2552 256.544 143.359 284.12 189.864 307.7C236.369 331.28 284.659 319.796 307.606 281.176C330.552 242.555 299.081 214.986 299.038 159.913C298.994 104.84 307.282 90.2604 277.438 43.734C247.594 -2.79238 174.434 -13.0956 119.11 21.414C63.7848 55.9236 48.9096 100.304 48.9096 100.304Z" fill="white"/>
<path d="M169.286 5.71847C258.566 -2.20153 258.746 48.1481 298.987 95.0921C339.228 142.036 347.832 163.312 332.64 217.427C317.448 271.542 266.4 313.958 203.141 289.924C139.882 265.89 103.68 288.966 63.7992 267.604C23.9184 246.242 9.07921 205.029 38.2968 156.429C67.5144 107.829 59.1696 15.5249 169.286 5.71847Z" fill="#0A8080"/>
<path opacity="0.7" d="M169.286 5.71847C258.566 -2.20153 258.746 48.1481 298.987 95.0921C339.228 142.036 347.832 163.312 332.64 217.427C317.448 271.542 266.4 313.958 203.141 289.924C139.882 265.89 103.68 288.966 63.7992 267.604C23.9184 246.242 9.07921 205.029 38.2968 156.429C67.5144 107.829 59.1696 15.5249 169.286 5.71847Z" fill="white"/>
<path d="M228.74 27.265L88.4067 42.8818L110.116 237.964L250.449 222.347L228.74 27.265Z" fill="white" stroke="#263238" stroke-linecap="round" stroke-linejoin="round"/>
<path d="M228.739 27.2659L88.4062 42.8828L91.41 69.8746L231.743 54.2577L228.739 27.2659Z" fill="#BFBFBF" stroke="#263238" stroke-linecap="round" stroke-linejoin="round"/>
<path d="M189.749 39.7028L129.168 46.442C128.886 46.456 128.611 46.5273 128.358 46.6514C128.105 46.7756 127.88 46.95 127.696 47.1641C127.513 47.3782 127.375 47.6274 127.291 47.8965C127.208 48.1656 127.18 48.449 127.209 48.7293C127.238 49.0096 127.325 49.281 127.462 49.5269C127.6 49.7727 127.787 49.9879 128.01 50.1593C128.234 50.3307 128.491 50.4546 128.764 50.5236C129.037 50.5925 129.322 50.605 129.6 50.5604L190.181 43.8212C190.711 43.741 191.189 43.4587 191.516 43.0334C191.842 42.6082 191.991 42.073 191.931 41.5403C191.872 41.0076 191.608 40.5186 191.196 40.176C190.784 39.8334 190.255 39.6638 189.72 39.7028H189.749Z" fill="white"/>
<path d="M175.543 49.8397L145.26 53.2093C145.125 53.2227 144.994 53.2629 144.874 53.3276C144.755 53.3923 144.649 53.4802 144.564 53.5861C144.479 53.6921 144.416 53.8139 144.378 53.9445C144.341 54.0751 144.33 54.2119 144.346 54.3469C144.375 54.6198 144.511 54.87 144.724 55.0428C144.937 55.2155 145.21 55.2967 145.483 55.2685L175.774 51.8989C176.039 51.8588 176.278 51.7176 176.441 51.505C176.604 51.2924 176.679 51.0248 176.649 50.7584C176.619 50.4921 176.487 50.2476 176.281 50.0763C176.075 49.905 175.811 49.8202 175.543 49.8397Z" fill="white"/>
<path opacity="0.3" d="M198.18 73.1826L118.8 82.0098C118.597 82.0327 118.411 82.1355 118.283 82.2955C118.155 82.4555 118.097 82.6596 118.12 82.863C118.143 83.0664 118.245 83.2523 118.405 83.3799C118.565 83.5075 118.769 83.5663 118.973 83.5434L198.331 74.7162C198.535 74.6933 198.721 74.5905 198.848 74.4305C198.976 74.2705 199.035 74.0664 199.012 73.863C198.989 73.6596 198.886 73.4737 198.726 73.3461C198.566 73.2185 198.362 73.1597 198.158 73.1826H198.18Z" fill="black"/>
<path opacity="0.3" d="M198.792 78.6899L107.525 88.8419C107.321 88.8649 107.135 88.9676 107.008 89.1276C106.88 89.2876 106.821 89.4918 106.844 89.6951C106.867 89.8985 106.97 90.0844 107.13 90.212C107.29 90.3396 107.494 90.3985 107.698 90.3755L198.965 80.2235C199.069 80.2173 199.17 80.1901 199.263 80.1435C199.356 80.0969 199.439 80.032 199.506 79.9526C199.574 79.8732 199.624 79.781 199.655 79.6815C199.686 79.5821 199.696 79.4775 199.685 79.3739C199.673 79.2694 199.641 79.1683 199.589 79.0767C199.538 78.9851 199.468 78.9049 199.385 78.841C199.301 78.7771 199.206 78.7307 199.104 78.7047C199.002 78.6788 198.896 78.6738 198.792 78.6899Z" fill="black"/>
<path opacity="0.3" d="M175.586 86.8481L108.137 94.3505C107.933 94.3734 107.747 94.4761 107.62 94.6361C107.492 94.7961 107.433 95.0003 107.456 95.2037C107.479 95.407 107.582 95.5929 107.742 95.7205C107.902 95.8481 108.106 95.907 108.31 95.884L175.752 88.3817C175.856 88.3754 175.957 88.3482 176.051 88.3016C176.144 88.2551 176.226 88.1901 176.294 88.1107C176.361 88.0313 176.411 87.9391 176.442 87.8397C176.473 87.7402 176.483 87.6356 176.472 87.5321C176.461 87.4283 176.428 87.3278 176.377 87.2368C176.326 87.1457 176.257 87.0659 176.174 87.002C176.092 86.9382 175.997 86.8917 175.896 86.8652C175.795 86.8388 175.69 86.8329 175.586 86.8481Z" fill="black"/>
<path opacity="0.3" d="M218.306 70.257L210.256 71.1529C209.173 71.2734 208.393 72.2489 208.513 73.3318L209.409 81.3821C209.53 82.4649 210.505 83.2451 211.588 83.1246L219.639 82.2287C220.721 82.1082 221.502 81.1327 221.381 80.0498L220.485 71.9995C220.365 70.9167 219.389 70.1365 218.306 70.257Z" stroke="#263238" stroke-linecap="round" stroke-linejoin="round"/>
<path d="M211.687 76.4442L214.337 78.9426L217.822 73.6074" stroke="#0A8080" stroke-width="3" stroke-linecap="round" stroke-linejoin="round"/>
<path opacity="0.3" d="M201.082 99.2754L121.723 108.103C121.52 108.125 121.334 108.228 121.206 108.388C121.079 108.548 121.02 108.752 121.043 108.956C121.066 109.159 121.168 109.345 121.328 109.473C121.489 109.6 121.693 109.659 121.896 109.636L201.254 100.809C201.355 100.798 201.453 100.767 201.541 100.718C201.63 100.669 201.708 100.603 201.771 100.523C201.835 100.444 201.881 100.353 201.91 100.256C201.938 100.158 201.946 100.056 201.935 99.9558C201.923 99.8551 201.892 99.7576 201.843 99.6689C201.794 99.5802 201.728 99.502 201.649 99.4389C201.57 99.3757 201.479 99.3287 201.382 99.3007C201.284 99.2726 201.182 99.264 201.082 99.2754Z" fill="black"/>
<path opacity="0.3" d="M201.694 104.783L110.426 114.935C110.326 114.947 110.228 114.978 110.14 115.027C110.051 115.076 109.973 115.142 109.91 115.221C109.846 115.3 109.799 115.391 109.771 115.488C109.743 115.586 109.735 115.688 109.746 115.788C109.757 115.889 109.788 115.987 109.837 116.075C109.886 116.164 109.952 116.242 110.032 116.305C110.111 116.368 110.202 116.415 110.299 116.443C110.397 116.472 110.499 116.48 110.599 116.469L201.866 106.317C202.07 106.294 202.256 106.191 202.383 106.031C202.511 105.871 202.57 105.667 202.547 105.464C202.524 105.26 202.421 105.074 202.261 104.947C202.101 104.819 201.897 104.76 201.694 104.783Z" fill="black"/>
<path opacity="0.3" d="M178.488 112.941L111.038 120.443C110.835 120.466 110.649 120.569 110.522 120.729C110.394 120.889 110.335 121.093 110.358 121.296C110.381 121.5 110.484 121.686 110.644 121.813C110.804 121.941 111.008 122 111.211 121.977L178.654 114.474C178.758 114.468 178.859 114.441 178.952 114.394C179.045 114.348 179.128 114.283 179.195 114.203C179.262 114.124 179.313 114.032 179.344 113.932C179.374 113.833 179.385 113.728 179.374 113.625C179.362 113.521 179.33 113.421 179.279 113.33C179.228 113.238 179.159 113.159 179.076 113.095C178.993 113.031 178.899 112.984 178.798 112.958C178.697 112.932 178.591 112.926 178.488 112.941Z" fill="black"/>
<path opacity="0.3" d="M221.21 96.3439L213.16 97.2398C212.077 97.3603 211.297 98.3358 211.418 99.4187L212.313 107.469C212.434 108.552 213.409 109.332 214.492 109.212L222.543 108.316C223.625 108.195 224.406 107.22 224.285 106.137L223.389 98.0864C223.269 97.0036 222.293 96.2234 221.21 96.3439Z" stroke="#263238" stroke-linecap="round" stroke-linejoin="round"/>
<path d="M214.596 102.537L217.238 105.035L220.723 99.7002" stroke="#0A8080" stroke-width="3" stroke-linecap="round" stroke-linejoin="round"/>
<path opacity="0.3" d="M203.983 125.368L124.625 134.195C124.434 134.232 124.265 134.339 124.15 134.496C124.035 134.652 123.983 134.846 124.005 135.039C124.027 135.231 124.121 135.409 124.268 135.535C124.414 135.662 124.604 135.729 124.798 135.722L204.156 126.88C204.257 126.869 204.354 126.838 204.443 126.789C204.532 126.74 204.61 126.674 204.673 126.595C204.736 126.515 204.783 126.424 204.811 126.327C204.839 126.23 204.848 126.128 204.836 126.027C204.825 125.926 204.794 125.829 204.745 125.74C204.696 125.651 204.63 125.573 204.551 125.51C204.472 125.447 204.381 125.4 204.283 125.372C204.186 125.344 204.084 125.335 203.983 125.347V125.368Z" fill="black"/>
<path opacity="0.3" d="M204.602 130.876L113.328 141.028C113.227 141.037 113.129 141.067 113.04 141.116C112.951 141.164 112.873 141.23 112.81 141.309C112.747 141.388 112.7 141.479 112.673 141.577C112.646 141.675 112.638 141.777 112.651 141.877C112.662 141.978 112.693 142.076 112.741 142.164C112.79 142.253 112.855 142.332 112.934 142.395C113.013 142.459 113.104 142.506 113.201 142.535C113.298 142.563 113.4 142.572 113.501 142.561L204.768 132.409C204.872 132.402 204.974 132.374 205.067 132.327C205.16 132.279 205.243 132.214 205.31 132.134C205.377 132.054 205.428 131.961 205.458 131.861C205.489 131.761 205.499 131.656 205.488 131.552C205.477 131.449 205.444 131.349 205.393 131.258C205.342 131.167 205.273 131.088 205.19 131.024C205.107 130.961 205.012 130.915 204.911 130.89C204.81 130.864 204.705 130.859 204.602 130.876Z" fill="black"/>
<path opacity="0.3" d="M181.39 139.033L113.94 146.536C113.737 146.558 113.551 146.661 113.423 146.821C113.296 146.981 113.237 147.185 113.26 147.389C113.283 147.592 113.385 147.778 113.545 147.906C113.705 148.033 113.909 148.092 114.113 148.069L181.555 140.56C181.759 140.538 181.945 140.436 182.073 140.276C182.201 140.117 182.261 139.913 182.239 139.71C182.217 139.507 182.115 139.32 181.956 139.192C181.797 139.064 181.593 139.004 181.39 139.026V139.033Z" fill="black"/>
<path opacity="0.3" d="M224.114 122.431L216.063 123.327C214.98 123.447 214.2 124.423 214.321 125.506L215.217 133.556C215.337 134.639 216.313 135.419 217.396 135.298L225.446 134.403C226.529 134.282 227.309 133.307 227.188 132.224L226.293 124.173C226.172 123.09 225.197 122.31 224.114 122.431Z" stroke="#263238" stroke-linecap="round" stroke-linejoin="round"/>
<path d="M217.498 128.629L220.14 131.128L223.632 125.785" stroke="#0A8080" stroke-width="3" stroke-linecap="round" stroke-linejoin="round"/>
<path opacity="0.3" d="M206.885 151.46L127.526 160.287C127.336 160.324 127.166 160.431 127.051 160.588C126.937 160.744 126.885 160.938 126.907 161.131C126.929 161.323 127.022 161.501 127.169 161.627C127.316 161.754 127.505 161.821 127.699 161.814L207.058 152.987C207.164 152.983 207.268 152.957 207.364 152.911C207.459 152.865 207.545 152.8 207.614 152.72C207.683 152.639 207.735 152.545 207.767 152.444C207.798 152.342 207.808 152.236 207.796 152.13C207.784 152.024 207.751 151.923 207.697 151.831C207.644 151.739 207.572 151.659 207.487 151.596C207.401 151.533 207.304 151.488 207.2 151.465C207.096 151.442 206.989 151.44 206.885 151.46Z" fill="black"/>
<path opacity="0.3" d="M207.504 156.969L116.23 167.121C116.129 167.13 116.031 167.16 115.942 167.209C115.853 167.257 115.774 167.323 115.711 167.402C115.648 167.481 115.602 167.572 115.574 167.67C115.547 167.768 115.54 167.87 115.553 167.97C115.564 168.071 115.594 168.168 115.643 168.257C115.691 168.346 115.757 168.425 115.836 168.488C115.915 168.552 116.005 168.599 116.103 168.628C116.2 168.656 116.302 168.665 116.402 168.654L207.67 158.502C207.874 158.479 208.06 158.375 208.188 158.215C208.316 158.054 208.376 157.85 208.354 157.645C208.33 157.443 208.228 157.259 208.068 157.132C207.909 157.005 207.706 156.946 207.504 156.969Z" fill="black"/>
<path opacity="0.3" d="M184.32 165.126L116.87 172.629C116.77 172.639 116.672 172.669 116.583 172.717C116.494 172.765 116.415 172.831 116.352 172.91C116.289 172.99 116.242 173.081 116.215 173.178C116.188 173.276 116.181 173.378 116.194 173.478C116.204 173.579 116.235 173.677 116.283 173.766C116.332 173.855 116.398 173.933 116.476 173.997C116.555 174.06 116.646 174.108 116.743 174.136C116.841 174.164 116.942 174.173 117.043 174.162L184.486 166.66C184.586 166.649 184.684 166.619 184.773 166.57C184.862 166.522 184.94 166.456 185.004 166.377C185.067 166.298 185.115 166.208 185.143 166.11C185.172 166.013 185.181 165.911 185.17 165.81C185.16 165.709 185.13 165.611 185.082 165.522C185.033 165.432 184.968 165.354 184.889 165.29C184.809 165.226 184.718 165.179 184.621 165.151C184.523 165.123 184.421 165.114 184.32 165.126Z" fill="black"/>
<path opacity="0.3" d="M227.018 148.525L218.967 149.42C217.885 149.541 217.104 150.517 217.225 151.599L218.121 159.65C218.241 160.733 219.217 161.513 220.3 161.392L228.35 160.496C229.433 160.376 230.213 159.4 230.092 158.317L229.197 150.267C229.076 149.184 228.101 148.404 227.018 148.525Z" stroke="#263238" stroke-linecap="round" stroke-linejoin="round"/>
<path d="M220.399 154.715L223.042 157.213L226.534 151.878" stroke="#0A8080" stroke-width="3" stroke-linecap="round" stroke-linejoin="round"/>
<path opacity="0.3" d="M209.794 177.546L130.435 186.373C130.334 186.384 130.237 186.415 130.148 186.463C130.059 186.512 129.981 186.577 129.917 186.656C129.854 186.735 129.806 186.826 129.778 186.923C129.749 187.02 129.74 187.122 129.751 187.223C129.762 187.323 129.793 187.421 129.841 187.51C129.89 187.599 129.955 187.677 130.034 187.741C130.113 187.804 130.204 187.851 130.301 187.88C130.398 187.908 130.5 187.918 130.601 187.907L209.959 179.079C210.06 179.069 210.158 179.038 210.246 178.99C210.335 178.941 210.414 178.875 210.477 178.797C210.541 178.718 210.588 178.627 210.617 178.53C210.645 178.432 210.654 178.331 210.643 178.23C210.62 178.027 210.517 177.842 210.358 177.714C210.199 177.586 209.997 177.526 209.794 177.546Z" fill="black"/>
<path opacity="0.3" d="M210.406 183.04L119.131 193.192C119.025 193.195 118.921 193.221 118.825 193.267C118.729 193.313 118.644 193.378 118.575 193.458C118.505 193.539 118.453 193.633 118.422 193.734C118.391 193.836 118.381 193.943 118.393 194.048C118.405 194.154 118.438 194.256 118.492 194.348C118.545 194.439 118.616 194.519 118.702 194.582C118.788 194.645 118.885 194.69 118.989 194.713C119.092 194.736 119.2 194.738 119.304 194.718L210.571 184.566C210.678 184.563 210.783 184.539 210.879 184.494C210.976 184.448 211.062 184.384 211.132 184.303C211.203 184.223 211.255 184.129 211.287 184.028C211.32 183.926 211.33 183.819 211.319 183.713C211.307 183.607 211.274 183.504 211.221 183.412C211.167 183.319 211.096 183.239 211.01 183.176C210.924 183.112 210.826 183.068 210.722 183.044C210.618 183.021 210.51 183.019 210.406 183.04Z" fill="black"/>
<path opacity="0.3" d="M187.2 191.219L119.75 198.722C119.547 198.745 119.361 198.847 119.233 199.007C119.106 199.167 119.047 199.372 119.07 199.575C119.093 199.778 119.196 199.964 119.356 200.092C119.516 200.219 119.72 200.278 119.923 200.255L187.373 192.753C187.576 192.728 187.76 192.624 187.887 192.463C188.013 192.303 188.072 192.099 188.05 191.896C188.039 191.796 188.008 191.698 187.96 191.61C187.911 191.521 187.845 191.443 187.766 191.38C187.687 191.317 187.596 191.271 187.499 191.243C187.402 191.215 187.3 191.207 187.2 191.219Z" fill="black"/>
<path opacity="0.3" d="M229.922 174.619L221.872 175.515C220.789 175.636 220.009 176.611 220.129 177.694L221.025 185.744C221.145 186.827 222.121 187.607 223.204 187.487L231.254 186.591C232.337 186.471 233.117 185.495 232.997 184.412L232.101 176.362C231.98 175.279 231.005 174.499 229.922 174.619Z" stroke="#263238" stroke-linecap="round" stroke-linejoin="round"/>
<path d="M223.301 180.808L225.943 183.306L229.435 177.971" stroke="#0A8080" stroke-width="3" stroke-linecap="round" stroke-linejoin="round"/>
<path opacity="0.3" d="M212.004 197.44L132.646 206.282C132.442 206.304 132.256 206.407 132.129 206.567C132.001 206.727 131.942 206.931 131.965 207.135C131.988 207.338 132.091 207.524 132.251 207.652C132.411 207.779 132.615 207.838 132.818 207.815L212.177 198.988C212.278 198.978 212.376 198.948 212.465 198.9C212.554 198.852 212.632 198.786 212.695 198.707C212.758 198.627 212.805 198.536 212.832 198.439C212.859 198.341 212.867 198.239 212.854 198.138C212.845 198.036 212.815 197.937 212.768 197.847C212.72 197.756 212.654 197.676 212.575 197.611C212.496 197.546 212.405 197.497 212.307 197.468C212.209 197.439 212.106 197.429 212.004 197.44Z" fill="black"/>
<path opacity="0.3" d="M212.616 202.969L121.349 213.121C121.242 213.124 121.137 213.148 121.041 213.194C120.944 213.239 120.858 213.304 120.788 213.384C120.717 213.464 120.665 213.558 120.633 213.66C120.6 213.761 120.59 213.868 120.601 213.974C120.613 214.08 120.646 214.183 120.699 214.275C120.753 214.368 120.824 214.448 120.91 214.511C120.996 214.575 121.094 214.62 121.198 214.643C121.302 214.666 121.41 214.668 121.514 214.648L212.789 204.496C212.979 204.459 213.149 204.352 213.264 204.195C213.379 204.039 213.43 203.845 213.408 203.652C213.387 203.46 213.293 203.282 213.146 203.156C212.999 203.029 212.81 202.962 212.616 202.969Z" fill="black"/>
<path opacity="0.3" d="M189.403 211.12L121.961 218.622C121.86 218.633 121.762 218.664 121.674 218.712C121.585 218.761 121.506 218.826 121.443 218.905C121.379 218.984 121.332 219.075 121.303 219.172C121.275 219.269 121.266 219.371 121.277 219.472C121.3 219.676 121.404 219.863 121.564 219.991C121.725 220.119 121.929 220.178 122.134 220.156L189.576 212.654C189.677 212.642 189.774 212.611 189.863 212.562C189.952 212.513 190.03 212.447 190.093 212.368C190.156 212.289 190.203 212.198 190.231 212.101C190.259 212.003 190.268 211.901 190.256 211.8C190.245 211.7 190.214 211.602 190.165 211.514C190.116 211.425 190.05 211.347 189.971 211.284C189.892 211.22 189.801 211.173 189.703 211.145C189.606 211.117 189.504 211.109 189.403 211.12Z" fill="black"/>
<path opacity="0.3" d="M232.139 194.52L224.089 195.416C223.006 195.536 222.226 196.512 222.346 197.594L223.242 205.645C223.363 206.728 224.338 207.508 225.421 207.387L233.471 206.491C234.554 206.371 235.334 205.395 235.214 204.313L234.318 196.262C234.197 195.179 233.222 194.399 232.139 194.52Z" stroke="#263238" stroke-linecap="round" stroke-linejoin="round"/>
<path d="M225.511 200.716L228.154 203.214L231.646 197.879" stroke="#0A8080" stroke-width="3" stroke-linecap="round" stroke-linejoin="round"/>
<path d="M146.023 146.515C146.093 145.687 145.888 144.86 145.44 144.16L144.554 142.591L142.798 143.584L143.755 145.269C144.23 146.112 144.036 146.63 143.446 146.961C142.855 147.292 142.308 147.206 141.833 146.364L139.781 142.72L137.578 143.152L139.925 147.292C140.998 149.186 142.553 149.726 144.374 148.732C144.664 148.566 144.932 148.366 145.174 148.135C145.071 147.898 145.053 147.632 145.123 147.383C145.192 147.134 145.345 146.917 145.555 146.767C145.696 146.658 145.854 146.573 146.023 146.515Z" fill="#0A8080"/>
<path d="M136.447 141.158L136.865 141.878H139.291L138.233 140.006C137.758 139.164 137.945 138.631 138.535 138.3C139.126 137.969 139.68 138.069 140.155 138.919L140.875 140.179L142.625 139.185L141.977 138.041C140.904 136.154 139.349 135.607 137.527 136.644C137.109 136.869 136.738 137.172 136.433 137.537C136.847 137.67 137.28 137.731 137.714 137.717L135.986 138.365C135.86 138.836 135.835 139.329 135.915 139.811C135.994 140.293 136.176 140.752 136.447 141.158Z" fill="#0A8080"/>
<path d="M149.904 133.482C150.135 133.367 150.376 133.273 150.624 133.201C151.553 132.784 151.762 131.445 151.682 130.501L150.725 129.313L148.147 130.753L149.76 133.59C149.802 133.547 149.851 133.511 149.904 133.482Z" fill="#0A8080"/>
<path d="M160.884 139.12L162.634 138.127L155.945 126.333L154.282 127.269C154.814 127.399 155.196 127.651 155.21 128.039C154.692 128.111 154.058 128.039 153.497 128.14L156.866 136.874L152.604 131.56C152.616 131.678 152.598 131.797 152.553 131.906C152.508 132.015 152.436 132.111 152.345 132.187C152.15 132.323 151.87 132.323 151.718 132.503C151.567 132.683 151.589 132.899 151.459 133.058C151.33 133.216 151.128 133.259 150.97 133.375C150.811 133.49 150.638 133.785 150.458 133.979C150.372 134.071 150.262 134.138 150.142 134.174L154.879 142.526L156.492 141.604L151.762 133.267L157.838 140.841L159.595 139.847L156.046 130.682L160.884 139.12Z" fill="#0A8080"/>
<path d="M165.312 128.853C165.44 128.917 165.554 129.006 165.646 129.115C165.739 129.224 165.809 129.35 165.852 129.487C166.004 128.597 165.81 127.683 165.312 126.931L164.441 125.39C163.368 123.504 161.878 122.992 160.02 124.044L157.291 125.592L163.987 137.392L165.722 136.406C165.161 136.053 164.534 135.751 164.002 135.369C163.752 135.21 163.546 134.989 163.404 134.728C163.337 134.597 163.309 134.449 163.324 134.302C163.34 134.155 163.397 134.015 163.49 133.9C163.612 133.798 163.761 133.732 163.919 133.71C164.077 133.688 164.238 133.712 164.383 133.778L163.325 131.906L164.203 131.409C164.686 131.148 165.106 130.784 165.434 130.344C165.067 129.76 164.426 128.522 165.312 128.853ZM163.246 129.76L162.367 130.257L160.099 126.261L160.978 125.764C161.568 125.433 162.043 125.52 162.518 126.362L163.526 128.133C164.002 128.94 163.836 129.393 163.246 129.76Z" fill="#0A8080"/>
<path d="M175.241 131.006L174.29 129.321L171.238 131.049L166.774 123.179L166.572 123.338C166.442 123.459 166.283 123.545 166.111 123.59C166.025 123.609 165.934 123.597 165.856 123.554C165.777 123.512 165.717 123.443 165.686 123.359C165.662 123.248 165.662 123.132 165.686 123.021C165.688 122.351 165.476 121.698 165.082 121.156L163.642 121.991L170.33 133.785L175.241 131.006Z" fill="#0A8080"/>
<path d="M174.406 126.88C174.607 126.354 175.234 126.16 175.587 125.685C175.618 125.636 175.647 125.586 175.673 125.534L174.953 124.324L176.775 123.294C176.741 123.18 176.682 123.074 176.602 122.985C176.34 122.857 176.061 122.77 175.774 122.726C175.729 122.636 175.707 122.537 175.708 122.437C175.71 122.337 175.735 122.239 175.783 122.151C175.83 122.063 175.898 121.988 175.98 121.931C176.062 121.874 176.157 121.838 176.256 121.826C176.379 121.826 176.523 121.826 176.616 121.768C176.682 121.69 176.715 121.589 176.71 121.487L176.544 121.199L173.995 122.639L172.138 119.356L175.335 117.534L174.377 115.85L169.337 118.73L174.291 127.463C174.299 127.264 174.338 127.067 174.406 126.88Z" fill="#0A8080"/>
<path d="M181.109 127.68L180.151 125.995L176.947 127.81L175.99 126.161L174.809 127.27L174.398 127.666L176.054 130.581L181.109 127.68Z" fill="#0A8080"/>
<path d="M178.726 113.978C178.726 114.23 178.546 114.511 178.301 114.533C178.176 114.531 178.053 114.512 177.934 114.475C177.711 114.479 177.489 114.457 177.271 114.41C177.224 114.391 177.18 114.364 177.142 114.331L175.025 115.533L175.982 117.225L177.919 116.124L183.679 126.204L185.53 125.153L179.77 115.073L181.714 113.971L180.756 112.286L178.769 113.409C178.733 113.597 178.747 113.791 178.726 113.978Z" fill="#0A8080"/>
<path d="M186.811 121.121L188.251 123.662L190.195 122.561C190.241 122.433 190.299 122.31 190.368 122.193C190.796 121.568 191.372 121.058 192.046 120.71L192.938 120.156L192.348 119.105L189.144 120.926L187.186 117.47L189.734 116.03L188.777 114.345L186.228 115.785L184.37 112.481L187.574 110.666L186.617 108.981L181.577 111.861L185.213 118.277C186.091 117.809 186.53 119.493 186.811 121.121Z" fill="#0A8080"/>
<path d="M149.522 144.42C149.825 144.47 150.005 144.773 150.242 144.974C150.329 145.054 150.429 145.117 150.538 145.161C150.675 145.107 150.81 145.044 150.941 144.974C152.755 143.945 153.137 142.303 152.071 140.409L151.963 140.222L149.472 140.157L150.286 141.597C150.761 142.44 150.574 142.973 149.983 143.304C149.393 143.635 148.838 143.527 148.363 142.685L144.763 136.313C144.281 135.47 144.475 134.945 145.066 134.606C145.656 134.268 146.203 134.383 146.686 135.225L149.126 139.545C149.876 139.36 150.644 139.263 151.416 139.257L148.601 134.297C147.535 132.41 145.93 131.899 144.108 132.929C142.286 133.958 141.905 135.607 142.978 137.493L146.455 143.628C146.675 144.101 147.004 144.515 147.414 144.836C147.824 145.158 148.305 145.378 148.817 145.478C148.813 145.435 148.813 145.392 148.817 145.349C148.73 144.881 149.076 144.333 149.522 144.42Z" fill="#0A8080"/>
<path d="M174.384 110.558L180.036 107.354C178.416 107.8 176.99 109.154 175.32 108.966C175.018 108.887 174.701 108.887 174.398 108.966C174.21 109.088 174.074 109.276 174.018 109.494C173.962 109.711 173.99 109.942 174.096 110.14C174.169 110.294 174.266 110.435 174.384 110.558Z" fill="#0A8080"/>
<path d="M160.207 118.601C160.195 118.476 160.22 118.351 160.279 118.241C160.418 118.289 160.564 118.314 160.711 118.313L162.662 117.211C162.968 116.866 163.316 116.561 163.699 116.304C164.069 116.106 164.46 115.952 164.866 115.843L165.298 115.714L168.898 113.683C168.936 113.61 168.987 113.544 169.049 113.489C169.105 113.452 169.165 113.423 169.229 113.402L165.514 112.279L164.513 112.841L164.405 113.633L160.121 115.922C159.697 116.187 159.225 116.366 158.731 116.448C158.547 116.47 158.361 116.47 158.177 116.448L152.071 119.911C152.12 120.201 152.202 120.483 152.316 120.754C151.958 120.687 151.617 120.547 151.315 120.343L150.062 121.063C150.955 121.654 151.834 122.259 152.69 122.899L160.207 118.601Z" fill="#0A8080"/>
<path d="M186.343 103.783L183.391 102.127L181.994 102.919C182.817 103.765 183.881 104.338 185.04 104.561L186.343 103.783Z" fill="#0A8080"/>
<path d="M202.219 121.214L191.074 101.565C190.64 100.805 189.924 100.248 189.08 100.015C188.237 99.7812 187.336 99.8909 186.574 100.32L185.234 101.083L185.746 101.58C186.278 102.112 186.826 102.652 187.322 103.221L187.999 102.84C188.093 102.787 188.204 102.774 188.307 102.802C188.411 102.83 188.499 102.898 188.554 102.991L199.706 122.647C199.758 122.741 199.771 122.853 199.741 122.957C199.711 123.06 199.642 123.148 199.548 123.201L184.378 131.841C185.688 131.92 187.013 131.733 188.323 131.884C188.795 131.944 189.264 132.028 189.727 132.136L200.974 125.757C201.356 125.543 201.691 125.254 201.961 124.909C202.231 124.564 202.429 124.168 202.545 123.746C202.661 123.323 202.692 122.882 202.636 122.447C202.58 122.013 202.438 121.593 202.219 121.214Z" fill="#0A8080"/>
<path d="M133.92 146.22L128.678 136.96C128.651 136.914 128.634 136.862 128.627 136.808C128.62 136.755 128.623 136.7 128.637 136.648C128.651 136.596 128.676 136.547 128.709 136.504C128.742 136.461 128.783 136.426 128.83 136.399L143.95 127.816C143.899 127.701 143.834 127.586 143.791 127.471C144.005 127.462 144.219 127.486 144.425 127.543L150.538 124.08C150.336 124.015 150.142 123.936 149.947 123.864L147.067 122.719L144.763 124.029L147.269 125.563C146.398 125.03 144.619 124.958 143.086 124.98L127.44 133.886C126.679 134.318 126.12 135.035 125.886 135.878C125.653 136.722 125.764 137.624 126.194 138.386L130.745 146.407C130.954 146.349 131.17 146.299 131.378 146.263C131.955 146.18 132.539 146.151 133.121 146.176C133.388 146.174 133.655 146.189 133.92 146.22Z" fill="#0A8080"/>
<path d="M152.597 149.834C152.853 150.064 153.145 150.251 153.461 150.388C153.785 150.532 154.217 150.878 153.965 151.108C152.798 151.641 151.358 151.245 150.214 151.828C149.587 152.131 148.982 152.728 148.313 152.548C149.123 153.04 149.852 153.654 150.473 154.37L179.064 138.155C179.064 138.04 179.1 137.925 179.122 137.803C179.122 137.576 179.175 137.353 179.275 137.149C179.375 136.946 179.52 136.768 179.699 136.629C179.878 136.49 180.086 136.394 180.308 136.348C180.53 136.302 180.76 136.307 180.979 136.363C181.35 136.346 181.721 136.385 182.081 136.478L185.645 134.455C185.156 133.612 184.576 132.825 183.917 132.107L152.597 149.834Z" fill="#0A8080"/>
<path d="M147.967 154.593C147.278 154.37 146.642 154.004 146.102 153.52L140.4 156.76C140.354 156.787 140.303 156.805 140.25 156.812C140.197 156.819 140.143 156.815 140.091 156.801C140.04 156.787 139.991 156.763 139.949 156.73C139.907 156.697 139.872 156.656 139.846 156.609L134.806 147.775C134.323 147.608 133.809 147.549 133.301 147.602C132.718 147.717 132.206 148.394 132.523 148.891C132.821 148.898 133.111 148.985 133.364 149.142C133.617 149.299 133.824 149.52 133.963 149.784C133.653 150.031 133.311 150.236 132.948 150.396L137.268 158.035C137.483 158.421 137.772 158.76 138.12 159.032C138.467 159.304 138.866 159.504 139.292 159.62C139.718 159.736 140.163 159.766 140.6 159.708C141.038 159.649 141.459 159.504 141.84 159.28L149.314 155.04L149.227 154.989C148.815 154.835 148.394 154.702 147.967 154.593Z" fill="#0A8080"/>
<g opacity="0.2">
<path opacity="0.2" d="M146.023 146.515C146.093 145.687 145.888 144.86 145.44 144.16L144.554 142.591L142.798 143.584L143.755 145.269C144.23 146.112 144.036 146.63 143.446 146.961C142.855 147.292 142.308 147.206 141.833 146.364L139.781 142.72L137.578 143.152L139.925 147.292C140.998 149.186 142.553 149.726 144.374 148.732C144.664 148.566 144.932 148.366 145.174 148.135C145.071 147.898 145.053 147.632 145.123 147.383C145.192 147.134 145.345 146.917 145.555 146.767C145.696 146.658 145.854 146.573 146.023 146.515Z" fill="black"/>
<path opacity="0.2" d="M136.447 141.158L136.865 141.878H139.291L138.233 140.006C137.758 139.164 137.945 138.631 138.535 138.3C139.126 137.969 139.68 138.069 140.155 138.919L140.875 140.179L142.625 139.185L141.977 138.041C140.904 136.154 139.349 135.607 137.527 136.644C137.109 136.869 136.738 137.172 136.433 137.537C136.847 137.67 137.28 137.731 137.714 137.717L135.986 138.365C135.86 138.836 135.835 139.329 135.915 139.811C135.994 140.293 136.176 140.752 136.447 141.158Z" fill="black"/>
<path opacity="0.2" d="M149.904 133.482C150.135 133.367 150.376 133.273 150.624 133.201C151.553 132.784 151.762 131.445 151.682 130.501L150.725 129.313L148.147 130.753L149.76 133.59C149.802 133.547 149.851 133.511 149.904 133.482Z" fill="black"/>
<path opacity="0.2" d="M160.884 139.12L162.634 138.127L155.945 126.333L154.282 127.269C154.814 127.399 155.196 127.651 155.21 128.039C154.692 128.111 154.058 128.039 153.497 128.14L156.866 136.874L152.604 131.56C152.616 131.678 152.598 131.797 152.553 131.906C152.508 132.015 152.436 132.111 152.345 132.187C152.15 132.323 151.87 132.323 151.718 132.503C151.567 132.683 151.589 132.899 151.459 133.058C151.33 133.216 151.128 133.259 150.97 133.375C150.811 133.49 150.638 133.785 150.458 133.979C150.372 134.071 150.262 134.138 150.142 134.174L154.879 142.526L156.492 141.604L151.762 133.267L157.838 140.841L159.595 139.847L156.046 130.682L160.884 139.12Z" fill="black"/>
<path opacity="0.2" d="M165.312 128.853C165.44 128.917 165.554 129.006 165.646 129.115C165.739 129.224 165.809 129.35 165.852 129.487C166.004 128.597 165.81 127.683 165.312 126.931L164.441 125.39C163.368 123.504 161.878 122.992 160.02 124.044L157.291 125.592L163.987 137.392L165.722 136.406C165.161 136.053 164.534 135.751 164.002 135.369C163.752 135.21 163.546 134.989 163.404 134.728C163.337 134.597 163.309 134.449 163.324 134.302C163.34 134.155 163.397 134.015 163.49 133.9C163.612 133.798 163.761 133.732 163.919 133.71C164.077 133.688 164.238 133.712 164.383 133.778L163.325 131.906L164.203 131.409C164.686 131.148 165.106 130.784 165.434 130.344C165.067 129.76 164.426 128.522 165.312 128.853ZM163.246 129.76L162.367 130.257L160.099 126.261L160.978 125.764C161.568 125.433 162.043 125.52 162.518 126.362L163.526 128.133C164.002 128.94 163.836 129.393 163.246 129.76Z" fill="black"/>
<path opacity="0.2" d="M175.241 131.006L174.29 129.321L171.238 131.049L166.774 123.179L166.572 123.338C166.442 123.459 166.283 123.545 166.111 123.59C166.025 123.609 165.934 123.597 165.856 123.554C165.777 123.512 165.717 123.443 165.686 123.359C165.662 123.248 165.662 123.132 165.686 123.021C165.688 122.351 165.476 121.698 165.082 121.156L163.642 121.991L170.33 133.785L175.241 131.006Z" fill="black"/>
<path opacity="0.2" d="M174.406 126.88C174.607 126.354 175.234 126.16 175.587 125.685C175.618 125.636 175.647 125.586 175.673 125.534L174.953 124.324L176.775 123.294C176.741 123.18 176.682 123.074 176.602 122.985C176.34 122.857 176.061 122.77 175.774 122.726C175.729 122.636 175.707 122.537 175.708 122.437C175.71 122.337 175.735 122.239 175.783 122.151C175.83 122.063 175.898 121.988 175.98 121.931C176.062 121.874 176.157 121.838 176.256 121.826C176.379 121.826 176.523 121.826 176.616 121.768C176.682 121.69 176.715 121.589 176.71 121.487L176.544 121.199L173.995 122.639L172.138 119.356L175.335 117.534L174.377 115.85L169.337 118.73L174.291 127.463C174.299 127.264 174.338 127.067 174.406 126.88Z" fill="black"/>
<path opacity="0.2" d="M181.109 127.68L180.151 125.995L176.947 127.81L175.99 126.161L174.809 127.27L174.398 127.666L176.054 130.581L181.109 127.68Z" fill="black"/>
<path opacity="0.2" d="M178.726 113.978C178.726 114.23 178.546 114.511 178.301 114.533C178.176 114.531 178.053 114.512 177.934 114.475C177.711 114.479 177.489 114.457 177.271 114.41C177.224 114.391 177.18 114.364 177.142 114.331L175.025 115.533L175.982 117.225L177.919 116.124L183.679 126.204L185.53 125.153L179.77 115.073L181.714 113.971L180.756 112.286L178.769 113.409C178.733 113.597 178.747 113.791 178.726 113.978Z" fill="black"/>
<path opacity="0.2" d="M186.811 121.121L188.251 123.662L190.195 122.561C190.241 122.433 190.299 122.31 190.368 122.193C190.796 121.568 191.372 121.058 192.046 120.71L192.938 120.156L192.348 119.105L189.144 120.926L187.186 117.47L189.734 116.03L188.777 114.345L186.228 115.785L184.37 112.481L187.574 110.666L186.617 108.981L181.577 111.861L185.213 118.277C186.091 117.809 186.53 119.493 186.811 121.121Z" fill="black"/>
<path opacity="0.2" d="M149.522 144.42C149.825 144.47 150.005 144.773 150.242 144.974C150.329 145.054 150.429 145.117 150.538 145.161C150.675 145.107 150.81 145.044 150.941 144.974C152.755 143.945 153.137 142.303 152.071 140.409L151.963 140.222L149.472 140.157L150.286 141.597C150.761 142.44 150.574 142.973 149.983 143.304C149.393 143.635 148.838 143.527 148.363 142.685L144.763 136.313C144.281 135.47 144.475 134.945 145.066 134.606C145.656 134.268 146.203 134.383 146.686 135.225L149.126 139.545C149.876 139.36 150.644 139.263 151.416 139.257L148.601 134.297C147.535 132.41 145.93 131.899 144.108 132.929C142.286 133.958 141.905 135.607 142.978 137.493L146.455 143.628C146.675 144.101 147.004 144.515 147.414 144.836C147.824 145.158 148.305 145.378 148.817 145.478C148.813 145.435 148.813 145.392 148.817 145.349C148.73 144.881 149.076 144.333 149.522 144.42Z" fill="black"/>
<path opacity="0.2" d="M174.384 110.558L180.036 107.354C178.416 107.8 176.99 109.154 175.32 108.966C175.018 108.887 174.701 108.887 174.398 108.966C174.21 109.088 174.074 109.276 174.018 109.494C173.962 109.711 173.99 109.942 174.096 110.14C174.169 110.294 174.266 110.435 174.384 110.558Z" fill="black"/>
<path opacity="0.2" d="M160.207 118.601C160.195 118.476 160.22 118.351 160.279 118.241C160.418 118.289 160.564 118.314 160.711 118.313L162.662 117.211C162.968 116.866 163.316 116.561 163.699 116.304C164.069 116.106 164.46 115.952 164.866 115.843L165.298 115.714L168.898 113.683C168.936 113.61 168.987 113.544 169.049 113.489C169.105 113.452 169.165 113.423 169.229 113.402L165.514 112.279L164.513 112.841L164.405 113.633L160.121 115.922C159.697 116.187 159.225 116.366 158.731 116.448C158.547 116.47 158.361 116.47 158.177 116.448L152.071 119.911C152.12 120.201 152.202 120.483 152.316 120.754C151.958 120.687 151.617 120.547 151.315 120.343L150.062 121.063C150.955 121.654 151.834 122.259 152.69 122.899L160.207 118.601Z" fill="black"/>
<path opacity="0.2" d="M186.343 103.783L183.391 102.127L181.994 102.919C182.817 103.765 183.881 104.338 185.04 104.561L186.343 103.783Z" fill="black"/>
<path opacity="0.2" d="M202.219 121.214L191.074 101.565C190.64 100.805 189.924 100.248 189.08 100.015C188.237 99.7812 187.336 99.8909 186.574 100.32L185.234 101.083L185.746 101.58C186.278 102.112 186.826 102.652 187.322 103.221L187.999 102.84C188.093 102.787 188.204 102.774 188.307 102.802C188.411 102.83 188.499 102.898 188.554 102.991L199.706 122.647C199.758 122.741 199.771 122.853 199.741 122.957C199.711 123.06 199.642 123.148 199.548 123.201L184.378 131.841C185.688 131.92 187.013 131.733 188.323 131.884C188.795 131.944 189.264 132.028 189.727 132.136L200.974 125.757C201.356 125.543 201.691 125.254 201.961 124.909C202.231 124.564 202.429 124.168 202.545 123.746C202.661 123.323 202.692 122.882 202.636 122.447C202.58 122.013 202.438 121.593 202.219 121.214Z" fill="black"/>
<path opacity="0.2" d="M133.92 146.22L128.678 136.96C128.651 136.914 128.634 136.862 128.627 136.808C128.62 136.755 128.623 136.7 128.637 136.648C128.651 136.596 128.676 136.547 128.709 136.504C128.742 136.461 128.783 136.426 128.83 136.399L143.95 127.816C143.899 127.701 143.834 127.586 143.791 127.471C144.005 127.462 144.219 127.486 144.425 127.543L150.538 124.08C150.336 124.015 150.142 123.936 149.947 123.864L147.067 122.719L144.763 124.029L147.269 125.563C146.398 125.03 144.619 124.958 143.086 124.98L127.44 133.886C126.679 134.318 126.12 135.035 125.886 135.878C125.653 136.722 125.764 137.624 126.194 138.386L130.745 146.407C130.954 146.349 131.17 146.299 131.378 146.263C131.955 146.18 132.539 146.151 133.121 146.176C133.388 146.174 133.655 146.189 133.92 146.22Z" fill="black"/>
<path opacity="0.2" d="M152.597 149.834C152.853 150.064 153.145 150.251 153.461 150.388C153.785 150.532 154.217 150.878 153.965 151.108C152.798 151.641 151.358 151.245 150.214 151.828C149.587 152.131 148.982 152.728 148.313 152.548C149.123 153.04 149.852 153.654 150.473 154.37L179.064 138.155C179.064 138.04 179.1 137.925 179.122 137.803C179.122 137.576 179.175 137.353 179.275 137.149C179.375 136.946 179.52 136.768 179.699 136.629C179.878 136.49 180.086 136.394 180.308 136.348C180.53 136.302 180.76 136.307 180.979 136.363C181.35 136.346 181.721 136.385 182.081 136.478L185.645 134.455C185.156 133.612 184.576 132.825 183.917 132.107L152.597 149.834Z" fill="black"/>
<path opacity="0.2" d="M147.967 154.593C147.278 154.37 146.642 154.004 146.102 153.52L140.4 156.76C140.354 156.787 140.303 156.805 140.25 156.812C140.197 156.819 140.143 156.815 140.091 156.801C140.04 156.787 139.991 156.763 139.949 156.73C139.907 156.697 139.872 156.656 139.846 156.609L134.806 147.775C134.323 147.608 133.809 147.549 133.301 147.602C132.718 147.717 132.206 148.394 132.523 148.891C132.821 148.898 133.111 148.985 133.364 149.142C133.617 149.299 133.824 149.52 133.963 149.784C133.653 150.031 133.311 150.236 132.948 150.396L137.268 158.035C137.483 158.421 137.772 158.76 138.12 159.032C138.467 159.304 138.866 159.504 139.292 159.62C139.718 159.736 140.163 159.766 140.6 159.708C141.038 159.649 141.459 159.504 141.84 159.28L149.314 155.04L149.227 154.989C148.815 154.835 148.394 154.702 147.967 154.593Z" fill="black"/>
</g>
<path opacity="0.3" d="M115.546 128.882C119.938 132.107 123.61 147.602 123.941 161.807C124.272 176.013 131.141 199.967 131.962 203.891C132.782 207.815 132.48 213.475 137.578 205.598C142.675 197.721 157.586 184.048 163.8 188.591C170.014 193.135 159.552 208.406 153.886 216.628C148.219 224.851 147.643 239.33 140.854 248.395C134.064 257.459 127.93 271.147 121.277 270.938C114.624 270.729 70.56 303.417 70.56 303.417L71.424 258.676L111.024 193.876L115.546 128.882Z" fill="black" fill-opacity="0.7"/>
<path d="M167.414 190.787C167.191 192.191 159.437 202.466 154.879 210.155C150.322 217.845 146.052 231.23 144.907 233.195C143.762 235.161 129.787 247.437 125.957 252.57C122.126 257.704 115.286 259.972 108.454 264.81C104.062 267.921 90.3744 283.97 81.1512 295.05C76.0248 301.206 72.2736 305.85 72.2736 305.85L13.3128 290.478C13.3128 290.478 18.1944 286.454 24.6168 281.025H24.66L24.7248 280.974C35.28 272.01 49.9896 259.36 54.0504 254.586C60.5952 246.897 69.7104 237.76 69.7104 237.76C69.156 227.082 70.2864 216.966 69.2856 213.122C68.7672 211.113 67.8456 199.686 67.1256 196.173C65.376 187.194 57.7656 177.892 56.9088 174.227C56.052 170.562 46.008 154.96 50.9112 152.08C51.8026 151.519 52.8622 151.287 53.9064 151.425C60.5304 152.339 65.988 168.338 69.7464 172.413C71.3569 174.342 72.8156 176.393 74.1096 178.547C77.076 183.249 79.9848 188.534 79.9848 188.534C81.1224 183.976 72.864 167.74 70.5816 152.361C68.2992 136.982 61.7544 128.723 70.5816 127.773C71.3069 127.691 72.0411 127.755 72.7416 127.96C78.9552 129.774 81.648 142.684 85.3632 155.212C85.7088 156.364 88.5384 164.637 90.7416 171.016C92.1816 175.192 93.3336 178.554 93.3336 178.554C93.6144 170.721 91.1736 163.434 90.7704 156.335C90.5976 153.491 91.4904 142.094 90.3672 130.703C89.4024 121.091 89.8416 117.196 93.6 116.44C94.4051 116.295 95.2257 116.256 96.0408 116.325C102.557 116.735 104.868 134.051 104.868 140.805C104.868 144.729 105.538 152.39 106.099 158.135C106.51 162.29 106.862 165.443 106.862 165.443C106.862 165.443 108 155.903 107.15 135.326C106.956 130.818 107.251 127.593 109.022 126.29C109.994 125.57 111.398 125.447 113.414 125.994C119.11 127.535 120.96 148.638 120.96 156.616C120.96 164.594 125.518 178.259 126.374 189.016C127.231 199.773 130.961 212.992 130.961 212.992C130.961 212.992 133.07 213.849 134.489 213.568C135.907 213.287 145.742 198.758 145.742 198.758C150.322 188.814 159.235 185.798 164.088 186.914C166.32 187.425 167.76 188.8 167.414 190.787Z" fill="white"/>
<path opacity="0.4" d="M167.414 190.787C167.191 192.191 159.437 202.465 154.879 210.155C150.322 217.844 146.052 231.229 144.907 233.195C143.762 235.16 129.787 247.436 125.957 252.57C122.126 257.703 115.286 259.971 108.454 264.81C104.062 267.92 90.3744 283.969 81.1512 295.05C82.1664 291.032 84.4416 285.899 90.3888 280.967C100.714 272.391 101.333 265.667 106.884 259.971C112.435 254.276 122.213 255.983 125.726 249.171C129.24 242.36 141.494 236.067 144.058 230.084C146.621 224.101 141.494 222.834 146.052 215.634C150.61 208.434 155.03 206.684 154.382 203.862C153.734 201.039 151.819 196.763 155.772 193.199C158.242 190.981 161.143 188.195 164.11 186.913C166.32 187.424 167.76 188.799 167.414 190.787Z" fill="#0A8080"/>
<path opacity="0.4" d="M93.5424 224.584C91.6488 223.634 93.168 221.74 91.836 220.163C90.504 218.586 87.4656 228.767 86.796 228.803C86.1264 228.839 84.0888 223.626 83.2824 223.108C82.476 222.59 82.0008 224.771 80.856 228.803C79.7112 232.835 75.5064 234.88 73.0656 237.76C70.6248 240.64 55.944 256.3 52.3368 262.182C48.7296 268.065 26.4528 279.707 24.7248 280.96C35.28 272.01 49.9896 259.36 54.0504 254.586C60.5952 246.897 69.7104 237.76 69.7104 237.76C69.156 227.082 70.2864 216.966 69.2856 213.122C68.7672 211.113 67.8456 199.686 67.1256 196.173C65.376 187.194 57.7656 177.892 56.9088 174.227C56.052 170.562 46.008 154.96 50.9112 152.08C51.8026 151.519 52.8621 151.287 53.9064 151.425C52.7904 152.217 51.7032 153.354 52.7184 155.025C54.5256 157.948 56.5128 161.022 56.5128 164.255C56.5128 167.488 62.0208 172.038 64.1592 175.055C66.2976 178.072 64.3032 177.006 65.7288 181.139C67.1544 185.272 68.8608 184.408 69.7104 188.584C70.56 192.76 75.312 195.424 74.556 200.63C73.8 205.835 76.8312 213.078 76.8312 213.078C76.8312 213.078 79.3008 206.058 78.4008 202.278C77.5008 198.498 78.5448 193.732 77.6808 192.45C76.9608 191.298 74.988 183.479 74.0808 178.619C77.0472 183.321 79.956 188.606 79.956 188.606C81.0936 184.048 72.8352 167.812 70.5528 152.433C68.2704 137.054 61.7256 128.795 70.5528 127.845C71.2781 127.764 72.0123 127.827 72.7128 128.032C76.4784 135.066 73.8576 140.272 73.0224 143.325C72.108 146.651 77.5512 155.19 78.3576 161.073C79.0776 166.566 80.5608 165.998 80.7552 165.897C80.5896 166.048 79.1856 167.481 80.0352 171.556C80.9208 175.876 87.2352 186.136 87.2352 189.002C87.2352 191.867 86.7168 196.583 86.7168 197.98C86.7168 199.377 91.7568 208.722 92.3616 211.17C92.9664 213.618 92.124 206.454 93.4992 203.97C94.8744 201.486 95.6016 192.818 95.7816 193.286C98.1504 199.305 95.4432 225.52 93.5424 224.584Z" fill="#0A8080"/>
<path opacity="0.4" d="M97.6248 160.245C96.012 162.686 96.0552 181.737 93.3048 181.802C91.9728 181.802 91.3248 177.014 90.7848 171.002C92.2248 175.178 93.3768 178.54 93.3768 178.54C93.6576 170.707 91.2168 163.42 90.8136 156.321C90.6408 153.477 91.5336 142.079 90.4104 130.689C89.4456 121.077 89.8848 117.182 93.6432 116.426C94.4352 118.989 96.3792 122.013 96.876 124.821C97.5528 128.695 96.228 131.899 95.0904 132.381C93.9528 132.863 93.7584 135.362 95.184 135.729C96.6096 136.096 95.184 154.276 95.8464 156.609C96.5088 158.942 99.2448 157.84 97.6248 160.245Z" fill="#0A8080"/>
<path opacity="0.4" d="M112.421 138.918C109.462 140.221 109.303 142.554 108.418 145.902C107.532 149.25 109.685 154.139 108.418 161.821C107.15 169.504 111.773 174.457 108.418 183.054C105.062 191.651 106.639 175.854 106.078 168.654C105.884 165.148 105.899 161.633 106.121 158.128C106.531 162.282 106.884 165.436 106.884 165.436C106.884 165.436 108.022 155.896 107.172 135.318C106.978 130.811 107.273 127.585 109.044 126.282C112.082 129.04 114.941 137.809 112.421 138.918Z" fill="#0A8080"/>
<path d="M72.2737 305.858C72.2737 305.858 101.614 269.685 108.454 264.818C115.294 259.951 122.134 257.697 125.957 252.578C129.78 247.459 143.77 235.197 144.907 233.203C146.045 231.208 150.322 217.824 154.879 210.163C159.437 202.502 167.191 192.163 167.415 190.795C168.408 184.524 152.46 184.243 145.764 198.772C145.764 198.772 135.936 213.295 134.511 213.583C133.085 213.871 130.983 213.007 130.983 213.007C130.983 213.007 127.253 199.795 126.396 189.031C125.539 178.267 120.982 164.587 120.982 156.631C120.982 148.675 119.131 127.55 113.436 126.009C107.741 124.468 106.877 128.371 107.172 135.369C108.022 155.947 106.884 165.487 106.884 165.487C106.884 165.487 104.89 147.609 104.89 140.848C104.89 134.088 102.579 116.772 96.0625 116.368C90.0793 115.987 89.2441 119.349 90.3889 130.768C91.5337 142.188 90.6193 153.556 90.7921 156.4C91.2169 163.521 93.6721 170.8 93.3553 178.62C93.3553 178.62 85.9465 157.171 85.3777 155.263C81.2521 141.28 78.3937 126.88 70.5601 127.744C61.7329 128.695 68.2849 136.953 70.5601 152.332C72.8353 167.712 81.1009 183.948 79.9633 188.505C79.9633 188.505 73.1305 176.1 69.7249 172.384C65.4049 167.712 58.8817 147.35 50.9041 152.052C46.0009 154.932 56.0737 170.584 56.9233 174.249C57.7729 177.914 65.3905 187.209 67.1401 196.195C67.8601 199.708 68.7601 211.135 69.3001 213.144C70.3009 216.988 69.1705 227.104 69.7249 237.782C69.7249 237.782 60.6097 246.897 54.0649 254.587C47.5201 262.276 13.3273 290.479 13.3273 290.479" stroke="#263238" stroke-linecap="round" stroke-linejoin="round"/>
<path d="M130.982 212.999C132.297 216.243 132.297 219.871 130.982 223.115" stroke="#263238" stroke-linecap="round" stroke-linejoin="round"/>
<path d="M133.38 213.604C134.197 214.205 134.803 215.049 135.11 216.016C135.416 216.982 135.408 218.021 135.086 218.983" stroke="#263238" stroke-linecap="round" stroke-linejoin="round"/>
<path d="M106.884 165.436C106.884 165.436 109.166 181.528 108.166 184.516" stroke="#263238" stroke-linecap="round" stroke-linejoin="round"/>
<path d="M93.3552 178.54C93.5996 180.095 93.5996 181.679 93.3552 183.234" stroke="#263238" stroke-linecap="round" stroke-linejoin="round"/>
<path d="M79.9704 188.505C79.9704 188.505 80.3952 190.931 79.9704 191.5" stroke="#263238" stroke-linecap="round" stroke-linejoin="round"/>
<path d="M152.172 202.178C152.172 202.178 154.75 203.575 155.592 205.598" stroke="#263238" stroke-linecap="round" stroke-linejoin="round"/>
<path d="M93.4488 135.318C94.2843 135.519 95.1568 135.506 95.986 135.281C96.8152 135.055 97.5744 134.625 98.1936 134.029" stroke="#263238" stroke-linecap="round" stroke-linejoin="round"/>
<path d="M94.32 158.459C94.32 158.459 99.4464 160.165 101.304 158.459" stroke="#263238" stroke-linecap="round" stroke-linejoin="round"/>
<path d="M111.017 163.442C111.017 163.442 114.43 162.16 116.712 162.873" stroke="#263238" stroke-linecap="round" stroke-linejoin="round"/>
<path d="M78.4008 167.999C78.4008 167.999 81.108 164.435 83.2464 165.436" stroke="#263238" stroke-linecap="round" stroke-linejoin="round"/>
<path d="M67.2912 178.54C67.2912 178.54 64.872 179.678 64.1592 180.887" stroke="#263238" stroke-linecap="round" stroke-linejoin="round"/>
<path d="M69.7104 237.76C70.3039 237.094 70.8297 236.37 71.28 235.6C71.7048 234.743 71.136 225.628 71.28 219.76" stroke="#263238" stroke-linecap="round" stroke-linejoin="round"/>
<path d="M99.5904 273.645C96.2352 277.403 85.9464 284.214 81.8208 288.34" stroke="#263238" stroke-linecap="round" stroke-linejoin="round"/>
<path d="M113.148 188.505C111.442 193.35 113.292 199.47 113.148 202.185C113.004 204.899 112.428 217.305 112.428 217.305" stroke="#263238" stroke-linecap="round" stroke-linejoin="round"/>
<path d="M97.6248 188.505C95.3496 192.35 96.0624 197.476 96.7752 200.025C97.488 202.574 96.8544 212.985 96.8544 212.985" stroke="#263238" stroke-linecap="round" stroke-linejoin="round"/>
<path d="M73.1304 200.752C72.9418 203.259 73.4396 205.771 74.5704 208.017" stroke="#263238" stroke-linecap="round" stroke-linejoin="round"/>
<path d="M87.228 193.206C85.9464 197.908 87.66 200.039 87.804 200.752" stroke="#263238" stroke-linecap="round" stroke-linejoin="round"/>
<path opacity="0.3" d="M202.91 162.16L200.484 148.076C200.377 147.451 200.397 146.81 200.544 146.192C200.691 145.575 200.961 144.993 201.339 144.483C201.716 143.972 202.193 143.544 202.74 143.222C203.287 142.9 203.894 142.693 204.523 142.612L209.959 141.892C209.959 141.892 208.145 138.212 213.984 127.492C219.823 116.771 247.896 88.2948 269.179 136.132C290.462 183.968 309.91 281.449 309.91 281.449C309.91 281.449 252.461 214.547 250.632 211.12C248.803 207.692 231.314 209.744 227.275 200.55C223.236 191.356 214.754 165.119 214.754 165.119L208.188 166.019C206.98 166.182 205.756 165.872 204.772 165.152C203.788 164.433 203.121 163.36 202.91 162.16Z" fill="black" fill-opacity="0.7"/>
<path d="M253.541 129.847L242.518 131.848L227.196 134.635L207.13 138.285C206.745 138.356 206.35 138.35 205.967 138.267C205.585 138.185 205.222 138.028 204.9 137.805C204.579 137.582 204.304 137.298 204.092 136.969C203.88 136.64 203.736 136.272 203.666 135.887L199.26 111.659C199.121 110.882 199.296 110.082 199.745 109.433C200.194 108.785 200.882 108.34 201.658 108.196L213.329 106.036L230.306 102.954L248.069 99.7217C248.454 99.6511 248.849 99.6571 249.231 99.7394C249.614 99.8218 249.976 99.9788 250.298 100.202C250.62 100.424 250.894 100.708 251.106 101.037C251.318 101.367 251.463 101.734 251.532 102.119L255.938 126.347C256.014 126.735 256.012 127.134 255.932 127.52C255.853 127.907 255.696 128.274 255.473 128.6C255.25 128.925 254.964 129.203 254.632 129.417C254.301 129.632 253.93 129.777 253.541 129.847Z" fill="#0A8080"/>
<path opacity="0.3" d="M245.743 113.761L242.518 131.848L227.196 134.634C222.761 132.683 215.446 129.285 213.984 127.434C212.242 125.274 212.486 112.545 213.329 106.036L230.306 102.954C236.29 107.08 245.743 113.761 245.743 113.761Z" fill="black" fill-opacity="0.7"/>
<path opacity="0.3" d="M210.175 137.73L207.13 138.285C206.745 138.355 206.35 138.349 205.967 138.267C205.585 138.185 205.222 138.028 204.9 137.805C204.579 137.582 204.304 137.298 204.092 136.969C203.88 136.64 203.736 136.272 203.666 135.887L199.26 111.659C199.121 110.882 199.296 110.082 199.745 109.433C200.194 108.784 200.882 108.34 201.658 108.196L204.696 107.642C203.92 107.785 203.233 108.23 202.785 108.879C202.337 109.528 202.165 110.329 202.306 111.105L206.712 135.333C206.781 135.718 206.926 136.086 207.138 136.415C207.35 136.744 207.624 137.028 207.946 137.251C208.268 137.473 208.63 137.63 209.013 137.713C209.395 137.795 209.79 137.801 210.175 137.73Z" fill="black" fill-opacity="0.7"/>
<path d="M253.541 129.846L242.518 131.848L227.196 134.635L207.13 138.285C206.745 138.356 206.35 138.35 205.967 138.267C205.585 138.185 205.222 138.028 204.9 137.805C204.579 137.582 204.304 137.298 204.092 136.969C203.88 136.64 203.736 136.272 203.666 135.887L199.26 111.659C199.121 110.882 199.296 110.082 199.745 109.433C200.194 108.785 200.882 108.34 201.658 108.196L213.329 106.036L230.306 102.954L248.069 99.7217C248.454 99.6511 248.849 99.6571 249.231 99.7394C249.614 99.8218 249.976 99.9788 250.298 100.202C250.62 100.424 250.894 100.708 251.106 101.037C251.318 101.367 251.463 101.734 251.532 102.119L255.938 126.347C256.014 126.735 256.012 127.134 255.932 127.52C255.853 127.907 255.696 128.274 255.473 128.6C255.25 128.925 254.964 129.203 254.632 129.417C254.301 129.632 253.93 129.777 253.541 129.846V129.846Z" stroke="#263238" stroke-linecap="round" stroke-linejoin="round"/>
<path d="M250.267 98.4411L204.043 106.931C202.429 107.228 201.362 108.776 201.658 110.389L206.089 134.513C206.385 136.127 207.934 137.194 209.547 136.898L255.771 128.408C257.384 128.112 258.452 126.564 258.155 124.95L253.724 100.826C253.428 99.2124 251.88 98.1448 250.267 98.4411Z" stroke="#263238" stroke-width="0.996394" stroke-linecap="round" stroke-linejoin="round"/>
<path d="M248.974 101.355L205.414 109.271C204.632 109.413 204.113 110.163 204.255 110.945L208.593 134.818C208.736 135.601 209.485 136.12 210.268 135.977L253.827 128.061C254.609 127.919 255.129 127.17 254.986 126.387L250.648 102.514C250.506 101.732 249.756 101.213 248.974 101.355Z" stroke="#263238" stroke-linecap="round" stroke-linejoin="round"/>
<path d="M256.586 129.292L253.562 129.839C254.335 129.694 255.018 129.249 255.463 128.601C255.909 127.953 256.079 127.156 255.938 126.383L251.532 102.155C251.463 101.77 251.318 101.402 251.106 101.073C250.895 100.744 250.62 100.46 250.298 100.237C249.976 100.014 249.614 99.8573 249.231 99.7749C248.849 99.6926 248.454 99.6865 248.069 99.7572L251.114 99.2028C251.891 99.0641 252.692 99.2384 253.34 99.6876C253.989 100.137 254.434 100.824 254.578 101.6L258.984 125.828C259.123 126.605 258.948 127.405 258.499 128.054C258.05 128.703 257.362 129.148 256.586 129.292V129.292Z" stroke="#263238" stroke-linecap="round" stroke-linejoin="round"/>
<path d="M344.16 206.901L314.345 286.879C314.345 286.879 301.874 263.119 290.354 241.13C281.153 223.548 272.556 207.06 271.397 204.633C268.798 199.168 259.92 187.72 259.92 187.72C259.92 187.72 250.812 182.508 246.643 173.428C242.474 164.349 237.888 131.87 237.888 131.87C237.888 131.87 225.914 127.363 223.056 125.39C220.198 123.417 217.591 105.187 217.591 103.106C217.591 101.025 220.471 96.8564 220.471 96.8564C220.471 96.8564 219.83 93.8036 223.488 90.722C224.684 89.7406 226.009 88.9289 227.426 88.31H227.498C227.498 88.31 227.023 81.4196 230.609 79.4108C230.78 79.3139 230.958 79.2297 231.142 79.1588C234.338 77.9276 244.822 76.3364 244.822 76.3364C246.304 75.0342 248.029 74.0382 249.898 73.406C251.755 72.8948 261.95 75.2636 267.646 76.6676C269.935 77.2292 271.498 77.6324 271.498 77.6324C271.498 77.6324 281.131 78.0716 282.953 79.1588C284.223 79.9919 285.385 80.9812 286.409 82.1036L286.589 82.3124C286.589 82.3124 295.178 84.098 297 87.2444C298.822 90.3908 299.599 106 298.303 116.145C297.007 126.29 299.333 143.505 299.333 143.505C299.333 143.505 302.018 156.804 304.099 161.851C306.18 166.898 344.16 206.901 344.16 206.901Z" fill="white"/>
<path opacity="0.4" d="M290.354 241.129C281.153 223.547 272.556 207.059 271.397 204.633C268.798 199.168 259.92 187.72 259.92 187.72C259.92 187.72 250.812 182.507 246.643 173.428C242.474 164.349 237.888 131.869 237.888 131.869C237.888 131.869 225.914 127.362 223.056 125.389C220.198 123.417 217.591 105.186 217.591 103.105C217.591 101.025 220.471 96.8558 220.471 96.8558C220.471 96.8558 219.83 93.8029 223.488 90.7213C223.488 91.5421 223.488 92.9246 223.488 95.099C223.402 99.2246 228.262 124.101 229.464 123.345C230.666 122.589 232.524 120.767 232.034 119.161C232.034 119.161 229.68 109.506 227.455 88.3093H227.527C227.527 88.3093 227.052 81.419 230.638 79.4102C230.021 80.9022 229.625 82.4765 229.464 84.0829C229.385 87.4381 233.374 116.188 234.936 116.915C236.498 117.642 240.458 113.812 240.458 113.812C240.458 113.812 239.105 105.654 239.587 102.177C239.587 102.177 251.633 109.521 251.993 117.858C252.029 118.773 254.34 131.841 254.34 131.841C254.34 131.841 243.979 151.569 254.556 169.569C254.556 169.569 249.178 166.343 247.896 161.217C247.896 161.217 246.334 176.293 257.443 184.257C257.443 184.257 265.414 176.43 273.283 175.437C273.283 175.437 273.427 175.955 268.157 180.109C262.886 184.264 262.174 186.114 262.174 186.114C262.174 186.114 267.876 180.354 272.434 180.109C272.434 180.109 267.732 185.545 267.876 186.683C268.02 187.821 281.318 210.558 286.157 226.42C288.13 233.044 289.476 237.825 290.354 241.129Z" fill="#0A8080"/>
<path opacity="0.4" d="M253.015 90.2316C253.015 90.2316 256.853 93.1116 257.99 90.2316C258.644 88.6905 259.059 87.0591 259.222 85.3932C259.222 85.3932 260.698 84.7164 262.102 88.2732C263.506 91.83 277.582 92.7372 280.879 94.5588C284.177 96.3804 285.487 94.5588 285.487 94.5588C286.255 95.1901 286.782 96.0669 286.979 97.0415C287.176 98.016 287.03 99.0286 286.567 99.9084C284.969 103.213 289.498 103.508 291.254 101.075C293.011 98.6412 291.65 108.037 287.309 108.995C287.309 108.995 287.431 113.099 284.638 115.914H287.006C287.006 115.914 280.699 120.918 279.022 121.192C277.344 121.465 285.264 124.266 283.795 124.856C282.326 125.447 278.165 125.396 278.165 125.396C278.165 125.396 280.858 127.261 280.879 128.492C280.901 129.724 279.605 130.652 279.022 129.623C278.438 128.593 273.787 113.848 271.469 108.397C269.15 102.947 259.574 98.634 253.015 90.2316Z" fill="#0A8080"/>
<path opacity="0.4" d="M286.402 82.0522C278.323 79.8418 267.487 76.6954 267.487 76.6954L267.638 76.6162C269.928 77.1778 271.49 77.581 271.49 77.581C271.49 77.581 281.124 78.0202 282.946 79.1074C284.216 79.9405 285.377 80.9298 286.402 82.0522Z" fill="#0A8080"/>
<path d="M275.04 94.7611C268.013 93.3211 262.994 99.3259 262.994 99.3259C262.994 99.3259 269.978 105.647 271.526 108.362C273.074 111.076 275.645 120.227 275.645 120.227C278.59 120.703 284.018 117.664 285.322 109.6C286.625 101.536 282.031 96.1939 275.04 94.7611Z" fill="#0A8080"/>
<path d="M314.345 286.878C314.345 286.878 274.025 210.097 271.397 204.633C268.769 199.168 259.92 187.72 259.92 187.72C259.92 187.72 250.812 182.507 246.643 173.428C242.474 164.349 237.888 131.869 237.888 131.869C237.888 131.869 225.914 127.362 223.056 125.389C220.198 123.417 217.591 105.186 217.591 103.105C217.591 101.025 220.471 96.8559 220.471 96.8559C220.471 96.8559 219.434 91.9239 227.498 88.2735C227.498 88.2735 226.98 80.7207 231.142 79.1223C234.338 77.8911 244.822 76.2999 244.822 76.2999C246.304 74.9977 248.029 74.0017 249.898 73.3695C252.497 72.6495 271.498 77.5959 271.498 77.5959C271.498 77.5959 281.131 78.0351 282.953 79.1223C284.285 80.001 285.497 81.049 286.56 82.2399C286.56 82.2399 295.15 84.0255 296.971 87.1719C298.793 90.3183 299.57 105.928 298.274 116.073C296.978 126.217 299.304 143.433 299.304 143.433C299.304 143.433 301.99 156.731 304.07 161.778C306.151 166.825 344.16 206.901 344.16 206.901" stroke="#263238" stroke-linecap="round" stroke-linejoin="round"/>
<path d="M280.21 130.811C280.21 130.811 278.388 130.422 276.048 121.833C273.708 113.243 273.089 109.226 268.236 104.135C264.794 100.535 256.918 94.6529 253.015 90.2321C249.113 85.8113 244.8 82.2401 241.431 84.9761C238.738 87.1361 236.981 92.7449 239.35 101.399C242.395 112.516 252 117.808 252 117.808L254.347 131.79C254.347 131.79 244.159 152.195 255.643 171.455" stroke="#263238" stroke-linecap="round" stroke-linejoin="round"/>
<path d="M262.958 99.326C262.958 99.326 267.998 93.3284 275.004 94.7612C282.01 96.194 286.56 101.529 285.286 109.6C284.011 117.672 278.554 120.703 275.609 120.228" stroke="#263238" stroke-linecap="round" stroke-linejoin="round"/>
<path d="M244.8 76.2852C243.748 78.9303 242.938 81.6655 242.381 84.4572" stroke="#263238" stroke-linecap="round" stroke-linejoin="round"/>
<path d="M240.538 104.48C240.538 104.48 241.142 113.372 242.395 116.101C243.648 118.83 245.729 121.048 246.636 124.561C247.543 128.075 247.68 133.54 247.939 134.324C248.198 135.109 249.703 135.311 249.703 135.311C251.863 135.361 252.734 134.238 253.98 132.524" stroke="#263238" stroke-linecap="round" stroke-linejoin="round"/>
<path d="M227.52 88.2588C227.52 88.2588 229.471 107.252 231.034 115.324C232.596 123.395 235.354 124.561 239.882 127.168C244.411 129.774 246.91 135.088 247.306 135.887C247.702 136.686 249.185 136.772 249.185 136.772C250.056 136.7 250.896 136.411 251.628 135.932C252.359 135.453 252.96 134.799 253.375 134.029" stroke="#263238" stroke-linecap="round" stroke-linejoin="round"/>
<path d="M220.478 96.8418C219.989 97.5978 224.165 116.887 226.339 122.481C228.514 128.075 228.758 128.961 234.511 130.545C240.264 132.129 244.634 134.764 246.19 133.835" stroke="#263238" stroke-linecap="round" stroke-linejoin="round"/>
<path d="M260.431 86.1709C260.431 86.1709 263.419 93.3277 261.446 98.0365" stroke="#263238" stroke-linecap="round" stroke-linejoin="round"/>
<path d="M271.49 77.5811C276.387 79.5169 281.425 81.0743 286.56 82.2395" stroke="#263238" stroke-linecap="round" stroke-linejoin="round"/>
<path d="M291.276 102.313C291.276 102.313 288.986 106.497 285.516 107.397" stroke="#263238" stroke-linecap="round" stroke-linejoin="round"/>
<path d="M285.509 97.7559C285.509 97.7559 284.688 99.9159 283.817 100.513" stroke="#263238" stroke-linecap="round" stroke-linejoin="round"/>
<path d="M288.389 114.936C288.389 114.936 283.183 118.874 278.187 119.896" stroke="#263238" stroke-linecap="round" stroke-linejoin="round"/>
<path d="M276.048 121.84C276.048 121.84 278.208 124.569 283.817 124.828" stroke="#263238" stroke-linecap="round" stroke-linejoin="round"/>
<path d="M259.2 109.895C259.2 109.895 264.298 104.999 267.206 105.676" stroke="#263238" stroke-linecap="round" stroke-linejoin="round"/>
<path d="M269.179 110.889C269.179 110.889 265.32 113.769 264.614 113.769" stroke="#263238" stroke-linecap="round" stroke-linejoin="round"/>
<path d="M229.442 126.16C229.442 126.16 230.724 126.398 231.725 124.85" stroke="#263238" stroke-linecap="round" stroke-linejoin="round"/>
<path d="M234 119.147C234 119.147 237.096 117.231 239.119 116.864" stroke="#263238" stroke-linecap="round" stroke-linejoin="round"/>
<path d="M261.274 184.091C261.914 183.523 267.898 178.684 271.599 176.971" stroke="#263238" stroke-linecap="round" stroke-linejoin="round"/>
<path d="M269.035 181.801C268.61 181.672 265.212 185.228 263.419 186.654" stroke="#263238" stroke-linecap="round" stroke-linejoin="round"/>
<path d="M270.72 192.35C270.72 192.35 282.118 213.95 284.681 222.59" stroke="#263238" stroke-linecap="round" stroke-linejoin="round"/>
<path d="M304.099 161.807C305.064 167.113 308.196 171.023 309.91 173.139" stroke="#263238" stroke-linecap="round" stroke-linejoin="round"/>
<path opacity="0.4" d="M268.171 96.8411C266.515 97.8635 268.258 101.204 269.179 102.911C270.101 104.617 274.219 107.331 275.076 109.895C275.933 112.458 281.347 112.386 282.996 109.895C284.645 107.403 284.436 102.428 279.943 98.6411C275.45 94.8539 270.526 95.4011 268.171 96.8411Z" fill="white"/>
<path d="M236.556 240.331C229.223 239.084 221.685 240.359 215.17 243.947C208.654 247.535 203.547 253.225 200.68 260.088C197.814 266.951 197.357 274.583 199.385 281.739C201.412 288.895 205.805 295.153 211.846 299.493" stroke="#263238" stroke-linecap="round" stroke-linejoin="round"/>
<path d="M250.272 246.069C247.219 243.864 243.809 242.203 240.192 241.158" stroke="#263238" stroke-linecap="round" stroke-linejoin="round"/>
<path d="M246.96 301.537C251.398 299.08 255.207 295.63 258.089 291.457C260.972 287.283 262.85 282.499 263.577 277.479C264.303 272.459 263.858 267.339 262.277 262.519C260.696 257.7 258.021 253.311 254.462 249.697" stroke="#263238" stroke-linecap="round" stroke-linejoin="round"/>
<path d="M248.551 311.92L250.51 313.648L247.457 303.187" stroke="#263238" stroke-linecap="round" stroke-linejoin="round"/>
<path d="M225.511 305.195C230.352 306.025 235.318 305.757 240.041 304.41L246.24 309.882" stroke="#263238" stroke-linecap="round" stroke-linejoin="round"/>
<path d="M217.966 302.963C219.195 303.492 220.454 303.947 221.738 304.324" stroke="#263238" stroke-linecap="round" stroke-linejoin="round"/>
<path d="M233.633 256.761C237.711 257.458 241.381 259.656 243.919 262.923C246.458 266.19 247.681 270.289 247.349 274.413C247.017 278.537 245.153 282.387 242.125 285.206C239.096 288.025 235.122 289.608 230.985 289.643C226.848 289.679 222.847 288.165 219.771 285.398C216.694 282.632 214.764 278.814 214.361 274.697C213.958 270.579 215.111 266.46 217.593 263.15C220.075 259.839 223.707 257.578 227.772 256.811" stroke="#263238" stroke-linecap="round" stroke-linejoin="round"/>
<path d="M227.772 291.17C222.977 290.353 218.702 287.664 215.888 283.696C213.074 279.728 211.952 274.805 212.767 270.009" stroke="#263238" stroke-linecap="round" stroke-linejoin="round"/>
<path d="M248.105 279.318C246.976 282.441 245.021 285.199 242.448 287.299C239.876 289.398 236.782 290.761 233.496 291.242" stroke="#263238" stroke-linecap="round" stroke-linejoin="round"/>
<path d="M214.178 265.429C216.037 261.387 219.302 258.159 223.364 256.344C227.426 254.53 232.009 254.253 236.26 255.566C240.511 256.879 244.14 259.692 246.471 263.482C248.803 267.271 249.677 271.778 248.933 276.165" stroke="#263238" stroke-linecap="round" stroke-linejoin="round"/>
<path d="M241.862 266.473L242.071 266.25" stroke="#263238" stroke-width="2" stroke-linecap="round" stroke-linejoin="round"/>
<path d="M238.925 269.642L240.386 268.065" stroke="#263238" stroke-width="2" stroke-linecap="round" stroke-linejoin="round"/>
<path d="M220.99 271.968L228.053 281.356L237.643 271.024" stroke="#263238" stroke-width="2" stroke-linecap="round" stroke-linejoin="round"/>
</svg>
