<svg width="167" height="140" viewBox="0 0 167 140" fill="none" xmlns="http://www.w3.org/2000/svg">
<path d="M109.218 88.1761C111.62 88.1761 152.027 88.4433 154.569 88.3631C154.749 88.3631 154.849 88.0892 154.665 87.9991C153.066 87.2041 151.249 87.3645 149.585 86.8033C148.607 86.4693 148.006 85.8347 147.327 85.0999C146.764 84.459 146.037 83.9842 145.223 83.7272C144.48 83.5037 143.691 83.4796 142.935 83.6571C142.114 83.8508 141.402 84.3251 140.621 84.6156C138.68 85.3504 136.793 84.6524 135.407 83.2162C134.265 82.0338 133.139 80.9149 131.586 80.277C130.951 79.9901 130.264 79.8373 129.568 79.8281C128.871 79.8189 128.18 79.9535 127.538 80.2235C126.055 80.8915 125.04 82.2442 123.647 83.0559C121.997 84.0211 120.023 83.794 118.199 84.0846C116.376 84.3752 114.98 85.9116 113.38 86.7933C112.858 87.1283 112.256 87.3153 111.636 87.3344C111.279 87.3344 110.928 87.2275 110.577 87.1841C110.026 87.1173 109.502 87.1307 109.131 87.5916C109.054 87.7018 109.071 88.1761 109.218 88.1761Z" fill="#EBEBEB"/>
<path d="M12.328 34.9631C14.0815 34.9631 43.5837 35.1568 45.4374 35.1001C45.571 35.1001 45.6445 34.8997 45.5109 34.8329C44.3419 34.255 43.0159 34.3719 41.8002 33.9611C41.0821 33.734 40.6479 33.253 40.1535 32.732C39.7421 32.2645 39.2109 31.918 38.6171 31.73C38.0749 31.5655 37.4988 31.5471 36.9471 31.6766C36.3459 31.8202 35.8282 32.1609 35.2571 32.378C33.8376 32.9124 32.4615 32.4047 31.4495 31.3559C30.6145 30.4909 29.7795 29.6859 28.6606 29.2116C28.1999 29.0022 27.7012 28.8891 27.1952 28.8794C26.6892 28.8696 26.1865 28.9633 25.7181 29.1549C24.6359 29.6458 23.8944 30.6311 22.8757 31.2257C21.6733 31.9304 20.2304 31.7634 18.9011 31.9772C17.5718 32.1909 16.5631 33.3132 15.3808 33.9544C14.9998 34.198 14.5601 34.3341 14.1082 34.3486C13.8482 34.3252 13.5896 34.2884 13.3333 34.2383C13.1475 34.1875 12.9513 34.1883 12.766 34.2407C12.5806 34.293 12.413 34.395 12.2812 34.5356C12.2011 34.6191 12.2144 34.9631 12.328 34.9631Z" fill="#EBEBEB"/>
<path d="M108.587 66.76C110.34 66.76 139.839 66.9537 141.696 66.8969C141.826 66.8969 141.9 66.6965 141.766 66.6297C140.597 66.0519 139.271 66.1688 138.059 65.758C137.344 65.5175 136.903 65.0499 136.409 64.5155C135.998 64.0473 135.467 63.7007 134.873 63.5135C134.33 63.349 133.754 63.3306 133.203 63.46C132.625 63.6575 132.06 63.8918 131.513 64.1614C130.096 64.6958 128.717 64.1882 127.705 63.1394C126.873 62.2743 126.035 61.4694 124.916 60.9951C124.453 60.7851 123.951 60.6729 123.443 60.6654C122.934 60.658 122.429 60.7554 121.96 60.9517C120.878 61.4427 120.137 62.428 119.121 63.0225C117.915 63.7272 116.476 63.5602 115.143 63.7707C113.811 63.9811 112.805 65.1067 111.623 65.7513C111.242 65.9953 110.802 66.1315 110.35 66.1454C110.09 66.1218 109.832 66.085 109.575 66.0352C109.39 65.9843 109.193 65.9851 109.008 66.0375C108.823 66.0899 108.655 66.1919 108.523 66.3324C108.457 66.4126 108.47 66.76 108.587 66.76Z" fill="#EBEBEB"/>
<path d="M34.2585 69.8828C36.012 69.8828 65.5142 70.0765 67.3679 70.0164C67.5015 70.0164 67.5717 69.816 67.4414 69.7525C66.2724 69.1714 64.9464 69.2883 63.7307 68.8808C63.0159 68.6403 62.5784 68.1727 62.0807 67.635C61.6705 67.1675 61.1404 66.8211 60.5476 66.633C60.005 66.4708 59.4295 66.4524 58.8776 66.5795C58.2798 66.7231 57.7587 67.0672 57.1876 67.2809C55.7714 67.8187 54.3954 67.3076 53.3833 66.2589C52.5483 65.3972 51.7133 64.5889 50.5944 64.1146C50.1309 63.9052 49.6292 63.7935 49.1207 63.7866C48.6121 63.7797 48.1075 63.8777 47.6385 64.0745C46.5564 64.5655 45.8115 65.5508 44.7962 66.142C43.5904 66.8467 42.1509 66.6797 40.8216 66.8935C39.4923 67.1072 38.4836 68.2295 37.3012 68.8708C36.9207 69.1153 36.4808 69.2516 36.0287 69.2649C35.7682 69.2649 35.511 69.1881 35.2538 69.158C35.0678 69.1065 34.8712 69.1066 34.6853 69.1584C34.4993 69.2102 34.331 69.3116 34.1984 69.4519C34.1316 69.5354 34.1449 69.8828 34.2585 69.8828Z" fill="#EBEBEB"/>
<path d="M49.235 57.0639C49.2684 57.1607 95.7312 57.0639 95.1467 57.0639C94.8795 57.0639 95.5508 56.6631 95.2903 56.5328C93.7773 55.7813 92.1206 55.7613 90.474 55.611C89.5019 55.5744 88.5464 55.3475 87.6617 54.943C86.7867 54.4821 86.2422 53.6871 85.6177 52.939C84.6608 51.8039 83.4299 50.9321 82.0417 50.406C80.6535 49.8799 79.1539 49.7171 77.6852 49.933C74.3819 50.4507 71.7767 52.9657 68.4668 53.43C66.4628 53.7072 64.599 52.939 62.6552 52.6684C61.1536 52.4605 59.6249 52.7391 58.2931 53.4634C57.2444 53.9844 56.2891 54.4219 55.0901 54.5021C54.1816 54.5689 53.2664 54.4654 52.3579 54.4553C50.8712 54.4866 49.4466 55.0576 48.3499 56.0619C48.1829 56.1921 47.7153 57.0639 49.235 57.0639Z" fill="#EBEBEB"/>
<path d="M138.173 113.954C137.912 113.847 137.798 114.271 138.056 114.375C138.381 114.508 138.645 114.757 138.797 115.073C138.95 115.39 138.979 115.751 138.881 116.088C138.865 116.144 138.872 116.204 138.901 116.254C138.929 116.305 138.977 116.342 139.033 116.357C139.088 116.373 139.148 116.365 139.199 116.337C139.249 116.308 139.286 116.261 139.301 116.205C139.428 115.757 139.383 115.277 139.174 114.861C138.965 114.444 138.608 114.121 138.173 113.954Z" fill="#EBEBEB"/>
<path d="M140.083 113.56C139.808 114.164 139.72 114.836 139.829 115.491C139.872 115.768 140.293 115.651 140.25 115.374C140.164 114.834 140.236 114.28 140.457 113.78C140.571 113.513 140.196 113.293 140.083 113.56Z" fill="#EBEBEB"/>
<path d="M18.1027 119.629C17.8522 119.495 17.6318 119.873 17.8823 120.006C18.1211 120.128 18.3176 120.319 18.4462 120.555C18.5749 120.79 18.6298 121.059 18.6037 121.325C18.5804 121.606 19.0179 121.606 19.0379 121.325C19.0643 120.982 18.9898 120.639 18.8236 120.338C18.6575 120.036 18.4069 119.79 18.1027 119.629Z" fill="#EBEBEB"/>
<path d="M31.5865 109.99C31.4529 109.742 31.0755 109.963 31.2091 110.21C31.5186 110.781 31.661 111.428 31.6199 112.077C31.6199 112.358 32.0441 112.358 32.0575 112.077C32.0972 111.351 31.9342 110.628 31.5865 109.99Z" fill="#EBEBEB"/>
<path d="M32.5985 110.28C32.3599 110.703 32.2627 111.191 32.3213 111.673C32.3547 111.947 32.7923 111.95 32.7555 111.673C32.7003 111.269 32.7777 110.857 32.976 110.501C33.1096 110.253 32.7321 110.033 32.5985 110.28Z" fill="#EBEBEB"/>
<path d="M47.1876 139.679C47.054 139.432 46.6766 139.652 46.8102 139.899C47.1197 140.471 47.2621 141.118 47.221 141.766C47.221 142.047 47.6452 142.047 47.6585 141.766C47.6983 141.04 47.5353 140.317 47.1876 139.679Z" fill="#EBEBEB"/>
<path d="M48.1995 139.969C47.961 140.392 47.8639 140.88 47.9223 141.362C47.9557 141.639 48.3932 141.643 48.3565 141.362C48.3013 140.958 48.3786 140.547 48.5769 140.19C48.7105 139.946 48.3365 139.722 48.1995 139.969Z" fill="#EBEBEB"/>
<path d="M126.025 137.084C126.239 136.907 126.549 137.214 126.336 137.394C126.081 137.596 125.879 137.857 125.747 138.154C125.616 138.452 125.559 138.777 125.581 139.101C125.581 139.382 125.157 139.382 125.143 139.101C125.122 138.719 125.19 138.338 125.343 137.987C125.497 137.637 125.73 137.327 126.025 137.084Z" fill="#EBEBEB"/>
<path d="M151.042 119.325C151.255 119.148 151.566 119.455 151.349 119.635C151.096 119.839 150.895 120.1 150.763 120.397C150.632 120.694 150.574 121.018 150.594 121.342C150.611 121.623 150.173 121.623 150.16 121.342C150.138 120.96 150.206 120.579 150.359 120.228C150.513 119.877 150.746 119.568 151.042 119.325Z" fill="#EBEBEB"/>
<path d="M14.332 105.417C14.332 105.417 39.5724 88.0858 55.2237 88.0858C74.0212 88.0858 92.2977 95.8079 99.2115 98.3596C117.411 105.06 152.651 105.417 152.651 105.417H14.332Z" fill="#DBDBDB"/>
<path d="M152.668 105.417C152.668 105.417 138.336 95.3336 122.147 95.3336C110.845 95.3336 94.6256 97.4211 79.3517 100.845C73.5335 102.147 43.2563 105.417 43.2563 105.417H152.668Z" fill="#C7C7C7"/>
<path opacity="0.2" d="M125.08 46.6364C133.788 46.6364 140.848 39.5767 140.848 30.8682C140.848 22.1597 133.788 15.1001 125.08 15.1001C116.371 15.1001 109.312 22.1597 109.312 30.8682C109.312 39.5767 116.371 46.6364 125.08 46.6364Z" fill="#FFC727"/>
<path d="M125.08 42.9223C131.737 42.9223 137.134 37.5255 137.134 30.8683C137.134 24.211 131.737 18.8142 125.08 18.8142C118.422 18.8142 113.026 24.211 113.026 30.8683C113.026 37.5255 118.422 42.9223 125.08 42.9223Z" fill="#FFC727"/>
<path d="M63.3263 101.202C63.0191 101.513 59.4119 101.65 58.0992 101.65C56.7866 101.65 53.1794 101.536 52.8721 101.202C52.5649 100.868 56.9302 76.9202 58.0992 76.9202C59.2682 76.9202 63.637 100.908 63.3263 101.202Z" fill="#455A64"/>
<path d="M63.3999 95.1065C62.5081 95.4405 59.2082 96.7765 58.4934 97.184V96.7331C59.2883 96.2655 60.0866 95.8001 60.8882 95.337C61.7725 94.8708 62.632 94.3591 63.4633 93.8039C63.5034 93.7738 63.48 93.6937 63.4266 93.7171C62.5559 94.1246 61.7135 94.5899 60.9049 95.1098C60.0933 95.5875 59.2917 96.0751 58.4934 96.5694C58.4934 95.4205 58.4934 94.2715 58.4934 93.1259C59.7954 92.5854 61.0538 91.9456 62.2576 91.2121C62.2977 91.1887 62.2576 91.1119 62.2208 91.1319C60.9342 91.6502 59.6882 92.2643 58.4934 92.9689C58.4934 92.371 58.4934 91.7765 58.4934 91.1787C58.46 88.1025 58.4533 85.0231 58.3765 81.9469C59.1581 81.5495 59.9663 81.2021 60.7479 80.8046C60.798 80.7779 60.7479 80.6911 60.7078 80.7111C59.9129 81.0217 59.148 81.3791 58.3698 81.7131C58.3264 80.1266 58.2663 78.5401 58.1694 76.957C58.1694 76.9463 58.1652 76.9361 58.1577 76.9286C58.1502 76.9211 58.14 76.9169 58.1293 76.9169C58.1187 76.9169 58.1085 76.9211 58.101 76.9286C58.0935 76.9361 58.0893 76.9463 58.0893 76.957C57.979 79.9028 57.9891 82.8521 58.0258 85.8013C57.2142 85.1533 56.3558 84.5822 55.5241 83.9543C55.4941 83.9309 55.4607 83.9843 55.4941 84.0077C56.3558 84.6757 57.1641 85.3904 58.0291 86.0451C58.0291 86.2121 58.0291 86.3791 58.0291 86.5461C57.1474 86.1453 56.2556 85.7712 55.3571 85.3905C55.287 85.3604 55.2269 85.4606 55.297 85.494C56.2021 85.9282 57.104 86.3691 58.0225 86.7799C58.0425 88.2406 58.0636 89.7013 58.0859 91.162C58.1193 93.7104 58.1761 96.2621 58.2295 98.8139C56.5707 97.9722 54.9007 97.155 53.2195 96.3624C53.1561 96.3323 53.0993 96.4225 53.1627 96.4592C54.8079 97.3995 56.5026 98.2502 58.2396 99.0076C58.2863 101.129 58.3297 103.246 58.3565 105.354C58.3565 105.38 58.367 105.406 58.3858 105.424C58.4046 105.443 58.4301 105.454 58.4567 105.454C58.4832 105.454 58.5087 105.443 58.5275 105.424C58.5463 105.406 58.5569 105.38 58.5569 105.354C58.5268 102.652 58.5235 99.9462 58.5134 97.2441C59.3919 97.027 62.6951 95.6108 63.4834 95.2234C63.5435 95.2134 63.4867 95.0731 63.3999 95.1065Z" fill="#37474F"/>
<path d="M123.967 101.202C123.66 101.513 120.053 101.65 118.74 101.65C117.428 101.65 113.824 101.536 113.513 101.202C113.202 100.868 117.571 76.9202 118.74 76.9202C119.909 76.9202 124.278 100.908 123.967 101.202Z" fill="#455A64"/>
<path d="M124.041 95.1065C123.149 95.4405 119.849 96.7765 119.138 97.1839C119.138 97.0336 119.138 96.8833 119.138 96.733C119.933 96.2654 120.734 95.8012 121.533 95.3369C122.417 94.8708 123.276 94.3591 124.108 93.8039C124.148 93.7738 124.124 93.6936 124.071 93.717C123.201 94.1246 122.36 94.5899 121.553 95.1098C120.74 95.5863 119.935 96.0728 119.138 96.5694C119.138 95.4204 119.138 94.2715 119.121 93.1258C120.423 92.5861 121.682 91.9462 122.885 91.212C122.925 91.1886 122.885 91.1118 122.852 91.1319C121.564 91.6495 120.317 92.2636 119.121 92.9689C119.121 92.371 119.121 91.7765 119.121 91.1786C119.088 88.1025 119.084 85.023 119.004 81.9469C119.786 81.5494 120.594 81.202 121.376 80.8046C121.426 80.7779 121.376 80.691 121.335 80.7111C120.541 81.0217 119.779 81.3791 118.997 81.7131C118.957 80.1277 118.892 78.5423 118.8 76.9569C118.798 76.9478 118.792 76.9399 118.785 76.9342C118.777 76.9285 118.768 76.9254 118.759 76.9254C118.749 76.9254 118.74 76.9285 118.733 76.9342C118.725 76.9399 118.719 76.9478 118.717 76.9569C118.607 79.9028 118.617 82.852 118.653 85.8012C117.842 85.1533 116.983 84.5821 116.152 83.9542C116.122 83.9308 116.088 83.9843 116.122 84.0076C116.983 84.6756 117.792 85.3904 118.657 86.045C118.657 86.212 118.657 86.379 118.657 86.546C117.775 86.1452 116.883 85.7712 115.985 85.3904C115.918 85.3603 115.855 85.4605 115.925 85.4939C116.83 85.9281 117.732 86.369 118.65 86.7799C118.67 88.2405 118.691 89.7012 118.714 91.1619C118.747 93.7103 118.804 96.2621 118.857 98.8139C117.196 97.9722 115.526 97.155 113.847 96.3623C113.835 96.3588 113.822 96.3596 113.81 96.3645C113.798 96.3695 113.788 96.3783 113.782 96.3895C113.776 96.4007 113.774 96.4137 113.776 96.4264C113.778 96.439 113.784 96.4506 113.794 96.4592C115.437 97.4001 117.131 98.2508 118.867 99.0076C118.914 101.128 118.957 103.246 118.984 105.354C118.984 105.38 118.995 105.406 119.013 105.424C119.032 105.443 119.058 105.454 119.084 105.454C119.111 105.454 119.136 105.443 119.155 105.424C119.174 105.406 119.184 105.38 119.184 105.354C119.154 102.652 119.151 99.9461 119.144 97.2441C120.019 97.027 123.326 95.6108 124.111 95.2234C124.184 95.2133 124.128 95.0731 124.041 95.1065Z" fill="#37474F"/>
<path d="M23.764 101.82C23.4968 102.087 20.404 102.204 19.2784 102.204C18.1528 102.204 15.0567 102.087 14.7895 101.82C14.5223 101.553 18.2731 80.9817 19.2784 80.9817C20.2838 80.9817 24.0479 101.556 23.764 101.82Z" fill="#455A64"/>
<path d="M23.8275 96.5794C23.0626 96.87 20.227 98.0223 19.6158 98.3597V97.9722L21.6699 96.7732C22.4298 96.3753 23.1678 95.9372 23.8809 95.4605C23.9143 95.4372 23.8809 95.367 23.8509 95.3871C23.1028 95.7355 22.3797 96.135 21.6866 96.5828C20.9885 96.9903 20.3005 97.4111 19.6158 97.8353C19.6158 96.85 19.6158 95.8613 19.6158 94.876C20.7333 94.4141 21.8132 93.8658 22.8455 93.2361C22.8789 93.2161 22.8455 93.1493 22.8155 93.166C21.7098 93.6094 20.6401 94.1376 19.6158 94.7458C19.6158 94.2314 19.6158 93.7204 19.6158 93.206C19.589 90.5674 19.5824 87.9255 19.5156 85.2836C20.1836 84.9496 20.8783 84.6456 21.5496 84.3049C21.5964 84.2816 21.5496 84.2047 21.5162 84.2248C20.8482 84.4886 20.1802 84.8059 19.5122 85.0999C19.4755 83.7371 19.422 82.3744 19.3385 81.015C19.3362 81.0076 19.3315 81.001 19.3252 80.9964C19.3189 80.9918 19.3113 80.9893 19.3035 80.9893C19.2956 80.9893 19.288 80.9918 19.2817 80.9964C19.2754 81.001 19.2707 81.0076 19.2684 81.015C19.1749 83.5434 19.1816 86.0751 19.215 88.6069C18.5202 88.0524 17.7754 87.5614 17.0673 87.0204C17.0406 87.0003 17.0139 87.0471 17.0406 87.0671C17.7821 87.6316 18.4735 88.2562 19.2183 88.8173C19.2183 88.9609 19.2183 89.1012 19.2183 89.2448C18.4635 88.9108 17.6986 88.5768 16.9371 88.2428C16.877 88.2161 16.8235 88.3029 16.8836 88.333C17.6619 88.7037 18.4367 89.0845 19.2216 89.4352C19.2417 90.691 19.2606 91.9446 19.2784 93.196C19.3051 95.3837 19.3552 97.5748 19.402 99.7625C17.9747 99.041 16.5396 98.3407 15.0967 97.6616C15.0433 97.6349 14.9932 97.7117 15.05 97.7418C16.4564 98.5505 17.9059 99.282 19.392 99.9328C19.4287 101.75 19.4688 103.567 19.4922 105.387C19.4961 105.407 19.5067 105.424 19.5223 105.437C19.5378 105.45 19.5573 105.457 19.5774 105.457C19.5974 105.457 19.6169 105.45 19.6324 105.437C19.648 105.424 19.6586 105.407 19.6625 105.387C19.6358 103.069 19.6325 100.748 19.6258 98.4298C21.077 97.9274 22.5007 97.3488 23.891 96.6963C23.9477 96.6696 23.901 96.5494 23.8275 96.5794Z" fill="#37474F"/>
<path d="M109.031 102.398C109.255 102.622 111.86 102.732 112.808 102.732C113.757 102.732 116.362 102.632 116.586 102.398C116.81 102.164 113.653 84.8361 112.808 84.8361C111.963 84.8361 108.807 102.174 109.031 102.398Z" fill="#37474F"/>
<path d="M108.977 97.9823C109.622 98.2295 112.007 99.2014 112.521 99.4853C112.521 99.3751 112.521 99.2682 112.521 99.1513L110.791 98.1493C110.151 97.8141 109.529 97.445 108.927 97.0438C108.901 97.0204 108.927 96.9636 108.954 96.9803C109.584 97.2727 110.193 97.6075 110.778 97.9823C111.362 98.3163 111.943 98.6804 112.521 99.0378C112.521 98.2094 112.521 97.3678 112.521 96.5461C111.58 96.1576 110.671 95.6964 109.802 95.1667C109.772 95.1467 109.802 95.0932 109.826 95.1066C110.757 95.4836 111.658 95.9302 112.521 96.4426V95.1467C112.545 92.9256 112.551 90.6978 112.608 88.4667C112.04 88.1794 111.459 87.9289 110.891 87.6417C110.855 87.6216 110.891 87.5582 110.921 87.5749C111.496 87.7987 112.047 88.0625 112.611 88.3097C112.641 87.1641 112.685 86.0185 112.755 84.8728C112.755 84.8649 112.758 84.8572 112.764 84.8516C112.769 84.8459 112.777 84.8428 112.785 84.8428C112.793 84.8428 112.801 84.8459 112.806 84.8516C112.812 84.8572 112.815 84.8649 112.815 84.8728C112.892 87.0004 112.889 89.1313 112.862 91.2656C113.446 90.798 114.071 90.3838 114.669 89.9296C114.689 89.9296 114.712 89.9496 114.689 89.9663C114.068 90.4406 113.483 90.9683 112.859 91.4426C112.859 91.5628 112.859 91.6831 112.859 91.8033C113.496 91.5127 114.141 91.2422 114.782 90.965C114.832 90.9449 114.876 91.0184 114.826 91.0418C114.158 91.3558 113.52 91.6764 112.859 91.9703C112.843 93.0258 112.827 94.0812 112.812 95.1366C112.788 96.9803 112.745 98.8106 112.708 100.668C113.906 100.06 115.114 99.4697 116.332 98.8975C116.341 98.8922 116.352 98.8908 116.363 98.8936C116.373 98.8964 116.382 98.9032 116.387 98.9125C116.393 98.9218 116.394 98.9328 116.391 98.9432C116.388 98.9535 116.382 98.9623 116.372 98.9676C115.182 99.6476 113.956 100.262 112.698 100.808C112.665 102.342 112.637 103.874 112.615 105.404C112.615 105.423 112.607 105.442 112.593 105.456C112.579 105.47 112.561 105.477 112.541 105.477C112.522 105.477 112.503 105.47 112.489 105.456C112.475 105.442 112.468 105.423 112.468 105.404C112.491 103.45 112.494 101.496 112.498 99.5421C111.276 99.1215 110.079 98.6342 108.911 98.0825C108.884 98.0625 108.914 97.9589 108.977 97.9823Z" fill="#455A64"/>
<path d="M22.5984 102.398C22.8221 102.622 25.4307 102.732 26.3792 102.732C27.3278 102.732 29.933 102.632 30.1568 102.398C30.3806 102.164 27.2243 84.8361 26.3859 84.8361C25.5476 84.8361 22.3779 102.174 22.5984 102.398Z" fill="#37474F"/>
<path d="M22.5483 97.9823C23.1929 98.2294 25.5777 99.2014 26.092 99.4853C26.092 99.3751 26.092 99.2682 26.092 99.1513L24.3619 98.1493C23.7215 97.814 23.0994 97.445 22.4982 97.0437C22.4715 97.0204 22.4982 96.9636 22.5249 96.9803C23.154 97.272 23.7622 97.6068 24.3452 97.9823C24.933 98.3163 25.5142 98.6803 26.092 99.0377C26.092 98.2094 26.092 97.3788 26.092 96.5461C25.1534 96.159 24.2466 95.6989 23.3799 95.17C23.3499 95.15 23.3799 95.0965 23.4033 95.1099C24.3341 95.4869 25.2351 95.9335 26.0987 96.4459C26.0987 96.015 26.0987 95.5842 26.0987 95.15C26.1221 92.9289 26.1254 90.7011 26.1822 88.47C25.6177 88.1827 25.0332 87.9322 24.4688 87.645C24.432 87.6249 24.4688 87.5615 24.4988 87.5782C25.0733 87.802 25.6244 88.0658 26.1889 88.313C26.2189 87.1674 26.2624 86.0217 26.3325 84.8761C26.3309 84.8716 26.3304 84.8668 26.3311 84.862C26.3318 84.8573 26.3336 84.8527 26.3364 84.8488C26.3392 84.8449 26.3428 84.8417 26.3471 84.8395C26.3514 84.8373 26.3561 84.8362 26.3609 84.8362C26.3657 84.8362 26.3704 84.8373 26.3747 84.8395C26.3789 84.8417 26.3826 84.8449 26.3854 84.8488C26.3882 84.8527 26.39 84.8573 26.3906 84.862C26.3913 84.8668 26.3909 84.8716 26.3893 84.8761C26.4694 87.0037 26.4628 89.1346 26.436 91.2689C27.0239 90.8013 27.6485 90.3871 28.243 89.9329C28.2664 89.9329 28.2897 89.9529 28.2664 89.9696C27.6418 90.4439 27.0606 90.9716 26.436 91.4459C26.436 91.5661 26.436 91.6864 26.436 91.8066C27.0706 91.516 27.7153 91.2455 28.3599 90.9683C28.41 90.9482 28.4534 91.0217 28.4033 91.0451C27.7353 91.3591 27.0974 91.6797 26.4327 91.9736C26.4193 93.0291 26.4037 94.0845 26.3859 95.1399C26.3626 96.9836 26.3225 98.8139 26.2824 100.671C27.4815 100.063 28.6939 99.4719 29.9096 98.9008C29.9189 98.8955 29.93 98.8941 29.9403 98.8969C29.9506 98.8997 29.9594 98.9065 29.9647 98.9158C29.9701 98.9251 29.9715 98.9361 29.9686 98.9465C29.9658 98.9568 29.959 98.9656 29.9497 98.9709C28.7595 99.6509 27.533 100.265 26.2757 100.811C26.2423 102.344 26.2089 103.874 26.1889 105.407C26.1853 105.423 26.1763 105.438 26.1632 105.449C26.1501 105.459 26.1338 105.465 26.1171 105.465C26.1003 105.465 26.084 105.459 26.0709 105.449C26.0579 105.438 26.0488 105.423 26.0453 105.407C26.0653 103.453 26.0686 101.499 26.0753 99.5454C24.8527 99.1248 23.6541 98.6375 22.4848 98.0858C22.4447 98.0624 22.4848 97.9589 22.5483 97.9823Z" fill="#455A64"/>
<path d="M82.4177 101.536C82.1305 101.82 78.8038 101.947 77.5914 101.947C76.379 101.947 73.0523 101.82 72.7684 101.536C72.4845 101.252 76.5126 79.1246 77.5914 79.1246C78.6702 79.1246 82.7016 101.259 82.4177 101.536Z" fill="#37474F"/>
<path d="M82.498 95.9081C81.6764 96.222 78.6303 97.4612 77.9723 97.8219C77.9723 97.685 77.9723 97.5447 77.9723 97.4077C78.7071 96.9735 79.4452 96.546 80.1834 96.1185C80.9997 95.6885 81.7934 95.2169 82.5615 94.7057C82.5949 94.679 82.5615 94.6055 82.5247 94.6255C81.7173 95.0009 80.9361 95.4305 80.1867 95.9114C79.4386 96.349 78.6971 96.8032 77.9589 97.2474C77.9589 96.1886 77.9589 95.1265 77.9589 94.0677C79.1587 93.5687 80.3188 92.9791 81.4292 92.3042C81.4693 92.2808 81.4292 92.2107 81.3991 92.2274C80.2117 92.7064 79.0618 93.2736 77.9589 93.9241C77.9589 93.373 77.9589 92.8219 77.9589 92.2708C77.9289 89.4318 77.9222 86.5928 77.8521 83.7505C78.5735 83.3864 79.3183 83.0658 80.0398 82.6984C80.0865 82.675 80.0398 82.5915 80.003 82.6115C79.2716 82.8988 78.5635 83.2361 77.8454 83.5534C77.8053 82.0872 77.7519 80.6242 77.6617 79.1613C77.6592 79.153 77.6541 79.1458 77.6472 79.1406C77.6403 79.1355 77.6319 79.1327 77.6233 79.1327C77.6146 79.1327 77.6062 79.1355 77.5993 79.1406C77.5924 79.1458 77.5873 79.153 77.5849 79.1613C77.4847 81.8801 77.4913 84.6022 77.5281 87.3243C76.7799 86.7264 75.9817 86.1987 75.2201 85.6209C75.1901 85.5975 75.16 85.6476 75.1901 85.671C75.985 86.2755 76.7298 86.9469 77.5281 87.5514C77.5281 87.705 77.5281 87.8587 77.5281 88.0123C76.7165 87.6416 75.8948 87.2976 75.0732 86.9435C75.0097 86.9168 74.9529 87.0103 75.0164 87.0404C75.8547 87.4412 76.6864 87.8487 77.5314 88.2261C77.5515 89.5621 77.5748 90.9248 77.5915 92.2708C77.6216 94.6088 77.675 96.9802 77.7251 99.3316C76.1932 98.5567 74.6501 97.803 73.0959 97.0704C73.0358 97.0437 72.9857 97.1272 73.0425 97.1606C74.5582 98.028 76.1191 98.814 77.7185 99.5153C77.7585 101.469 77.7986 103.426 77.8253 105.38C77.8294 105.402 77.8408 105.421 77.8576 105.435C77.8744 105.449 77.8954 105.456 77.9172 105.456C77.9389 105.456 77.96 105.449 77.9768 105.435C77.9935 105.421 78.0049 105.402 78.009 105.38C77.9823 102.885 77.979 100.39 77.9723 97.8987C78.7806 97.6983 81.83 96.3924 82.5548 96.035C82.6149 96.0049 82.5648 95.878 82.498 95.9081Z" fill="#455A64"/>
<path d="M152.063 101.536C151.776 101.82 148.45 101.947 147.237 101.947C146.025 101.947 142.698 101.82 142.414 101.536C142.13 101.252 146.158 79.1246 147.237 79.1246C148.316 79.1246 152.347 101.259 152.063 101.536Z" fill="#37474F"/>
<path d="M152.13 95.9081C151.305 96.2221 148.259 97.4612 147.601 97.822V97.4078C148.336 96.9736 149.074 96.5461 149.809 96.1186C150.626 95.6893 151.419 95.2177 152.187 94.7057C152.224 94.679 152.204 94.6055 152.154 94.6256C151.346 95.0009 150.565 95.4306 149.816 95.9115C149.064 96.349 148.326 96.8033 147.588 97.2475C147.588 96.1887 147.588 95.1266 147.588 94.0678C148.788 93.5687 149.948 92.9792 151.058 92.3043C151.095 92.2809 151.058 92.2108 151.028 92.2275C149.839 92.7065 148.688 93.2736 147.584 93.9242C147.584 93.3731 147.584 92.822 147.584 92.2709C147.554 89.4319 147.548 86.5929 147.474 83.7505C148.199 83.3865 148.94 83.0658 149.665 82.6984C149.712 82.6751 149.665 82.5916 149.629 82.6116C148.894 82.8988 148.189 83.2362 147.471 83.5535C147.431 82.0872 147.374 80.6243 147.284 79.1614C147.284 79.1516 147.28 79.1423 147.273 79.1354C147.266 79.1285 147.257 79.1246 147.247 79.1246C147.237 79.1246 147.228 79.1285 147.221 79.1354C147.214 79.1423 147.21 79.1516 147.21 79.1614C147.11 81.8801 147.117 84.6022 147.15 87.3243C146.402 86.7265 145.604 86.1988 144.842 85.6209C144.816 85.5976 144.786 85.6477 144.816 85.671C145.61 86.2756 146.355 86.9469 147.154 87.5515C147.154 87.7051 147.154 87.8587 147.154 88.0124C146.342 87.6416 145.517 87.2976 144.699 86.9436C144.635 86.9169 144.578 87.0104 144.642 87.0404C145.477 87.4412 146.312 87.8487 147.157 88.2261L147.217 92.2709C147.247 94.6089 147.297 96.9803 147.347 99.3316C145.818 98.5568 144.271 97.8019 142.721 97.0705C142.661 97.0437 142.608 97.1272 142.668 97.1606C144.183 98.0287 145.744 98.8148 147.344 99.5153C147.384 101.469 147.424 103.426 147.451 105.38C147.455 105.402 147.466 105.421 147.483 105.435C147.5 105.449 147.521 105.456 147.543 105.456C147.564 105.456 147.586 105.449 147.602 105.435C147.619 105.421 147.63 105.402 147.635 105.38C147.608 102.885 147.601 100.39 147.594 97.8988C148.403 97.6984 151.456 96.3924 152.18 96.0351C152.26 96.005 152.207 95.8781 152.13 95.9081Z" fill="#455A64"/>
<path d="M66.8734 102.728C67.0738 102.929 69.4018 103.019 70.2468 103.019C71.0918 103.019 73.4198 102.929 73.6202 102.728C73.8206 102.528 71.0016 87.0671 70.2468 87.0671C69.4919 87.0671 66.6763 102.538 66.8734 102.728Z" fill="#455A64"/>
<path d="M66.8268 98.7905C67.4046 99.0076 69.5322 99.876 69.9931 100.127V99.8359C69.4787 99.532 68.9644 99.2347 68.45 98.9341C67.8754 98.631 67.3179 98.2965 66.78 97.9321C66.7566 97.9154 66.78 97.862 66.8034 97.8753C67.3649 98.1386 67.9082 98.4387 68.43 98.7738C68.9544 99.0811 69.4721 99.3984 69.9864 99.7157V97.4946C69.1471 97.1456 68.3354 96.7336 67.5582 96.2621C67.5349 96.2454 67.5582 96.1953 67.5816 96.2087C68.4118 96.5431 69.2157 96.9394 69.9864 97.3944C69.9864 97.0103 69.9864 96.6229 69.9864 96.2388C70.0065 94.2548 70.0098 92.2675 70.0599 90.2835C69.5556 90.0297 69.0345 89.8059 68.5302 89.5487C68.5001 89.532 68.5302 89.4752 68.5569 89.4886C69.0679 89.689 69.5589 89.9261 70.0632 90.1566C70.0933 89.1312 70.13 88.1092 70.1935 87.0871C70.1935 87.0801 70.1963 87.0733 70.2013 87.0683C70.2063 87.0632 70.2131 87.0604 70.2202 87.0604C70.2273 87.0604 70.2341 87.0632 70.2391 87.0683C70.2441 87.0733 70.2469 87.0801 70.2469 87.0871C70.3171 88.9876 70.3104 90.8881 70.287 92.7919C70.8114 92.3744 71.3692 92.0036 71.9002 91.5995C71.9203 91.5995 71.9403 91.6195 71.9203 91.6362C71.3625 92.0571 70.8448 92.528 70.287 92.9488C70.287 93.0557 70.287 93.1659 70.287 93.2828C70.8548 93.0223 71.4293 92.7818 72.0038 92.5347C72.0472 92.518 72.0873 92.5814 72.0439 92.6015C71.4594 92.882 70.8782 93.1693 70.287 93.4331C70.287 94.375 70.257 95.3169 70.2436 96.2588C70.2236 97.9054 70.1868 99.5487 70.1501 101.192C71.2233 100.651 72.3022 100.124 73.3865 99.6121C73.4266 99.5954 73.4634 99.6522 73.4233 99.6756C72.3628 100.282 71.2702 100.831 70.1501 101.319C70.12 102.688 70.09 104.054 70.0733 105.42C70.0733 105.437 70.0666 105.453 70.0547 105.465C70.0428 105.477 70.0266 105.484 70.0098 105.484C69.993 105.484 69.9768 105.477 69.9649 105.465C69.953 105.453 69.9463 105.437 69.9463 105.42C69.963 103.677 69.9664 101.933 69.9731 100.19C68.8812 99.8147 67.8108 99.3799 66.7667 98.8874C66.7366 98.864 66.7733 98.7671 66.8268 98.7905Z" fill="#37474F"/>
<path d="M133.32 102.728C133.52 102.929 135.845 103.019 136.69 103.019C137.535 103.019 139.863 102.929 140.063 102.728C140.263 102.528 137.444 87.0671 136.69 87.0671C135.935 87.0671 133.119 102.538 133.32 102.728Z" fill="#455A64"/>
<path d="M133.266 98.7906C133.84 99.0077 135.968 99.8761 136.429 100.127V99.836C135.918 99.532 135.4 99.2348 134.886 98.9342C134.311 98.6311 133.754 98.2966 133.216 97.9322C133.189 97.9155 133.216 97.862 133.239 97.8754C133.8 98.1379 134.342 98.4381 134.862 98.7739C135.387 99.0811 135.904 99.3984 136.422 99.7157C136.422 98.9765 136.422 98.2361 136.422 97.4946C135.584 97.1457 134.773 96.7337 133.997 96.2622C133.971 96.2455 133.997 96.1954 134.017 96.2087C134.849 96.5424 135.654 96.9388 136.426 97.3944C136.426 97.0103 136.426 96.6229 136.426 96.2388C136.446 94.2548 136.452 92.2675 136.502 90.2836C135.995 90.0297 135.477 89.8059 134.973 89.5488C134.939 89.5321 134.973 89.4753 134.996 89.4886C135.51 89.689 135.998 89.9262 136.506 90.1566C136.532 89.1313 136.572 88.1092 136.633 87.0872C136.633 87.0538 136.686 87.0538 136.686 87.0872C136.756 88.9876 136.753 90.8881 136.729 92.7919C137.25 92.3744 137.808 92.0037 138.339 91.5995C138.344 91.5969 138.35 91.5963 138.355 91.5978C138.361 91.5994 138.365 91.603 138.368 91.6079C138.37 91.6127 138.371 91.6185 138.369 91.6238C138.368 91.6291 138.364 91.6336 138.359 91.6363C137.805 92.0571 137.284 92.5281 136.726 92.9489C136.726 93.0558 136.726 93.166 136.726 93.2829C137.291 93.0224 137.868 92.7819 138.44 92.5347C138.486 92.518 138.526 92.5815 138.48 92.6015C137.895 92.8821 137.314 93.1693 136.723 93.4332C136.723 94.3751 136.693 95.317 136.683 96.2588C136.659 97.9055 136.623 99.5487 136.589 101.192C137.658 100.651 138.736 100.124 139.822 99.6122C139.866 99.5955 139.899 99.6523 139.859 99.6757C138.799 100.283 137.706 100.832 136.586 101.319C136.557 102.688 136.532 104.056 136.512 105.42C136.509 105.435 136.501 105.448 136.489 105.458C136.477 105.467 136.462 105.472 136.447 105.472C136.432 105.472 136.417 105.467 136.406 105.458C136.394 105.448 136.385 105.435 136.382 105.42C136.402 103.677 136.405 101.933 136.409 100.19C135.318 99.8154 134.249 99.3805 133.206 98.8874C133.179 98.864 133.216 98.7672 133.266 98.7906Z" fill="#37474F"/>
<path d="M12.4514 105.444L30.2135 105.364L47.9757 105.334L83.4999 105.277L119.024 105.334L136.786 105.364L154.545 105.444L136.786 105.527L119.024 105.557L83.4999 105.611L47.9757 105.554L30.2135 105.527L12.4514 105.444Z" fill="#263238"/>
</svg>
