<svg width="243" height="249" viewBox="0 0 243 249" fill="none" xmlns="http://www.w3.org/2000/svg">
<path d="M226.252 90.7705C224.26 64.7799 206.785 42.8977 185.063 29.8003C163.875 17.1076 139.119 11.6864 114.566 14.3623C80.8761 18.1471 35.9864 39.7305 38.322 79.4908C38.7453 86.6819 40.7722 93.868 39.7164 100.994C37.8141 113.843 26.7186 122.976 19.3233 133.658C11.4664 145.066 7.62143 158.761 8.39224 172.592C9.2986 187.94 17.2666 203.926 31.5393 209.658C45.812 215.39 61.997 209.698 77.4101 210.266C102.385 211.192 123.928 228.487 148.544 232.79C166.928 235.907 185.799 231.64 201.053 220.918C208.075 215.938 214.28 209.464 217.527 201.471C225.699 181.387 213.424 158.528 216.656 137.084C218.882 122.339 226.785 109.46 226.422 94.1967C226.392 93.048 226.335 91.9059 226.252 90.7705Z" fill="#0A8080"/>
<path opacity="0.7" d="M226.252 90.7705C224.26 64.7799 206.785 42.8977 185.063 29.8003C163.875 17.1076 139.119 11.6864 114.566 14.3623C80.8761 18.1471 35.9864 39.7305 38.322 79.4908C38.7453 86.6819 40.7722 93.868 39.7164 100.994C37.8141 113.843 26.7186 122.976 19.3233 133.658C11.4664 145.066 7.62143 158.761 8.39224 172.592C9.2986 187.94 17.2666 203.926 31.5393 209.658C45.812 215.39 61.997 209.698 77.4101 210.266C102.385 211.192 123.928 228.487 148.544 232.79C166.928 235.907 185.799 231.64 201.053 220.918C208.075 215.938 214.28 209.464 217.527 201.471C225.699 181.387 213.424 158.528 216.656 137.084C218.882 122.339 226.785 109.46 226.422 94.1967C226.392 93.048 226.335 91.9059 226.252 90.7705Z" fill="white"/>
<path d="M209.136 229.08H228.06" stroke="#263238" stroke-linecap="round" stroke-linejoin="round"/>
<path d="M20.394 229.08H205.65" stroke="#263238" stroke-linecap="round" stroke-linejoin="round"/>
<path d="M10.932 229.08H16.41" stroke="#263238" stroke-linecap="round" stroke-linejoin="round"/>
<path opacity="0.2" d="M33.9097 27.9575H163.39C164.05 27.9575 164.683 28.2199 165.15 28.6868C165.617 29.1538 165.88 29.7871 165.88 30.4475V170.884H31.4197V30.4475C31.4197 29.7871 31.682 29.1538 32.149 28.6868C32.6159 28.2199 33.2493 27.9575 33.9097 27.9575Z" fill="black"/>
<path d="M31.9177 24.9697H161.398C162.058 24.9697 162.691 25.2321 163.158 25.699C163.625 26.166 163.888 26.7993 163.888 27.4597V167.896H29.4277V27.4597C29.4277 26.7993 29.6901 26.166 30.157 25.699C30.624 25.2321 31.2573 24.9697 31.9177 24.9697Z" fill="white" stroke="#263238" stroke-linecap="round" stroke-linejoin="round"/>
<path d="M115.104 61.7866H77.3801V76.7964H115.104V61.7866Z" fill="#EDEDED"/>
<path d="M95.0939 67.5733C94.7702 67.5733 94.5661 67.7526 94.5661 68.2158V68.913H93.5701V68.2805C93.5701 67.2397 94.093 66.6421 95.0989 66.6421C96.1049 66.6421 96.6278 67.2397 96.6278 68.2805C96.6278 70.3323 94.586 71.0942 94.586 72.1649C94.5808 72.2113 94.5808 72.258 94.586 72.3044H96.588V73.2406H93.5999V72.4388C93.5999 70.5165 95.6318 70.2028 95.6318 68.3204C95.6368 67.7277 95.4326 67.5733 95.0939 67.5733Z" fill="#263238"/>
<path d="M155.262 61.7866H117.539V76.7964H155.262V61.7866Z" fill="#EDEDED"/>
<path d="M135.93 68.3203C135.93 67.7327 135.726 67.5733 135.402 67.5733C135.078 67.5733 134.869 67.7526 134.869 68.2158V68.6341H133.938V68.2805C133.938 67.2397 134.436 66.6421 135.462 66.6421C136.488 66.6421 136.991 67.2397 136.991 68.2805V68.4498C136.991 69.147 136.767 69.5853 136.274 69.7894C136.52 69.9151 136.722 70.1144 136.851 70.3598C136.979 70.6052 137.028 70.8845 136.991 71.159V71.657C136.991 72.7028 136.468 73.3004 135.462 73.3004C134.456 73.3004 133.938 72.7077 133.938 71.6719V71.134H134.904V71.7366C134.904 72.2048 135.108 72.3791 135.437 72.3791C135.766 72.3791 135.93 72.2097 135.93 71.647V71.149C135.93 70.5414 135.726 70.3173 135.263 70.3173H134.934V69.3711H135.337C135.721 69.3711 135.95 69.2068 135.95 68.6839L135.93 68.3203Z" fill="#263238"/>
<path d="M74.9449 76.7963V61.7866H37.2214V76.7963V157.517H155.262V76.7963H74.9449Z" fill="white" stroke="#263238" stroke-linecap="round" stroke-linejoin="round"/>
<path d="M54.4871 67.5385C54.7449 67.5759 55.007 67.5108 55.2174 67.3572C55.4278 67.2036 55.5697 66.9737 55.6125 66.7168H56.3048V73.2406H55.2789V68.2606H54.4871V67.5385Z" fill="#263238"/>
<path d="M45.7422 90.9946H90.7664" stroke="#263238" stroke-linecap="round" stroke-linejoin="round"/>
<path d="M45.7422 111.273H90.7664" stroke="#263238" stroke-linecap="round" stroke-linejoin="round"/>
<path d="M124.436 94.645H45.7422V106.408H124.436V94.645Z" stroke="#263238" stroke-linecap="round" stroke-linejoin="round"/>
<path d="M145.731 131.96H110.846C109.614 131.96 108.615 132.959 108.615 134.191V147.981C108.615 149.213 109.614 150.212 110.846 150.212H145.731C146.963 150.212 147.962 149.213 147.962 147.981V134.191C147.962 132.959 146.963 131.96 145.731 131.96Z" fill="#263238" stroke="#263238" stroke-linecap="round" stroke-linejoin="round"/>
<path d="M120.387 145.167H119.556V136.86H120.731L122.648 142.866V136.86H123.48V145.167H122.519L120.387 138.444V145.167Z" fill="#0A8080"/>
<path d="M127.369 140.541V141.372H125.343V144.325H127.833V145.167H124.416V136.86H127.833V137.707H125.343V140.541H127.369Z" fill="#0A8080"/>
<path d="M130.751 141.581L129.366 145.167H128.485L130.158 140.884L128.595 136.86H129.556L130.836 140.182L132.13 136.86H132.992L131.448 140.884L133.111 145.167H132.14L130.751 141.581Z" fill="#0A8080"/>
<path d="M135.059 145.167V137.697H133.53V136.85H137.514V137.697H135.985V145.167H135.059Z" fill="#0A8080"/>
<path d="M31.9177 24.9697H161.398C162.058 24.9697 162.691 25.2321 163.158 25.699C163.625 26.166 163.888 26.7993 163.888 27.4597V33.9337H29.4277V27.4597C29.4277 27.1327 29.4921 26.8089 29.6173 26.5068C29.7424 26.2047 29.9258 25.9302 30.157 25.699C30.3883 25.4678 30.6628 25.2844 30.9649 25.1593C31.267 25.0341 31.5907 24.9697 31.9177 24.9697Z" fill="#263238" stroke="#263238" stroke-linecap="round" stroke-linejoin="round"/>
<path d="M159.57 28.62C159.571 28.2906 159.474 27.9683 159.292 27.694C159.11 27.4197 158.85 27.2057 158.546 27.0792C158.242 26.9527 157.907 26.9194 157.584 26.9834C157.26 27.0474 156.964 27.2059 156.731 27.4388C156.498 27.6718 156.339 27.9686 156.275 28.2917C156.211 28.6148 156.245 28.9497 156.371 29.2538C156.498 29.5579 156.712 29.8177 156.986 30C157.26 30.1824 157.582 30.2793 157.912 30.2783C158.352 30.2783 158.773 30.1036 159.084 29.7926C159.395 29.4816 159.57 29.0598 159.57 28.62Z" fill="white" stroke="#263238" stroke-linecap="round" stroke-linejoin="round"/>
<path d="M152.598 28.62C152.599 28.2906 152.502 27.9683 152.32 27.694C152.138 27.4197 151.878 27.2057 151.574 27.0792C151.27 26.9527 150.935 26.9194 150.612 26.9834C150.288 27.0474 149.992 27.2059 149.759 27.4388C149.526 27.6718 149.367 27.9686 149.303 28.2917C149.239 28.6148 149.273 28.9497 149.399 29.2538C149.526 29.5579 149.74 29.8177 150.014 30C150.288 30.1824 150.61 30.2793 150.94 30.2783C151.38 30.2783 151.801 30.1036 152.112 29.7926C152.423 29.4816 152.598 29.0598 152.598 28.62Z" fill="white" stroke="#263238" stroke-linecap="round" stroke-linejoin="round"/>
<path d="M145.626 28.62C145.627 28.2906 145.53 27.9683 145.348 27.694C145.165 27.4197 144.906 27.2057 144.602 27.0792C144.297 26.9527 143.963 26.9194 143.639 26.9834C143.316 27.0474 143.02 27.2059 142.787 27.4388C142.554 27.6718 142.395 27.9686 142.331 28.2917C142.267 28.6148 142.3 28.9497 142.427 29.2538C142.554 29.5579 142.767 29.8177 143.042 30C143.316 30.1824 143.638 30.2793 143.968 30.2783C144.408 30.2783 144.829 30.1036 145.14 29.7926C145.451 29.4816 145.626 29.0598 145.626 28.62Z" fill="white" stroke="#263238" stroke-linecap="round" stroke-linejoin="round"/>
<path d="M36.818 50.8359H155.671" stroke="#263238" stroke-linecap="round" stroke-linejoin="round"/>
<path d="M39.2533 43.5303H75.7567" stroke="#263238" stroke-linecap="round" stroke-linejoin="round"/>
</svg>
