<svg width="29" height="29" viewBox="0 0 29 29" fill="none" xmlns="http://www.w3.org/2000/svg">
<path d="M17.5209 3.625H9.51204C8.93023 3.625 8.45837 4.09685 8.45837 4.67867V9.06431H17.5209V3.625Z" fill="#C1F5EA"/>
<path d="M8.45837 9.06427H17.5209V14.503H8.45837V9.06427Z" fill="#7DECD6"/>
<path d="M8.45837 14.503H17.5209V19.9707H8.45837V14.503Z" fill="#3DDAB4"/>
<path d="M25.5297 3.625H17.5209V9.06431H26.5834V4.67867C26.5834 4.09685 26.1115 3.625 25.5297 3.625Z" fill="#C1F5EA"/>
<path d="M17.5209 9.06427H26.5834V14.503H17.5209V9.06427Z" fill="#7DECD6"/>
<path d="M17.5209 14.503H26.5834V19.9707H17.5209V14.503Z" fill="#3DDAB4"/>
<path d="M3.93498 9.0625H8.45837V19.9375H3.93498C3.4305 19.9375 3.02087 19.5279 3.02087 19.0234V9.9766C3.02087 9.47213 3.4305 9.0625 3.93498 9.0625Z" fill="#7DECD6"/>
<path d="M8.45837 19.9375V24.3213C8.45837 24.9031 8.93023 25.375 9.51144 25.375H17.5209H25.5303C26.1115 25.375 26.5834 24.9031 26.5834 24.3219V19.9375H8.45837Z" fill="#00B569"/>
<path d="M8.45837 14.5V19.9375H12.9818C13.4862 19.9375 13.8959 19.5279 13.8959 19.0234V14.5H8.45837Z" fill="#00B569"/>
<path d="M8.45837 14.5V9.0625H12.9818C13.4862 9.0625 13.8959 9.47213 13.8959 9.9766V14.5H8.45837Z" fill="#3DDAB4"/>
<path d="M5.92514 11.4792H7.36668L8.53635 13.7472L9.77247 11.4792H11.1192L9.26377 14.5L11.1615 17.5209H9.74106L8.46627 15.1465L7.19691 17.5209H5.75537L7.68447 14.4891L5.92514 11.4792Z" fill="white"/>
</svg>
