<svg width="24" height="24" viewBox="0 0 24 24" fill="none" xmlns="http://www.w3.org/2000/svg">
<g clip-path="url(#clip0)">
<path d="M20.9482 0.639669L20.561 0.311592C20.3579 0.139505 20.0537 0.164644 19.8816 0.367742L19.1101 1.27832C18.938 1.48142 18.9632 1.78557 19.1662 1.95766L19.5534 2.28573C19.7565 2.45782 20.0607 2.43268 20.2328 2.22959L21.0043 1.319C21.1764 1.11591 21.1513 0.811757 20.9482 0.639669Z" stroke="#222525" stroke-opacity="0.54" stroke-miterlimit="10"/>
<path d="M16.6647 13.0605C16.6787 12.5925 16.862 12.1456 17.1807 11.8025L17.1857 11.797L19.9647 8.64402C20.3454 8.21208 20.6374 7.70937 20.8238 7.16459C21.0103 6.61982 21.0876 6.04366 21.0514 5.469C21.0152 4.89434 20.8661 4.33244 20.6127 3.81538C20.3594 3.29833 20.0066 2.83625 19.5747 2.45552L18.5747 1.57502C18.1427 1.19427 17.64 0.902333 17.0952 0.715872C16.5505 0.529411 15.9743 0.45208 15.3996 0.488295C14.825 0.52451 14.2631 0.673562 13.746 0.92694C13.229 1.18032 12.7669 1.53306 12.3862 1.96502L9.60967 5.11752L9.60467 5.12302C9.30436 5.48226 8.88377 5.72018 8.42117 5.79252C6.12054 6.1373 4.01987 7.29577 2.50067 9.05752C-0.786834 12.786 -0.840334 18.111 2.38417 20.951C5.60867 23.791 10.8842 23.072 14.1687 19.344C15.7261 17.6159 16.6117 15.3863 16.6647 13.0605Z" stroke="#222525" stroke-opacity="0.54" stroke-miterlimit="10"/>
</g>
<defs>
<clipPath id="clip0">
<rect width="24" height="24" fill="white"/>
</clipPath>
</defs>
</svg>
