<svg width="311" height="286" viewBox="0 0 311 286" fill="none" xmlns="http://www.w3.org/2000/svg">
<path d="M59.967 56.8095C59.967 56.8095 48.3232 63.4649 46.65 80.0909C44.9768 96.717 63.2761 120.011 66.0502 141.047C68.8243 162.083 46.65 167.134 55.5322 193.743C64.4143 220.352 110.971 226.448 135.913 215.917C160.855 205.387 172.505 178.777 209.651 178.777C246.797 178.777 273.4 161.585 271.192 123.332C268.984 85.0794 260.649 73.4418 230.712 51.2675C200.775 29.0932 96.5531 19.1101 59.967 56.8095Z" fill="#0A8080"/>
<path opacity="0.85" d="M59.967 56.8095C59.967 56.8095 48.3232 63.4649 46.65 80.0909C44.9768 96.717 63.2761 120.011 66.0502 141.047C68.8243 162.083 46.65 167.134 55.5322 193.743C64.4143 220.352 110.971 226.448 135.913 215.917C160.855 205.387 172.505 178.777 209.651 178.777C246.797 178.777 273.4 161.585 271.192 123.332C268.984 85.0794 260.649 73.4418 230.712 51.2675C200.775 29.0932 96.5531 19.1101 59.967 56.8095Z" fill="white"/>
<path d="M165.253 261.404C225.441 261.404 274.234 258.906 274.234 255.825C274.234 252.743 225.441 250.245 165.253 250.245C105.065 250.245 56.2723 252.743 56.2723 255.825C56.2723 258.906 105.065 261.404 165.253 261.404Z" fill="#0A8080"/>
<path opacity="0.3" d="M165.253 261.404C225.441 261.404 274.234 258.906 274.234 255.825C274.234 252.743 225.441 250.245 165.253 250.245C105.065 250.245 56.2723 252.743 56.2723 255.825C56.2723 258.906 105.065 261.404 165.253 261.404Z" fill="white"/>
<path d="M270.06 171.289H266.652H112.781H109.373V178.099H112.781V247.372H266.652V178.099H270.06V171.289Z" fill="#0A8080"/>
<path opacity="0.5" d="M270.06 171.289H266.652H112.781H109.373V178.099H112.781V247.372H266.652V178.099H270.06V171.289Z" fill="white"/>
<path d="M116.899 207.483H158.865V185.091H116.899V207.483ZM117.751 185.912H157.988V206.637H117.751V185.912Z" fill="white"/>
<path d="M169.016 207.483H210.989V185.091H169.016V207.483ZM169.868 185.912H210.137V206.637H169.868V185.912Z" fill="white"/>
<path d="M221.14 185.06V207.452H263.106V185.06H221.14ZM262.254 206.637H221.992V185.912H262.254V206.637Z" fill="white"/>
<path d="M116.899 237.581H158.865V215.152H116.899V237.581ZM117.751 216.004H157.988V236.729H117.751V216.004Z" fill="white"/>
<path d="M169.016 237.581H210.989V215.152H169.016V237.581ZM169.868 216.004H210.137V236.729H169.868V216.004Z" fill="white"/>
<path d="M221.14 237.581H263.106V215.152H221.14V237.581ZM221.992 216.004H262.254V236.729H221.992V216.004Z" fill="white"/>
<path d="M138.333 193.998C134.57 193.998 131.491 195.142 131.491 196.554C131.491 197.966 134.545 199.111 138.333 199.111C142.121 199.111 145.144 197.966 145.144 196.554C145.144 195.142 142.096 193.998 138.333 193.998Z" fill="white"/>
<path d="M190.201 193.998C186.438 193.998 183.359 195.142 183.359 196.554C183.359 197.966 186.413 199.111 190.201 199.111C193.989 199.111 197.012 197.966 197.012 196.554C197.012 195.142 193.964 193.998 190.201 193.998Z" fill="white"/>
<path d="M243.575 199.111C247.307 199.111 250.386 197.966 250.386 196.554C250.386 195.142 247.339 193.998 243.575 193.998C239.812 193.998 236.733 195.142 236.733 196.554C236.733 197.966 239.812 199.111 243.575 199.111Z" fill="white"/>
<path d="M138.333 229.203C142.094 229.203 145.144 228.058 145.144 226.647C145.144 225.235 142.094 224.09 138.333 224.09C134.571 224.09 131.522 225.235 131.522 226.647C131.522 228.058 134.571 229.203 138.333 229.203Z" fill="white"/>
<path d="M190.201 229.203C193.963 229.203 197.012 228.058 197.012 226.647C197.012 225.235 193.963 224.09 190.201 224.09C186.44 224.09 183.391 225.235 183.391 226.647C183.391 228.058 186.44 229.203 190.201 229.203Z" fill="white"/>
<path d="M243.575 229.203C247.337 229.203 250.386 228.058 250.386 226.647C250.386 225.235 247.337 224.09 243.575 224.09C239.814 224.09 236.764 225.235 236.764 226.647C236.764 228.058 239.814 229.203 243.575 229.203Z" fill="white"/>
<path d="M83.7276 177.981C83.7276 177.981 84.2501 176.072 84.2687 175.947C84.4678 174.498 84.0075 171.593 82.5271 170.866C82.2789 170.753 82.0099 170.695 81.7376 170.694C81.4652 170.693 81.1958 170.75 80.9468 170.86C80.6979 170.971 80.4751 171.132 80.2929 171.335C80.1108 171.537 79.9734 171.776 79.8898 172.035C79.498 173.117 79.9956 174.454 80.5927 175.369C81.2893 176.451 83.7214 177.981 83.7276 177.981Z" fill="#0A8080"/>
<path d="M55.6194 185.682C56.8634 185.862 59.4074 185.116 59.6126 185.06C60.0331 186.528 60.5526 187.966 61.1676 189.364C61.5222 190.185 61.9016 190.994 62.2934 191.808C62.0633 191.46 61.8456 191.155 61.8145 191.118C60.8566 190.011 58.3562 188.437 56.8385 189.078C56.5903 189.191 56.3688 189.356 56.1885 189.561C56.0082 189.766 55.8731 190.006 55.7921 190.267C55.7111 190.527 55.686 190.802 55.7184 191.073C55.7508 191.344 55.84 191.605 55.9801 191.839C56.5399 192.853 57.8461 193.351 58.9533 193.513C60.0605 193.674 62.2561 193.083 62.8346 192.891C62.9901 193.202 63.1394 193.513 63.2949 193.817C64.035 195.298 64.7877 196.772 65.4719 198.24C65.7207 198.762 65.9384 199.279 66.1623 199.795C65.9508 199.49 65.7766 199.235 65.7455 199.173C64.7877 198.066 62.2872 196.492 60.7695 197.133C60.5173 197.246 60.2922 197.412 60.1096 197.62C59.9269 197.827 59.791 198.072 59.7108 198.336C59.6306 198.601 59.6081 198.88 59.6449 199.154C59.6816 199.428 59.7766 199.691 59.9236 199.925C60.4834 200.939 61.7896 201.443 62.8968 201.599C64.0039 201.754 66.0068 201.225 66.6723 201.033C66.8838 201.568 67.0953 202.109 67.2943 202.637C67.4125 203.004 67.5493 203.346 67.6426 203.72C67.7359 204.093 67.8479 204.447 67.9474 204.808C68.1154 205.511 68.2957 206.233 68.4388 206.917C68.5445 207.396 68.6378 207.856 68.7311 208.31C68.4948 207.794 68.0158 206.792 67.9661 206.711C67.1824 205.467 64.9494 203.539 63.3633 203.944C63.1035 204.021 62.8628 204.151 62.6566 204.327C62.4504 204.503 62.2834 204.72 62.1662 204.965C62.049 205.209 61.9843 205.475 61.9762 205.746C61.9681 206.017 62.0169 206.286 62.1193 206.537C62.5174 207.62 63.7614 208.316 64.8063 208.64C65.957 208.988 68.5072 208.671 68.8244 208.64C68.9737 209.399 69.1168 210.145 69.2412 210.848C69.6704 213.28 69.9316 215.32 70.0995 216.751C70.1306 217.006 70.1555 217.236 70.1742 217.447H65.2417L66.7905 247.589H75.7038L77.2525 217.447H72.656C72.6871 217.379 72.7244 217.31 72.7555 217.236C73.3775 215.923 74.2607 214.032 75.2062 211.725C75.5047 210.997 75.8282 210.213 76.1205 209.399C76.4315 209.467 78.9506 209.977 80.1262 209.716C81.196 209.473 82.4836 208.87 82.9625 207.812C83.0831 207.568 83.1509 207.302 83.1617 207.03C83.1725 206.758 83.1259 206.486 83.025 206.234C82.9241 205.981 82.7711 205.752 82.5761 205.562C82.381 205.372 82.1481 205.226 81.8927 205.132C80.3377 204.609 77.9678 206.376 77.097 207.551C77.0473 207.626 76.5746 208.441 76.2822 208.957C76.4066 208.627 76.531 208.335 76.6554 207.968C76.9042 207.29 77.1281 206.606 77.3769 205.872C77.4827 205.517 77.5946 205.156 77.7004 204.79C77.8061 204.423 77.8932 204.037 77.9927 203.657C78.2042 202.768 78.3784 201.86 78.5276 200.939C79.1185 201.151 81.2333 201.891 82.3281 201.81C83.4228 201.729 84.8161 201.337 85.4381 200.367C85.5963 200.146 85.7062 199.895 85.7607 199.629C85.8152 199.362 85.813 199.088 85.7543 198.823C85.6956 198.557 85.5818 198.307 85.4201 198.089C85.2585 197.871 85.0526 197.689 84.8161 197.556C83.3606 196.803 80.7482 198.178 79.7157 199.223C79.6472 199.285 78.9879 200.106 78.6334 200.566C78.7205 200.013 78.8075 199.465 78.876 198.899C79.0812 197.276 79.2367 195.621 79.3922 193.979C79.442 193.469 79.498 192.972 79.5539 192.468C79.7592 192.549 82.2534 193.475 83.485 193.388C84.5735 193.314 85.973 192.909 86.595 191.945C86.7523 191.724 86.8615 191.471 86.9155 191.205C86.9696 190.939 86.9672 190.664 86.9086 190.398C86.85 190.133 86.7365 189.883 86.5753 189.664C86.4142 189.445 86.209 189.262 85.973 189.128C84.5113 188.381 81.9051 189.75 80.8663 190.794C80.7855 190.875 79.84 192.038 79.6223 192.374C79.7405 191.267 79.8649 190.166 80.0391 189.084C80.2596 187.614 80.5734 186.16 80.9783 184.73C81.0778 184.767 83.6778 185.75 84.9342 185.663C86.0227 185.582 87.3911 185.184 88.0442 184.214C88.2002 183.991 88.3075 183.737 88.3592 183.47C88.4109 183.203 88.4058 182.928 88.3442 182.662C88.2826 182.397 88.1659 182.148 88.0017 181.931C87.8375 181.714 87.6295 181.534 87.3911 181.402C85.9356 180.65 83.3232 182.024 82.2845 183.069C82.2161 183.138 81.4946 184.04 81.1587 184.481L81.0778 184.438C81.5243 183.018 82.0989 181.642 82.7946 180.326C83.1678 179.598 83.5658 178.921 83.9639 178.267C84.4304 178.504 86.5701 179.543 87.6959 179.586C88.8217 179.63 90.1839 179.381 90.9241 178.485C91.104 178.281 91.2389 178.042 91.32 177.782C91.4011 177.523 91.4267 177.249 91.395 176.98C91.3633 176.71 91.2751 176.449 91.1361 176.216C90.9971 175.982 90.8104 175.78 90.5882 175.624C89.2198 174.716 86.4768 175.804 85.3323 176.719C85.2701 176.768 84.7103 177.341 84.2749 177.764C84.4615 177.471 84.6481 177.173 84.8347 176.899C85.5189 175.866 86.2093 174.958 86.8251 174.168C87.1859 173.714 87.5155 173.316 87.8265 172.924C88.405 172.924 90.7188 172.844 91.7327 172.365C92.7465 171.886 93.8537 171.034 94.0963 169.877C94.1616 169.612 94.1705 169.337 94.1225 169.069C94.0744 168.801 93.9704 168.546 93.8173 168.32C93.6642 168.095 93.4653 167.904 93.2337 167.761C93.002 167.618 92.7428 167.525 92.4729 167.488C90.8432 167.314 88.9088 169.547 88.3117 170.884C88.2619 171.002 87.6897 172.9 87.6897 172.9H87.7208C87.416 173.248 87.0988 173.627 86.738 174.05C86.116 174.834 85.3883 175.723 84.6792 176.744C83.8985 177.836 83.184 178.974 82.5395 180.152C81.8125 181.464 81.2026 182.838 80.7171 184.257V184.313C80.7171 183.834 80.7171 182.491 80.7171 182.385C80.5305 180.936 79.3114 178.243 77.7004 177.944C77.4312 177.901 77.156 177.915 76.8927 177.985C76.6294 178.056 76.384 178.182 76.1725 178.354C75.9611 178.526 75.7884 178.74 75.6658 178.984C75.5432 179.227 75.4735 179.494 75.4612 179.766C75.3679 180.917 76.2076 182.074 77.0224 182.802C77.943 183.623 80.4932 184.419 80.6984 184.481C80.2371 185.939 79.8755 187.427 79.6161 188.935C79.4606 189.812 79.33 190.701 79.2118 191.591C79.2118 191.174 79.2118 190.801 79.2118 190.751C79.0252 189.302 77.8123 186.608 76.2014 186.31C75.9323 186.268 75.6575 186.283 75.3946 186.354C75.1317 186.425 74.8867 186.55 74.6755 186.722C74.4643 186.894 74.2916 187.108 74.1687 187.351C74.0458 187.594 73.9754 187.86 73.9622 188.132C73.8689 189.283 74.7023 190.44 75.5172 191.168C76.332 191.895 78.509 192.629 79.0812 192.81L78.9506 193.842C78.7578 195.484 78.565 197.126 78.3286 198.731C78.2415 199.297 78.142 199.851 78.0425 200.404C78.0425 200.037 78.0425 199.726 78.0425 199.683C77.8559 198.227 76.6368 195.534 75.0258 195.236C74.7568 195.193 74.4819 195.208 74.219 195.279C73.9561 195.35 73.7111 195.476 73.4999 195.648C73.2887 195.819 73.116 196.034 72.9931 196.277C72.8702 196.52 72.7999 196.786 72.7866 197.058C72.6933 198.215 73.5268 199.366 74.3478 200.1C75.1688 200.834 77.1219 201.487 77.8061 201.704C77.6879 202.27 77.5698 202.836 77.4267 203.378C77.321 203.751 77.2463 204.112 77.1219 204.472C76.9975 204.833 76.8856 205.194 76.7736 205.548C76.5248 206.226 76.276 206.929 76.021 207.582C75.8468 208.036 75.6664 208.472 75.4923 208.907C75.5794 208.341 75.7349 207.24 75.7349 207.147C75.7187 205.859 75.3717 204.598 74.7272 203.483C74.7293 203.34 74.7189 203.196 74.6961 203.054C74.6623 202.784 74.5721 202.524 74.4312 202.291C74.2904 202.058 74.1021 201.857 73.8786 201.702C73.6551 201.546 73.4014 201.44 73.1339 201.389C72.8665 201.338 72.5913 201.344 72.3263 201.406C70.7402 201.829 69.7388 204.609 69.6641 206.071C69.6641 206.158 69.7139 207.097 69.7574 207.688C69.6828 207.346 69.6082 207.01 69.5211 206.656C69.3531 205.959 69.1665 205.262 68.9675 204.516C68.8618 204.155 68.7498 203.794 68.6441 203.434C68.5383 203.073 68.389 202.693 68.2584 202.32C67.9474 201.468 67.5867 200.616 67.2072 199.764C67.8292 199.614 69.9876 199.061 70.8584 198.395C71.7292 197.73 72.6497 196.641 72.6373 195.484C72.6451 195.212 72.5956 194.942 72.4919 194.69C72.3883 194.438 72.2329 194.211 72.0358 194.024C71.8387 193.836 71.6044 193.692 71.3479 193.6C71.0915 193.509 70.8187 193.473 70.5474 193.494C68.9177 193.674 67.4996 196.268 67.2072 197.705C67.2072 197.792 67.0891 198.843 67.0455 199.422C66.8154 198.912 66.5852 198.402 66.3302 197.898C65.6025 196.43 64.825 194.968 64.0475 193.506L63.3446 192.163C63.5623 192.113 66.1561 191.51 67.1326 190.763C68.0034 190.098 68.9177 189.003 68.9115 187.846C68.9146 187.554 68.8517 187.265 68.7277 187.001C68.6036 186.737 68.4215 186.504 68.1949 186.32C67.9683 186.136 67.7031 186.005 67.419 185.938C67.1349 185.87 66.8393 185.868 66.5541 185.93C64.9245 186.111 63.5126 188.705 63.214 190.135C63.214 190.247 63.0585 191.759 63.0398 192.144C62.5298 191.161 62.026 190.172 61.5719 189.177C60.9466 187.836 60.4125 186.454 59.9734 185.041C60.0729 185.041 62.7848 184.419 63.78 183.635C64.6508 182.97 65.5714 181.881 65.5589 180.724C65.5659 180.452 65.5156 180.182 65.4112 179.93C65.3068 179.679 65.1507 179.452 64.953 179.265C64.7553 179.078 64.5205 178.935 64.2638 178.844C64.007 178.754 63.7341 178.718 63.4628 178.74C61.8332 178.921 60.4212 181.514 60.1289 182.945C60.1289 183.038 59.9983 184.189 59.9609 184.742H59.8739C59.4649 183.319 59.1839 181.862 59.0342 180.388C58.9471 179.574 58.9035 178.79 58.8787 178.031C59.3949 177.969 61.7523 177.652 62.7288 177.061C63.7054 176.47 64.7006 175.518 64.8188 174.367C64.8555 174.097 64.8351 173.823 64.7589 173.561C64.6828 173.299 64.5525 173.057 64.3766 172.849C64.2008 172.64 63.9831 172.472 63.7379 172.353C63.4926 172.234 63.2251 172.168 62.9528 172.159C61.3107 172.159 59.6251 174.585 59.171 175.972C59.171 176.053 58.9844 176.849 58.8724 177.428C58.8724 177.086 58.8724 176.731 58.8724 176.401C58.8724 175.157 58.9533 174.025 59.0342 173.024C59.0839 172.452 59.1337 171.935 59.1959 171.457C59.6686 171.127 61.5657 169.79 62.1442 168.832C62.7226 167.874 63.1829 166.555 62.7662 165.479C62.676 165.222 62.5325 164.987 62.345 164.789C62.1576 164.591 61.9305 164.435 61.6785 164.331C61.4266 164.227 61.1555 164.178 60.8831 164.186C60.6107 164.194 60.3431 164.259 60.0978 164.378C58.6423 165.131 58.2318 168.06 58.4992 169.51C58.4992 169.634 59.0715 171.544 59.1212 171.531C59.0528 171.998 58.9906 172.495 58.9346 173.036C58.8351 174.038 58.7294 175.176 58.6983 176.42C58.6528 177.76 58.686 179.102 58.7978 180.438C58.9113 181.936 59.1591 183.42 59.538 184.873V184.929C59.283 184.519 58.5241 183.411 58.4557 183.337C57.4978 182.23 54.9974 180.65 53.4797 181.29C53.2323 181.404 53.0116 181.568 52.8319 181.773C52.6522 181.977 52.5175 182.217 52.4366 182.477C52.3556 182.737 52.3302 183.011 52.3621 183.281C52.3939 183.551 52.4822 183.812 52.6213 184.046C53.206 184.997 54.5371 185.526 55.6194 185.682ZM71.8722 207.166C72.7119 208.074 74.8578 209.137 75.1377 209.274C74.8454 209.989 74.5531 210.686 74.2669 211.339C73.2842 213.609 72.4009 215.457 71.7292 216.744C71.5923 216.999 71.4742 217.23 71.3684 217.441H71.2565C71.2565 217.192 71.188 216.919 71.1507 216.608C70.9517 215.164 70.6345 213.106 70.1493 210.661C70 209.884 69.8196 209.063 69.633 208.217C70.3986 207.909 71.1462 207.558 71.8722 207.166Z" fill="#0A8080"/>
<path d="M54.6241 177.353C55.7997 177.863 58.6796 177.801 58.6796 177.801C58.6796 177.801 58.0576 175.935 58.0078 175.804C57.3858 174.479 55.383 172.302 53.7595 172.52C53.4908 172.565 53.2344 172.665 53.0068 172.815C52.7793 172.964 52.5857 173.16 52.4385 173.389C52.2914 173.618 52.194 173.876 52.1526 174.145C52.1112 174.414 52.1268 174.689 52.1983 174.952C52.472 176.078 53.6227 176.911 54.6241 177.353Z" fill="#0A8080"/>
<path opacity="0.5" d="M55.6194 185.682C56.8634 185.862 59.4074 185.116 59.6126 185.06C60.0331 186.528 60.5526 187.966 61.1676 189.364C61.5222 190.185 61.9016 190.994 62.2934 191.808C62.0633 191.46 61.8456 191.155 61.8145 191.118C60.8566 190.011 58.3562 188.437 56.8385 189.078C56.5903 189.191 56.3688 189.356 56.1885 189.561C56.0082 189.766 55.8731 190.006 55.7921 190.267C55.7111 190.527 55.686 190.802 55.7184 191.073C55.7508 191.344 55.84 191.605 55.9801 191.839C56.5399 192.853 57.8461 193.351 58.9533 193.513C60.0605 193.674 62.2561 193.083 62.8346 192.891C62.9901 193.202 63.1394 193.513 63.2949 193.817C64.035 195.298 64.7877 196.772 65.4719 198.24C65.7207 198.762 65.9384 199.279 66.1623 199.795C65.9508 199.49 65.7766 199.235 65.7455 199.173C64.7877 198.066 62.2872 196.492 60.7695 197.133C60.5173 197.246 60.2922 197.412 60.1096 197.62C59.9269 197.827 59.791 198.072 59.7108 198.336C59.6306 198.601 59.6081 198.88 59.6449 199.154C59.6816 199.428 59.7766 199.691 59.9236 199.925C60.4834 200.939 61.7896 201.443 62.8968 201.599C64.0039 201.754 66.0068 201.225 66.6723 201.033C66.8838 201.568 67.0953 202.109 67.2943 202.637C67.4125 203.004 67.5493 203.346 67.6426 203.72C67.7359 204.093 67.8479 204.447 67.9474 204.808C68.1154 205.511 68.2957 206.233 68.4388 206.917C68.5445 207.396 68.6378 207.856 68.7311 208.31C68.4948 207.794 68.0158 206.792 67.9661 206.711C67.1824 205.467 64.9494 203.539 63.3633 203.944C63.1035 204.021 62.8628 204.151 62.6566 204.327C62.4504 204.503 62.2834 204.72 62.1662 204.965C62.049 205.209 61.9843 205.475 61.9762 205.746C61.9681 206.017 62.0169 206.286 62.1193 206.537C62.5174 207.62 63.7614 208.316 64.8063 208.64C65.957 208.988 68.5072 208.671 68.8244 208.64C68.9737 209.399 69.1168 210.145 69.2412 210.848C69.6704 213.28 69.9316 215.32 70.0995 216.751C70.1306 217.006 70.1555 217.236 70.1742 217.447H65.2417L66.7905 247.589H75.7038L77.2525 217.447H72.656C72.6871 217.379 72.7244 217.31 72.7555 217.236C73.3775 215.923 74.2607 214.032 75.2062 211.725C75.5047 210.997 75.8282 210.213 76.1205 209.399C76.4315 209.467 78.9506 209.977 80.1262 209.716C81.196 209.473 82.4836 208.87 82.9625 207.812C83.0831 207.568 83.1509 207.302 83.1617 207.03C83.1725 206.758 83.1259 206.486 83.025 206.234C82.9241 205.981 82.7711 205.752 82.5761 205.562C82.381 205.372 82.1481 205.226 81.8927 205.132C80.3377 204.609 77.9678 206.376 77.097 207.551C77.0473 207.626 76.5746 208.441 76.2822 208.957C76.4066 208.627 76.531 208.335 76.6554 207.968C76.9042 207.29 77.1281 206.606 77.3769 205.872C77.4827 205.517 77.5946 205.156 77.7004 204.79C77.8061 204.423 77.8932 204.037 77.9927 203.657C78.2042 202.768 78.3784 201.86 78.5276 200.939C79.1185 201.151 81.2333 201.891 82.3281 201.81C83.4228 201.729 84.8161 201.337 85.4381 200.367C85.5963 200.146 85.7062 199.895 85.7607 199.629C85.8152 199.362 85.813 199.088 85.7543 198.823C85.6956 198.557 85.5818 198.307 85.4201 198.089C85.2585 197.871 85.0526 197.689 84.8161 197.556C83.3606 196.803 80.7482 198.178 79.7157 199.223C79.6472 199.285 78.9879 200.106 78.6334 200.566C78.7205 200.013 78.8075 199.465 78.876 198.899C79.0812 197.276 79.2367 195.621 79.3922 193.979C79.442 193.469 79.498 192.972 79.5539 192.468C79.7592 192.549 82.2534 193.475 83.485 193.388C84.5735 193.314 85.973 192.909 86.595 191.945C86.7523 191.724 86.8615 191.471 86.9155 191.205C86.9696 190.939 86.9672 190.664 86.9086 190.398C86.85 190.133 86.7365 189.883 86.5753 189.664C86.4142 189.445 86.209 189.262 85.973 189.128C84.5113 188.381 81.9051 189.75 80.8663 190.794C80.7855 190.875 79.84 192.038 79.6223 192.374C79.7405 191.267 79.8649 190.166 80.0391 189.084C80.2596 187.614 80.5734 186.16 80.9783 184.73C81.0778 184.767 83.6778 185.75 84.9342 185.663C86.0227 185.582 87.3911 185.184 88.0442 184.214C88.2002 183.991 88.3075 183.737 88.3592 183.47C88.4109 183.203 88.4058 182.928 88.3442 182.662C88.2826 182.397 88.1659 182.148 88.0017 181.931C87.8375 181.714 87.6295 181.534 87.3911 181.402C85.9356 180.65 83.3232 182.024 82.2845 183.069C82.2161 183.138 81.4946 184.04 81.1587 184.481L81.0778 184.438C81.5243 183.018 82.0989 181.642 82.7946 180.326C83.1678 179.598 83.5658 178.921 83.9639 178.267C84.4304 178.504 86.5701 179.543 87.6959 179.586C88.8217 179.63 90.1839 179.381 90.9241 178.485C91.104 178.281 91.2389 178.042 91.32 177.782C91.4011 177.523 91.4267 177.249 91.395 176.98C91.3633 176.71 91.2751 176.449 91.1361 176.216C90.9971 175.982 90.8104 175.78 90.5882 175.624C89.2198 174.716 86.4768 175.804 85.3323 176.719C85.2701 176.768 84.7103 177.341 84.2749 177.764C84.4615 177.471 84.6481 177.173 84.8347 176.899C85.5189 175.866 86.2093 174.958 86.8251 174.168C87.1859 173.714 87.5155 173.316 87.8265 172.924C88.405 172.924 90.7188 172.844 91.7327 172.365C92.7465 171.886 93.8537 171.034 94.0963 169.877C94.1616 169.612 94.1705 169.337 94.1225 169.069C94.0744 168.801 93.9704 168.546 93.8173 168.32C93.6642 168.095 93.4653 167.904 93.2337 167.761C93.002 167.618 92.7428 167.525 92.4729 167.488C90.8432 167.314 88.9088 169.547 88.3117 170.884C88.2619 171.002 87.6897 172.9 87.6897 172.9H87.7208C87.416 173.248 87.0988 173.627 86.738 174.05C86.116 174.834 85.3883 175.723 84.6792 176.744C83.8985 177.836 83.184 178.974 82.5395 180.152C81.8125 181.464 81.2026 182.838 80.7171 184.257V184.313C80.7171 183.834 80.7171 182.491 80.7171 182.385C80.5305 180.936 79.3114 178.243 77.7004 177.944C77.4312 177.901 77.156 177.915 76.8927 177.985C76.6294 178.056 76.384 178.182 76.1725 178.354C75.9611 178.526 75.7884 178.74 75.6658 178.984C75.5432 179.227 75.4735 179.494 75.4612 179.766C75.3679 180.917 76.2076 182.074 77.0224 182.802C77.943 183.623 80.4932 184.419 80.6984 184.481C80.2371 185.939 79.8755 187.427 79.6161 188.935C79.4606 189.812 79.33 190.701 79.2118 191.591C79.2118 191.174 79.2118 190.801 79.2118 190.751C79.0252 189.302 77.8123 186.608 76.2014 186.31C75.9323 186.268 75.6575 186.283 75.3946 186.354C75.1317 186.425 74.8867 186.55 74.6755 186.722C74.4643 186.894 74.2916 187.108 74.1687 187.351C74.0458 187.594 73.9754 187.86 73.9622 188.132C73.8689 189.283 74.7023 190.44 75.5172 191.168C76.332 191.895 78.509 192.629 79.0812 192.81L78.9506 193.842C78.7578 195.484 78.565 197.126 78.3286 198.731C78.2415 199.297 78.142 199.851 78.0425 200.404C78.0425 200.037 78.0425 199.726 78.0425 199.683C77.8559 198.227 76.6368 195.534 75.0258 195.236C74.7568 195.193 74.4819 195.208 74.219 195.279C73.9561 195.35 73.7111 195.476 73.4999 195.648C73.2887 195.819 73.116 196.034 72.9931 196.277C72.8702 196.52 72.7999 196.786 72.7866 197.058C72.6933 198.215 73.5268 199.366 74.3478 200.1C75.1688 200.834 77.1219 201.487 77.8061 201.704C77.6879 202.27 77.5698 202.836 77.4267 203.378C77.321 203.751 77.2463 204.112 77.1219 204.472C76.9975 204.833 76.8856 205.194 76.7736 205.548C76.5248 206.226 76.276 206.929 76.021 207.582C75.8468 208.036 75.6664 208.472 75.4923 208.907C75.5794 208.341 75.7349 207.24 75.7349 207.147C75.7187 205.859 75.3717 204.598 74.7272 203.483C74.7293 203.34 74.7189 203.196 74.6961 203.054C74.6623 202.784 74.5721 202.524 74.4312 202.291C74.2904 202.058 74.1021 201.857 73.8786 201.702C73.6551 201.546 73.4014 201.44 73.1339 201.389C72.8665 201.338 72.5913 201.344 72.3263 201.406C70.7402 201.829 69.7388 204.609 69.6641 206.071C69.6641 206.158 69.7139 207.097 69.7574 207.688C69.6828 207.346 69.6082 207.01 69.5211 206.656C69.3531 205.959 69.1665 205.262 68.9675 204.516C68.8618 204.155 68.7498 203.794 68.6441 203.434C68.5383 203.073 68.389 202.693 68.2584 202.32C67.9474 201.468 67.5867 200.616 67.2072 199.764C67.8292 199.614 69.9876 199.061 70.8584 198.395C71.7292 197.73 72.6497 196.641 72.6373 195.484C72.6451 195.212 72.5956 194.942 72.4919 194.69C72.3883 194.438 72.2329 194.211 72.0358 194.024C71.8387 193.836 71.6044 193.692 71.3479 193.6C71.0915 193.509 70.8187 193.473 70.5474 193.494C68.9177 193.674 67.4996 196.268 67.2072 197.705C67.2072 197.792 67.0891 198.843 67.0455 199.422C66.8154 198.912 66.5852 198.402 66.3302 197.898C65.6025 196.43 64.825 194.968 64.0475 193.506L63.3446 192.163C63.5623 192.113 66.1561 191.51 67.1326 190.763C68.0034 190.098 68.9177 189.003 68.9115 187.846C68.9146 187.554 68.8517 187.265 68.7277 187.001C68.6036 186.737 68.4215 186.504 68.1949 186.32C67.9683 186.136 67.7031 186.005 67.419 185.938C67.1349 185.87 66.8393 185.868 66.5541 185.93C64.9245 186.111 63.5126 188.705 63.214 190.135C63.214 190.247 63.0585 191.759 63.0398 192.144C62.5298 191.161 62.026 190.172 61.5719 189.177C60.9466 187.836 60.4125 186.454 59.9734 185.041C60.0729 185.041 62.7848 184.419 63.78 183.635C64.6508 182.97 65.5714 181.881 65.5589 180.724C65.5659 180.452 65.5156 180.182 65.4112 179.93C65.3068 179.679 65.1507 179.452 64.953 179.265C64.7553 179.078 64.5205 178.935 64.2638 178.844C64.007 178.754 63.7341 178.718 63.4628 178.74C61.8332 178.921 60.4212 181.514 60.1289 182.945C60.1289 183.038 59.9983 184.189 59.9609 184.742H59.8739C59.4649 183.319 59.1839 181.862 59.0342 180.388C58.9471 179.574 58.9035 178.79 58.8787 178.031C59.3949 177.969 61.7523 177.652 62.7288 177.061C63.7054 176.47 64.7006 175.518 64.8188 174.367C64.8555 174.097 64.8351 173.823 64.7589 173.561C64.6828 173.299 64.5525 173.057 64.3766 172.849C64.2008 172.64 63.9831 172.472 63.7379 172.353C63.4926 172.234 63.2251 172.168 62.9528 172.159C61.3107 172.159 59.6251 174.585 59.171 175.972C59.171 176.053 58.9844 176.849 58.8724 177.428C58.8724 177.086 58.8724 176.731 58.8724 176.401C58.8724 175.157 58.9533 174.025 59.0342 173.024C59.0839 172.452 59.1337 171.935 59.1959 171.457C59.6686 171.127 61.5657 169.79 62.1442 168.832C62.7226 167.874 63.1829 166.555 62.7662 165.479C62.676 165.222 62.5325 164.987 62.345 164.789C62.1576 164.591 61.9305 164.435 61.6785 164.331C61.4266 164.227 61.1555 164.178 60.8831 164.186C60.6107 164.194 60.3431 164.259 60.0978 164.378C58.6423 165.131 58.2318 168.06 58.4992 169.51C58.4992 169.634 59.0715 171.544 59.1212 171.531C59.0528 171.998 58.9906 172.495 58.9346 173.036C58.8351 174.038 58.7294 175.176 58.6983 176.42C58.6528 177.76 58.686 179.102 58.7978 180.438C58.9113 181.936 59.1591 183.42 59.538 184.873V184.929C59.283 184.519 58.5241 183.411 58.4557 183.337C57.4978 182.23 54.9974 180.65 53.4797 181.29C53.2323 181.404 53.0116 181.568 52.8319 181.773C52.6522 181.977 52.5175 182.217 52.4366 182.477C52.3556 182.737 52.3302 183.011 52.3621 183.281C52.3939 183.551 52.4822 183.812 52.6213 184.046C53.206 184.997 54.5371 185.526 55.6194 185.682ZM71.8722 207.166C72.7119 208.074 74.8578 209.137 75.1377 209.274C74.8454 209.989 74.5531 210.686 74.2669 211.339C73.2842 213.609 72.4009 215.457 71.7292 216.744C71.5923 216.999 71.4742 217.23 71.3684 217.441H71.2565C71.2565 217.192 71.188 216.919 71.1507 216.608C70.9517 215.164 70.6345 213.106 70.1493 210.661C70 209.884 69.8196 209.063 69.633 208.217C70.3986 207.909 71.1462 207.558 71.8722 207.166Z" fill="white"/>
<path opacity="0.3" d="M83.7276 177.981C83.7276 177.981 84.2501 176.072 84.2687 175.947C84.4678 174.498 84.0075 171.593 82.5271 170.866C82.2789 170.753 82.0099 170.695 81.7376 170.694C81.4652 170.693 81.1958 170.75 80.9468 170.86C80.6979 170.971 80.4751 171.132 80.2929 171.335C80.1108 171.537 79.9734 171.776 79.8898 172.035C79.498 173.117 79.9956 174.454 80.5927 175.369C81.2893 176.451 83.7214 177.981 83.7276 177.981Z" fill="white"/>
<path opacity="0.3" d="M54.6241 177.353C55.7997 177.863 58.6796 177.801 58.6796 177.801C58.6796 177.801 58.0576 175.935 58.0078 175.804C57.3858 174.479 55.383 172.302 53.7595 172.52C53.4908 172.565 53.2344 172.665 53.0068 172.815C52.7793 172.964 52.5857 173.16 52.4385 173.389C52.2914 173.618 52.194 173.876 52.1526 174.145C52.1112 174.414 52.1268 174.689 52.1983 174.952C52.472 176.078 53.6227 176.911 54.6241 177.353Z" fill="white"/>
<path d="M250.741 43.3184H73.8625V160.242H250.741V43.3184Z" fill="white"/>
<path d="M250.741 43.3184H73.8625V160.242H250.741V43.3184Z" fill="#263238"/>
<path opacity="0.8" d="M250.666 43.1815H115.07V160.118H250.666V43.1815Z" fill="white"/>
<path d="M250.741 43.3184H73.8625V160.242H250.741V43.3184Z" stroke="#263238" stroke-linecap="round" stroke-linejoin="round"/>
<path d="M246.312 56.2435H122.534V156.386H246.312V56.2435Z" fill="white"/>
<path d="M157.777 65.6731H139.888V101.998H157.777V65.6731Z" fill="#0A8080"/>
<path d="M246.387 65.8845H228.498V83.9412H246.387V65.8845Z" fill="#0A8080"/>
<path d="M193.144 65.8845H175.255V83.9412H193.144V65.8845Z" fill="#0A8080"/>
<path d="M157.721 120.372H122.671V138.428H157.721V120.372Z" fill="#0A8080"/>
<path d="M250.741 43.3184H73.8625V54.6823H250.741V43.3184Z" fill="#263238" stroke="#263238" stroke-linecap="round" stroke-linejoin="round"/>
<path d="M246.219 56.3555H122.833V156.665H246.219V56.3555Z" stroke="#263238" stroke-linecap="round" stroke-linejoin="round"/>
<path d="M140.174 66.3821V156.329" stroke="#263238" stroke-linecap="round" stroke-linejoin="round"/>
<path d="M157.845 66.3821V156.329" stroke="#263238" stroke-linecap="round" stroke-linejoin="round"/>
<path d="M175.522 66.3821V156.329" stroke="#263238" stroke-linecap="round" stroke-linejoin="round"/>
<path d="M193.193 66.3821V156.329" stroke="#263238" stroke-linecap="round" stroke-linejoin="round"/>
<path d="M210.87 66.3821V156.329" stroke="#263238" stroke-linecap="round" stroke-linejoin="round"/>
<path d="M228.542 66.3821V156.329" stroke="#263238" stroke-linecap="round" stroke-linejoin="round"/>
<path d="M122.833 66.0525H246.219" stroke="#263238" stroke-linecap="round" stroke-linejoin="round"/>
<path d="M122.833 84.1091H246.219" stroke="#263238" stroke-linecap="round" stroke-linejoin="round"/>
<path d="M122.833 102.166H246.219" stroke="#263238" stroke-linecap="round" stroke-linejoin="round"/>
<path d="M122.833 120.222H246.219" stroke="#263238" stroke-linecap="round" stroke-linejoin="round"/>
<path d="M122.833 138.273H246.219" stroke="#263238" stroke-linecap="round" stroke-linejoin="round"/>
<path d="M203.046 73.0375C203.046 73.0375 201.18 77.9389 201.559 78.592C201.939 79.2451 202.915 80.8747 202.393 82.1809C201.87 83.4871 199.799 83.711 200.06 84.756C200.321 85.8009 201.758 86.5847 201.758 86.5847C201.758 86.5847 203.307 93.5449 203.96 94.4592C204.613 95.3735 208.14 94.8511 208.14 94.8511L208.401 98.3778L218.857 97.7247L218.465 91.4549L217.943 72.1232L203.046 73.0375Z" fill="white" stroke="#263238" stroke-linecap="round" stroke-linejoin="round"/>
<path d="M222.384 70.7983C221.778 69.9462 220.994 69.2357 220.086 68.716C219.179 68.1962 218.17 67.8796 217.128 67.7879C217.128 67.7879 214.459 65.5051 211.797 65.5051C209.135 65.5051 207.997 66.8362 206.286 66.8362C204.576 66.8362 203.431 64.7463 200.576 67.7879C197.721 70.8294 201.342 74.0638 201.342 74.0638C201.699 74.4421 202.142 74.7296 202.633 74.9027C203.124 75.0758 203.649 75.1294 204.165 75.059C204.047 75.6375 203.805 76.925 203.705 77.8767C203.574 79.1829 205.926 80.6197 205.926 80.6197C205.851 81.4924 205.895 82.3713 206.056 83.2321C206.317 83.8852 206.971 84.0158 207.362 83.4934C207.754 82.9709 208.016 80.4891 208.407 81.5341C208.799 82.579 210.367 90.4162 211.412 91.3306C212.457 92.2449 217.165 91.7224 218.471 91.4612C219.778 91.1999 222.259 85.7139 223.447 82.4484C224.635 79.1829 224.082 73.4107 222.384 70.7983Z" fill="#263238" stroke="#263238" stroke-linecap="round" stroke-linejoin="round"/>
<path d="M207.282 81.4469C207.454 82.6614 207.56 83.8844 207.599 85.1105C207.599 86.5473 206.641 87.3435 207.282 87.9841C207.922 88.6248 208.395 88.3014 208.874 87.1818C209.388 85.8648 209.601 84.4492 209.496 83.0392C209.353 81.9259 209.191 79.5312 207.282 81.4469Z" fill="white" stroke="#263238" stroke-linecap="round" stroke-linejoin="round"/>
<path d="M196.645 154.837C196.645 154.837 193.38 176.607 190.861 198.053C188.342 219.5 188.653 249.431 188.653 249.431L195.296 249.393C195.296 249.393 202.834 207.508 204.414 202.781C205.994 198.053 211.349 178.193 211.349 178.193C211.349 178.193 214.186 200.89 215.131 202.451C216.077 204.012 228.896 249.686 228.896 249.686L235.838 249.598L228.996 200.286L225.208 154.88L196.645 154.837Z" fill="#263238" stroke="#263238" stroke-linecap="round" stroke-linejoin="round"/>
<path d="M223.559 170.766L214.285 174.281L211.349 178.193" stroke="white" stroke-width="0.75" stroke-linecap="round" stroke-linejoin="round"/>
<path d="M201.248 160.491H209.521" stroke="white" stroke-width="0.75" stroke-linecap="round" stroke-linejoin="round"/>
<path d="M224.561 160.491H221.302" stroke="white" stroke-width="0.75" stroke-linecap="round" stroke-linejoin="round"/>
<path d="M188.298 249.686L187.147 251.278C187.147 251.278 177.581 255.178 177.581 255.532C177.581 255.887 177.494 256.154 178.29 256.154H190.6L191.931 255.713V256.154H195.47L195.557 249.605L188.298 249.686Z" fill="#263238"/>
<path d="M228.946 249.686L227.795 251.278C227.795 251.278 218.235 255.178 218.235 255.532C218.235 255.887 218.142 256.154 218.938 256.154H231.254L232.578 255.713V256.154H236.124L236.211 249.605L228.946 249.686Z" fill="#263238"/>
<path d="M205.919 97.9673L203.046 103.192C203.046 103.192 210.23 101.102 214.148 101.102C216.91 101.151 219.663 101.413 222.384 101.886L220.313 97.6501C220.313 97.6501 210.622 95.7468 205.919 97.9673Z" fill="#0A8080" stroke="#263238" stroke-linecap="round" stroke-linejoin="round"/>
<path d="M232.784 105.699L241.622 141.644C241.749 142.162 241.766 142.7 241.671 143.224C241.577 143.749 241.373 144.247 241.073 144.688C240.774 145.128 240.385 145.501 239.932 145.781C239.479 146.061 238.972 146.243 238.444 146.315L219.398 148.922L219.852 142.77L229.419 138.217L227.366 127.966C227.366 127.966 229.518 105.96 232.784 105.699Z" fill="#0A8080" stroke="#263238" stroke-linecap="round" stroke-linejoin="round"/>
<path d="M203.923 101.724C201.38 102.237 198.906 103.047 196.552 104.137C195.277 104.772 193.969 105.339 192.633 105.836C192.633 105.836 196.011 149.631 196.011 151.864C196.011 154.097 195.88 154.215 196.633 154.868C197.385 155.521 201.472 155.819 208.656 155.689C215.84 155.558 222.241 155.652 222.894 155.652C223.422 155.614 223.933 155.452 224.387 155.18C224.841 154.907 225.224 154.532 225.506 154.084C226.29 152.909 232.64 106.252 232.771 105.73C232.902 105.207 222.9 102.184 221.979 101.917C216.86 100.405 209.993 100.455 203.923 101.724Z" fill="#0A8080" stroke="#263238" stroke-linecap="round" stroke-linejoin="round"/>
<path d="M219.927 135.86C219.102 136.606 218.222 137.29 217.296 137.906" stroke="#263238" stroke-linecap="round" stroke-linejoin="round"/>
<path d="M229.518 118.792C229.518 118.792 227.702 126.816 222.402 133.216" stroke="#263238" stroke-linecap="round" stroke-linejoin="round"/>
<path d="M230.339 138.348C230.339 138.348 232.255 141.035 236.939 141.346" stroke="#263238" stroke-linecap="round" stroke-linejoin="round"/>
<path d="M229.419 138.229C229.733 139.206 230.242 140.109 230.916 140.883C231.589 141.657 232.413 142.287 233.337 142.733" stroke="#263238" stroke-linecap="round" stroke-linejoin="round"/>
<path d="M192.615 105.817L174.16 111.602L155.842 88.7742L152.284 91.7411L168.699 123.32C169.204 124.295 170.017 125.075 171.011 125.54C172.006 126.004 173.126 126.127 174.197 125.889L193.778 121.554C193.778 121.554 196.191 114.96 192.615 105.817Z" fill="#0A8080" stroke="#263238" stroke-linecap="round" stroke-linejoin="round"/>
<path d="M173.575 112.348C173.575 112.348 171.778 114.749 171.977 117.324" stroke="#263238" stroke-linecap="round" stroke-linejoin="round"/>
<path d="M170.577 114.351C170.577 114.351 169.775 117.946 171.199 120.148" stroke="#263238" stroke-linecap="round" stroke-linejoin="round"/>
<path d="M193.778 121.554C193.778 121.554 198.362 126.921 201.957 128.719" stroke="#263238" stroke-linecap="round" stroke-linejoin="round"/>
<path d="M194.96 124.34C194.96 124.34 197.56 130.342 202.76 133.135" stroke="#263238" stroke-linecap="round" stroke-linejoin="round"/>
<path d="M153.864 94.9009L157.82 92.332" stroke="#263238" stroke-linecap="round" stroke-linejoin="round"/>
<path d="M155.842 88.7742C155.842 88.7742 157.086 87.2316 157.086 85.8073C157.086 84.3829 156.091 82.6973 156.52 81.5341C156.949 80.371 158.797 78.9715 157.229 78.5423C155.662 78.1131 154.38 78.9715 154.237 80.1097C154.094 81.248 154.237 81.3911 154.237 81.3911C154.237 81.3911 152.527 77.9701 151.389 76.8318C150.25 75.6936 149.398 74.4122 148.683 74.4122C147.968 74.4122 147.259 74.8352 147.688 75.5505C148.117 76.2658 150.25 79.6806 150.25 79.6806L150.68 81.1049C150.68 81.1049 148.254 81.248 147.968 81.6772C147.682 82.1064 147.831 83.3877 147.116 84.2398C146.4 85.092 146.543 85.9503 146.829 86.8087C147.116 87.667 147.968 89.0852 148.54 89.0852C148.891 89.0817 149.235 88.9828 149.535 88.7991L152.253 91.7411L155.842 88.7742Z" fill="white" stroke="#263238" stroke-linecap="round" stroke-linejoin="round"/>
<path d="M149.566 88.799L148.142 86.6655" stroke="#263238" stroke-linecap="round" stroke-linejoin="round"/>
</svg>
