<svg width="32" height="36" viewBox="0 0 32 36" fill="none" xmlns="http://www.w3.org/2000/svg">
<g filter="url(#filter0_d)">
<path d="M16.7525 26.6642C16.4958 26.6642 16.245 26.6525 16 26.6292C12.1091 27.0258 7.24995 24.2317 5.54662 20.6383C4.61378 18.6732 4.48199 16.4222 5.17912 14.3617C5.52915 13.3069 6.10155 12.3396 6.85761 11.525C7.61367 10.7105 8.53578 10.0678 9.56161 9.64033C10.5874 9.21285 11.6931 9.01058 12.8038 9.04718C13.9146 9.08378 15.0045 9.35841 16 9.85249C16.9954 9.35841 18.0853 9.08378 19.1961 9.04718C20.3068 9.01058 21.4125 9.21285 22.4383 9.64033C23.4641 10.0678 24.3862 10.7105 25.1423 11.525C25.8984 12.3396 26.4707 13.3069 26.8208 14.3617C27.5179 16.4222 27.3861 18.6732 26.4533 20.6383C24.8783 24.0042 20.4975 26.6642 16.7525 26.6642ZM12.5291 9.63666C11.0235 9.63582 9.5561 10.1101 8.33587 10.9921C7.11563 11.874 6.20485 13.1185 5.73328 14.5483C5.07437 16.4744 5.2001 18.5825 6.08328 20.4167C7.64662 23.7592 12.36 26.46 16 26.075H16.0583C19.6808 26.46 24.3883 23.7417 25.975 20.4167C26.8468 18.5917 26.9703 16.4981 26.3191 14.5833C26.0126 13.6573 25.5202 12.8035 24.8723 12.0743C24.2243 11.3451 23.4344 10.7558 22.5508 10.3425V10.3425C21.5489 9.87915 20.4546 9.64992 19.351 9.67215C18.2473 9.69439 17.1632 9.96751 16.1808 10.4708L16 10.5L15.8716 10.43C14.8337 9.91076 13.6896 9.63921 12.5291 9.63666V9.63666Z" stroke="#222525" stroke-opacity="0.54"/>
<path d="M14.3782 15.1258C14.315 15.1246 14.2522 15.1148 14.1916 15.0966C14.0745 15.0642 13.9686 15.0002 13.8853 14.9118C13.802 14.8233 13.7445 14.7138 13.7191 14.595L13.4741 13.475C13.4686 13.4567 13.458 13.4403 13.4436 13.4279C13.4291 13.4155 13.4113 13.4075 13.3924 13.405L11.3332 13.2825C11.1824 13.2751 11.0385 13.2171 10.9248 13.1178C10.811 13.0185 10.7341 12.8838 10.7064 12.7353C10.6788 12.5869 10.702 12.4335 10.7723 12.2999C10.8427 12.1663 10.956 12.0603 11.0941 11.9991L13.2524 11.0308C13.2726 11.0229 13.2892 11.0078 13.2989 10.9884C13.3086 10.969 13.3107 10.9467 13.3049 10.9258L13.0482 10.0741C13.016 9.96266 13.0125 9.84485 13.038 9.73164C13.0635 9.61844 13.1172 9.51352 13.1941 9.42663C13.2716 9.34137 13.3697 9.27733 13.4789 9.24058C13.5881 9.20383 13.7049 9.19559 13.8182 9.21663H13.8474L15.9999 9.85247L18.0941 9.1583C18.2336 9.11909 18.382 9.1257 18.5175 9.17715C18.6529 9.22861 18.7683 9.32219 18.8466 9.44413C18.9239 9.56319 18.961 9.70385 18.9526 9.84555C18.9442 9.98724 18.8907 10.1225 18.7999 10.2316L18.2166 10.9783C18.2104 10.99 18.2072 11.003 18.2072 11.0162C18.2072 11.0294 18.2104 11.0424 18.2166 11.0541C18.2181 11.0673 18.2232 11.0797 18.2315 11.09C18.2397 11.1004 18.2508 11.1081 18.2632 11.1125L19.6516 11.7833C19.7834 11.846 19.8912 11.95 19.9585 12.0795C20.0259 12.2089 20.0492 12.3569 20.0249 12.5008C20.0016 12.6442 19.9319 12.776 19.8266 12.8761C19.7212 12.9762 19.586 13.039 19.4416 13.055L16.3382 13.4166C16.327 13.4172 16.3161 13.4201 16.306 13.4251C16.296 13.4302 16.2871 13.4372 16.2799 13.4458L14.8624 14.9216C14.7996 14.9865 14.7243 15.038 14.6412 15.0731C14.558 15.1082 14.4685 15.1261 14.3782 15.1258V15.1258ZM13.6666 9.7883C13.6565 9.78361 13.6456 9.78118 13.6345 9.78118C13.6234 9.78118 13.6125 9.78361 13.6024 9.7883C13.5947 9.8016 13.5907 9.81669 13.5907 9.83205C13.5907 9.84741 13.5947 9.8625 13.6024 9.8758L13.8591 10.7275C13.9043 10.8841 13.8914 11.0518 13.8228 11.1997C13.7542 11.3476 13.6345 11.4658 13.4857 11.5325L11.3332 12.53C11.3143 12.5377 11.2986 12.5519 11.289 12.57C11.2794 12.5882 11.2765 12.6091 11.2807 12.6291C11.2847 12.6498 11.2954 12.6685 11.3113 12.6823C11.3272 12.696 11.3473 12.704 11.3682 12.705L13.4391 12.8216C13.5866 12.8306 13.7271 12.8872 13.8397 12.983C13.9522 13.0787 14.0307 13.2083 14.0632 13.3525L14.3024 14.4666C14.3064 14.4827 14.3144 14.4976 14.3256 14.5098C14.3368 14.522 14.3509 14.5313 14.3666 14.5366C14.3806 14.5454 14.3967 14.5501 14.4132 14.5501C14.4298 14.5501 14.4459 14.5454 14.4599 14.5366L15.8774 13.055C15.9869 12.9432 16.1306 12.8713 16.2857 12.8508L19.3482 12.5008C19.3679 12.4994 19.3864 12.491 19.4004 12.4771C19.4143 12.4631 19.4227 12.4446 19.4241 12.425C19.428 12.4057 19.4249 12.3856 19.4153 12.3685C19.4056 12.3513 19.3901 12.3383 19.3716 12.3316L17.9716 11.6666C17.8793 11.6229 17.7982 11.5586 17.7345 11.4787C17.6708 11.3989 17.6262 11.3055 17.6041 11.2058C17.5814 11.1043 17.5823 10.999 17.6066 10.8979C17.6308 10.7968 17.6779 10.7026 17.7441 10.6225L18.3274 9.88163C18.3372 9.86589 18.3425 9.8477 18.3425 9.82913C18.3425 9.81057 18.3372 9.79238 18.3274 9.77663C18.3186 9.75901 18.3037 9.74516 18.2855 9.73766C18.2672 9.73015 18.2469 9.72949 18.2282 9.7358L16.1749 10.4066C16.0731 10.4297 15.9675 10.4297 15.8657 10.4066L13.6666 9.7883Z" stroke="#222525" stroke-opacity="0.54"/>
</g>
<defs>
<filter id="filter0_d" x="-2" y="0" width="36" height="36" filterUnits="userSpaceOnUse" color-interpolation-filters="sRGB">
<feFlood flood-opacity="0" result="BackgroundImageFix"/>
<feColorMatrix in="SourceAlpha" type="matrix" values="0 0 0 0 0 0 0 0 0 0 0 0 0 0 0 0 0 0 127 0" result="hardAlpha"/>
<feOffset dy="4"/>
<feGaussianBlur stdDeviation="2"/>
<feComposite in2="hardAlpha" operator="out"/>
<feColorMatrix type="matrix" values="0 0 0 0 0 0 0 0 0 0 0 0 0 0 0 0 0 0 0.25 0"/>
<feBlend mode="normal" in2="BackgroundImageFix" result="effect1_dropShadow"/>
<feBlend mode="normal" in="SourceGraphic" in2="effect1_dropShadow" result="shape"/>
</filter>
</defs>
</svg>
