<svg width="24" height="24" viewBox="0 0 24 24" fill="none" xmlns="http://www.w3.org/2000/svg">
<path d="M15.74 23.09C15.1962 23.0653 14.6565 22.9831 14.13 22.845C13.4329 22.6691 12.7186 22.5702 12 22.55C11.2741 22.568 10.5521 22.6602 9.84497 22.825C8.48497 23.1 7.30997 23.325 6.22497 22.155C4.44497 20.235 2.09997 17.305 2.09997 14C2.08848 11.4237 2.94246 8.91808 4.52497 6.88501C5.78997 5.29001 7.44997 5.69001 9.20997 6.11501C10.1092 6.37068 11.0358 6.51838 11.97 6.55501C12.9053 6.51829 13.8324 6.36545 14.73 6.10001C16.465 5.67001 18.1 5.26001 19.36 6.82001C20.9875 8.86028 21.8695 11.3951 21.86 14.005C21.86 16.555 20.485 19.25 17.66 22.25C17.4218 22.523 17.1261 22.7399 16.7941 22.8852C16.4621 23.0304 16.1022 23.1004 15.74 23.09ZM12 22.05C12.7624 22.0699 13.5203 22.1738 14.26 22.36C15.51 22.63 16.42 22.83 17.29 21.905C20 19 21.335 16.42 21.335 14C21.3507 11.5077 20.5165 9.08449 18.97 7.13001C17.915 5.82001 16.56 6.15501 14.85 6.58001C13.9131 6.85528 12.9457 7.01315 11.97 7.05001C10.9971 7.0152 10.0319 6.86412 9.09497 6.60001C7.35497 6.18001 5.98497 5.85001 4.91997 7.19001C3.40519 9.1358 2.58813 11.5341 2.59997 14C2.59997 17.125 4.86997 19.955 6.56997 21.81C7.46997 22.785 8.41497 22.595 9.72497 22.31C10.4723 22.1451 11.2347 22.058 12 22.05V22.05Z" stroke="#222525" stroke-opacity="0.54"/>
<path d="M12.4 6.91997H11.235L11.2 6.70997C11.2 6.66997 10.525 2.62997 9.88001 1.29997C9.85286 1.25101 9.83862 1.19595 9.83862 1.13997C9.83862 1.08399 9.85286 1.02893 9.88001 0.979971C10.01 0.764971 10.465 0.634971 11.245 0.594971H11.445L11.5 0.784971C11.945 2.31997 12.34 6.47997 12.36 6.65497L12.4 6.91997ZM11.66 6.41997H11.85C11.6888 4.63773 11.4334 2.86525 11.085 1.10997C10.8522 1.12592 10.6213 1.16273 10.395 1.21997C10.97 2.54497 11.5 5.58497 11.66 6.41997Z" stroke="#222525" stroke-opacity="0.54"/>
<path d="M13.8651 5.55002C13.2579 5.56161 12.6516 5.49778 12.0601 5.36002L11.7451 5.27502L11.9101 4.99002C12.6589 3.77505 13.7075 2.77298 14.9551 2.08002C15.5345 1.81305 16.164 1.67231 16.8019 1.66714C17.4398 1.66197 18.0715 1.79248 18.6551 2.05002C19.0551 2.22502 19.5851 2.51502 19.6051 3.01002C19.6251 3.50502 19.0001 4.12002 17.5451 4.87002C16.3796 5.35203 15.1259 5.58371 13.8651 5.55002V5.55002ZM12.5301 4.95002C13.8551 5.18502 16.1801 5.01002 17.3201 4.42502C18.8851 3.62002 19.1101 3.20002 19.1051 3.02502C19.1001 2.85002 18.8701 2.69002 18.4551 2.52502C17.9416 2.29187 17.3841 2.17124 16.8201 2.17124C16.2561 2.17124 15.6987 2.29187 15.1851 2.52502C14.1225 3.11433 13.213 3.94497 12.5301 4.95002V4.95002Z" stroke="#222525" stroke-opacity="0.54"/>
</svg>
