<svg width="24" height="24" viewBox="0 0 24 24" fill="none" xmlns="http://www.w3.org/2000/svg">
<path d="M5.46493 10.6125L1.91843 10.0055C1.48293 10.0205 0.979931 9.85551 2.00193 9.43151L5.00693 8.57451C5.23093 8.61251 5.35693 8.40501 5.24293 8.17851L1.73293 5.73151C1.60043 5.46251 1.79943 5.24201 2.06343 5.36551L6.63093 6.44651L6.03443 2.16401C5.93943 1.89101 6.17443 1.71401 6.42743 1.87001L8.63243 5.11451L8.75443 4.90401L10.1304 0.966013C10.3664 0.589013 10.5304 0.622013 10.7099 0.942013L11.4499 5.18301" stroke="#222525" stroke-opacity="0.54" stroke-miterlimit="10"/>
<path d="M22.7364 19.777L20.5784 9.45648C20.3517 8.37467 19.8444 7.37153 19.1074 6.54779C18.3705 5.72405 17.4297 5.10871 16.3797 4.76355C15.3296 4.41838 14.2073 4.35555 13.1253 4.58135C12.0433 4.80716 11.0397 5.31365 10.2154 6.04998L6.80542 9.09998C5.98211 9.83727 5.36724 10.7782 5.02253 11.8282C4.67782 12.8783 4.61541 14.0005 4.84156 15.0823C5.0677 16.1641 5.57445 17.1674 6.31093 17.9914C7.04741 18.8155 7.9877 19.4312 9.03742 19.777L19.0539 23.07C19.5296 23.227 20.0382 23.2559 20.5286 23.1538C21.019 23.0516 21.4738 22.8221 21.8472 22.4881C22.2206 22.1542 22.4994 21.7278 22.6555 21.2519C22.8116 20.7759 22.8395 20.2672 22.7364 19.777V19.777Z" stroke="#222525" stroke-opacity="0.54" stroke-miterlimit="10"/>
<path d="M8.66283 12.138C8.59174 12.2019 8.49904 12.2365 8.40345 12.2347C8.30787 12.233 8.21651 12.195 8.14783 12.1285L7.68233 11.6785C7.64539 11.6425 7.61623 11.5994 7.59663 11.5517C7.57704 11.504 7.56744 11.4528 7.56843 11.4012C7.56941 11.3497 7.58096 11.2989 7.60236 11.252C7.62375 11.2051 7.65454 11.163 7.69283 11.1285L7.75683 11.0705C7.79514 11.0356 7.84026 11.009 7.88935 10.9923C7.93845 10.9757 7.99045 10.9694 8.0421 10.9738C8.09375 10.9782 8.14393 10.9932 8.18948 11.018C8.23504 11.0427 8.27499 11.0766 8.30683 11.1175L8.70683 11.6265C8.76545 11.7016 8.79351 11.796 8.78534 11.8909C8.77718 11.9858 8.73341 12.0741 8.66283 12.138V12.138Z" stroke="#222525" stroke-opacity="0.54" stroke-miterlimit="10"/>
<path d="M13.2859 7.96952C13.2149 8.03366 13.1222 8.06838 13.0265 8.06662C12.9309 8.06485 12.8395 8.02674 12.7709 7.96002L12.3054 7.51002C12.2685 7.47401 12.2394 7.43083 12.2199 7.38314C12.2003 7.33546 12.1907 7.28427 12.1917 7.23275C12.1927 7.18122 12.2042 7.13044 12.2256 7.08353C12.2469 7.03663 12.2777 6.99459 12.3159 6.96002L12.3794 6.90252C12.4177 6.86771 12.4628 6.84118 12.5119 6.82458C12.561 6.80798 12.6129 6.80166 12.6645 6.80603C12.7161 6.81039 12.7663 6.82534 12.8118 6.84994C12.8574 6.87454 12.8974 6.90827 12.9294 6.94902L13.3294 7.45852C13.3879 7.53347 13.416 7.62779 13.4079 7.72255C13.3998 7.81732 13.3563 7.90554 13.2859 7.96952V7.96952Z" stroke="#222525" stroke-opacity="0.54" stroke-miterlimit="10"/>
<path d="M8.36253 16.2291C8.2915 16.2931 8.19878 16.3278 8.10316 16.326C8.00754 16.3242 7.91616 16.2862 7.84753 16.2196L7.38203 15.7696C7.3451 15.7336 7.31593 15.6904 7.29634 15.6427C7.27675 15.5951 7.26715 15.5438 7.26814 15.4923C7.26912 15.4408 7.28067 15.39 7.30206 15.343C7.32346 15.2961 7.35425 15.2541 7.39253 15.2196L7.45653 15.1616C7.49488 15.1267 7.54001 15.1002 7.58909 15.0836C7.63818 15.067 7.69016 15.0607 7.74179 15.0651C7.79341 15.0695 7.84357 15.0845 7.88913 15.1092C7.93468 15.1339 7.97465 15.1677 8.00653 15.2086L8.40653 15.7181C8.46502 15.7931 8.49298 15.8874 8.48482 15.9822C8.47666 16.077 8.43298 16.1652 8.36253 16.2291V16.2291Z" stroke="#222525" stroke-opacity="0.54" stroke-miterlimit="10"/>
<path d="M12.653 11.55C12.582 11.614 12.4893 11.6486 12.3937 11.6469C12.298 11.6451 12.2067 11.6071 12.138 11.5405L11.673 11.0905C11.636 11.0546 11.6067 11.0114 11.5871 10.9638C11.5674 10.9161 11.5577 10.8649 11.5587 10.8133C11.5596 10.7617 11.5711 10.7109 11.5925 10.664C11.6139 10.617 11.6447 10.575 11.683 10.5405L11.747 10.483C11.7854 10.4482 11.8305 10.4216 11.8795 10.405C11.9286 10.3884 11.9806 10.3821 12.0322 10.3865C12.0838 10.3908 12.1339 10.4058 12.1795 10.4304C12.2251 10.455 12.2651 10.4887 12.297 10.5295L12.697 11.039C12.7556 11.1139 12.7837 11.2083 12.7755 11.3031C12.7673 11.3979 12.7236 11.4861 12.653 11.55V11.55Z" stroke="#222525" stroke-opacity="0.54" stroke-miterlimit="10"/>
<path d="M15.1409 14.4695C15.0698 14.5336 14.9771 14.5682 14.8815 14.5664C14.7859 14.5647 14.6945 14.5266 14.6259 14.46L14.1604 14.01C14.1234 13.974 14.0943 13.9309 14.0747 13.8832C14.0551 13.8355 14.0455 13.7843 14.0465 13.7327C14.0474 13.6812 14.059 13.6304 14.0804 13.5835C14.1018 13.5366 14.1326 13.4946 14.1709 13.46L14.2344 13.4025C14.2727 13.3677 14.3178 13.3412 14.3669 13.3246C14.4159 13.308 14.4679 13.3017 14.5195 13.306C14.5711 13.3104 14.6212 13.3253 14.6668 13.3499C14.7124 13.3745 14.7524 13.4083 14.7844 13.449L15.1844 13.9585C15.2428 14.0335 15.2708 14.1278 15.2627 14.2225C15.2546 14.3173 15.2111 14.4055 15.1409 14.4695V14.4695Z" stroke="#222525" stroke-opacity="0.54" stroke-miterlimit="10"/>
<path d="M11.3403 18.3695C11.2693 18.4336 11.1765 18.4682 11.0809 18.4665C10.9853 18.4647 10.8939 18.4267 10.8253 18.36L10.3603 17.91C10.3233 17.8741 10.2941 17.831 10.2745 17.7833C10.2549 17.7356 10.2452 17.6844 10.2462 17.6329C10.2471 17.5813 10.2586 17.5305 10.2799 17.4836C10.3013 17.4367 10.3321 17.3946 10.3703 17.36L10.4343 17.3025C10.4727 17.2677 10.5178 17.2412 10.5668 17.2246C10.6159 17.208 10.6678 17.2017 10.7194 17.2061C10.771 17.2104 10.8212 17.2254 10.8668 17.25C10.9123 17.2746 10.9523 17.3083 10.9843 17.349L11.3843 17.8585C11.4429 17.9335 11.4709 18.0279 11.4628 18.1227C11.4546 18.2175 11.4109 18.3057 11.3403 18.3695V18.3695Z" stroke="#222525" stroke-opacity="0.54" stroke-miterlimit="10"/>
<path d="M19.4929 11.4745C19.4219 11.5387 19.3292 11.5734 19.2335 11.5716C19.1379 11.5699 19.0465 11.5317 18.9779 11.465L18.5124 11.015C18.4755 10.9791 18.4463 10.9359 18.4267 10.8882C18.4071 10.8405 18.3975 10.7893 18.3985 10.7377C18.3995 10.6862 18.411 10.6354 18.4324 10.5885C18.4538 10.5416 18.4846 10.4996 18.5229 10.465L18.5864 10.4075C18.6248 10.3727 18.6699 10.3462 18.7189 10.3296C18.768 10.313 18.8199 10.3067 18.8715 10.311C18.9231 10.3154 18.9733 10.3303 19.0189 10.3549C19.0644 10.3795 19.1044 10.4133 19.1364 10.454L19.5364 10.9635C19.5949 11.0385 19.623 11.1328 19.6149 11.2276C19.6069 11.3223 19.5633 11.4105 19.4929 11.4745V11.4745Z" stroke="#222525" stroke-opacity="0.54" stroke-miterlimit="10"/>
<path d="M20.4528 17.9865C20.3819 18.0506 20.2891 18.0853 20.1935 18.0836C20.0978 18.0818 20.0064 18.0437 19.9379 17.977L19.4729 17.527C19.4359 17.491 19.4067 17.4479 19.387 17.4002C19.3674 17.3525 19.3578 17.3014 19.3587 17.2498C19.3596 17.1983 19.3711 17.1474 19.3925 17.1005C19.4139 17.0536 19.4446 17.0115 19.4829 16.977L19.5469 16.9195C19.5852 16.8846 19.6303 16.858 19.6793 16.8414C19.7284 16.8247 19.7804 16.8184 19.832 16.8227C19.8836 16.8271 19.9338 16.8421 19.9794 16.8667C20.0249 16.8914 20.0649 16.9252 20.0969 16.966L20.4969 17.4755C20.5554 17.5504 20.5835 17.6448 20.5753 17.7396C20.5672 17.8344 20.5234 17.9226 20.4528 17.9865V17.9865Z" stroke="#222525" stroke-opacity="0.54" stroke-miterlimit="10"/>
<path d="M11.4758 15.01C11.4047 15.0738 11.3119 15.1083 11.2163 15.1065C11.1208 15.1046 11.0294 15.0665 10.9608 15L10.4958 14.55C10.4589 14.514 10.4298 14.4708 10.4102 14.4232C10.3906 14.3755 10.381 14.3243 10.3819 14.2728C10.3828 14.2213 10.3943 14.1705 10.4156 14.1236C10.4369 14.0766 10.4676 14.0346 10.5058 14L10.5698 13.9425C10.6082 13.9077 10.6533 13.8812 10.7024 13.8646C10.7515 13.8481 10.8034 13.8418 10.855 13.8462C10.9067 13.8506 10.9568 13.8656 11.0023 13.8903C11.0479 13.9149 11.0879 13.9487 11.1198 13.9895L11.5198 14.4985C11.5783 14.5736 11.6063 14.668 11.5981 14.7629C11.59 14.8577 11.5463 14.946 11.4758 15.01Z" stroke="#222525" stroke-opacity="0.54" stroke-miterlimit="10"/>
<path d="M16.3625 10.9145C16.2914 10.9784 16.1987 11.013 16.1031 11.0112C16.0075 11.0095 15.9162 10.9715 15.8475 10.905L15.3825 10.455C15.3455 10.4191 15.3162 10.376 15.2965 10.3283C15.2769 10.2806 15.2672 10.2294 15.2681 10.1778C15.2691 10.1262 15.2806 10.0754 15.302 10.0285C15.3234 9.98155 15.3542 9.93952 15.3925 9.90499L15.4565 9.84699C15.4948 9.81207 15.5399 9.78546 15.589 9.76881C15.6381 9.75217 15.6901 9.74585 15.7418 9.75027C15.7934 9.75468 15.8436 9.76973 15.8892 9.79446C15.9347 9.81919 15.9747 9.85308 16.0065 9.89399L16.4065 10.403C16.4651 10.478 16.4932 10.5725 16.485 10.6674C16.4769 10.7623 16.4331 10.8506 16.3625 10.9145V10.9145Z" stroke="#222525" stroke-opacity="0.54" stroke-miterlimit="10"/>
<path d="M14.55 18.318C14.479 18.382 14.3863 18.4166 14.2906 18.4149C14.195 18.4131 14.1036 18.3751 14.035 18.3085L13.57 17.8585C13.533 17.8225 13.5038 17.7794 13.4842 17.7317C13.4646 17.684 13.4549 17.6328 13.4559 17.5813C13.4568 17.5297 13.4683 17.4789 13.4897 17.432C13.511 17.3851 13.5418 17.343 13.58 17.3085L13.644 17.2505C13.6824 17.2157 13.7275 17.1892 13.7766 17.1726C13.8257 17.1561 13.8776 17.1498 13.9293 17.1542C13.9809 17.1586 14.031 17.1736 14.0766 17.1983C14.1221 17.2229 14.1621 17.2567 14.194 17.2975L14.594 17.807C14.6525 17.882 14.6805 17.9763 14.6723 18.0711C14.6641 18.1659 14.6205 18.254 14.55 18.318V18.318Z" stroke="#222525" stroke-opacity="0.54" stroke-miterlimit="10"/>
<path d="M17.7783 20.5175C17.7073 20.5816 17.6146 20.6164 17.5189 20.6146C17.4233 20.6128 17.3319 20.5747 17.2633 20.508L16.7978 20.058C16.7609 20.022 16.7318 19.9788 16.7123 19.9311C16.6927 19.8834 16.6832 19.8322 16.6842 19.7807C16.6851 19.7292 16.6967 19.6784 16.718 19.6315C16.7394 19.5846 16.7701 19.5426 16.8083 19.508L16.8718 19.4505C16.9102 19.4157 16.9553 19.3892 17.0043 19.3726C17.0534 19.356 17.1053 19.3496 17.1569 19.354C17.2085 19.3584 17.2587 19.3733 17.3043 19.3979C17.3498 19.4225 17.3899 19.4562 17.4218 19.497L17.8218 20.0065C17.8804 20.0814 17.9084 20.1758 17.9003 20.2705C17.8923 20.3653 17.8487 20.4535 17.7783 20.5175V20.5175Z" stroke="#222525" stroke-opacity="0.54" stroke-miterlimit="10"/>
<path d="M19.0898 14.5525C19.0188 14.6165 18.9261 14.6512 18.8304 14.6494C18.7348 14.6477 18.6434 14.6096 18.5748 14.543L18.1098 14.093C18.0728 14.0571 18.0436 14.0139 18.024 13.9663C18.0044 13.9186 17.9947 13.8674 17.9957 13.8158C17.9966 13.7643 18.0081 13.7135 18.0295 13.6666C18.0508 13.6196 18.0816 13.5776 18.1198 13.543L18.1838 13.4855C18.2221 13.4506 18.2672 13.424 18.3163 13.4074C18.3654 13.3908 18.4173 13.3844 18.469 13.3888C18.5206 13.3932 18.5708 13.4081 18.6163 13.4328C18.6619 13.4574 18.7019 13.4912 18.7338 13.532L19.1338 14.0415C19.1923 14.1165 19.2203 14.2109 19.2121 14.3056C19.2039 14.4004 19.1603 14.4886 19.0898 14.5525V14.5525Z" stroke="#222525" stroke-opacity="0.54" stroke-miterlimit="10"/>
<path d="M17.4853 17.0935C17.4143 17.1577 17.3216 17.1924 17.2259 17.1906C17.1303 17.1889 17.0389 17.1508 16.9703 17.084L16.5053 16.634C16.4684 16.5981 16.4391 16.555 16.4195 16.5073C16.3999 16.4596 16.3902 16.4084 16.3912 16.3569C16.3921 16.3053 16.4036 16.2545 16.425 16.2076C16.4463 16.1607 16.4771 16.1186 16.5153 16.084L16.5793 16.0265C16.6177 15.9917 16.6628 15.9652 16.7118 15.9486C16.7609 15.932 16.8128 15.9257 16.8644 15.9301C16.916 15.9344 16.9662 15.9494 17.0118 15.974C17.0573 15.9986 17.0974 16.0323 17.1293 16.073L17.5293 16.5825C17.5879 16.6575 17.616 16.7519 17.6078 16.8467C17.5996 16.9415 17.5559 17.0297 17.4853 17.0935V17.0935Z" stroke="#222525" stroke-opacity="0.54" stroke-miterlimit="10"/>
<path d="M20.2744 20.713C20.2033 20.7769 20.1106 20.8115 20.015 20.8097C19.9194 20.8079 19.8281 20.77 19.7594 20.7035L19.2944 20.2535C19.2575 20.2175 19.2284 20.1743 19.2088 20.1267C19.1892 20.079 19.1795 20.0278 19.1805 19.9763C19.1814 19.9248 19.1929 19.874 19.2142 19.8271C19.2355 19.7801 19.2662 19.7381 19.3044 19.7035L19.3684 19.646C19.4068 19.6112 19.4519 19.5847 19.501 19.5681C19.5501 19.5516 19.602 19.5453 19.6536 19.5497C19.7052 19.5541 19.7554 19.5691 19.8009 19.5938C19.8465 19.6184 19.8865 19.6522 19.9184 19.693L20.3184 20.202C20.3768 20.277 20.4047 20.3713 20.3965 20.4661C20.3883 20.5608 20.3447 20.649 20.2744 20.713Z" stroke="#222525" stroke-opacity="0.54" stroke-miterlimit="10"/>
<path d="M17.55 8.15603C17.479 8.22017 17.3863 8.25489 17.2907 8.25313C17.195 8.25136 17.1036 8.21325 17.035 8.14653L16.5695 7.69653C16.5326 7.66056 16.5034 7.61739 16.4838 7.5697C16.4643 7.52201 16.4547 7.4708 16.4556 7.41925C16.4566 7.3677 16.4682 7.3169 16.4896 7.27C16.511 7.22309 16.5418 7.18106 16.58 7.14653L16.644 7.08903C16.6823 7.05415 16.7274 7.02756 16.7765 7.01092C16.8256 6.99428 16.8776 6.98794 16.9292 6.99231C16.9808 6.99667 17.031 7.01164 17.0765 7.03629C17.1221 7.06093 17.1621 7.09472 17.194 7.13553L17.594 7.64503C17.6526 7.72 17.6807 7.81438 17.6725 7.90918C17.6643 8.00398 17.6206 8.09218 17.55 8.15603V8.15603Z" stroke="#222525" stroke-opacity="0.54" stroke-miterlimit="10"/>
</svg>
