<svg width="24" height="24" viewBox="0 0 24 24" fill="none" xmlns="http://www.w3.org/2000/svg">
<path d="M14.4165 15.1681C14.5855 14.8961 14.734 14.6206 14.8705 14.3426C16.037 11.9711 16.096 9.40663 16.096 7.14663V4.80713H15.7395L14.8245 6.72763C13.738 9.00713 12.4245 11.5996 9.8565 13.2461C8.4915 14.1211 6.2705 14.4521 4.789 15.0141C4.54039 15.1047 4.29931 15.2147 4.068 15.3431L3.1215 15.1081C2.99037 15.0749 2.85158 15.0911 2.73166 15.1537C2.61175 15.2164 2.51913 15.321 2.4715 15.4476C2.3865 15.6706 2.2885 15.9361 2.203 16.1671C2.17705 16.237 2.16556 16.3114 2.16925 16.3859C2.17294 16.4603 2.19172 16.5332 2.22446 16.6002C2.25719 16.6671 2.30319 16.7268 2.35967 16.7754C2.41615 16.824 2.48192 16.8607 2.553 16.8831L2.899 16.9946C2.94682 17.288 3.06358 17.5658 3.23969 17.8053C3.41579 18.0448 3.64621 18.239 3.912 18.3721C5.96244 19.156 8.16839 19.4472 10.352 19.2221C11.3905 18.0001 13.4915 16.6566 14.4165 15.1681Z" stroke="#222525" stroke-opacity="0.54" stroke-miterlimit="10"/>
<path d="M16.096 4.80705H20.3185C20.4644 4.80705 20.6043 4.7491 20.7074 4.64596C20.8106 4.54281 20.8685 4.40292 20.8685 4.25705V2.31355C20.8685 2.16768 20.8106 2.02779 20.7074 1.92464C20.6043 1.8215 20.4644 1.76355 20.3185 1.76355H15.2575C15.1116 1.76355 14.9718 1.8215 14.8686 1.92464C14.7655 2.02779 14.7075 2.16768 14.7075 2.31355V4.25655C14.7075 4.40242 14.7655 4.54231 14.8686 4.64546C14.9718 4.7486 15.1116 4.80655 15.2575 4.80655H16.096V4.80705Z" stroke="#222525" stroke-opacity="0.54" stroke-miterlimit="10"/>
<path d="M21.75 9.46963C21.742 7.73663 21.1585 6.15563 20.01 5.27613C19.758 5.08186 19.48 4.92398 19.184 4.80713H16.094V7.14663C16.094 9.40663 16.035 11.9711 14.8685 14.3426C14.732 14.6206 14.5835 14.8961 14.4145 15.1681C13.4895 16.6566 11.3885 18.0021 10.351 19.2181C10.2565 19.3296 10.167 19.4401 10.0915 19.5496L9.0965 19.7531C8.97517 19.778 8.86715 19.8465 8.79289 19.9456C8.71863 20.0448 8.68327 20.1677 8.6935 20.2911C8.7145 20.5521 8.7435 20.8741 8.7685 21.1411C8.77477 21.2091 8.79473 21.2752 8.82719 21.3352C8.85965 21.3953 8.90393 21.4482 8.95738 21.4907C9.01082 21.5332 9.07232 21.5645 9.13816 21.5826C9.20401 21.6007 9.27284 21.6053 9.3405 21.5961L9.7475 21.5416C9.91693 21.7858 10.1419 21.9863 10.4038 22.1267C10.6658 22.2671 10.9574 22.3433 11.2545 22.3491C11.2545 22.3491 18.5225 22.0171 20.9 16.2936C21.989 13.6791 21.75 9.46963 21.75 9.46963Z" stroke="#222525" stroke-opacity="0.54" stroke-miterlimit="10"/>
<path d="M14.8245 6.72763L15.7395 4.80713H15.3845C14.0045 6.77813 12.343 8.90713 9.72449 10.0441C7.96999 10.8066 5.15649 10.6296 3.67449 11.1911L2.78799 10.8126C2.66114 10.7583 2.51876 10.7524 2.38783 10.796C2.25689 10.8395 2.14648 10.9296 2.07749 11.0491C1.96149 11.2491 1.82749 11.4876 1.70949 11.6961C1.67216 11.7624 1.64864 11.8356 1.64033 11.9112C1.63203 11.9869 1.63911 12.0634 1.66116 12.1362C1.68321 12.2091 1.71977 12.2767 1.76863 12.335C1.81749 12.3933 1.87765 12.4412 1.94549 12.4756L2.25749 12.6351C2.25808 12.9324 2.32912 13.2252 2.46479 13.4897C2.60047 13.7542 2.7969 13.9828 3.03799 14.1566C3.5985 14.4869 4.18356 14.7735 4.78799 15.0141C6.26949 14.4521 8.49049 14.1211 9.85549 13.2461C12.425 11.6001 13.738 9.00713 14.8245 6.72763Z" stroke="#222525" stroke-opacity="0.54" stroke-miterlimit="10"/>
<path d="M20.012 5.27613C19.9689 5.11613 19.9144 4.9594 19.849 4.80713H19.186C19.482 4.92398 19.76 5.08186 20.012 5.27613V5.27613Z" stroke="#222525" stroke-opacity="0.54" stroke-miterlimit="10"/>
</svg>
