<svg width="28" height="28" viewBox="0 0 28 28" fill="none" xmlns="http://www.w3.org/2000/svg">
<path d="M13.7446 6.15708C13.7446 6.15708 13.152 3.44633 15.2123 3.14358C17.2726 2.84083 16.852 4.12766 15.042 4.43041C12.5704 4.84283 12.2764 1.52191 15.3593 1.33875" stroke="#222525" stroke-opacity="0.54" stroke-miterlimit="10"/>
<path d="M18.3424 20.0282C18.1694 19.4924 17.8449 19.0181 17.4082 18.6626C16.9714 18.3072 16.4412 18.0857 15.8814 18.025C15.7545 18.4939 15.5133 18.924 15.1794 19.2767C14.8454 19.6295 14.4292 19.8939 13.968 20.0463C14.0628 20.33 14.1126 20.6268 14.1156 20.9259C14.1156 20.9539 14.1086 20.9802 14.108 21.0076C14.7379 21.1266 15.3115 21.4485 15.7414 21.924C15.874 22.0735 15.9902 22.2368 16.0879 22.4111C16.0919 22.4187 16.0954 22.4274 16.0995 22.435C16.1944 22.6086 16.2725 22.7909 16.3329 22.9793C16.4082 23.2177 16.4535 23.4646 16.4676 23.7143C17.0568 23.5233 17.5705 23.1506 17.9348 22.6497C18.2992 22.1488 18.4956 21.5454 18.4959 20.9259C18.4924 20.6205 18.4406 20.3175 18.3424 20.0282V20.0282Z" stroke="#222525" stroke-opacity="0.54" stroke-miterlimit="10"/>
<path d="M15.6777 15.967C15.6462 15.9051 15.6089 15.8468 15.5745 15.7861C15.6089 15.8445 15.6462 15.9028 15.6777 15.967Z" stroke="#222525" stroke-opacity="0.54" stroke-miterlimit="10"/>
<path d="M11.1161 15.6514C11.181 15.7529 11.2407 15.8575 11.2952 15.9652C11.2418 15.8571 11.182 15.7523 11.1161 15.6514V15.6514Z" stroke="#222525" stroke-opacity="0.54" stroke-miterlimit="10"/>
<path d="M18.2712 11.4502C18.3727 11.6009 18.4593 11.7611 18.5297 11.9285C18.4591 11.7611 18.3726 11.6009 18.2712 11.4502V11.4502Z" stroke="#222525" stroke-opacity="0.54" stroke-miterlimit="10"/>
<path d="M13.3754 18.9904C13.5082 19.1396 13.6242 19.3029 13.7213 19.4774C13.6231 19.3036 13.5071 19.1404 13.3754 18.9904V18.9904Z" stroke="#222525" stroke-opacity="0.54" stroke-miterlimit="10"/>
<path d="M7.48548 10.1395C7.52632 10.1447 7.56657 10.1523 7.60682 10.1599C7.69764 10.1762 7.78759 10.197 7.87632 10.2223C7.91832 10.234 7.9609 10.2445 8.00232 10.2579C8.11006 10.2937 8.21563 10.3358 8.31848 10.3839C8.37973 10.4125 8.43515 10.4457 8.49348 10.4784C8.53665 10.5029 8.5804 10.5274 8.6224 10.5536C8.68948 10.5951 8.75423 10.6388 8.81782 10.6855C8.83532 10.6983 8.85107 10.7123 8.86857 10.7257C9.01651 10.8394 9.15324 10.967 9.2769 11.1067C9.67251 10.6572 10.1956 10.339 10.7767 10.1943C10.8843 10.1679 10.9934 10.1474 11.1033 10.1331H11.1167C11.2328 10.118 11.3497 10.1104 11.4667 10.1103C11.5909 10.115 11.7146 10.1275 11.8372 10.1477C12.0071 9.70366 12.0669 9.2251 12.0115 8.75293C11.9561 8.28077 11.7871 7.82906 11.519 7.43647C11.2509 7.04388 10.8917 6.7221 10.472 6.49868C10.0524 6.27525 9.58488 6.15684 9.10948 6.15357C8.62777 6.1529 8.15333 6.27106 7.72819 6.49757C7.30305 6.72408 6.94035 7.05196 6.67221 7.45215C6.40407 7.85234 6.23878 8.31248 6.19097 8.79182C6.14317 9.27116 6.21433 9.75489 6.39815 10.2002C6.75244 10.1056 7.12252 10.0857 7.4849 10.1418L7.48548 10.1395Z" stroke="#222525" stroke-opacity="0.54" stroke-miterlimit="10"/>
<path d="M11.8377 10.1459C12.5336 10.2345 13.1749 10.5688 13.6461 11.0886C13.9187 10.7812 14.2534 10.5349 14.628 10.366C15.0026 10.1971 15.4086 10.1094 15.8196 10.1086C15.9539 10.1126 16.0879 10.1263 16.2203 10.1494C16.3558 9.81085 16.4253 9.44949 16.4251 9.08482C16.4274 8.48904 16.2475 7.90679 15.9096 7.41612C15.5717 6.92544 15.0918 6.54979 14.5344 6.33952C13.977 6.12925 13.3686 6.09441 12.7908 6.23967C12.213 6.38493 11.6934 6.70334 11.3016 7.15224C11.6624 7.55093 11.904 8.04288 11.999 8.57212C12.094 9.10136 12.0385 9.64664 11.8389 10.1459H11.8377Z" stroke="#222525" stroke-opacity="0.54" stroke-miterlimit="10"/>
<path d="M8.68356 14.3255C9.00339 14.3253 9.321 14.3786 9.62331 14.483C9.88056 14.0463 10.0171 13.549 10.0188 13.0422C10.0159 12.5943 9.91109 12.1529 9.71229 11.7516C9.51348 11.3503 9.22592 10.9994 8.87139 10.7257C8.85389 10.7123 8.83814 10.6983 8.82064 10.6855C8.75706 10.6388 8.69231 10.5951 8.62523 10.5537C8.58323 10.5274 8.53948 10.5029 8.49631 10.4784C8.43798 10.4457 8.37964 10.4125 8.32131 10.3839C8.21846 10.3358 8.11289 10.2937 8.00514 10.2579C7.96373 10.2445 7.92114 10.234 7.87914 10.2223C7.79042 10.197 7.70047 10.1762 7.60964 10.1599C7.56939 10.1523 7.52914 10.1447 7.48831 10.1395C6.76554 10.0361 6.03023 10.2067 5.42694 10.618C4.82364 11.0292 4.39602 11.6513 4.22814 12.3619C4.06026 13.0724 4.16427 13.8201 4.51972 14.4579C4.87517 15.0956 5.45634 15.5774 6.14898 15.8083C6.40285 15.3593 6.77112 14.9856 7.21632 14.7251C7.66152 14.4647 8.16777 14.3268 8.68356 14.3255Z" stroke="#222525" stroke-opacity="0.54" stroke-miterlimit="10"/>
<path d="M11.2952 15.9652C11.2403 15.8575 11.1806 15.7529 11.1161 15.6514C11.044 15.5368 10.9633 15.428 10.8746 15.3259C10.5375 14.9421 10.1071 14.6518 9.62507 14.4829C9.32276 14.3785 9.00515 14.3253 8.68532 14.3254C7.93708 14.3252 7.21722 14.6118 6.67376 15.1261C6.1303 15.6404 5.80457 16.3434 5.76356 17.0905C5.72254 17.8376 5.96936 18.572 6.45325 19.1427C6.93714 19.7135 7.62131 20.0771 8.36507 20.1588C8.53159 19.538 8.89796 18.9893 9.40755 18.5976C9.91715 18.2059 10.5416 17.9929 11.1843 17.9917C11.2906 17.9964 11.3966 18.0071 11.5017 18.0238C11.5757 17.7751 11.615 17.5173 11.6183 17.2579C11.6146 16.8074 11.5038 16.3644 11.2952 15.9652V15.9652Z" stroke="#222525" stroke-opacity="0.54" stroke-miterlimit="10"/>
<path d="M16.2168 10.15C16.3749 10.1713 16.531 10.2057 16.6835 10.2526C17.1275 10.3893 17.5329 10.6292 17.8665 10.9526C18.4138 10.4102 19.1533 10.1062 19.9239 10.1068C20.1359 10.1081 20.3471 10.1321 20.5539 10.1786C20.6982 9.83126 20.7733 9.45914 20.775 9.08306C20.777 8.48933 20.5981 7.90907 20.2622 7.41949C19.9263 6.92991 19.4493 6.55422 18.8946 6.34244C18.3399 6.13065 17.7339 6.09279 17.1572 6.23391C16.5804 6.37503 16.0604 6.68842 15.6661 7.1324C16.1522 7.66603 16.4224 8.36128 16.4245 9.08306C16.4241 9.44871 16.3536 9.8109 16.2168 10.15Z" stroke="#222525" stroke-opacity="0.54" stroke-miterlimit="10"/>
<path d="M22.8575 13.0422C22.8581 12.4638 22.6875 11.8982 22.3673 11.4165C22.047 10.9349 21.5914 10.5588 21.0579 10.3356C20.5243 10.1124 19.9366 10.052 19.3688 10.1621C18.801 10.2723 18.2785 10.5479 17.8671 10.9544C17.9972 11.0828 18.1154 11.2228 18.22 11.3727C18.2381 11.3983 18.2544 11.424 18.2713 11.4503C18.3727 11.601 18.4592 11.7612 18.5297 11.9286C18.7023 12.3401 18.7761 12.7863 18.7451 13.2314C18.7141 13.6765 18.5792 14.1082 18.3512 14.4918C19.0867 14.7405 19.6945 15.2691 20.0429 15.9629C20.7985 15.934 21.5136 15.6137 22.0383 15.0692C22.5629 14.5248 22.8565 13.7983 22.8575 13.0422V13.0422Z" stroke="#222525" stroke-opacity="0.54" stroke-miterlimit="10"/>
<path d="M20.0411 15.9629C19.6928 15.269 19.085 14.7404 18.3495 14.4917C17.8091 14.2985 17.223 14.273 16.6679 14.4188C16.1129 14.5645 15.6148 14.8746 15.2391 15.3084C15.3294 15.4132 15.4126 15.5239 15.4882 15.6397V15.6397C15.5186 15.6869 15.5436 15.7383 15.5722 15.7867C15.6066 15.845 15.644 15.9034 15.6755 15.9675C15.7755 16.1641 15.8538 16.3711 15.9088 16.5847C15.9659 16.8049 15.9949 17.0315 15.9951 17.259C15.9915 17.5185 15.9522 17.7762 15.8785 18.0249C16.4383 18.0857 16.9687 18.3072 17.4054 18.6628C17.8421 19.0184 18.1666 19.4928 18.3396 20.0287C18.9226 19.8363 19.4302 19.4652 19.7905 18.968C20.1508 18.4709 20.3454 17.873 20.3468 17.259C20.3474 16.809 20.2428 16.3651 20.0411 15.9629V15.9629Z" stroke="#222525" stroke-opacity="0.54" stroke-miterlimit="10"/>
<path d="M13.0667 14.3255C13.3863 14.3253 13.7038 14.3785 14.0059 14.483C14.1952 14.1599 14.3204 13.8034 14.3745 13.433C14.3928 13.3045 14.402 13.1748 14.402 13.045C14.3979 12.4943 14.2405 11.9556 13.9475 11.4893V11.4893C13.859 11.3481 13.7583 11.215 13.6465 11.0915C13.1754 10.5717 12.5341 10.2374 11.8382 10.1488C11.7156 10.1286 11.5919 10.1162 11.4678 10.1115C11.3508 10.1119 11.2339 10.1195 11.1178 10.1342V10.1342C11.0033 10.1486 10.8898 10.1696 10.7777 10.1972C10.1967 10.3419 9.67356 10.6601 9.27795 11.1095C9.7553 11.6411 10.019 12.3306 10.0182 13.045C10.0165 13.5519 9.87995 14.0492 9.6227 14.4859C10.1054 14.6544 10.5364 14.9448 10.874 15.3288C11.1468 15.0149 11.4836 14.7629 11.8618 14.5899C12.24 14.4168 12.6508 14.3267 13.0667 14.3255V14.3255Z" stroke="#222525" stroke-opacity="0.54" stroke-miterlimit="10"/>
<path d="M11.4673 10.1085C11.3503 10.1086 11.2334 10.1162 11.1173 10.1313C11.2334 10.1165 11.3503 10.1089 11.4673 10.1085Z" stroke="#222525" stroke-opacity="0.54" stroke-miterlimit="10"/>
<path d="M11.105 10.1331C10.995 10.1474 10.886 10.1679 10.7783 10.1943C10.8904 10.1668 11.0039 10.1458 11.1184 10.1313L11.105 10.1331Z" stroke="#222525" stroke-opacity="0.54" stroke-miterlimit="10"/>
<path d="M16.2167 10.15C16.0843 10.1268 15.9503 10.1132 15.816 10.1091C15.405 10.11 14.999 10.1977 14.6244 10.3666C14.2498 10.5355 13.9151 10.7817 13.6425 11.0891C13.7542 11.2127 13.8549 11.3458 13.9435 11.487C14.0325 11.6292 14.1096 11.7787 14.1739 11.9338C14.3213 12.2847 14.3974 12.6615 14.3979 13.0421C14.3979 13.1719 14.3888 13.3016 14.3705 13.43C14.3163 13.8005 14.1911 14.157 14.0018 14.48C14.4774 14.6455 14.9029 14.9294 15.2385 15.3049C15.6142 14.8711 16.1122 14.561 16.6673 14.4153C17.2223 14.2695 17.8084 14.295 18.3488 14.4882C18.5767 14.1046 18.7116 13.673 18.7426 13.2278C18.7736 12.7827 18.6999 12.3365 18.5273 11.925C18.4569 11.7576 18.3703 11.5974 18.2689 11.4467C17.8979 10.8739 17.3363 10.4507 16.6834 10.252C16.5309 10.2053 16.3748 10.1711 16.2167 10.15V10.15Z" stroke="#222525" stroke-opacity="0.54" stroke-miterlimit="10"/>
<path d="M14.1751 11.9333C14.1109 11.7782 14.0338 11.6287 13.9447 11.4865V11.4865C14.0344 11.6284 14.1115 11.7779 14.1751 11.9333V11.9333Z" stroke="#222525" stroke-opacity="0.54" stroke-miterlimit="10"/>
<path d="M18.7519 13.0421C18.7487 13.5522 18.6105 14.0524 18.3512 14.4917C18.6105 14.0524 18.7487 13.5522 18.7519 13.0421V13.0421Z" stroke="#222525" stroke-opacity="0.54" stroke-miterlimit="10"/>
<path d="M18.22 11.375C18.1154 11.2251 17.9972 11.0851 17.8671 10.9568C18.0194 11.107 18.1549 11.2732 18.2713 11.4526C18.2544 11.424 18.2381 11.3984 18.22 11.375Z" stroke="#222525" stroke-opacity="0.54" stroke-miterlimit="10"/>
<path d="M15.9116 16.5841C15.8566 16.3705 15.7783 16.1635 15.6783 15.9669V15.9669C15.6468 15.9045 15.6095 15.8462 15.575 15.7861C15.5465 15.7371 15.5214 15.6864 15.4905 15.6391C15.4148 15.5233 15.3316 15.4126 15.2414 15.3078C14.9059 14.9323 14.4803 14.6484 14.0047 14.4829C13.7026 14.3785 13.3852 14.3253 13.0655 14.3254C12.6503 14.3266 12.24 14.4165 11.8623 14.589C11.4845 14.7616 11.148 15.0128 10.8751 15.3259C10.9638 15.428 11.0446 15.5368 11.1166 15.6514V15.6514C11.1825 15.7523 11.2423 15.8571 11.2957 15.9652C11.5038 16.3647 11.614 16.808 11.6171 17.2584C11.6138 17.5179 11.5745 17.7757 11.5005 18.0244C12.2236 18.1031 12.8919 18.4473 13.3759 18.9904C13.5076 19.1404 13.6236 19.3036 13.7218 19.4774V19.4774C13.7265 19.485 13.7294 19.4932 13.7335 19.5014C13.8288 19.6747 13.907 19.857 13.9668 20.0456C14.428 19.8932 14.8442 19.6288 15.1781 19.2761C15.512 18.9233 15.7532 18.4932 15.8801 18.0244C15.9539 17.7756 15.9931 17.5179 15.9968 17.2584C15.9969 17.031 15.9683 16.8044 15.9116 16.5841V16.5841Z" stroke="#222525" stroke-opacity="0.54" stroke-miterlimit="10"/>
<path d="M15.9117 16.5841C15.9688 16.8043 15.9979 17.0309 15.9981 17.2584C15.9979 17.0309 15.9688 16.8043 15.9117 16.5841V16.5841Z" stroke="#222525" stroke-opacity="0.54" stroke-miterlimit="10"/>
<path d="M15.6777 15.9669C15.7778 16.1635 15.856 16.3705 15.9111 16.5841C15.856 16.3705 15.7778 16.1635 15.6777 15.9669V15.9669Z" stroke="#222525" stroke-opacity="0.54" stroke-miterlimit="10"/>
<path d="M15.4905 15.6392C15.5214 15.6864 15.5488 15.7372 15.5751 15.7862C15.5459 15.7377 15.5208 15.6864 15.4905 15.6392Z" stroke="#222525" stroke-opacity="0.54" stroke-miterlimit="10"/>
<path d="M13.968 20.0457C13.9092 19.8567 13.831 19.6743 13.7346 19.5014V19.5014C13.7306 19.4933 13.7276 19.4851 13.723 19.4775C13.6258 19.303 13.5098 19.1396 13.3771 18.9904C12.8925 18.4472 12.2236 18.1032 11.4999 18.025C11.3948 18.0084 11.2888 17.9977 11.1826 17.9929C10.4555 17.9947 9.75501 18.2667 9.21715 18.7559C8.67928 19.2451 8.34239 19.9168 8.27188 20.6404C8.20137 21.3641 8.40227 22.0881 8.83557 22.672C9.26887 23.2558 9.90367 23.6579 10.6167 23.8C10.6245 23.56 10.6613 23.3218 10.7264 23.0907C10.8929 22.4699 11.2593 21.9212 11.7689 21.5295C12.2785 21.1378 12.9029 20.9248 13.5456 20.9236C13.6519 20.9284 13.7579 20.9391 13.863 20.9557C13.9464 20.9644 14.024 20.9895 14.1051 21.0053C14.1051 20.9778 14.1126 20.9516 14.1126 20.9236C14.1104 20.6252 14.0616 20.329 13.968 20.0457V20.0457Z" stroke="#222525" stroke-opacity="0.54" stroke-miterlimit="10"/>
<path d="M13.7335 19.5013C13.8299 19.6742 13.9081 19.8566 13.9669 20.0456C13.907 19.857 13.8289 19.6747 13.7335 19.5013Z" stroke="#222525" stroke-opacity="0.54" stroke-miterlimit="10"/>
<path d="M16.4687 23.7136C16.4544 23.4639 16.409 23.217 16.3334 22.9786C16.2731 22.7902 16.1949 22.608 16.1001 22.4344C16.096 22.4268 16.0925 22.418 16.0884 22.4105C15.9907 22.2361 15.8745 22.0728 15.7419 21.9234C15.3121 21.4478 14.7384 21.126 14.1086 21.007C14.0275 20.9912 13.9499 20.9661 13.8665 20.9574C13.7614 20.9408 13.6554 20.9301 13.5491 20.9253C12.9064 20.9266 12.282 21.1395 11.7724 21.5312C11.2628 21.9229 10.8964 22.4716 10.7299 23.0924C10.6638 23.3228 10.6258 23.5604 10.6167 23.8C10.6167 23.8192 10.6121 23.8373 10.6121 23.8583C10.6229 24.6291 10.9368 25.3646 11.4857 25.9059C12.0346 26.4471 12.7745 26.7505 13.5454 26.7505C14.3162 26.7505 15.0561 26.4471 15.605 25.9059C16.1539 25.3646 16.4678 24.6291 16.4786 23.8583C16.4816 23.8087 16.4716 23.7626 16.4687 23.7136Z" stroke="#222525" stroke-opacity="0.54" stroke-miterlimit="10"/>
</svg>
