<svg width="24" height="24" viewBox="0 0 24 24" fill="none" xmlns="http://www.w3.org/2000/svg">
<g clip-path="url(#clip0)">
<path d="M12.3951 24.075C10.4487 24.076 8.54572 23.4997 6.92688 22.4191C5.30804 21.3385 4.04605 19.802 3.30051 18.0041C2.55498 16.2062 2.3594 14.2275 2.73852 12.3184C3.11763 10.4093 4.0544 8.65551 5.43035 7.27886C6.8063 5.90221 8.55962 4.96455 10.4685 4.58446C12.3774 4.20438 14.3562 4.39895 16.1545 5.14357C17.9528 5.88819 19.4899 7.1494 20.5714 8.76769C21.6528 10.386 22.2301 12.2886 22.2301 14.235C22.2274 16.8431 21.1905 19.3436 19.3468 21.1883C17.5031 23.0329 15.0031 24.0711 12.3951 24.075V24.075ZM12.3951 4.89502C10.5476 4.89403 8.74128 5.44097 7.20467 6.46667C5.66805 7.49236 4.47014 8.95072 3.76245 10.6573C3.05476 12.3639 2.86909 14.242 3.22891 16.0541C3.58873 17.8662 4.47788 19.5309 5.78391 20.8376C7.08993 22.1444 8.75415 23.0344 10.5661 23.3952C12.378 23.756 14.2562 23.5713 15.9632 22.8645C17.6701 22.1578 19.1291 20.9606 20.1556 19.4246C21.1821 17.8885 21.7301 16.0825 21.7301 14.235C21.7274 11.7596 20.7432 9.38621 18.9933 7.63533C17.2433 5.88446 14.8705 4.89899 12.3951 4.89502V4.89502Z" stroke="#222525" stroke-opacity="0.54"/>
<path d="M17.4501 6.23505C17.2688 6.21683 17.0959 6.1494 16.9501 6.04005L16.7201 5.91005C16.5401 5.81505 16.3601 5.72005 16.3001 5.52005C16.2831 5.44974 16.2805 5.37671 16.2926 5.30538C16.3046 5.23405 16.331 5.1659 16.3701 5.10506L17.2101 3.56006C16.7101 3.34006 16.2101 3.16506 15.7901 3.02006C15.6727 2.98021 15.5652 2.91574 15.4747 2.83096C15.3843 2.74617 15.313 2.64304 15.2657 2.52846C15.2183 2.41389 15.196 2.29052 15.2002 2.16662C15.2044 2.04272 15.2351 1.92115 15.2901 1.81006C15.3728 1.60851 15.5281 1.44532 15.7253 1.35274C15.9225 1.26016 16.1472 1.24493 16.3551 1.31006C18.0661 1.87766 19.6824 2.69844 21.1501 3.74505V3.74505C21.2441 3.81362 21.3234 3.90022 21.3835 3.99981C21.4436 4.0994 21.4832 4.20997 21.5001 4.32505C21.5162 4.44422 21.5081 4.56541 21.4763 4.68139C21.4445 4.79736 21.3897 4.90574 21.3151 5.00006C21.1767 5.17581 20.9763 5.29189 20.7549 5.32444C20.5336 5.35699 20.3082 5.30353 20.1251 5.17506C19.7251 4.90006 19.2801 4.62506 18.7651 4.34006L17.8801 5.97005C17.8494 6.03405 17.8055 6.09078 17.7511 6.13648C17.6968 6.18217 17.6334 6.21577 17.5651 6.23505H17.4501ZM16.7951 5.40005C16.8497 5.41622 16.9019 5.43977 16.9501 5.47005L17.2051 5.61005C17.2808 5.66254 17.3632 5.70458 17.4501 5.73505L18.5651 3.64506L18.7851 3.76506C19.3454 4.0672 19.8879 4.40108 20.4101 4.76505C20.4868 4.81887 20.5811 4.84158 20.6739 4.82859C20.7667 4.81559 20.8511 4.76787 20.9101 4.69506C20.9477 4.6557 20.9755 4.608 20.9911 4.55586C21.0068 4.50372 21.0098 4.44861 21.0001 4.39506C20.996 4.34719 20.9812 4.30084 20.957 4.25934C20.9328 4.21784 20.8997 4.18222 20.8601 4.15506C19.4253 3.13968 17.846 2.3458 16.1751 1.80006C16.0918 1.77466 16.0023 1.77985 15.9225 1.81468C15.8427 1.84952 15.778 1.91172 15.7401 1.99006C15.709 2.03829 15.6895 2.0931 15.6833 2.15015C15.677 2.20719 15.6841 2.26492 15.704 2.31875C15.7239 2.37259 15.756 2.42106 15.7979 2.46034C15.8397 2.49962 15.8901 2.52862 15.9451 2.54506C16.5286 2.73687 17.1011 2.96054 17.6601 3.21505L17.9051 3.32506L16.8101 5.32505C16.8054 5.34309 16.8054 5.36202 16.8101 5.38005L16.7951 5.40005Z" stroke="#222525" stroke-opacity="0.54"/>
<path d="M6.15006 18.1751C6.10253 18.1753 6.05595 18.1618 6.016 18.136C5.97605 18.1103 5.94446 18.0735 5.92506 18.0301C5.21451 16.5228 4.96777 14.8384 5.21614 13.1906C5.4645 11.5428 6.19679 10.006 7.32006 8.77507C7.34287 8.75179 7.3701 8.7333 7.40015 8.72067C7.4302 8.70804 7.46246 8.70154 7.49506 8.70154C7.52765 8.70154 7.55992 8.70804 7.58997 8.72067C7.62002 8.7333 7.64725 8.75179 7.67006 8.77507C7.69349 8.79831 7.71209 8.82596 7.72478 8.85643C7.73747 8.88689 7.74401 8.91957 7.74401 8.95257C7.74401 8.98558 7.73747 9.01825 7.72478 9.04872C7.71209 9.07918 7.69349 9.10683 7.67006 9.13007C6.6021 10.2785 5.90719 11.7237 5.6769 13.2749C5.44662 14.8262 5.69177 16.4109 6.38006 17.8201C6.40711 17.8804 6.40915 17.949 6.38572 18.0109C6.36229 18.0727 6.31531 18.1228 6.25506 18.1501C6.22219 18.1657 6.18642 18.1742 6.15006 18.1751V18.1751Z" stroke="#222525" stroke-opacity="0.54"/>
</g>
<defs>
<clipPath id="clip0">
<rect width="24" height="24" fill="white"/>
</clipPath>
</defs>
</svg>
