<svg width="48" height="48" viewBox="0 0 48 48" fill="none" xmlns="http://www.w3.org/2000/svg">
<g filter="url(#filter0_d)">
<path d="M35 29.9999C35 36.6273 29.6274 41.9999 23 41.9999C16.3726 41.9999 11 36.6273 11 29.9999C11 23.3725 16.3726 17.9999 23 17.9999C29.6274 17.9999 35 23.3725 35 29.9999Z" fill="#FFAC2F"/>
<path fill-rule="evenodd" clip-rule="evenodd" d="M36 29.9999C36 37.1796 30.1797 42.9999 23 42.9999C15.8203 42.9999 10 37.1796 10 29.9999C10 22.8202 15.8203 16.9999 23 16.9999C30.1797 16.9999 36 22.8202 36 29.9999ZM23 41.9999C29.6274 41.9999 35 36.6273 35 29.9999C35 23.3725 29.6274 17.9999 23 17.9999C16.3726 17.9999 11 23.3725 11 29.9999C11 36.6273 16.3726 41.9999 23 41.9999Z" fill="#884A28"/>
<path fill-rule="evenodd" clip-rule="evenodd" d="M23 41.9999C29.6274 41.9999 35 36.6273 35 29.9999C35 23.3725 29.6274 17.9999 23 17.9999C22.5235 17.9999 22.0534 18.0277 21.5914 18.0817C26.1158 18.6856 29.6058 22.5602 29.6058 27.2499C29.6058 32.3585 25.4644 36.4999 20.3558 36.4999C15.5409 36.4999 11.5852 32.821 11.1463 28.1209C11.05 28.7331 11 29.3606 11 29.9999C11 36.6273 16.3726 41.9999 23 41.9999Z" fill="#FF862F"/>
<path d="M30.607 26.9285C30.607 27.4611 30.1753 27.8928 29.6428 27.8928C29.1102 27.8928 28.6785 27.4611 28.6785 26.9285C28.6785 26.396 29.1102 25.9642 29.6428 25.9642C30.1753 25.9642 30.607 26.396 30.607 26.9285Z" fill="#DD7429"/>
<path d="M33.5 28.8571C33.5 29.3897 33.0683 29.8214 32.5357 29.8214C32.0031 29.8214 31.5714 29.3897 31.5714 28.8571C31.5714 28.3245 32.0031 27.8928 32.5357 27.8928C33.0683 27.8928 33.5 28.3245 33.5 28.8571Z" fill="#DD7429"/>
<path d="M33.0178 25.7231C33.0178 26.1225 32.694 26.4463 32.2946 26.4463C31.8952 26.4463 31.5714 26.1225 31.5714 25.7231C31.5714 25.3237 31.8952 24.9999 32.2946 24.9999C32.694 24.9999 33.0178 25.3237 33.0178 25.7231Z" fill="#DD7429"/>
<path d="M33.6058 32.9999C33.6058 33.8283 32.9343 34.4999 32.1058 34.4999C31.2774 34.4999 30.6058 33.8283 30.6058 32.9999C30.6058 32.1715 31.2774 31.4999 32.1058 31.4999C32.9343 31.4999 33.6058 32.1715 33.6058 32.9999Z" fill="#DD7429"/>
<path d="M30.607 30.3035C30.607 30.8361 30.1753 31.2678 29.6428 31.2678C29.1102 31.2678 28.6785 30.8361 28.6785 30.3035C28.6785 29.771 29.1102 29.3392 29.6428 29.3392C30.1753 29.3392 30.607 29.771 30.607 30.3035Z" fill="#DD7429"/>
<path d="M31.5714 36.1249C31.5714 36.6575 31.1397 37.0892 30.6071 37.0892C30.0745 37.0892 29.6428 36.6575 29.6428 36.1249C29.6428 35.5924 30.0745 35.1606 30.6071 35.1606C31.1397 35.1606 31.5714 35.5924 31.5714 36.1249Z" fill="#DD7429"/>
<path d="M29.0344 37.9642C29.0344 38.4967 28.6027 38.9284 28.0701 38.9284C27.5376 38.9284 27.1058 38.4967 27.1058 37.9642C27.1058 37.4316 27.5376 36.9999 28.0701 36.9999C28.6027 36.9999 29.0344 37.4316 29.0344 37.9642Z" fill="#DD7429"/>
<path d="M29.1786 34.6784C29.1786 35.211 28.7468 35.6427 28.2143 35.6427C27.6817 35.6427 27.25 35.211 27.25 34.6784C27.25 34.1458 27.6817 33.7141 28.2143 33.7141C28.7468 33.7141 29.1786 34.1458 29.1786 34.6784Z" fill="#DD7429"/>
<path d="M25.6428 39.2767C25.6428 39.6761 25.319 39.9999 24.9196 39.9999C24.5202 39.9999 24.1964 39.6761 24.1964 39.2767C24.1964 38.8773 24.5202 38.5535 24.9196 38.5535C25.319 38.5535 25.6428 38.8773 25.6428 39.2767Z" fill="#DD7429"/>
<path d="M32.4214 17.8086C32.4214 17.8086 30.1358 13.9044 27.8126 13.8028C25.4894 13.7011 23.514 15.722 23.514 15.722C23.514 15.722 25.3053 17.9077 27.6286 18.0094C29.9518 18.111 32.4214 17.8086 32.4214 17.8086Z" fill="#64AC1D"/>
<path fill-rule="evenodd" clip-rule="evenodd" d="M33.2845 17.3034L32.4215 17.8086L32.5431 18.8011C32.8772 18.7602 33.1684 18.5539 33.3177 18.2522C33.4671 17.9505 33.4546 17.5939 33.2845 17.3034ZM23.5142 15.722C22.7991 15.023 22.7993 15.0228 22.7995 15.0226L22.8011 15.0209L22.8039 15.0181L22.8117 15.0102C22.8178 15.0041 22.826 14.996 22.836 14.9861C22.856 14.9665 22.8836 14.9397 22.9185 14.9069C22.9882 14.8413 23.0872 14.7513 23.2123 14.6452C23.4614 14.4339 23.8194 14.1544 24.2604 13.8774C25.1229 13.3358 26.4041 12.7402 27.8565 12.8037C28.7027 12.8408 29.466 13.2161 30.0881 13.6535C30.7184 14.0966 31.2814 14.6581 31.7422 15.1867C32.2064 15.7193 32.5888 16.2441 32.8544 16.6337C32.9878 16.8294 33.0932 16.9931 33.1661 17.1095C33.2026 17.1678 33.2311 17.2143 33.251 17.2472C33.261 17.2637 33.2688 17.2767 33.2744 17.2862L33.2811 17.2976L33.2832 17.3012L33.284 17.3024L33.2845 17.3034C33.2846 17.3036 33.2845 17.3034 32.4215 17.8086C32.5431 18.8011 32.5432 18.8011 32.5431 18.8011L32.5335 18.8023L32.5098 18.8051C32.4895 18.8075 32.46 18.8109 32.4222 18.8151C32.3465 18.8236 32.237 18.8355 32.0988 18.8493C31.8226 18.8769 31.4311 18.9124 30.9655 18.9447C30.0385 19.0089 28.799 19.0615 27.585 19.0084C26.1326 18.9448 24.9083 18.2396 24.0965 17.6247C23.6813 17.3103 23.3491 17.0006 23.1194 16.7683C23.0041 16.6517 22.9133 16.5534 22.8496 16.482C22.8177 16.4463 22.7925 16.4172 22.7743 16.3959C22.7652 16.3852 22.7578 16.3764 22.7522 16.3697L22.7451 16.3612L22.7426 16.3582L22.7411 16.3564C22.7409 16.3561 22.7407 16.3559 23.5142 15.722ZM23.5142 15.722L22.7991 15.023C22.4428 15.3875 22.4176 15.9617 22.7407 16.3559L23.5142 15.722ZM31.7984 16.8692C30.9616 15.7071 29.3959 13.872 27.8128 13.8028C25.4895 13.7011 23.5142 15.722 23.5142 15.722C23.5142 15.722 25.3055 17.9077 27.6287 18.0093C28.9754 18.0683 30.3712 17.9914 31.3068 17.9164C31.9852 17.862 32.4215 17.8086 32.4215 17.8086C32.4215 17.8086 32.1896 17.4124 31.7984 16.8692Z" fill="#156319"/>
<path d="M35.2836 8.65382C35.2836 8.65382 32.537 13.493 29.6056 15.0382C26.6743 16.5835 22.899 15.1823 22.899 15.1823C22.899 15.1823 23.8763 11.2758 26.8077 9.73052C29.7391 8.18528 35.2836 8.65382 35.2836 8.65382Z" fill="#87D623"/>
<path fill-rule="evenodd" clip-rule="evenodd" d="M36.1533 9.14739L35.2836 8.65378L35.3678 7.65733C35.7075 7.68604 36.0092 7.88586 36.1682 8.18746C36.3272 8.48906 36.3215 8.85088 36.1533 9.14739ZM34.1521 8.59789C34.8462 8.61682 35.2836 8.65378 35.2836 8.65378C35.2836 8.65378 35.0669 9.03555 34.6903 9.61887C33.7261 11.1123 31.7136 13.927 29.6056 15.0382C26.6742 16.5834 22.8989 15.1823 22.8989 15.1823C22.8989 15.1823 23.8763 11.2757 26.8077 9.73049C28.9157 8.61927 32.3751 8.54945 34.1521 8.59789ZM22.8989 15.1823C21.9288 14.9395 21.9289 14.9392 21.929 14.9389L21.9296 14.9365L21.9308 14.932L21.9342 14.9188C21.9369 14.9081 21.9407 14.8938 21.9456 14.8759C21.9553 14.8401 21.9692 14.7903 21.9876 14.728C22.0244 14.6035 22.0793 14.4285 22.1542 14.2156C22.3037 13.7911 22.5355 13.2091 22.8676 12.573C23.5211 11.3213 24.6182 9.75421 26.3414 8.84587C28.0175 7.96232 30.3304 7.69043 32.1015 7.61361C33.0101 7.57419 33.8217 7.58488 34.4064 7.60533C34.6992 7.61557 34.9363 7.6283 35.1017 7.6386C35.1845 7.64375 35.2493 7.64829 35.2943 7.65162C35.3168 7.65328 35.3343 7.65464 35.3467 7.65562L35.3612 7.65679L35.3655 7.65714L35.3678 7.65733C35.368 7.65735 35.3678 7.65733 35.2836 8.65378C36.1533 9.14739 36.1533 9.14722 36.1533 9.14739L36.1521 9.14937L36.15 9.15311L36.1427 9.16578C36.1366 9.17651 36.1278 9.19174 36.1164 9.21124C36.0938 9.25024 36.0609 9.30632 36.0184 9.37747C35.9334 9.51974 35.8099 9.72258 35.6529 9.96995C35.3394 10.4639 34.8895 11.1395 34.3436 11.8668C33.2794 13.2846 31.748 15.0392 30.0719 15.9228C28.3488 16.8311 26.4359 16.8507 25.0339 16.6826C24.3215 16.5971 23.7103 16.4595 23.2756 16.3429C23.0576 16.2844 22.8822 16.2308 22.7587 16.1908C22.6969 16.1708 22.648 16.1541 22.613 16.1419C22.5955 16.1358 22.5815 16.1308 22.5711 16.1271L22.5583 16.1224L22.5539 16.1209L22.5516 16.12C22.5513 16.1199 22.551 16.1198 22.8989 15.1823ZM21.9288 14.9395L22.8989 15.1823L22.551 16.1198C22.0731 15.9424 21.8051 15.434 21.9288 14.9395Z" fill="#156319"/>
<path d="M29.3519 14.5923C31.8442 13.2785 34.2555 9.30848 34.2555 9.30848C28.5883 10.7526 24.8744 13.6106 23.7259 14.8591C23.7259 14.8591 26.8596 15.9061 29.3519 14.5923Z" fill="#79C01E"/>
<path d="M18.4731 12.576C19.5001 13 22.0001 17 22.6954 19.0319C22.7534 19.2014 23.2191 19.0241 23.1705 18.876C22.8875 17.0007 21.7501 12.5 20.5001 11C19.0345 11.087 18.4766 12.1649 18.4731 12.576Z" fill="#8C5936"/>
<path fill-rule="evenodd" clip-rule="evenodd" d="M18.0824 13.4966C17.7104 13.3387 17.4697 12.9722 17.4731 12.5676C17.4776 12.0357 17.7733 11.4293 18.2219 10.9687C18.7141 10.4634 19.4523 10.0605 20.4407 10.0017C20.7578 9.9829 21.0649 10.1158 21.2683 10.3598C21.6725 10.8449 22.0231 11.5111 22.3224 12.2022C22.6284 12.9086 22.9088 13.7074 23.1536 14.5032C23.634 16.0645 23.9974 17.6799 24.1519 18.6782C24.2741 19.235 23.9138 19.6195 23.8028 19.7218C23.6388 19.873 23.4536 19.9637 23.3066 20.0157C23.1625 20.0667 22.9481 20.1186 22.7053 20.0953C22.4721 20.0728 21.947 19.9336 21.7492 19.3556C21.4392 18.4497 20.6889 17.0195 19.8674 15.7418C19.4612 15.11 19.0554 14.5434 18.7009 14.119C18.5232 13.9064 18.3698 13.7432 18.2453 13.6291C18.1342 13.5273 18.0808 13.4971 18.0813 13.4962C18.0813 13.4962 18.0817 13.4963 18.0824 13.4966ZM23.1705 18.876C23.1701 18.8739 23.1698 18.8717 23.1695 18.8696C23.137 18.6554 23.0935 18.4072 23.04 18.1334C22.9533 17.6895 22.8404 17.1782 22.706 16.6349C22.1958 14.5733 21.3755 12.0506 20.5 11C19.7559 11.0442 19.2458 11.3438 18.9234 11.6819C18.8639 11.7442 18.8109 11.8079 18.7639 11.8715C18.5639 12.1423 18.4744 12.4121 18.4731 12.576C19.2139 12.8818 20.7211 15.0484 21.7646 16.9948C22.0083 17.4492 22.2266 17.8916 22.404 18.2956C22.5065 18.5289 22.5953 18.7494 22.6675 18.9519C22.6771 18.9789 22.6864 19.0055 22.6954 19.0319C22.7534 19.2014 23.219 19.0241 23.1705 18.876ZM22.1781 19.0016C22.1854 19.0607 22.199 19.1229 22.2203 19.1877C22.2029 19.1347 22.19 19.0804 22.1817 19.0253C22.1805 19.0174 22.1793 19.0095 22.1781 19.0016Z" fill="#583A24"/>
<path d="M20.833 11.1737C21.1006 11.5457 20.7918 12.2255 20.1433 12.6919C19.4948 13.1583 18.7522 13.2348 18.4845 12.8628C18.2169 12.4907 18.5257 11.811 19.1742 11.3445C19.8227 10.8781 20.5654 10.8016 20.833 11.1737Z" fill="#C27A49"/>
<path d="M21.2273 22.3315C22.0614 23.763 20.9968 25.9379 18.8495 27.1891C16.7021 28.4403 14.2851 28.294 13.451 26.8625C12.6169 25.4309 13.6814 23.2561 15.8288 22.0049C17.9761 20.7537 20.3931 20.8999 21.2273 22.3315Z" fill="#FFC671"/>
<path fill-rule="evenodd" clip-rule="evenodd" d="M17.0415 23.5772C17.3364 24.0442 17.1969 24.6618 16.7299 24.9567C16.3737 25.1816 16.0985 25.4539 15.8907 25.7744C15.5903 26.2379 14.9711 26.37 14.5077 26.0696C14.0442 25.7692 13.9121 25.1499 14.2125 24.6865C14.5852 24.1116 15.073 23.6376 15.6621 23.2656C16.129 22.9707 16.7467 23.1102 17.0415 23.5772Z" fill="white"/>
</g>
<defs>
<filter id="filter0_d" x="0" y="0" width="50" height="50" filterUnits="userSpaceOnUse" color-interpolation-filters="sRGB">
<feFlood flood-opacity="0" result="BackgroundImageFix"/>
<feColorMatrix in="SourceAlpha" type="matrix" values="0 0 0 0 0 0 0 0 0 0 0 0 0 0 0 0 0 0 127 0" result="hardAlpha"/>
<feOffset dx="2" dy="2"/>
<feColorMatrix type="matrix" values="0 0 0 0 0 0 0 0 0 0 0 0 0 0 0 0 0 0 0.2 0"/>
<feBlend mode="normal" in2="BackgroundImageFix" result="effect1_dropShadow"/>
<feBlend mode="normal" in="SourceGraphic" in2="effect1_dropShadow" result="shape"/>
</filter>
</defs>
</svg>
