<svg width="28" height="28" viewBox="0 0 28 28" fill="none" xmlns="http://www.w3.org/2000/svg">
<path d="M13.891 8.51661H13.975C15.0354 8.54728 16.0725 8.83558 16.9967 9.35661L17.0037 9.34436C17.3421 8.60946 17.732 7.89933 18.1703 7.21928C18.5594 6.60678 19.1853 5.75453 19.1118 5.65886C18.9672 5.46986 17.9253 5.74345 16.7604 6.31395C17.0691 5.62953 17.4285 4.96912 17.8355 4.3382C18.168 3.90802 18.4498 3.441 18.6755 2.94636C18.5512 2.7842 17.6879 3.0047 16.6986 3.47136C16.9316 2.98069 17.1958 2.50547 17.4896 2.04861C17.7606 1.69771 17.9904 1.31682 18.1744 0.913447C17.9667 0.64453 15.2251 1.67995 14.255 3.10328C13.4278 1.5942 10.7952 0.300947 10.5631 0.551197C10.7075 0.970297 10.8997 1.37136 11.1359 1.74645C11.4529 2.35489 11.7162 2.98982 11.9228 3.64403C10.7457 2.8157 9.51365 2.3152 9.34274 2.49895C9.51968 3.01363 9.75555 3.50613 10.0457 3.96661C10.3909 4.63325 10.6855 5.32489 10.9271 6.0357C9.82224 5.3567 8.81132 4.9857 8.65207 5.1607C8.56982 5.24878 9.11115 6.15761 9.44015 6.80395C9.8502 7.5941 10.1961 8.41595 10.4744 9.26153C11.4453 8.75559 12.5262 8.49749 13.6209 8.5102C13.7084 8.5067 13.8 8.51078 13.891 8.51661Z" stroke="#222525" stroke-opacity="0.54" stroke-miterlimit="10"/>
<path d="M14.1809 8.8164L14.0573 8.68748C14.0409 8.67031 14.0212 8.65654 13.9995 8.64698C13.9778 8.63741 13.9544 8.63224 13.9306 8.63175C13.9069 8.63126 13.8833 8.63547 13.8612 8.64414C13.839 8.6528 13.8189 8.66574 13.8018 8.68223L13.6729 8.80532C13.7069 8.77268 13.7471 8.74708 13.7911 8.72997C13.8351 8.71287 13.882 8.70459 13.9292 8.70562C13.9764 8.70665 14.0229 8.71696 14.0661 8.73597C14.1093 8.75498 14.1483 8.78231 14.1809 8.8164Z" stroke="#222525" stroke-opacity="0.54" stroke-miterlimit="10"/>
<path d="M13.7241 22.3297L11.2183 24.7288L13.5278 27.141L16.0336 24.742L13.7241 22.3297Z" stroke="#222525" stroke-opacity="0.54" stroke-miterlimit="10"/>
<path d="M16.1094 15.6601L18.2998 17.9485L20.3415 15.9944C20.3053 15.7015 20.2664 15.4132 20.2248 15.1293L18.522 13.3507L16.1094 15.6601Z" stroke="#222525" stroke-opacity="0.54" stroke-miterlimit="10"/>
<path d="M18.3214 22.5511L20.3671 20.5916C20.399 20.5612 20.4245 20.5248 20.4422 20.4845C20.46 20.4441 20.4696 20.4007 20.4706 20.3567C20.4716 20.3126 20.4639 20.2688 20.4479 20.2278C20.432 20.1867 20.4081 20.1492 20.3776 20.1174L18.2998 17.9474L16.012 20.1378L18.3214 22.5511Z" stroke="#222525" stroke-opacity="0.54" stroke-miterlimit="10"/>
<path d="M20.3672 20.5916L18.3214 22.5498L20.5684 20.3991C20.5788 20.3882 20.5845 20.3738 20.5845 20.3588C20.5845 20.3438 20.5788 20.3294 20.5684 20.3186L20.3759 20.1173C20.4376 20.1814 20.4714 20.2673 20.4697 20.3562C20.4681 20.4452 20.4312 20.5298 20.3672 20.5916Z" stroke="#222525" stroke-opacity="0.54" stroke-miterlimit="10"/>
<path d="M16.3334 11.0628L14.1809 8.81643C14.1483 8.78234 14.1093 8.75501 14.0661 8.736C14.0229 8.71699 13.9764 8.70668 13.9292 8.70565C13.882 8.70462 13.8351 8.7129 13.7911 8.73C13.7471 8.74711 13.7069 8.77271 13.6729 8.80535L11.5198 10.8663L13.919 13.3746L16.3334 11.0628Z" stroke="#222525" stroke-opacity="0.54" stroke-miterlimit="10"/>
<path d="M13.1833 27.4685C13.3274 27.4731 13.4698 27.4801 13.6162 27.4801C13.6932 27.4801 13.7678 27.4749 13.8448 27.4737L13.5258 27.1406L13.1833 27.4685Z" stroke="#222525" stroke-opacity="0.54" stroke-miterlimit="10"/>
<path d="M16.1098 15.6601L13.8218 17.8506L16.0122 20.1386L18.3002 17.9482L16.1098 15.6601Z" stroke="#222525" stroke-opacity="0.54" stroke-miterlimit="10"/>
<path d="M16.0122 20.1392L13.7242 22.3297L16.0337 24.742L18.3217 22.5515L16.0122 20.1392Z" stroke="#222525" stroke-opacity="0.54" stroke-miterlimit="10"/>
<path d="M13.9191 13.3727L11.6311 15.5631L13.8216 17.8511L16.1096 15.6607L13.9191 13.3727Z" stroke="#222525" stroke-opacity="0.54" stroke-miterlimit="10"/>
<path d="M11.5197 10.8665L9.23169 13.057L11.6307 15.5628L13.9187 13.3723L11.5197 10.8665Z" stroke="#222525" stroke-opacity="0.54" stroke-miterlimit="10"/>
<path d="M16.3317 11.0629L13.9194 13.3723L16.1099 15.6603L18.5222 13.3509L16.3317 11.0629Z" stroke="#222525" stroke-opacity="0.54" stroke-miterlimit="10"/>
<path d="M11.2181 24.7286L9.34619 26.5206C10.5286 27.1453 11.8461 27.4708 13.1834 27.4686L13.5258 27.1407L11.2181 24.7286Z" stroke="#222525" stroke-opacity="0.54" stroke-miterlimit="10"/>
<path d="M13.5276 27.1407L13.8467 27.4738C15.2144 27.4977 16.5674 27.1896 17.79 26.5761L16.0336 24.7421L13.5276 27.1407Z" stroke="#222525" stroke-opacity="0.54" stroke-miterlimit="10"/>
<path d="M20.6745 20.4283C20.6745 20.3851 20.6745 20.3455 20.6745 20.3C20.6529 19.2348 20.5386 17.5776 20.3432 15.9944L18.3015 17.9486L20.3793 20.1185L20.5718 20.3198C20.5822 20.3306 20.588 20.3451 20.588 20.3601C20.588 20.375 20.5822 20.3895 20.5718 20.4003L18.3248 22.5511L19.9646 24.2666C20.4702 23.132 20.7138 21.8981 20.6774 20.6564C20.6774 20.5876 20.6757 20.5059 20.6745 20.4283Z" stroke="#222525" stroke-opacity="0.54" stroke-miterlimit="10"/>
<path d="M16.0336 24.742L17.7917 26.576C18.7446 26.0587 19.5063 25.2492 19.9647 24.2666L18.3214 22.5504L16.0336 24.742Z" stroke="#222525" stroke-opacity="0.54" stroke-miterlimit="10"/>
<path d="M18.522 13.3507L19.5907 12.3275C19.5569 12.2418 19.5225 12.1554 19.4869 12.0848C19.0547 11.1953 18.4279 10.4143 17.6529 9.79993L16.3334 11.0628L18.522 13.3507Z" stroke="#222525" stroke-opacity="0.54" stroke-miterlimit="10"/>
<path d="M20.2248 15.1293C20.1116 14.2225 19.9164 13.3279 19.6415 12.4565C19.6359 12.4421 19.6269 12.4294 19.6152 12.4195C19.6035 12.4096 19.5894 12.4028 19.5744 12.3997C19.5593 12.3966 19.5438 12.3974 19.5291 12.4019C19.5144 12.4064 19.5011 12.4145 19.4904 12.4255L18.5238 13.3507L20.2248 15.1293Z" stroke="#222525" stroke-opacity="0.54" stroke-miterlimit="10"/>
<path d="M11.5197 10.8663L10.1418 9.42725C9.2319 9.9988 8.48329 10.7936 7.96716 11.7361L9.23183 13.0567L11.5197 10.8663Z" stroke="#222525" stroke-opacity="0.54" stroke-miterlimit="10"/>
<path d="M13.6728 8.80823L13.8017 8.68515C13.8188 8.66866 13.839 8.65571 13.8611 8.64705C13.8832 8.63839 13.9068 8.63418 13.9305 8.63467C13.9543 8.63515 13.9777 8.64033 13.9994 8.64989C14.0211 8.65946 14.0408 8.67322 14.0572 8.6904L14.1808 8.81931L16.3333 11.0628L17.6528 9.79989C17.4445 9.63778 17.2252 9.49024 16.9966 9.35831C16.0725 8.83728 15.0354 8.54898 13.9749 8.51831H13.8909C13.7999 8.5154 13.7095 8.51131 13.6179 8.51131C12.5232 8.4986 11.4423 8.7567 10.4714 9.26265C10.3623 9.32098 10.248 9.36706 10.1418 9.43181L11.5197 10.8709L13.6728 8.80823Z" stroke="#222525" stroke-opacity="0.54" stroke-miterlimit="10"/>
<path d="M13.8214 17.851L11.5334 20.0415L13.7239 22.3295L16.0119 20.139L13.8214 17.851Z" stroke="#222525" stroke-opacity="0.54" stroke-miterlimit="10"/>
<path d="M9.34273 17.7533L6.83691 20.1523L9.0274 22.4403L11.5332 20.0413L9.34273 17.7533Z" stroke="#222525" stroke-opacity="0.54" stroke-miterlimit="10"/>
<path d="M11.5333 20.0409L9.02747 22.4399L11.218 24.7279L13.7238 22.3289L11.5333 20.0409Z" stroke="#222525" stroke-opacity="0.54" stroke-miterlimit="10"/>
<path d="M11.6306 15.5631L9.34265 17.7535L11.5331 20.0415L13.8211 17.851L11.6306 15.5631Z" stroke="#222525" stroke-opacity="0.54" stroke-miterlimit="10"/>
<path d="M9.02776 22.4408L7.22351 24.1675C7.66149 25.1585 8.40542 25.9832 9.34626 26.5206L11.2182 24.7286L9.02776 22.4408Z" stroke="#222525" stroke-opacity="0.54" stroke-miterlimit="10"/>
<path d="M6.83732 20.1523L9.34274 17.7537L7.00007 15.3054C6.77141 16.8851 6.62441 18.6514 6.57657 19.8799C6.56899 20.0748 6.56432 20.2521 6.56199 20.4166C6.56199 20.4983 6.55849 20.584 6.55849 20.6569C6.52592 21.8613 6.75292 23.0586 7.22407 24.1674L9.02832 22.4408L6.83732 20.1523Z" stroke="#222525" stroke-opacity="0.54" stroke-miterlimit="10"/>
<path d="M7.96727 11.7361C7.89202 11.8691 7.81852 12.0038 7.74852 12.1444C7.37568 13.1199 7.13021 14.1394 7.01819 15.1778L9.23486 13.0579L7.96727 11.7361Z" stroke="#222525" stroke-opacity="0.54" stroke-miterlimit="10"/>
<path d="M11.6312 15.5627L9.23193 13.0543L7.01818 15.1742C7.01176 15.2167 7.00593 15.2599 6.99951 15.3031L9.34276 17.7531L11.6312 15.5627Z" stroke="#222525" stroke-opacity="0.54" stroke-miterlimit="10"/>
</svg>
