<svg width="239" height="46" viewBox="0 0 239 46" fill="none" xmlns="http://www.w3.org/2000/svg">
<rect width="239" height="46" fill="white"/>
<path d="M23.125 27.3868C23.1888 26.0384 22.7331 24.8629 21.7578 23.8604C20.5729 22.6361 18.8639 22.0062 16.6309 21.9708H16.5625C15.2318 21.953 14.2839 21.6558 13.7188 21.0792C13.3633 20.7066 13.1947 20.2896 13.2129 19.8283C13.2493 19.0742 13.5729 18.4354 14.1836 17.912C14.8034 17.3886 15.5417 17.1269 16.3984 17.1269C17.237 17.1269 17.9798 17.2733 18.627 17.566C19.3652 17.9032 19.8164 18.3689 19.9805 18.9633C20.0898 19.3803 20.3359 19.6996 20.7187 19.9214C21.1015 20.1344 21.5071 20.1876 21.9355 20.0811C22.3639 19.9747 22.6875 19.7351 22.9062 19.3625C23.1341 18.9899 23.1933 18.5951 23.084 18.1782C22.7012 16.7587 21.8034 15.6764 20.3906 14.9312C19.2148 14.3102 17.8841 13.9997 16.3984 13.9997C14.6758 13.9997 13.1992 14.5497 11.9688 15.6498C10.7383 16.7499 10.0866 18.0983 10.0137 19.6952C9.94987 21.0348 10.4056 22.2103 11.3809 23.2216C12.5658 24.437 14.2747 25.0625 16.5078 25.0979C16.5169 25.0979 16.5261 25.0979 16.5352 25.0979C16.5169 25.0979 16.5261 25.0979 16.5625 25.0979H16.5762C17.9069 25.1157 18.8548 25.4174 19.4199 26.0028C19.7754 26.3666 19.944 26.7792 19.9258 27.2404C19.8893 28.0034 19.5612 28.6421 18.9414 29.1567C18.3307 29.6801 17.597 29.9418 16.7402 29.9418C15.9017 29.9418 15.1543 29.7954 14.4981 29.5026C13.7689 29.1656 13.3223 28.6998 13.1582 28.1054C13.0488 27.6885 12.8027 27.3691 12.4199 27.1473C12.0371 26.9344 11.6315 26.8812 11.2031 26.9877C10.7747 27.094 10.4466 27.3336 10.2187 27.7062C10 28.0788 9.94531 28.4735 10.0547 28.8905C10.4375 30.31 11.3353 31.3923 12.748 32.1376C13.9238 32.7585 15.2546 33.069 16.7402 33.069C18.4538 33.069 19.9303 32.519 21.1699 31.4189C22.4004 30.3189 23.0521 28.9748 23.125 27.3868ZM46.0254 13.9864C45.6699 13.8977 45.3236 13.9154 44.9863 14.0396C44.6491 14.1727 44.3893 14.39 44.207 14.6917L37.4805 25.5105L30.7539 14.6917C30.5625 14.39 30.2982 14.1727 29.9609 14.0396C29.6237 13.9154 29.2819 13.8977 28.9355 13.9864C28.5801 14.084 28.293 14.2747 28.0742 14.5586C27.8555 14.8336 27.7461 15.1485 27.7461 15.5034V31.4988C27.7461 31.9335 27.9056 32.3017 28.2246 32.6033C28.5345 32.9138 28.9127 33.069 29.3594 33.069C29.806 33.069 30.1888 32.9138 30.5078 32.6033C30.8268 32.3017 30.9863 31.9335 30.9863 31.4988V21.1457L36.0722 29.343C36.0814 29.343 36.0859 29.3474 36.0859 29.3563V29.3696C36.095 29.3696 36.0996 29.3741 36.0996 29.3829C36.1087 29.3918 36.1133 29.3963 36.1133 29.3963C36.1406 29.4406 36.1634 29.4716 36.1816 29.4894C36.1816 29.4983 36.1907 29.516 36.209 29.5427C36.2454 29.5692 36.2682 29.5914 36.2773 29.6091C36.2864 29.618 36.3047 29.6358 36.332 29.6624C36.3594 29.6889 36.3776 29.7068 36.3867 29.7156C36.4049 29.7333 36.4323 29.7555 36.4687 29.7821C36.4961 29.8088 36.5098 29.8176 36.5098 29.8088C36.5371 29.8353 36.569 29.8575 36.6055 29.8753C36.6146 29.8842 36.6191 29.8886 36.6191 29.8886C36.6282 29.8974 36.6328 29.9019 36.6328 29.9019H36.6465C36.6738 29.9196 36.7103 29.9374 36.7558 29.9552C36.7832 29.9729 36.7923 29.9817 36.7832 29.9817C36.8014 29.9906 36.8333 30.0039 36.8789 30.0216C36.9336 30.0394 36.9518 30.0438 36.9336 30.035C36.9245 30.035 36.9427 30.0394 36.9883 30.0483C37.1068 30.0837 37.2252 30.1059 37.3437 30.1148C37.3984 30.1237 37.4167 30.1281 37.3984 30.1281H37.4258C37.6536 30.137 37.8724 30.0971 38.082 30.0084C38.1276 29.9906 38.1549 29.9817 38.164 29.9817C38.1549 29.9817 38.1686 29.9729 38.2051 29.9552C38.2506 29.9374 38.2825 29.9196 38.3008 29.9019C38.3099 29.9019 38.3144 29.9019 38.3144 29.9019C38.3144 29.9019 38.319 29.8974 38.3281 29.8886C38.3372 29.8886 38.3418 29.8842 38.3418 29.8753C38.3782 29.8575 38.4101 29.8398 38.4375 29.8221C38.4375 29.8221 38.4512 29.8088 38.4785 29.7821C38.515 29.7555 38.5423 29.7333 38.5605 29.7156C38.5696 29.7068 38.5879 29.6889 38.6152 29.6624C38.6426 29.6358 38.6608 29.618 38.6699 29.6091C38.679 29.6003 38.7018 29.5781 38.7383 29.5427L38.7793 29.4894C38.7884 29.4716 38.8066 29.4406 38.834 29.3963C38.834 29.3963 38.8385 29.3918 38.8476 29.3829C38.8568 29.3741 38.8613 29.3696 38.8613 29.3696L38.875 29.3563C38.875 29.3474 38.875 29.343 38.875 29.343L43.9746 21.1457V31.4988C43.9746 31.9335 44.1295 32.3017 44.4394 32.6033C44.7584 32.9138 45.1413 33.069 45.5879 33.069C46.0345 33.069 46.4173 32.9138 46.7363 32.6033C47.0462 32.3017 47.2012 31.9335 47.2012 31.4988V15.5034C47.2012 15.1485 47.0918 14.8336 46.873 14.5586C46.6543 14.2747 46.3717 14.084 46.0254 13.9864ZM57.5644 25.8831L60.1894 19.7085L62.8281 25.8831H57.5644ZM52.8203 32.9493C53.0208 33.0291 53.2259 33.069 53.4355 33.069C54.1556 33.069 54.6523 32.7452 54.9258 32.0977L56.2383 29.0103H64.1543L65.4668 32.0977C65.7402 32.7452 66.237 33.069 66.957 33.069C67.1667 33.069 67.3717 33.0291 67.5722 32.9493C67.9824 32.7807 68.2741 32.4968 68.4472 32.0977C68.6113 31.6984 68.6113 31.2991 68.4472 30.9L66.7109 26.8413C66.7109 26.8413 66.7109 26.8368 66.7109 26.8279L61.6797 15.011C61.6614 14.9667 61.6387 14.9223 61.6113 14.878C61.6113 14.8691 61.5976 14.8469 61.5703 14.8114C61.543 14.7759 61.5293 14.7538 61.5293 14.7449C61.5293 14.736 61.5111 14.7138 61.4746 14.6784L61.4336 14.6251C61.4336 14.6163 61.4153 14.5941 61.3789 14.5586C61.3515 14.532 61.3379 14.5142 61.3379 14.5054C61.3196 14.4965 61.2969 14.4788 61.2695 14.4521C61.2422 14.4255 61.2239 14.4122 61.2148 14.4122C61.2057 14.4033 61.1829 14.3856 61.1465 14.359C61.11 14.3324 61.0918 14.3191 61.0918 14.3191C61.0827 14.3102 61.0553 14.2924 61.0098 14.2658C60.9642 14.2392 60.9459 14.2303 60.9551 14.2392C60.8639 14.186 60.7637 14.1461 60.6543 14.1195C60.6725 14.1195 60.6543 14.115 60.5996 14.1061C60.554 14.0884 60.5221 14.0795 60.5039 14.0795C60.5039 14.0795 60.4811 14.0751 60.4355 14.0662C60.3808 14.0574 60.3535 14.0529 60.3535 14.0529C60.3535 14.0529 60.3262 14.0529 60.2715 14.0529C60.235 14.0529 60.2077 14.0529 60.1894 14.0529C60.1803 14.0529 60.1575 14.0529 60.1211 14.0529C60.0755 14.0529 60.0482 14.0529 60.039 14.0529C60.039 14.0529 60.0163 14.0574 59.9707 14.0662C59.9251 14.0751 59.8932 14.0795 59.875 14.0795L59.8203 14.0928C59.7656 14.1106 59.7337 14.1195 59.7246 14.1195C59.7064 14.1283 59.6745 14.1372 59.6289 14.1461C59.5742 14.1727 59.556 14.1816 59.5742 14.1727C59.5924 14.1638 59.5788 14.1727 59.5332 14.1993C59.4876 14.217 59.4557 14.2303 59.4375 14.2392C59.4284 14.2392 59.401 14.2525 59.3555 14.2791C59.319 14.3058 59.3008 14.3191 59.3008 14.3191C59.2917 14.3279 59.2689 14.3457 59.2324 14.3723C59.1868 14.3989 59.1686 14.4122 59.1777 14.4122C59.1686 14.4122 59.1458 14.43 59.1094 14.4654C59.082 14.4832 59.0638 14.4965 59.0547 14.5054C59.0547 14.5142 59.0364 14.5364 59 14.5719C58.9726 14.5985 58.959 14.6163 58.959 14.6251C58.9499 14.634 58.9316 14.6517 58.9043 14.6784C58.8769 14.7138 58.8633 14.736 58.8633 14.7449C58.8542 14.7538 58.8359 14.7759 58.8086 14.8114C58.7903 14.8558 58.7812 14.878 58.7812 14.878C58.7539 14.9223 58.7311 14.9667 58.7129 15.011L53.6816 26.8279C53.6816 26.8368 53.6816 26.8413 53.6816 26.8413L51.9453 30.9C51.7812 31.2991 51.7812 31.6984 51.9453 32.0977C52.1185 32.4968 52.4101 32.7807 52.8203 32.9493ZM75.5703 21.9175V17.087H79.6172C80.4101 17.087 81.0892 17.3221 81.6543 17.7923C82.2194 18.2625 82.5019 18.8347 82.5019 19.5089C82.5019 20.1565 82.2331 20.7154 81.6953 21.1856C81.1484 21.6469 80.4922 21.8909 79.7265 21.9175H75.5703ZM85.7148 19.5089C85.7148 17.9741 85.1178 16.6656 83.9238 15.5833C82.7389 14.5009 81.3034 13.9598 79.6172 13.9598H73.957C73.5195 13.9598 73.1413 14.115 72.8222 14.4255C72.5124 14.7272 72.3574 15.0953 72.3574 15.53V31.3923C72.3574 31.8181 72.5124 32.1863 72.8222 32.4968C73.1413 32.7985 73.5195 32.9493 73.957 32.9493C74.4036 32.9493 74.7819 32.7985 75.0918 32.4968C75.4108 32.1863 75.5703 31.8181 75.5703 31.3923V25.0448H78.3457L81.9687 32.1908C82.2604 32.7763 82.7389 33.069 83.4043 33.069C83.6504 33.069 83.8874 33.0158 84.1152 32.9093C84.5163 32.7142 84.7851 32.4125 84.9219 32.0044C85.0677 31.5964 85.0449 31.2016 84.8535 30.8202L81.75 24.6988C82.9258 24.2995 83.8737 23.6298 84.5937 22.6894C85.3411 21.7401 85.7148 20.6799 85.7148 19.5089ZM94.1914 31.4988C94.1914 31.9335 94.3509 32.306 94.6699 32.6166C94.9798 32.9183 95.3581 33.069 95.8047 33.069C96.2513 33.069 96.6295 32.9183 96.9394 32.6166C97.2584 32.306 97.418 31.9335 97.418 31.4988V17.1003H101.492C101.93 17.1003 102.308 16.945 102.627 16.6345C102.937 16.3329 103.092 15.9647 103.092 15.53C103.092 15.0953 102.937 14.7272 102.627 14.4255C102.308 14.115 101.93 13.9598 101.492 13.9598H90.1308C89.6842 13.9598 89.3014 14.115 88.9824 14.4255C88.6725 14.7272 88.5176 15.0953 88.5176 15.53C88.5176 15.9647 88.6725 16.3329 88.9824 16.6345C89.3014 16.945 89.6842 17.1003 90.1308 17.1003H94.1914V31.4988ZM118.91 27.3868C118.974 26.0384 118.518 24.8629 117.543 23.8604C116.358 22.6361 114.649 22.0062 112.416 21.9708H112.348C111.017 21.953 110.069 21.6558 109.504 21.0792C109.148 20.7066 108.98 20.2896 108.998 19.8283C109.035 19.0742 109.358 18.4354 109.969 17.912C110.589 17.3886 111.327 17.1269 112.184 17.1269C113.022 17.1269 113.765 17.2733 114.412 17.566C115.15 17.9032 115.602 18.3689 115.766 18.9633C115.875 19.3803 116.121 19.6996 116.504 19.9214C116.887 20.1344 117.292 20.1876 117.721 20.0811C118.149 19.9747 118.473 19.7351 118.691 19.3625C118.919 18.9899 118.978 18.5951 118.869 18.1782C118.486 16.7587 117.589 15.6764 116.176 14.9312C115 14.3102 113.669 13.9997 112.184 13.9997C110.461 13.9997 108.984 14.5497 107.754 15.6498C106.523 16.7499 105.872 18.0983 105.799 19.6952C105.735 21.0348 106.191 22.2103 107.166 23.2216C108.351 24.437 110.06 25.0625 112.293 25.0979C112.302 25.0979 112.311 25.0979 112.32 25.0979C112.302 25.0979 112.311 25.0979 112.348 25.0979H112.361C113.692 25.1157 114.64 25.4174 115.205 26.0028C115.561 26.3666 115.729 26.7792 115.711 27.2404C115.674 28.0034 115.346 28.6421 114.727 29.1567C114.116 29.6801 113.382 29.9418 112.525 29.9418C111.687 29.9418 110.939 29.7954 110.283 29.5026C109.554 29.1656 109.107 28.6998 108.943 28.1054C108.834 27.6885 108.588 27.3691 108.205 27.1473C107.822 26.9344 107.417 26.8812 106.988 26.9877C106.56 27.094 106.232 27.3336 106.004 27.7062C105.785 28.0788 105.73 28.4735 105.84 28.8905C106.223 30.31 107.12 31.3923 108.533 32.1376C109.709 32.7585 111.04 33.069 112.525 33.069C114.239 33.069 115.715 32.519 116.955 31.4189C118.186 30.3189 118.837 28.9748 118.91 27.3868ZM137.477 14.3856C137.13 14.1106 136.734 13.9953 136.287 14.0396C135.85 14.0928 135.494 14.288 135.221 14.6251L130.189 20.7465L125.172 14.6251C124.889 14.288 124.529 14.0928 124.092 14.0396C123.645 13.9953 123.249 14.1106 122.902 14.3856C122.556 14.6517 122.36 14.9977 122.314 15.4236C122.26 15.8583 122.374 16.2442 122.656 16.5813L128.576 23.7939V31.4988C128.576 31.9335 128.736 32.306 129.055 32.6166C129.365 32.9183 129.743 33.069 130.189 33.069C130.636 33.069 131.014 32.9183 131.324 32.6166C131.643 32.306 131.803 31.9335 131.803 31.4988V23.7939L137.723 16.5813C138.005 16.2442 138.124 15.8583 138.078 15.4236C138.023 14.9977 137.823 14.6517 137.477 14.3856ZM154.156 27.3868C154.22 26.0384 153.764 24.8629 152.789 23.8604C151.604 22.6361 149.895 22.0062 147.662 21.9708H147.594C146.263 21.953 145.315 21.6558 144.75 21.0792C144.395 20.7066 144.226 20.2896 144.244 19.8283C144.281 19.0742 144.604 18.4354 145.215 17.912C145.835 17.3886 146.573 17.1269 147.43 17.1269C148.268 17.1269 149.011 17.2733 149.658 17.566C150.396 17.9032 150.848 18.3689 151.012 18.9633C151.121 19.3803 151.367 19.6996 151.75 19.9214C152.133 20.1344 152.538 20.1876 152.967 20.0811C153.395 19.9747 153.719 19.7351 153.937 19.3625C154.165 18.9899 154.225 18.5951 154.115 18.1782C153.732 16.7587 152.835 15.6764 151.422 14.9312C150.246 14.3102 148.915 13.9997 147.43 13.9997C145.707 13.9997 144.23 14.5497 143 15.6498C141.77 16.7499 141.118 18.0983 141.045 19.6952C140.981 21.0348 141.437 22.2103 142.412 23.2216C143.597 24.437 145.306 25.0625 147.539 25.0979C147.548 25.0979 147.557 25.0979 147.566 25.0979C147.548 25.0979 147.557 25.0979 147.594 25.0979H147.607C148.938 25.1157 149.886 25.4174 150.451 26.0028C150.807 26.3666 150.975 26.7792 150.957 27.2404C150.921 28.0034 150.592 28.6421 149.973 29.1567C149.362 29.6801 148.628 29.9418 147.771 29.9418C146.933 29.9418 146.186 29.7954 145.529 29.5026C144.8 29.1656 144.354 28.6998 144.189 28.1054C144.08 27.6885 143.834 27.3691 143.451 27.1473C143.068 26.9344 142.663 26.8812 142.234 26.9877C141.806 27.094 141.478 27.3336 141.25 27.7062C141.031 28.0788 140.977 28.4735 141.086 28.8905C141.469 30.31 142.367 31.3923 143.779 32.1376C144.955 32.7585 146.286 33.069 147.771 33.069C149.485 33.069 150.962 32.519 152.201 31.4189C153.432 30.3189 154.083 28.9748 154.156 27.3868ZM163.07 31.4988C163.07 31.9335 163.23 32.306 163.549 32.6166C163.859 32.9183 164.237 33.069 164.684 33.069C165.13 33.069 165.508 32.9183 165.818 32.6166C166.137 32.306 166.297 31.9335 166.297 31.4988V17.1003H170.371C170.809 17.1003 171.187 16.945 171.506 16.6345C171.816 16.3329 171.971 15.9647 171.971 15.53C171.971 15.0953 171.816 14.7272 171.506 14.4255C171.187 14.115 170.809 13.9598 170.371 13.9598H159.01C158.563 13.9598 158.18 14.115 157.861 14.4255C157.551 14.7272 157.396 15.0953 157.396 15.53C157.396 15.9647 157.551 16.3329 157.861 16.6345C158.18 16.945 158.563 17.1003 159.01 17.1003H163.07V31.4988ZM178.793 29.9152V25.0847H184.754C185.201 25.0847 185.583 24.9338 185.902 24.6322C186.221 24.3217 186.381 23.9491 186.381 23.5144C186.381 23.0797 186.221 22.7071 185.902 22.3966C185.583 22.095 185.201 21.9441 184.754 21.9441H178.793V17.1136L187.051 17.1402H187.064C187.511 17.1402 187.889 16.985 188.199 16.6745C188.518 16.3728 188.678 16.0047 188.678 15.5699C188.678 15.1352 188.523 14.7626 188.213 14.4521C187.894 14.1416 187.511 13.9864 187.064 13.9864L177.18 13.9598H177.166C176.719 13.9598 176.341 14.115 176.031 14.4255C175.712 14.7272 175.553 15.0998 175.553 15.5433V31.4988C175.553 31.9335 175.712 32.3017 176.031 32.6033C176.341 32.9138 176.719 33.069 177.166 33.069H187.064C187.511 33.069 187.889 32.9138 188.199 32.6033C188.518 32.3017 188.678 31.9335 188.678 31.4988C188.678 31.0641 188.518 30.6915 188.199 30.381C187.889 30.0705 187.511 29.9152 187.064 29.9152H178.793ZM211.236 13.9864C210.881 13.8977 210.534 13.9154 210.197 14.0396C209.86 14.1727 209.6 14.39 209.418 14.6917L202.691 25.5105L195.965 14.6917C195.773 14.39 195.509 14.1727 195.172 14.0396C194.835 13.9154 194.493 13.8977 194.146 13.9864C193.791 14.084 193.504 14.2747 193.285 14.5586C193.066 14.8336 192.957 15.1485 192.957 15.5034V31.4988C192.957 31.9335 193.117 32.3017 193.436 32.6033C193.745 32.9138 194.124 33.069 194.57 33.069C195.017 33.069 195.4 32.9138 195.719 32.6033C196.038 32.3017 196.197 31.9335 196.197 31.4988V21.1457L201.283 29.343C201.292 29.343 201.297 29.3474 201.297 29.3563V29.3696C201.306 29.3696 201.311 29.3741 201.311 29.3829C201.32 29.3918 201.324 29.3963 201.324 29.3963C201.352 29.4406 201.374 29.4716 201.393 29.4894C201.393 29.4983 201.402 29.516 201.42 29.5427C201.456 29.5692 201.479 29.5914 201.488 29.6091C201.497 29.618 201.516 29.6358 201.543 29.6624C201.57 29.6889 201.589 29.7068 201.598 29.7156C201.616 29.7333 201.643 29.7555 201.68 29.7821C201.707 29.8088 201.721 29.8176 201.721 29.8088C201.748 29.8353 201.78 29.8575 201.816 29.8753C201.826 29.8842 201.83 29.8886 201.83 29.8886C201.839 29.8974 201.844 29.9019 201.844 29.9019H201.857C201.885 29.9196 201.921 29.9374 201.967 29.9552C201.994 29.9729 202.003 29.9817 201.994 29.9817C202.012 29.9906 202.044 30.0039 202.09 30.0216C202.145 30.0394 202.163 30.0438 202.145 30.035C202.135 30.035 202.154 30.0394 202.199 30.0483C202.318 30.0837 202.436 30.1059 202.555 30.1148C202.609 30.1237 202.628 30.1281 202.609 30.1281H202.637C202.865 30.137 203.083 30.0971 203.293 30.0084C203.339 29.9906 203.366 29.9817 203.375 29.9817C203.366 29.9817 203.38 29.9729 203.416 29.9552C203.462 29.9374 203.493 29.9196 203.512 29.9019C203.521 29.9019 203.525 29.9019 203.525 29.9019C203.525 29.9019 203.53 29.8974 203.539 29.8886C203.548 29.8886 203.553 29.8842 203.553 29.8753C203.589 29.8575 203.621 29.8398 203.648 29.8221C203.648 29.8221 203.662 29.8088 203.689 29.7821C203.726 29.7555 203.753 29.7333 203.771 29.7156C203.781 29.7068 203.799 29.6889 203.826 29.6624C203.854 29.6358 203.872 29.618 203.881 29.6091C203.89 29.6003 203.913 29.5781 203.949 29.5427L203.99 29.4894C203.999 29.4716 204.018 29.4406 204.045 29.3963C204.045 29.3963 204.049 29.3918 204.059 29.3829C204.068 29.3741 204.072 29.3696 204.072 29.3696L204.086 29.3563C204.086 29.3474 204.086 29.343 204.086 29.343L209.186 21.1457V31.4988C209.186 31.9335 209.34 32.3017 209.65 32.6033C209.969 32.9138 210.352 33.069 210.799 33.069C211.245 33.069 211.628 32.9138 211.947 32.6033C212.257 32.3017 212.412 31.9335 212.412 31.4988V15.5034C212.412 15.1485 212.303 14.8336 212.084 14.5586C211.865 14.2747 211.583 14.084 211.236 13.9864ZM224.498 21.8643V20.1077C224.498 19.673 224.343 19.3004 224.033 18.9899C223.714 18.6883 223.331 18.5375 222.885 18.5375C222.447 18.5375 222.069 18.6883 221.75 18.9899C221.44 19.3004 221.285 19.673 221.285 20.1077V21.8643H219.48C219.034 21.8643 218.651 22.0151 218.332 22.3167C218.022 22.6273 217.867 22.9954 217.867 23.4213C217.867 23.856 218.022 24.2285 218.332 24.539C218.651 24.8407 219.034 24.9915 219.48 24.9915H221.285V26.7481C221.285 27.1828 221.44 27.5509 221.75 27.8526C222.069 28.1631 222.447 28.3183 222.885 28.3183C223.331 28.3183 223.714 28.1631 224.033 27.8526C224.343 27.5509 224.498 27.1828 224.498 26.7481V24.9915H226.303C226.749 24.9915 227.128 24.8407 227.437 24.539C227.756 24.2285 227.916 23.856 227.916 23.4213C227.916 22.9954 227.756 22.6273 227.437 22.3167C227.128 22.0151 226.749 21.8643 226.303 21.8643H224.498Z" fill="#F45D48"/>
</svg>
